<svg xmlns="http://www.w3.org/2000/svg" xmlns:xlink="http://www.w3.org/1999/xlink" viewBox="0 0 231.9 231.9"><defs><style>.cls-1{isolation:isolate;}.cls-2{opacity:0.83;fill:url(#radial-gradient);}.cls-2,.cls-3{mix-blend-mode:color-dodge;}.cls-3{opacity:0.45;}.cls-4{fill:#2f3543;}.cls-5{fill:#3b4355;}.cls-6{fill:#475066;}.cls-7{fill:#535e76;}.cls-8{fill:#5f6b87;}.cls-9{fill:#6b7999;}.cls-10{fill:#7786aa;}.cls-11{fill:#8394bb;}.cls-12{fill:#8fa1cc;}.cls-13{fill:#9baedc;}.cls-14{fill:#a7bcee;}.cls-15{fill:#b3caff;}</style><radialGradient id="radial-gradient" cx="115.95" cy="115.95" r="115.95" gradientUnits="userSpaceOnUse"><stop offset="0" stop-color="#0e636b"/><stop offset="1" stop-color="#0e636b" stop-opacity="0"/></radialGradient></defs><g class="cls-1"><g id="Layer_2" data-name="Layer 2"><g id="OBJECTS"><circle class="cls-2" cx="115.95" cy="115.95" r="115.95"/><g class="cls-3"><path d="M119.89,31.21c1.61.16,1.07,3,.82,5.25-.83,7.48-3.48,21.91-3.81,21.83s.22-14.65,1-22.13C118.2,33.79,118.28,31,119.89,31.21Z"/><path class="cls-4" d="M119.88,31.23c1.51.15,1,2.76.79,4.87-.75,6.89-3.21,20.13-3.53,20.06s.15-13.46.91-20.35C118.29,33.61,118.39,31.08,119.88,31.23Z"/><path class="cls-5" d="M119.88,31.25c1.39.15,1,2.54.76,4.49-.69,6.29-3,18.35-3.27,18.28s.1-12.27.79-18.55C118.38,33.44,118.5,31.11,119.88,31.25Z"/><path class="cls-6" d="M119.88,31.28c1.28.13.93,2.32.73,4.1-.63,5.69-2.68,16.56-3,16.5s0-11.07.66-16.76C118.47,33.26,118.6,31.14,119.88,31.28Z"/><path class="cls-7" d="M119.87,31.3c1.18.12.89,2.1.71,3.72-.56,5.09-2.42,14.78-2.74,14.72s0-9.87.54-15C118.56,33.09,118.71,31.18,119.87,31.3Z"/><path class="cls-8" d="M119.87,31.32c1.06.11.84,1.88.68,3.34-.5,4.49-2.16,13-2.47,12.94s-.09-8.68.4-13.17C118.65,32.91,118.81,31.21,119.87,31.32Z"/><path class="cls-9" d="M119.87,31.35c.95.1.79,1.65.64,2.94-.42,3.9-1.89,11.23-2.2,11.18s-.15-7.49.28-11.39C118.74,32.74,118.92,31.25,119.87,31.35Z"/><path class="cls-10" d="M119.86,31.37c.85.09.75,1.43.62,2.56-.36,3.3-1.63,9.45-1.93,9.4s-.21-6.29.15-9.59C118.83,32.56,119,31.28,119.86,31.37Z"/><path class="cls-11" d="M119.86,31.39c.74.08.7,1.21.59,2.18-.3,2.71-1.36,7.67-1.67,7.62s-.27-5.1,0-7.8C118.92,32.39,119.13,31.32,119.86,31.39Z"/><path class="cls-12" d="M119.86,31.42c.62.06.65,1,.56,1.79-.23,2.11-1.1,5.89-1.4,5.84s-.33-3.9-.1-6C119,32.21,119.23,31.35,119.86,31.42Z"/><path class="cls-13" d="M119.85,31.44c.52.06.61.76.54,1.41-.17,1.51-.84,4.1-1.14,4.07s-.39-2.71-.22-4.22C119.1,32,119.34,31.39,119.85,31.44Z"/><path class="cls-14" d="M119.85,31.46c.41.05.56.54.5,1-.1.92-.57,2.33-.87,2.3s-.45-1.51-.35-2.43C119.19,31.86,119.44,31.42,119.85,31.46Z"/><path class="cls-15" d="M119.85,31.49a.55.55,0,0,1,.47.63.56.56,0,0,1-.6.52.58.58,0,0,1,.13-1.15Z"/><path d="M127.54,48.19c1.57.4.35,4.11-.45,7.12-2.63,9.91-8.77,28.91-9.07,28.77s3.75-19.57,6.38-29.48C125.24,51.45,126,47.79,127.54,48.19Z"/><path class="cls-4" d="M127.53,48.22c1.46.37.36,3.81-.39,6.6-2.42,9.12-8.07,26.56-8.37,26.43s3.4-18,5.82-27.1C125.37,51.23,126.08,47.85,127.53,48.22Z"/><path class="cls-5" d="M127.52,48.25c1.36.35.36,3.51-.32,6.09-2.21,8.33-7.38,24.2-7.68,24.08s3-16.39,5.26-24.72C125.5,51,126.17,47.91,127.52,48.25Z"/><path class="cls-6" d="M127.51,48.28c1.25.32.37,3.21-.25,5.57-2,7.54-6.69,21.85-7,21.73S123,60.78,125,53.24C125.63,50.78,126.27,48,127.51,48.28Z"/><path class="cls-7" d="M127.5,48.31c1.15.29.38,2.9-.19,5-1.79,6.75-6,19.51-6.29,19.39s2.36-13.21,4.15-20C125.76,50.56,126.37,48,127.5,48.31Z"/><path class="cls-8" d="M127.49,48.34c1,.27.39,2.6-.12,4.53-1.59,6-5.3,17.16-5.6,17.05s2-11.62,3.59-17.58C125.89,50.33,126.46,48.08,127.49,48.34Z"/><path class="cls-9" d="M127.49,48.37c.93.24.39,2.3-.07,4-1.37,5.16-4.6,14.8-4.9,14.69s1.66-10,3-15.19C126,50.11,126.56,48.14,127.49,48.37Z"/><path class="cls-10" d="M127.48,48.41c.82.21.39,2,0,3.49-1.16,4.38-3.91,12.45-4.21,12.35s1.31-8.43,2.47-12.81C126.16,49.88,126.66,48.19,127.48,48.41Z"/><path class="cls-11" d="M127.47,48.44c.71.18.4,1.69.06,3-1,3.59-3.21,10.1-3.51,10s1-6.85,1.92-10.43C126.29,49.66,126.75,48.25,127.47,48.44Z"/><path class="cls-12" d="M127.46,48.47c.61.16.41,1.39.13,2.45-.74,2.8-2.52,7.76-2.82,7.67s.62-5.26,1.36-8.05C126.42,49.44,126.85,48.31,127.46,48.47Z"/><path class="cls-13" d="M127.45,48.5c.5.13.42,1.08.19,1.94-.53,2-1.82,5.4-2.12,5.31s.27-3.66.8-5.66C126.55,49.21,127,48.37,127.45,48.5Z"/><path class="cls-14" d="M127.44,48.53c.4.1.43.78.26,1.42-.32,1.21-1.13,3-1.42,3s-.09-2.07.23-3.28C126.68,49,127,48.43,127.44,48.53Z"/><path class="cls-15" d="M127.43,48.56c.29.08.44.48.32.9s-.43.7-.72.63-.44-.48-.33-.91S127.14,48.48,127.43,48.56Z"/><path d="M133.29,72.81c1.39.83-.16,3-1.24,4.76-3.55,5.92-11.38,16.88-11.64,16.68s5.7-12.19,9.26-18.11C130.8,74.26,131.9,72,133.29,72.81Z"/><path class="cls-4" d="M133.28,72.83c1.3.77-.12,2.75-1.12,4.42-3.27,5.45-10.47,15.5-10.73,15.3s5.2-11.21,8.47-16.66C130.94,74.15,132,72.07,133.28,72.83Z"/><path class="cls-5" d="M133.27,72.85c1.2.71-.08,2.55-1,4.09-3,5-9.57,14.11-9.83,13.92s4.7-10.24,7.69-15.21C131.09,74,132.07,72.14,133.27,72.85Z"/><path class="cls-6" d="M133.25,72.87c1.11.66,0,2.34-.88,3.75-2.7,4.5-8.65,12.74-8.91,12.55s4.19-9.26,6.89-13.77C131.24,73.93,132.15,72.21,133.25,72.87Z"/><path class="cls-7" d="M133.24,72.89c1,.6,0,2.13-.76,3.41-2.42,4-7.75,11.36-8,11.18s3.69-8.29,6.11-12.32C131.38,73.83,132.23,72.29,133.24,72.89Z"/><path class="cls-8" d="M133.23,72.9c.92.55.05,1.93-.64,3.09-2.14,3.55-6.84,10-7.1,9.8s3.18-7.32,5.32-10.87C131.53,73.72,132.31,72.36,133.23,72.9Z"/><path class="cls-9" d="M133.22,72.92c.82.49.09,1.72-.52,2.75-1.86,3.08-5.93,8.6-6.2,8.42s2.68-6.33,4.54-9.42C131.68,73.61,132.4,72.43,133.22,72.92Z"/><path class="cls-10" d="M133.21,72.94c.73.43.13,1.52-.41,2.41-1.57,2.61-5,7.23-5.28,7.05s2.18-5.36,3.75-8C131.82,73.5,132.48,72.51,133.21,72.94Z"/><path class="cls-11" d="M133.19,73c.64.38.18,1.31-.28,2.07-1.29,2.15-4.11,5.85-4.37,5.68s1.67-4.39,3-6.53C132,73.39,132.56,72.58,133.19,73Z"/><path class="cls-12" d="M133.18,73c.54.32.22,1.1-.16,1.74-1,1.67-3.21,4.46-3.47,4.3s1.17-3.41,2.17-5.08C132.12,73.28,132.64,72.66,133.18,73Z"/><path class="cls-13" d="M133.17,73c.45.26.26.89,0,1.4-.71,1.2-2.29,3.09-2.55,2.93s.66-2.44,1.38-3.63C132.26,73.17,132.72,72.73,133.17,73Z"/><path class="cls-14" d="M133.16,73c.35.21.3.69.07,1.07-.43.73-1.39,1.71-1.65,1.55s.16-1.45.6-2.18C132.41,73.06,132.81,72.8,133.16,73Z"/><path class="cls-15" d="M133.15,73a.55.55,0,0,1,.19.74.54.54,0,0,1-.93-.56A.54.54,0,0,1,133.15,73Z"/><path d="M158.05,65.36c1.14,1.15-3.14,5-6.44,8.12C140.77,83.9,119,103.41,118.78,103.12s20.06-21.22,30.9-31.65C153.12,68.17,156.92,64.21,158.05,65.36Z"/><path class="cls-4" d="M158,65.39c1.07,1.07-2.88,4.6-5.94,7.54-10,9.6-30,27.49-30.19,27.2S140.27,80.62,150.25,71C153.44,68,157,64.32,158,65.39Z"/><path class="cls-5" d="M158,65.42c1,1-2.62,4.25-5.44,7-9.12,8.76-27.38,25-27.56,24.76s16.71-17.8,25.83-26.56C153.75,67.76,157,64.43,158,65.42Z"/><path class="cls-6" d="M158,65.46c.9.91-2.36,3.9-4.95,6.38-8.25,7.93-24.74,22.61-24.92,22.33s15-16.1,23.29-24C154.06,67.55,157,64.54,158,65.46Z"/><path class="cls-7" d="M157.91,65.49c.83.84-2.09,3.55-4.44,5.81-7.39,7.1-22.11,20.16-22.3,19.89S144.55,76.8,151.93,69.7C154.38,67.35,157.09,64.65,157.91,65.49Z"/><path class="cls-8" d="M157.88,65.52c.75.76-1.84,3.2-3.95,5.23-6.52,6.27-19.47,17.72-19.66,17.46S146,75.52,152.49,69.26C154.69,67.14,157.13,64.76,157.88,65.52Z"/><path class="cls-9" d="M157.84,65.55c.67.69-1.57,2.85-3.45,4.66-5.65,5.43-16.83,15.28-17,15s10-11,15.68-16.42C155,66.94,157.17,64.87,157.84,65.55Z"/><path class="cls-10" d="M157.81,65.58c.59.61-1.31,2.51-2.95,4.08-4.79,4.61-14.2,12.84-14.39,12.59s8.36-9.28,13.14-13.88C155.32,66.74,157.21,65,157.81,65.58Z"/><path class="cls-11" d="M157.77,65.62c.52.52-1,2.15-2.45,3.5-3.92,3.77-11.56,10.39-11.75,10.15s6.68-7.57,10.61-11.34C155.63,66.53,157.26,65.09,157.77,65.62Z"/><path class="cls-12" d="M157.74,65.65c.44.45-.79,1.8-2,2.92-3.05,2.94-8.91,8-9.11,7.72s5-5.87,8.07-8.8C155.94,66.33,157.3,65.2,157.74,65.65Z"/><path class="cls-13" d="M157.7,65.68c.37.37-.52,1.45-1.45,2.35-2.19,2.11-6.28,5.51-6.48,5.28s3.34-4.16,5.53-6.27C156.26,66.12,157.34,65.31,157.7,65.68Z"/><path class="cls-14" d="M157.67,65.71c.28.3-.26,1.1-1,1.77-1.33,1.28-3.64,3.07-3.85,2.85s1.67-2.46,3-3.73C156.57,65.92,157.38,65.42,157.67,65.71Z"/><path class="cls-15" d="M157.63,65.75c.21.21,0,.75-.46,1.19s-1,.63-1.21.41,0-.75.46-1.19S157.42,65.53,157.63,65.75Z"/><path d="M162.4,46.73c1.25,1-1,3.33-2.65,5.27-5.44,6.41-16.82,18.19-17.05,17.94s9.49-13.33,14.93-19.73C159.35,48.17,161.17,45.7,162.4,46.73Z"/><path class="cls-4" d="M162.38,46.75c1.16,1-.89,3.1-2.43,4.91-5,5.89-15.47,16.69-15.69,16.45S152.93,55.85,157.94,50C159.54,48.06,161.23,45.79,162.38,46.75Z"/><path class="cls-5" d="M162.37,46.77c1.07.9-.8,2.87-2.21,4.54-4.58,5.38-14.13,15.2-14.35,15s7.87-11.2,12.44-16.59C159.73,48,161.3,45.88,162.37,46.77Z"/><path class="cls-6" d="M162.35,46.79c1,.83-.69,2.64-2,4.17-4.14,4.87-12.77,13.72-13,13.48s7.06-10.13,11.2-15C159.91,47.84,161.36,46,162.35,46.79Z"/><path class="cls-7" d="M162.33,46.81c.91.76-.59,2.41-1.77,3.8-3.7,4.36-11.42,12.23-11.64,12s6.25-9.07,10-13.44C160.1,47.73,161.43,46.06,162.33,46.81Z"/><path class="cls-8" d="M162.31,46.83c.82.68-.49,2.18-1.55,3.43C157.49,54.11,150.7,61,150.47,60.78s5.44-8,8.71-11.87C160.28,47.62,161.5,46.15,162.31,46.83Z"/><path class="cls-9" d="M162.3,46.85c.73.61-.39,1.95-1.33,3.06-2.84,3.34-8.72,9.26-8.94,9s4.63-7,7.46-10.29C160.47,47.5,161.56,46.23,162.3,46.85Z"/><path class="cls-10" d="M162.28,46.87c.65.54-.29,1.72-1.11,2.69-2.4,2.83-7.36,7.77-7.59,7.55s3.82-5.88,6.22-8.71C160.66,47.39,161.63,46.32,162.28,46.87Z"/><path class="cls-11" d="M162.26,46.89c.57.47-.18,1.49-.89,2.32-2,2.32-6,6.28-6.24,6.07s3-4.82,5-7.14C160.84,47.28,161.7,46.41,162.26,46.89Z"/><path class="cls-12" d="M162.24,46.91c.48.4-.08,1.26-.66,2-1.54,1.81-4.66,4.8-4.89,4.59s2.2-3.76,3.73-5.57C161,47.17,161.76,46.5,162.24,46.91Z"/><path class="cls-13" d="M162.22,46.93c.4.33,0,1-.44,1.58-1.1,1.3-3.31,3.31-3.54,3.11s1.4-2.7,2.49-4C161.22,47.06,161.83,46.59,162.22,46.93Z"/><path class="cls-14" d="M162.21,47c.31.26.12.8-.23,1.21-.66.78-1.95,1.82-2.18,1.63s.58-1.64,1.25-2.42C161.4,47,161.89,46.68,162.21,47Z"/><path class="cls-15" d="M162.19,47a.59.59,0,0,1,0,.84.59.59,0,0,1-.83.14.59.59,0,0,1,0-.84A.59.59,0,0,1,162.19,47Z"/><path d="M142.14,44.29c1.45.72.1,2.86-.8,4.65-3,5.9-9.76,16.89-10,16.71s4.55-12.06,7.55-18C139.8,45.82,140.7,43.57,142.14,44.29Z"/><path class="cls-4" d="M142.13,44.31c1.35.67.13,2.66-.72,4.32-2.75,5.43-9,15.51-9.25,15.33s4.15-11.09,6.9-16.52C139.94,45.7,140.78,43.64,142.13,44.31Z"/><path class="cls-5" d="M142.12,44.33c1.25.62.15,2.46-.63,4-2.51,5-8.2,14.13-8.48,14s3.74-10.13,6.25-15.09C140.07,45.59,140.87,43.7,142.12,44.33Z"/><path class="cls-6" d="M142.11,44.34c1.15.58.17,2.26-.54,3.67-2.28,4.49-7.43,12.75-7.7,12.58s3.32-9.16,5.6-13.65C140.21,45.48,141,43.77,142.11,44.34Z"/><path class="cls-7" d="M142.1,44.36c1.05.53.2,2.06-.45,3.34-2,4-6.65,11.37-6.93,11.21s2.91-8.2,4.95-12.21C140.35,45.37,141.05,43.84,142.1,44.36Z"/><path class="cls-8" d="M142.09,44.38c.95.48.22,1.86-.36,3-1.8,3.54-5.88,10-6.15,9.83s2.5-7.23,4.29-10.77C140.48,45.25,141.13,43.9,142.09,44.38Z"/><path class="cls-9" d="M142.08,44.4c.86.43.24,1.65-.28,2.68-1.56,3.07-5.1,8.61-5.37,8.45s2.09-6.25,3.65-9.33C140.62,45.14,141.22,44,142.08,44.4Z"/><path class="cls-10" d="M142.07,44.42c.76.38.26,1.45-.19,2.34-1.32,2.61-4.32,7.24-4.6,7.09s1.68-5.29,3-7.9C140.75,45,141.31,44,142.07,44.42Z"/><path class="cls-11" d="M142.06,44.43c.66.34.29,1.26-.1,2-1.08,2.14-3.55,5.86-3.82,5.71s1.26-4.32,2.35-6.45C140.89,44.92,141.4,44.1,142.06,44.43Z"/><path class="cls-12" d="M142.05,44.45c.56.29.31,1.06,0,1.69-.85,1.66-2.78,4.48-3,4.33s.86-3.35,1.7-5C141,44.8,141.49,44.17,142.05,44.45Z"/><path class="cls-13" d="M142,44.47c.46.23.33.85.07,1.36-.6,1.19-2,3.1-2.26,3s.44-2.39,1-3.58C141.16,44.69,141.57,44.24,142,44.47Z"/><path class="cls-14" d="M142,44.49c.36.18.35.65.16,1-.36.72-1.22,1.72-1.49,1.58s0-1.42.4-2.14C141.29,44.58,141.66,44.3,142,44.49Z"/><path class="cls-15" d="M142,44.51a.51.51,0,1,1-.72.21A.52.52,0,0,1,142,44.51Z"/><path d="M118.09,87.29c1.56.42,1,1.73.67,2.82-1,3.6-3.9,10.32-4.21,10.21s.55-7.34,1.53-10.94C116.39,88.24,116.53,86.87,118.09,87.29Z"/><path class="cls-4" d="M118.08,87.3c1.46.39.93,1.61.66,2.62-.9,3.31-3.6,9.48-3.91,9.37s.46-6.75,1.36-10.06C116.48,88.17,116.63,86.91,118.08,87.3Z"/><path class="cls-5" d="M118.08,87.31c1.35.36.89,1.48.64,2.42-.83,3-3.31,8.63-3.62,8.53s.38-6.16,1.2-9.18C116.57,88.1,116.73,87,118.08,87.31Z"/><path class="cls-6" d="M118.07,87.32c1.25.34.86,1.36.62,2.22-.74,2.74-3,7.79-3.31,7.7s.29-5.58,1-8.32C116.66,88,116.83,87,118.07,87.32Z"/><path class="cls-7" d="M118.07,87.33c1.14.31.81,1.24.6,2-.67,2.45-2.7,7-3,6.86s.21-5,.87-7.44C116.75,88,116.94,87,118.07,87.33Z"/><path class="cls-8" d="M118.07,87.34c1,.28.77,1.12.58,1.82-.59,2.17-2.41,6.11-2.71,6s.12-4.4.7-6.56C116.84,87.89,117,87.07,118.07,87.34Z"/><path class="cls-9" d="M118.06,87.35c.93.25.73,1,.56,1.62-.5,1.88-2.1,5.27-2.4,5.18s0-3.81.54-5.68C116.93,87.82,117.14,87.11,118.06,87.35Z"/><path class="cls-10" d="M118.06,87.37c.82.22.69.87.54,1.42-.43,1.58-1.8,4.42-2.1,4.33s-.06-3.21.37-4.8C117,87.75,117.24,87.15,118.06,87.37Z"/><path class="cls-11" d="M118.05,87.38c.72.19.66.75.53,1.22-.35,1.3-1.51,3.58-1.81,3.49s-.14-2.62.22-3.93C117.12,87.68,117.34,87.19,118.05,87.38Z"/><path class="cls-12" d="M118.05,87.39c.61.16.61.63.51,1-.28,1-1.21,2.74-1.51,2.65s-.23-2,0-3C117.21,87.61,117.44,87.22,118.05,87.39Z"/><path class="cls-13" d="M118.05,87.4a.61.61,0,0,1,.48.82c-.19.73-.9,1.9-1.2,1.81s-.32-1.44-.12-2.17A.62.62,0,0,1,118.05,87.4Z"/><path class="cls-14" d="M118,87.41c.4.11.53.39.47.62-.12.44-.61,1.06-.9,1s-.4-.85-.28-1.29C117.39,87.47,117.65,87.3,118,87.41Z"/><path class="cls-15" d="M118,87.42c.29.08.49.27.45.42s-.31.21-.6.14-.49-.27-.45-.42S117.75,87.34,118,87.42Z"/><path d="M93.5,49.85c1.55-.47,2.84,4.88,4,9.09,4,13.88,10.72,41.16,10.38,41.18S98.87,73.59,94.88,59.71C93.62,55.31,92,50.32,93.5,49.85Z"/><path class="cls-4" d="M93.51,49.89c1.44-.43,2.66,4.5,3.79,8.42,3.66,12.77,9.82,37.82,9.49,37.84S98.43,71.81,94.76,59C93.59,55,92.07,50.33,93.51,49.89Z"/><path class="cls-5" d="M93.52,49.94c1.34-.41,2.48,4.12,3.52,7.73,3.35,11.67,8.94,34.49,8.61,34.52S98,70,94.64,58.36C93.56,54.59,92.19,50.34,93.52,49.94Z"/><path class="cls-6" d="M93.53,50c1.24-.37,2.3,3.74,3.25,7.05,3,10.56,8.06,31.15,7.73,31.19s-7-20-10-30.54C93.53,54.23,92.3,50.35,93.53,50Z"/><path class="cls-7" d="M93.54,50c1.13-.34,2.12,3.36,3,6.36,2.71,9.46,7.16,27.82,6.84,27.86S97.11,66.46,94.4,57C93.5,53.87,92.42,50.36,93.54,50Z"/><path class="cls-8" d="M93.56,50.07c1-.31,1.93,3,2.71,5.69,2.39,8.34,6.28,24.48,6,24.53s-5.56-15.62-8-24C93.47,53.52,92.54,50.38,93.56,50.07Z"/><path class="cls-9" d="M93.57,50.11c.92-.27,1.75,2.61,2.44,5,2.08,7.24,5.39,21.15,5.08,21.2s-4.86-13.43-6.94-20.67C93.44,53.16,92.65,50.39,93.57,50.11Z"/><path class="cls-10" d="M93.58,50.16c.81-.24,1.57,2.22,2.17,4.32,1.76,6.13,4.51,17.82,4.2,17.87S95.79,61.11,94,55C93.41,52.8,92.77,50.4,93.58,50.16Z"/><path class="cls-11" d="M93.59,50.2C94.3,50,95,52.05,95.5,53.85c1.44,5,3.62,14.47,3.31,14.53s-3.46-9.06-4.9-14.08C93.37,52.44,92.89,50.41,93.59,50.2Z"/><path class="cls-12" d="M93.6,50.25c.61-.18,1.21,1.46,1.64,3,1.12,3.91,2.73,11.14,2.43,11.21s-2.76-6.88-3.88-10.79C93.34,52.08,93,50.42,93.6,50.25Z"/><path class="cls-13" d="M93.61,50.29c.5-.15,1,1.09,1.37,2.28.81,2.81,1.85,7.81,1.55,7.88s-2.06-4.7-2.86-7.5C93.31,51.72,93.12,50.44,93.61,50.29Z"/><path class="cls-14" d="M93.63,50.33c.39-.11.84.71,1.09,1.6.49,1.7,1,4.48.67,4.55S94,54,93.54,52.27C93.28,51.37,93.23,50.45,93.63,50.33Z"/><path class="cls-15" d="M93.64,50.38c.29-.08.66.33.83.92s.07,1.13-.22,1.22-.66-.33-.83-.92S93.35,50.46,93.64,50.38Z"/><path d="M108.72,65.53c1.62-.15,1.63,2.67,1.83,4.91.65,7.36.84,21.77.51,21.77s-2.64-14.16-3.28-21.53C107.57,68.35,107.12,65.68,108.72,65.53Z"/><path class="cls-4" d="M108.72,65.55c1.51-.14,1.55,2.47,1.73,4.55.59,6.77.76,20,.43,20s-2.47-13-3.06-19.77C107.63,68.16,107.23,65.7,108.72,65.55Z"/><path class="cls-5" d="M108.73,65.58c1.39-.13,1.45,2.26,1.62,4.17.54,6.19.67,18.25.34,18.25s-2.29-11.84-2.83-18C107.68,68,107.34,65.71,108.73,65.58Z"/><path class="cls-6" d="M108.73,65.6c1.28-.12,1.36,2.05,1.51,3.81.5,5.6.59,16.48.27,16.48s-2.12-10.67-2.61-16.27C107.74,67.79,107.45,65.72,108.73,65.6Z"/><path class="cls-7" d="M108.73,65.62c1.17-.11,1.27,1.85,1.41,3.45.44,5,.5,14.71.18,14.72s-1.95-9.51-2.39-14.53C107.79,67.6,107.56,65.73,108.73,65.62Z"/><path class="cls-8" d="M108.73,65.65c1.06-.1,1.18,1.64,1.31,3.08.39,4.42.41,12.94.09,13s-1.77-8.35-2.16-12.77C107.84,67.41,107.67,65.75,108.73,65.65Z"/><path class="cls-9" d="M108.73,65.67c1-.09,1.1,1.44,1.21,2.71.34,3.84.32,11.19,0,11.2s-1.6-7.19-1.94-11C107.9,67.23,107.78,65.76,108.73,65.67Z"/><path class="cls-10" d="M108.73,65.69c.85-.07,1,1.24,1.11,2.35.28,3.25.24,9.42-.08,9.43s-1.42-6-1.71-9.27C108,67,107.89,65.77,108.73,65.69Z"/><path class="cls-11" d="M108.73,65.72c.74-.07.92,1,1,2,.23,2.66.15,7.65-.16,7.67s-1.26-4.86-1.49-7.53C108,66.86,108,65.79,108.73,65.72Z"/><path class="cls-12" d="M108.73,65.74c.63-.06.83.82.9,1.62.19,2.07.07,5.88-.24,5.9s-1.08-3.69-1.26-5.77C108.06,66.67,108.11,65.8,108.73,65.74Z"/><path class="cls-13" d="M108.73,65.76c.52,0,.75.62.8,1.25.13,1.49,0,4.12-.32,4.15s-.91-2.54-1-4C108.11,66.48,108.22,65.81,108.73,65.76Z"/><path class="cls-14" d="M108.74,65.79c.4,0,.65.41.69.88.08.9-.11,2.36-.41,2.38s-.73-1.37-.81-2.27C108.16,66.3,108.33,65.82,108.74,65.79Z"/><path class="cls-15" d="M108.74,65.81a.56.56,0,0,1,.59.52.54.54,0,1,1-1.08.1A.56.56,0,0,1,108.74,65.81Z"/><path d="M99.49,38.59c1.58-.37,1.91,2.1,2.35,4,1.46,6.36,3.25,19,2.92,19s-4.17-12-5.63-18.4C98.67,41.23,97.93,39,99.49,38.59Z"/><path class="cls-4" d="M99.5,38.61c1.47-.35,1.79,1.93,2.2,3.73,1.34,5.86,3,17.44,2.65,17.49s-3.88-11-5.22-16.9C98.7,41.06,98,39,99.5,38.61Z"/><path class="cls-5" d="M99.5,38.63c1.36-.32,1.69,1.77,2.07,3.42,1.22,5.36,2.68,15.91,2.36,16s-3.58-10-4.8-15.4C98.73,40.88,98.15,39,99.5,38.63Z"/><path class="cls-6" d="M99.5,38.65c1.26-.29,1.58,1.6,1.93,3.12,1.1,4.84,2.4,14.37,2.08,14.42s-3.27-9-4.38-13.9C98.77,40.71,98.26,38.94,99.5,38.65Z"/><path class="cls-7" d="M99.51,38.67c1.15-.27,1.46,1.43,1.78,2.81,1,4.34,2.12,12.84,1.81,12.89s-3-8.06-4-12.39C98.8,40.54,98.37,38.94,99.51,38.67Z"/><path class="cls-8" d="M99.51,38.69c1-.24,1.36,1.27,1.64,2.51C102,45,103,52.5,102.68,52.55S100,45.49,99.13,41.66C98.83,40.37,98.48,38.93,99.51,38.69Z"/><path class="cls-9" d="M99.52,38.71c.93-.22,1.24,1.1,1.49,2.2.76,3.32,1.56,9.77,1.25,9.82s-2.38-6.07-3.13-9.39C98.86,40.2,98.59,38.93,99.52,38.71Z"/><path class="cls-10" d="M99.52,38.73c.83-.19,1.13.93,1.35,1.9.64,2.81,1.28,8.22,1,8.28S99.77,43.84,99.12,41C98.9,40,98.7,38.92,99.52,38.73Z"/><path class="cls-11" d="M99.52,38.75c.72-.17,1,.77,1.21,1.59.53,2.31,1,6.69.7,6.75S99.65,43,99.12,40.71C98.93,39.86,98.81,38.92,99.52,38.75Z"/><path class="cls-12" d="M99.53,38.77c.61-.14.91.6,1.07,1.29.41,1.79.71,5.15.41,5.21s-1.48-3.08-1.89-4.88C99,39.69,98.92,38.91,99.53,38.77Z"/><path class="cls-13" d="M99.53,38.79c.51-.12.8.43.93,1,.29,1.29.43,3.62.14,3.68s-1.18-2.09-1.48-3.37C99,39.52,99,38.91,99.53,38.79Z"/><path class="cls-14" d="M99.53,38.81c.4-.09.69.27.79.68.18.78.15,2.08-.14,2.14s-.88-1.09-1.06-1.87C99,39.34,99.14,38.9,99.53,38.81Z"/><path class="cls-15" d="M99.54,38.83a.5.5,0,1,1,.22,1,.52.52,0,0,1-.64-.37A.53.53,0,0,1,99.54,38.83Z"/><path d="M130.77,176c-1.54.5-3.19-5.63-4.68-10.48-4.91-16-13.44-47.28-13.1-47.29s10.85,30.52,15.76,46.47C130.31,169.73,132.3,175.47,130.77,176Z"/><path class="cls-4" d="M130.76,175.92c-1.44.47-3-5.2-4.37-9.7-4.52-14.68-12.33-43.44-12-43.46s10,28,14.52,42.69C130.36,170.14,132.19,175.46,130.76,175.92Z"/><path class="cls-5" d="M130.74,175.87c-1.33.43-2.77-4.76-4.05-8.91-4.12-13.41-11.22-39.62-10.89-39.64s9.16,25.5,13.28,38.9C130.41,170.55,132.07,175.44,130.74,175.87Z"/><path class="cls-6" d="M130.73,175.82c-1.23.4-2.56-4.32-3.74-8.13-3.73-12.13-10.11-35.78-9.79-35.81s8.31,23,12,35.12C130.47,171,132,175.42,130.73,175.82Z"/><path class="cls-7" d="M130.71,175.77c-1.12.36-2.35-3.89-3.42-7.34-3.34-10.87-9-32-8.68-32s7.46,20.48,10.8,31.34C130.52,171.37,131.83,175.41,130.71,175.77Z"/><path class="cls-8" d="M130.7,175.72c-1,.33-2.15-3.45-3.1-6.56-3-9.59-7.91-28.12-7.59-28.17s6.62,18,9.57,27.56C130.57,171.78,131.71,175.39,130.7,175.72Z"/><path class="cls-9" d="M130.68,175.67c-.91.29-1.93-3-2.78-5.78-2.56-8.31-6.8-24.29-6.48-24.34s5.76,15.46,8.32,23.77C130.63,172.19,131.59,175.37,130.68,175.67Z"/><path class="cls-10" d="M130.67,175.62c-.81.26-1.73-2.58-2.47-5-2.17-7-5.69-20.46-5.38-20.52s4.92,12.95,7.09,20C130.68,172.6,131.48,175.36,130.67,175.62Z"/><path class="cls-11" d="M130.66,175.57c-.71.22-1.53-2.14-2.16-4.21-1.78-5.77-4.58-16.62-4.28-16.69s4.08,10.44,5.86,16.21C130.73,173,131.36,175.34,130.66,175.57Z"/><path class="cls-12" d="M130.64,175.52c-.6.19-1.31-1.7-1.84-3.43-1.39-4.49-3.47-12.79-3.17-12.86s3.23,7.92,4.61,12.42C130.79,173.42,131.24,175.33,130.64,175.52Z"/><path class="cls-13" d="M130.63,175.47c-.5.15-1.11-1.27-1.53-2.64-1-3.23-2.36-9-2.07-9s2.38,5.41,3.38,8.64C130.84,173.83,131.12,175.31,130.63,175.47Z"/><path class="cls-14" d="M130.61,175.42c-.39.12-.9-.83-1.21-1.86-.6-1.95-1.25-5.13-1-5.21s1.53,2.9,2.13,4.85C130.89,174.24,131,175.29,130.61,175.42Z"/><path class="cls-15" d="M130.6,175.37c-.29.08-.69-.4-.9-1.07s-.15-1.3.14-1.39.69.39.9,1.07S130.88,175.28,130.6,175.37Z"/><path d="M95.09,174.91c-1.57-.38.11-6.08,1.28-10.68C100.22,149.1,108.74,120,109,120.11s-6.12,29.68-10,44.81C97.85,169.72,96.66,175.28,95.09,174.91Z"/><path class="cls-4" d="M95.1,174.86c-1.46-.35.07-5.62,1.16-9.89,3.54-13.93,11.38-40.69,11.68-40.53s-5.58,27.26-9.12,41.18C97.68,170.07,96.56,175.21,95.1,174.86Z"/><path class="cls-5" d="M95.12,174.81c-1.36-.33,0-5.17,1-9.11,3.23-12.72,10.39-37.08,10.69-36.94s-5,24.84-8.27,37.56C97.52,170.42,96.47,175.13,95.12,174.81Z"/><path class="cls-6" d="M95.13,174.76c-1.25-.3,0-4.72.9-8.33,2.93-11.5,9.41-33.48,9.71-33.35s-4.49,22.43-7.42,33.94C97.36,170.78,96.38,175.06,95.13,174.76Z"/><path class="cls-7" d="M95.14,174.72c-1.14-.28,0-4.27.78-7.55,2.62-10.3,8.42-29.89,8.72-29.76s-4,20-6.57,30.31C97.2,171.13,96.28,175,95.14,174.72Z"/><path class="cls-8" d="M95.16,174.67c-1-.25-.1-3.82.65-6.77,2.31-9.09,7.43-26.29,7.73-26.17s-3.41,17.59-5.72,26.68C97,171.48,96.19,174.92,95.16,174.67Z"/><path class="cls-9" d="M95.17,174.62c-.93-.22-.14-3.36.52-6,2-7.89,6.45-22.7,6.75-22.58s-2.86,15.17-4.87,23.05C96.88,171.83,96.1,174.85,95.17,174.62Z"/><path class="cls-10" d="M95.18,174.57c-.82-.2-.18-2.91.4-5.2,1.7-6.68,5.46-19.1,5.76-19s-2.32,12.75-4,19.43C96.71,172.19,96,174.77,95.18,174.57Z"/><path class="cls-11" d="M95.19,174.53c-.71-.18-.22-2.47.28-4.43,1.39-5.47,4.47-15.49,4.77-15.39s-1.78,10.33-3.17,15.8C96.55,172.54,95.91,174.7,95.19,174.53Z"/><path class="cls-12" d="M95.21,174.48c-.61-.15-.27-2,.14-3.64,1.09-4.27,3.5-11.9,3.79-11.81s-1.24,7.91-2.32,12.18C96.39,172.89,95.82,174.63,95.21,174.48Z"/><path class="cls-13" d="M95.22,174.43c-.5-.12-.31-1.56,0-2.86.78-3.06,2.51-8.3,2.8-8.21s-.69,5.49-1.47,8.55C96.23,173.24,95.72,174.56,95.22,174.43Z"/><path class="cls-14" d="M95.23,174.38c-.39-.1-.35-1.1-.1-2.08.47-1.85,1.52-4.7,1.81-4.62s-.15,3.08-.62,4.93C96.07,173.6,95.63,174.48,95.23,174.38Z"/><path class="cls-15" d="M95.25,174.34c-.29-.08-.4-.66-.23-1.3s.53-1.11.82-1,.39.65.23,1.3S95.54,174.41,95.25,174.34Z"/><path d="M177.54,127.91c-.38,1.57-6.19-.17-10.87-1.39-15.41-4-45.11-12.81-44.95-13.1s30.23,6.41,45.65,10.41C172.26,125.1,177.92,126.34,177.54,127.91Z"/><path class="cls-4" d="M177.49,127.89c-.36,1.47-5.73-.12-10.07-1.25C153.23,123,126,114.86,126.13,114.56s27.77,5.84,42,9.53C172.61,125.26,177.85,126.43,177.49,127.89Z"/><path class="cls-5" d="M177.44,127.88c-.33,1.36-5.27-.08-9.28-1.12-12.95-3.36-37.78-10.76-37.63-11.06s25.31,5.28,38.26,8.64C173,125.43,177.77,126.53,177.44,127.88Z"/><path class="cls-6" d="M177.39,127.87c-.3,1.25-4.8,0-8.48-1-11.72-3-34.11-9.74-34-10s22.84,4.72,34.56,7.76C173.33,125.59,177.7,126.62,177.39,127.87Z"/><path class="cls-7" d="M177.35,127.85c-.28,1.15-4.35,0-7.69-.85-10.5-2.72-30.45-8.72-30.32-9s20.38,4.14,30.87,6.87C173.69,125.76,177.63,126.71,177.35,127.85Z"/><path class="cls-8" d="M177.3,127.84c-.26,1-3.89.06-6.89-.72-9.27-2.4-26.79-7.7-26.66-8s17.91,3.58,27.18,6C174.05,125.92,177.55,126.81,177.3,127.84Z"/><path class="cls-9" d="M177.25,127.83c-.23.93-3.43.1-6.1-.59-8-2.08-23.11-6.67-23-7s15.45,3,23.49,5.1C174.41,126.09,177.48,126.9,177.25,127.83Z"/><path class="cls-10" d="M177.2,127.81c-.2.83-3,.16-5.3-.45-6.8-1.76-19.45-5.65-19.34-6s13,2.45,19.79,4.22C174.77,126.25,177.4,127,177.2,127.81Z"/><path class="cls-11" d="M177.15,127.8c-.17.72-2.5.2-4.5-.32-5.58-1.45-15.79-4.63-15.69-4.92s10.53,1.88,16.1,3.32C175.13,126.42,177.33,127.08,177.15,127.8Z"/><path class="cls-12" d="M177.1,127.79c-.15.61-2,.24-3.71-.19-4.34-1.13-12.12-3.61-12-3.9s8.06,1.31,12.4,2.44C175.49,126.59,177.26,127.18,177.1,127.79Z"/><path class="cls-13" d="M177.06,127.77c-.13.51-1.59.3-2.92,0-3.11-.81-8.45-2.58-8.36-2.88s5.59.75,8.71,1.56C175.85,126.75,177.18,127.27,177.06,127.77Z"/><path class="cls-14" d="M177,127.76c-.1.4-1.13.34-2.12.08-1.89-.49-4.79-1.56-4.71-1.85s3.13.17,5,.66C176.21,126.92,177.11,127.36,177,127.76Z"/><path class="cls-15" d="M177,127.75c-.08.29-.67.38-1.32.21s-1.13-.54-1-.83.66-.39,1.32-.22S177,127.45,177,127.75Z"/><path d="M44.34,94.71c.34-1.58,6.48.06,11.42,1.2,16.28,3.73,47.69,12,47.54,12.33s-31.88-5.89-48.16-9.62C50,97.43,44,96.29,44.34,94.71Z"/><path class="cls-4" d="M44.39,94.72c.32-1.47,6,0,10.59,1.08,15,3.44,43.81,11.08,43.66,11.38s-29.27-5.37-44.25-8.81C49.6,97.27,44.08,96.19,44.39,94.72Z"/><path class="cls-5" d="M44.44,94.74c.3-1.37,5.51,0,9.75,1,13.68,3.14,39.94,10.12,39.8,10.42s-26.67-4.84-40.36-8C49.22,97.11,44.15,96.1,44.44,94.74Z"/><path class="cls-6" d="M44.49,94.75c.27-1.26,5-.06,8.92.83,12.38,2.85,36.06,9.16,35.93,9.46s-24.08-4.31-36.46-7.16C48.83,97,44.23,96,44.49,94.75Z"/><path class="cls-7" d="M44.54,94.76c.25-1.15,4.55-.09,8.08.72C63.7,98,84.81,103.68,84.68,104s-21.47-3.8-32.56-6.34C48.45,96.79,44.3,95.91,44.54,94.76Z"/><path class="cls-8" d="M44.6,94.77c.22-1,4.06-.13,7.23.6,9.79,2.25,28.32,7.24,28.2,7.54s-18.88-3.27-28.66-5.52C48.07,96.64,44.37,95.81,44.6,94.77Z"/><path class="cls-9" d="M44.65,94.79c.2-.94,3.58-.17,6.4.47,8.48,1.95,24.44,6.28,24.33,6.58S59.1,99.1,50.61,97.15C47.69,96.48,44.45,95.72,44.65,94.79Z"/><path class="cls-10" d="M44.7,94.8c.18-.83,3.1-.21,5.56.36,7.19,1.65,20.57,5.32,20.47,5.61S57.05,98.55,49.86,96.9C47.3,96.32,44.52,95.63,44.7,94.8Z"/><path class="cls-11" d="M44.75,94.81c.16-.72,2.61-.25,4.72.24,5.89,1.35,16.7,4.36,16.6,4.66s-11.08-1.7-17-3C46.92,96.16,44.59,95.53,44.75,94.81Z"/><path class="cls-12" d="M44.8,94.82c.13-.61,2.13-.28,3.89.12,4.59,1.06,12.82,3.4,12.73,3.7s-8.48-1.17-13.07-2.23C46.54,96,44.67,95.44,44.8,94.82Z"/><path class="cls-13" d="M44.85,94.84c.11-.51,1.65-.33,3,0,3.29.76,9,2.45,8.87,2.74s-5.88-.65-9.17-1.4C46.16,95.84,44.74,95.34,44.85,94.84Z"/><path class="cls-14" d="M44.9,94.85c.09-.4,1.17-.36,2.21-.12,2,.45,5.08,1.48,5,1.77s-3.28-.12-5.27-.58C45.78,95.68,44.81,95.25,44.9,94.85Z"/><path class="cls-15" d="M45,94.86c.07-.29.69-.4,1.38-.24s1.2.52,1.13.82-.68.4-1.37.24S44.89,95.15,45,94.86Z"/><path d="M62.88,65.7c1.1-1.18,5.07,2.93,8.37,6.09,10.86,10.39,31.23,31.36,31,31.54s-22-19.14-32.87-29.53C65.88,70.5,61.78,66.88,62.88,65.7Z"/><path class="cls-4" d="M62.91,65.73c1-1.1,4.71,2.69,7.78,5.62,10,9.56,28.68,28.83,28.41,29S78.85,82.82,68.86,73.26C65.67,70.2,61.89,66.83,62.91,65.73Z"/><path class="cls-5" d="M62.94,65.77c1-1,4.36,2.44,7.18,5.14C79.25,79.64,96.26,97.2,96,97.39S77.52,81.45,68.4,72.72C65.45,69.9,62,66.79,62.94,65.77Z"/><path class="cls-6" d="M63,65.8c.88-.94,4,2.19,6.58,4.67,8.26,7.9,23.59,23.76,23.33,24s-16.7-14.35-25-22.26C65.23,69.59,62.1,66.74,63,65.8Z"/><path class="cls-7" d="M63,65.83c.81-.86,3.63,2,6,4.2,7.39,7.07,21,21.23,20.78,21.43S74.86,78.71,67.47,71.63C65,69.29,62.21,66.69,63,65.83Z"/><path class="cls-8" d="M63,65.87c.73-.78,3.28,1.69,5.39,3.72,6.53,6.25,18.5,18.7,18.25,18.9S73.53,77.33,67,71.09C64.8,69,62.32,66.65,63,65.87Z"/><path class="cls-9" d="M63.08,65.9c.65-.7,2.91,1.45,4.79,3.25,5.66,5.42,15.95,16.17,15.71,16.37s-11.39-9.56-17-15C64.58,68.68,62.43,66.6,63.08,65.9Z"/><path class="cls-10" d="M63.11,65.93c.58-.62,2.55,1.21,4.2,2.78,4.79,4.59,13.4,13.63,13.16,13.84s-9.61-8-14.4-12.55C64.36,68.37,62.53,66.55,63.11,65.93Z"/><path class="cls-11" d="M63.15,66c.5-.54,2.19,1,3.59,2.3C70.67,72,77.6,79.37,77.37,79.58S69.53,73.22,65.6,69.46C64.15,68.07,62.64,66.51,63.15,66Z"/><path class="cls-12" d="M63.18,66c.43-.46,1.83.71,3,1.83,3.06,2.93,8.31,8.57,8.08,8.78s-6.06-4.76-9.12-7.69C63.93,67.77,62.75,66.46,63.18,66Z"/><path class="cls-13" d="M63.21,66c.36-.37,1.47.46,2.41,1.36,2.19,2.1,5.76,6,5.54,6.25s-4.29-3.16-6.49-5.26C63.71,67.46,62.86,66.41,63.21,66Z"/><path class="cls-14" d="M63.25,66.07c.28-.3,1.11.21,1.8.88,1.33,1.27,3.22,3.51,3,3.72s-2.53-1.56-3.85-2.83C63.5,67.16,63,66.37,63.25,66.07Z"/><ellipse class="cls-15" cx="64.12" cy="66.9" rx="0.54" ry="1.16" transform="translate(-28.55 66.97) rotate(-46.26)"/><path d="M161.19,158.62c-1.11,1.18-5.39-3.29-8.94-6.73-11.67-11.31-33.61-34.06-33.32-34.24s23.59,20.93,35.26,32.25C157.89,153.49,162.29,157.45,161.19,158.62Z"/><path class="cls-4" d="M161.15,158.58c-1,1.1-5-3-8.29-6.2-10.74-10.41-30.88-31.32-30.6-31.5s21.7,19.19,32.43,29.6C158.13,153.81,162.18,157.49,161.15,158.58Z"/><path class="cls-5" d="M161.12,158.55c-1,1-4.62-2.74-7.66-5.69-9.81-9.51-28.14-28.56-27.86-28.75s19.79,17.45,29.6,27C158.36,154.14,162.07,157.53,161.12,158.55Z"/><path class="cls-6" d="M161.08,158.51c-.88.94-4.24-2.46-7-5.16-8.88-8.61-25.39-25.82-25.13-26s17.89,15.7,26.77,24.3C158.6,154.47,162,157.58,161.08,158.51Z"/><path class="cls-7" d="M161,158.47c-.81.86-3.85-2.19-6.38-4.64-7.94-7.7-22.65-23.06-22.39-23.25s16,14,23.93,21.66C158.84,154.79,161.85,157.62,161,158.47Z"/><path class="cls-8" d="M161,158.44c-.74.78-3.47-1.92-5.75-4.12-7-6.81-19.91-20.31-19.65-20.51s14.08,12.22,21.1,19C159.07,155.12,161.74,157.66,161,158.44Z"/><path class="cls-9" d="M161,158.4c-.66.7-3.08-1.64-5.1-3.6-6.09-5.9-17.18-17.56-16.93-17.76s12.19,10.47,18.27,16.37C159.31,155.45,161.63,157.71,161,158.4Z"/><path class="cls-10" d="M160.94,158.37c-.59.61-2.71-1.37-4.47-3.09-5.15-5-14.43-14.8-14.19-15S152.56,149,157.72,154C159.55,155.77,161.52,157.75,160.94,158.37Z"/><path class="cls-11" d="M160.9,158.33c-.51.54-2.32-1.1-3.83-2.56-4.22-4.09-11.69-12.06-11.46-12.26s8.39,7,12.61,11.07C159.78,156.1,161.41,157.79,160.9,158.33Z"/><path class="cls-12" d="M160.86,158.29c-.43.46-1.93-.82-3.19-2-3.29-3.19-8.95-9.3-8.72-9.51s6.48,5.24,9.77,8.43C160,156.42,161.3,157.84,160.86,158.29Z"/><path class="cls-13" d="M160.83,158.26c-.36.37-1.55-.55-2.56-1.52-2.35-2.29-6.21-6.55-6-6.76s4.58,3.49,6.94,5.77C160.26,156.75,161.18,157.88,160.83,158.26Z"/><path class="cls-14" d="M160.79,158.22c-.28.3-1.16-.27-1.91-1-1.43-1.38-3.47-3.8-3.26-4s2.68,1.74,4.11,3.13C160.49,157.08,161.07,157.93,160.79,158.22Z"/><path class="cls-15" d="M160.75,158.18c-.2.22-.78,0-1.27-.48s-.73-1-.52-1.26.78,0,1.27.48S161,158,160.75,158.18Z"/><path d="M44.84,127.59c-.42-1.56,5.55-2.82,10.27-4,15.54-3.89,46-10.43,46-10.09s-29.79,8.89-45.33,12.79C50.86,127.52,45.26,129.15,44.84,127.59Z"/><path class="cls-4" d="M44.89,127.58c-.39-1.46,5.12-2.64,9.5-3.74,14.3-3.58,42.28-9.56,42.29-9.23S69.34,122.82,55,126.4C50.46,127.55,45.28,129,44.89,127.58Z"/><path class="cls-5" d="M44.94,127.57c-.36-1.35,4.69-2.46,8.74-3.47,13.06-3.28,38.54-8.71,38.56-8.37s-24.9,7.52-38,10.79C50.07,127.58,45.3,128.92,44.94,127.57Z"/><path class="cls-6" d="M45,127.56c-.33-1.25,4.26-2.28,8-3.21,11.82-3,34.82-7.84,34.83-7.51s-22.44,6.84-34.26,9.8C49.67,127.6,45.32,128.8,45,127.56Z"/><path class="cls-7" d="M45,127.55c-.3-1.14,3.83-2.1,7.2-3,10.58-2.65,31.09-7,31.11-6.65s-20,6.15-30.57,8.8C49.27,127.63,45.34,128.68,45,127.55Z"/><path class="cls-8" d="M45.09,127.54c-.28-1,3.4-1.92,6.43-2.68,9.34-2.34,27.36-6.11,27.39-5.79s-17.54,5.46-26.88,7.8C48.88,127.66,45.36,128.57,45.09,127.54Z"/><path class="cls-9" d="M45.14,127.53c-.25-.93,3-1.75,5.66-2.42,8.1-2,23.63-5.25,23.67-4.93S59.37,125,51.27,127C48.48,127.69,45.38,128.45,45.14,127.53Z"/><path class="cls-10" d="M45.19,127.51c-.22-.82,2.54-1.56,4.9-2.15C57,123.64,70,121,70,121.29s-12.65,4.09-19.51,5.81C48.08,127.71,45.4,128.33,45.19,127.51Z"/><path class="cls-11" d="M45.24,127.5c-.19-.71,2.11-1.38,4.13-1.88,5.62-1.41,16.17-3.52,16.22-3.21s-10.2,3.4-15.82,4.81C47.69,127.74,45.42,128.22,45.24,127.5Z"/><path class="cls-12" d="M45.28,127.49c-.15-.61,1.69-1.2,3.37-1.62,4.38-1.1,12.44-2.65,12.5-2.35S53.4,126.24,49,127.34C47.29,127.77,45.44,128.1,45.28,127.49Z"/><path class="cls-13" d="M45.33,127.48c-.13-.5,1.27-1,2.6-1.36,3.14-.78,8.72-1.79,8.78-1.49s-5.3,2-8.44,2.82C46.89,127.8,45.46,128,45.33,127.48Z"/><path class="cls-14" d="M45.38,127.47c-.1-.4.84-.84,1.83-1.09,1.91-.48,5-.93,5.06-.64s-2.86,1.35-4.76,1.83C46.5,127.82,45.48,127.87,45.38,127.47Z"/><path class="cls-15" d="M45.43,127.46c-.07-.29.41-.66,1.07-.83s1.25-.06,1.33.23-.41.66-1.07.82S45.5,127.75,45.43,127.46Z"/><path d="M65.13,156.71c-1.16-1.13,3.08-5,6.34-8.23C82.2,137.86,103.81,118,104,118.27s-19.83,21.57-30.56,32.18C70,153.82,66.28,157.84,65.13,156.71Z"/><path class="cls-4" d="M65.16,156.68C64.08,155.62,68,152,71,149c9.87-9.77,29.72-28,29.9-27.72s-18.17,19.83-28,29.6C69.72,154,66.23,157.73,65.16,156.68Z"/><path class="cls-5" d="M65.2,156.65c-1-1,2.57-4.3,5.36-7.07,9-8.92,27.11-25.51,27.29-25.24s-16.52,18.1-25.53,27C69.4,154.24,66.19,157.62,65.2,156.65Z"/><path class="cls-6" d="M65.23,156.61c-.92-.9,2.31-3.94,4.87-6.47,8.16-8.08,24.5-23,24.69-22.76s-14.87,16.36-23,24.43C69.09,154.45,66.14,157.51,65.23,156.61Z"/><path class="cls-7" d="M65.26,156.58c-.84-.83,2.06-3.59,4.38-5.89,7.31-7.23,21.89-20.54,22.08-20.28S78.51,145,71.2,152.27C68.78,154.66,66.1,157.4,65.26,156.58Z"/><path class="cls-8" d="M65.3,156.55c-.76-.75,1.79-3.24,3.89-5.31,6.45-6.38,19.27-18.05,19.47-17.8s-11.56,12.9-18,19.28C68.47,154.87,66.06,157.29,65.3,156.55Z"/><path class="cls-9" d="M65.33,156.51c-.68-.67,1.54-2.88,3.4-4.71,5.59-5.54,16.67-15.57,16.86-15.32s-9.91,11.16-15.5,16.69C68.16,155.08,66,157.19,65.33,156.51Z"/><path class="cls-10" d="M65.37,156.48c-.61-.6,1.28-2.52,2.9-4.13,4.74-4.69,14.06-13.08,14.25-12.84s-8.25,9.43-13,14.11C67.85,155.29,66,157.08,65.37,156.48Z"/><path class="cls-11" d="M65.4,156.45c-.52-.52,1-2.17,2.41-3.55,3.88-3.84,11.45-10.59,11.65-10.35s-6.6,7.69-10.49,11.53C67.54,155.5,65.93,157,65.4,156.45Z"/><path class="cls-12" d="M65.44,156.42c-.45-.45.76-1.82,1.92-3,3-3,8.83-8.1,9-7.87s-5,6-8,8.95C67.23,155.71,65.88,156.86,65.44,156.42Z"/><path class="cls-13" d="M65.47,156.38c-.37-.36.5-1.46,1.43-2.37,2.17-2.15,6.22-5.62,6.42-5.4S70,152.84,67.86,155C66.91,155.92,65.84,156.75,65.47,156.38Z"/><path class="cls-14" d="M65.5,156.35c-.28-.29.25-1.11.94-1.79,1.31-1.3,3.61-3.13,3.82-2.91s-1.64,2.49-3,3.78C66.6,156.13,65.79,156.64,65.5,156.35Z"/><path class="cls-15" d="M65.54,156.32c-.21-.22,0-.75.44-1.21s1-.64,1.21-.43,0,.76-.44,1.21S65.75,156.53,65.54,156.32Z"/><path d="M176.35,93.11c.45,1.56-5.42,2.91-10.06,4.16C151,101.38,121,108.37,121,108s29.25-9.33,44.53-13.45C170.41,93.28,175.91,91.56,176.35,93.11Z"/><path class="cls-4" d="M176.31,93.12c.41,1.46-5,2.72-9.32,3.88-14.05,3.79-41.58,10.18-41.59,9.85s26.85-8.61,40.91-12.4C170.8,93.24,175.89,91.68,176.31,93.12Z"/><path class="cls-5" d="M176.26,93.14c.38,1.34-4.59,2.53-8.56,3.6-12.84,3.46-37.91,9.26-37.93,8.93s24.44-7.88,37.28-11.34C171.19,93.21,175.88,91.8,176.26,93.14Z"/><path class="cls-6" d="M176.21,93.15c.35,1.24-4.17,2.34-7.81,3.32-11.62,3.14-34.24,8.35-34.27,8s22-7.16,33.66-10.29C171.58,93.18,175.86,91.91,176.21,93.15Z"/><path class="cls-7" d="M176.16,93.16c.32,1.14-3.74,2.16-7,3-10.4,2.8-30.58,7.43-30.61,7.1s19.63-6.44,30-9.24C172,93.14,175.84,92,176.16,93.16Z"/><path class="cls-8" d="M176.11,93.17c.29,1-3.32,2-6.3,2.78-9.18,2.47-26.91,6.51-26.95,6.19s17.23-5.72,26.41-8.2C172.37,93.11,175.82,92.15,176.11,93.17Z"/><path class="cls-9" d="M176.06,93.19c.27.92-2.9,1.78-5.55,2.49-8,2.15-23.24,5.59-23.28,5.28s14.82-5,22.78-7.14C172.76,93.08,175.8,92.27,176.06,93.19Z"/><path class="cls-10" d="M176,93.2c.23.82-2.49,1.6-4.8,2.22-6.75,1.82-19.58,4.67-19.63,4.36s12.42-4.27,19.16-6.09C173.15,93,175.79,92.38,176,93.2Z"/><path class="cls-11" d="M176,93.21c.2.71-2.07,1.41-4.05,2-5.52,1.48-15.91,3.75-16,3.44s10-3.55,15.53-5C173.54,93,175.77,92.5,176,93.21Z"/><path class="cls-12" d="M175.92,93.22c.17.61-1.65,1.23-3.29,1.67-4.31,1.16-12.24,2.84-12.3,2.54s7.6-2.84,11.9-4C173.93,93,175.75,92.62,175.92,93.22Z"/><path class="cls-13" d="M175.87,93.23c.14.51-1.22,1-2.54,1.4-3.09.83-8.57,1.92-8.64,1.62s5.2-2.11,8.28-2.94C174.32,92.94,175.73,92.73,175.87,93.23Z"/><path class="cls-14" d="M175.82,93.25c.11.39-.8.85-1.78,1.11-1.87.51-4.91,1-5,.71s2.79-1.39,4.66-1.89C174.71,92.91,175.71,92.85,175.82,93.25Z"/><path class="cls-15" d="M175.77,93.26c.08.29-.38.67-1,.84s-1.24.08-1.32-.21.39-.66,1-.84S175.7,93,175.77,93.26Z"/><path d="M152.06,87.06c.83,1.39-1.92,2.73-4,4-6.93,4-20.93,11-21.06,10.66s12.73-9,19.66-13.07C148.83,87.33,151.24,85.67,152.06,87.06Z"/><path class="cls-4" d="M152,87.07c.77,1.3-1.76,2.55-3.72,3.69-6.37,3.72-19.24,10.06-19.37,9.76s11.67-8.32,18-12C149,87.29,151.27,85.78,152,87.07Z"/><path class="cls-5" d="M152,87.08c.71,1.21-1.6,2.38-3.4,3.43-5.83,3.39-17.56,9.16-17.69,8.86s10.6-7.63,16.43-11C149.24,87.26,151.31,85.88,152,87.08Z"/><path class="cls-6" d="M152,87.09c.66,1.11-1.43,2.2-3.08,3.17-5.27,3.07-15.87,8.25-16,7.95s9.54-6.92,14.81-10C149.44,87.22,151.34,86,152,87.09Z"/><path class="cls-7" d="M152,87.11c.6,1-1.27,2-2.77,2.89-4.72,2.75-14.18,7.35-14.31,7.06s8.48-6.22,13.19-9C149.65,87.18,151.37,86.1,152,87.11Z"/><path class="cls-8" d="M152,87.12c.55.92-1.11,1.84-2.46,2.63-4.16,2.43-12.48,6.44-12.62,6.15s7.41-5.52,11.58-7.94C149.85,87.14,151.41,86.2,152,87.12Z"/><path class="cls-9" d="M151.93,87.13c.49.83-1,1.67-2.15,2.37C146.17,91.6,139,95,138.85,94.75s6.35-4.82,10-6.92C150.06,87.1,151.44,86.31,151.93,87.13Z"/><path class="cls-10" d="M151.91,87.14c.43.73-.79,1.5-1.84,2.11-3,1.78-9.1,4.62-9.24,4.35s5.28-4.12,8.34-5.9C150.26,87.06,151.48,86.41,151.91,87.14Z"/><path class="cls-11" d="M151.88,87.15c.38.64-.62,1.32-1.51,1.84-2.51,1.46-7.42,3.73-7.56,3.45S147,89,149.54,87.57C150.46,87,151.51,86.52,151.88,87.15Z"/><path class="cls-12" d="M151.86,87.17c.32.54-.45,1.14-1.2,1.57-1.95,1.14-5.73,2.82-5.87,2.55s3.15-2.72,5.11-3.85C150.67,87,151.54,86.63,151.86,87.17Z"/><path class="cls-13" d="M151.84,87.18c.26.45-.29,1-.89,1.31-1.4.81-4,1.91-4.18,1.64s2.09-2,3.49-2.83C150.87,87,151.58,86.73,151.84,87.18Z"/><path class="cls-14" d="M151.82,87.19c.2.35-.13.79-.58,1-.85.49-2.34,1-2.49.74s1-1.31,1.87-1.81C151.08,86.91,151.61,86.84,151.82,87.19Z"/><path class="cls-15" d="M151.79,87.2a.57.57,0,0,1-.26.78.55.55,0,1,1,.26-.78Z"/><path d="M189,79.46c.59,1.51-2.75,2.52-5.36,3.5-8.57,3.23-25.6,8.51-25.67,8.19s16.12-7.56,24.69-10.79C185.41,79.34,188.45,78,189,79.46Z"/><path class="cls-4" d="M189,79.47c.54,1.41-2.54,2.36-5,3.27-7.88,3-23.53,7.81-23.6,7.48s14.79-7,22.67-10C185.65,79.32,188.47,78.07,189,79.47Z"/><path class="cls-5" d="M189,79.48c.5,1.3-2.31,2.2-4.54,3-7.21,2.72-21.46,7.1-21.54,6.78s13.45-6.4,20.65-9.11C185.88,79.31,188.48,78.18,189,79.48Z"/><path class="cls-6" d="M189,79.49c.47,1.2-2.09,2-4.13,2.81-6.52,2.46-19.39,6.39-19.47,6.08S177.47,82.55,184,80.1C186.11,79.3,188.49,78.29,189,79.49Z"/><path class="cls-7" d="M188.92,79.5c.43,1.1-1.87,1.89-3.72,2.58-5.84,2.2-17.32,5.68-17.4,5.37s10.78-5.24,16.61-7.44C186.35,79.28,188.5,78.4,188.92,79.5Z"/><path class="cls-8" d="M188.9,79.51c.38,1-1.65,1.73-3.32,2.35-5.15,2-15.25,5-15.34,4.67s9.45-4.67,14.6-6.61C186.58,79.27,188.51,78.51,188.9,79.51Z"/><path class="cls-9" d="M188.87,79.51c.35.9-1.43,1.58-2.91,2.14-4.47,1.68-13.18,4.26-13.27,4s8.12-4.09,12.58-5.77C186.82,79.26,188.53,78.62,188.87,79.51Z"/><path class="cls-10" d="M188.84,79.52c.31.8-1.21,1.42-2.5,1.91-3.79,1.42-11.11,3.55-11.2,3.25s6.78-3.51,10.56-4.93C187.05,79.24,188.54,78.73,188.84,79.52Z"/><path class="cls-11" d="M188.82,79.53c.26.69-1,1.26-2.1,1.68-3.1,1.16-9,2.85-9.13,2.55s5.45-2.93,8.54-4.1C187.28,79.23,188.55,78.85,188.82,79.53Z"/><path class="cls-12" d="M188.79,79.54c.22.59-.77,1.1-1.69,1.45-2.42.91-7,2.14-7.06,1.85s4.11-2.36,6.52-3.27C187.52,79.21,188.56,79,188.79,79.54Z"/><path class="cls-13" d="M188.76,79.55c.19.49-.54.94-1.28,1.22-1.73.65-4.89,1.43-5,1.14s2.77-1.77,4.51-2.42C187.75,79.2,188.58,79.07,188.76,79.55Z"/><path class="cls-14" d="M188.73,79.56c.15.38-.32.78-.87,1-1.05.39-2.82.73-2.92.44s1.44-1.2,2.49-1.59C188,79.19,188.59,79.18,188.73,79.56Z"/><path class="cls-15" d="M188.71,79.57a.66.66,0,0,1-.47.76.56.56,0,1,1-.38-1A.64.64,0,0,1,188.71,79.57Z"/><path d="M171.22,66c1,1.3-1.22,2.62-2.86,3.81-5.38,4-16.48,10.75-16.64,10.46s9.62-8.76,15-12.7C168.43,66.35,170.26,64.74,171.22,66Z"/><path class="cls-4" d="M171.2,66c.9,1.22-1.11,2.45-2.62,3.56-5,3.63-15.16,9.86-15.33,9.58S162.06,71.1,167,67.47C168.6,66.31,170.31,64.84,171.2,66Z"/><path class="cls-5" d="M171.18,66.05c.84,1.13-1,2.28-2.39,3.31-4.53,3.31-13.83,9-14,8.69s8-7.4,12.52-10.71C168.77,66.27,170.35,64.94,171.18,66.05Z"/><path class="cls-6" d="M171.17,66.07c.76,1-.89,2.1-2.17,3-4.1,3-12.5,8.09-12.67,7.81s7.18-6.71,11.28-9.71C169,66.23,170.4,65,171.17,66.07Z"/><path class="cls-7" d="M171.15,66.08c.7,1-.77,1.93-1.94,2.79-3.66,2.68-11.17,7.2-11.34,6.93s6.37-6,10-8.72C169.12,66.19,170.45,65.13,171.15,66.08Z"/><path class="cls-8" d="M171.13,66.09c.64.86-.65,1.76-1.7,2.53-3.24,2.37-9.85,6.32-10,6S165,69.32,168.2,67C169.29,66.15,170.5,65.23,171.13,66.09Z"/><path class="cls-9" d="M171.11,66.1c.57.77-.54,1.6-1.47,2.28-2.81,2.05-8.52,5.43-8.69,5.16s4.74-4.67,7.55-6.72C169.46,66.11,170.54,65.33,171.11,66.1Z"/><path class="cls-10" d="M171.1,66.11c.5.69-.43,1.43-1.25,2-2.38,1.74-7.19,4.54-7.36,4.28s3.92-4,6.3-5.72C169.64,66.07,170.59,65.43,171.1,66.11Z"/><path class="cls-11" d="M171.08,66.12c.44.6-.32,1.26-1,1.77-1.94,1.43-5.86,3.65-6,3.4s3.12-3.31,5.07-4.73C169.81,66,170.64,65.53,171.08,66.12Z"/><path class="cls-12" d="M171.06,66.14c.37.5-.2,1.08-.78,1.51-1.52,1.11-4.54,2.76-4.72,2.51s2.31-2.62,3.82-3.73C170,66,170.69,65.63,171.06,66.14Z"/><path class="cls-13" d="M171,66.15c.31.42-.09.91-.55,1.25-1.09.8-3.21,1.88-3.39,1.63s1.49-1.94,2.58-2.73C170.16,66,170.74,65.73,171,66.15Z"/><path class="cls-14" d="M171,66.16c.24.33,0,.74-.33,1-.66.48-1.88,1-2.06.75s.68-1.26,1.34-1.74C170.33,65.91,170.78,65.83,171,66.16Z"/><path class="cls-15" d="M171,66.17a.52.52,0,1,1-.74-.13A.53.53,0,0,1,171,66.17Z"/><path d="M157.54,111.62c0,1.61-3.1,1.34-5.58,1.31-8.13-.1-23.94-1.37-23.9-1.7s15.8-1.19,23.94-1.08C154.58,110.19,157.55,110,157.54,111.62Z"/><path class="cls-4" d="M157.51,111.61c0,1.51-2.86,1.29-5.16,1.26-7.49-.1-22-1.29-22-1.61s14.51-1.13,22-1C154.78,110.26,157.52,110.11,157.51,111.61Z"/><path class="cls-5" d="M157.49,111.61c0,1.4-2.64,1.22-4.75,1.19-6.84-.09-20.06-1.19-20-1.51s13.21-1.08,20.05-1C155,110.33,157.49,110.22,157.49,111.61Z"/><path class="cls-6" d="M157.46,111.61c0,1.29-2.4,1.15-4.34,1.12-6.19-.08-18.11-1.09-18.08-1.41s11.92-1,18.11-.94C155.18,110.4,157.47,110.33,157.46,111.61Z"/><path class="cls-7" d="M157.44,111.61c0,1.18-2.17,1.08-3.93,1.06-5.54-.08-16.17-1-16.14-1.32s10.63-1,16.17-.9C155.37,110.48,157.44,110.44,157.44,111.61Z"/><path class="cls-8" d="M157.41,111.61c0,1.07-1.93,1-3.52,1-4.89-.06-14.22-.91-14.2-1.22s9.34-.92,14.23-.85C155.57,110.55,157.42,110.54,157.41,111.61Z"/><path class="cls-9" d="M157.38,111.61c0,1-1.69.94-3.1.92-4.24,0-12.28-.81-12.26-1.12s8-.87,12.29-.81C155.77,110.62,157.39,110.65,157.38,111.61Z"/><path class="cls-10" d="M157.36,111.61c0,.85-1.46.87-2.69.86-3.6,0-10.34-.72-10.32-1s6.75-.81,10.34-.76C156,110.69,157.36,110.76,157.36,111.61Z"/><path class="cls-11" d="M157.33,111.61c0,.74-1.22.81-2.28.79-2.94,0-8.4-.62-8.38-.93s5.46-.76,8.4-.72C156.17,110.76,157.34,110.87,157.33,111.61Z"/><path class="cls-12" d="M157.31,111.6c0,.63-1,.75-1.87.74-2.3,0-6.46-.54-6.44-.84s4.16-.71,6.46-.68C156.36,110.84,157.31,111,157.31,111.6Z"/><path class="cls-13" d="M157.28,111.6c0,.52-.76.68-1.46.67-1.64,0-4.51-.44-4.5-.75s2.88-.64,4.52-.62C156.56,110.91,157.29,111.08,157.28,111.6Z"/><path class="cls-14" d="M157.26,111.6c0,.41-.53.61-1,.6-1,0-2.57-.34-2.56-.65s1.58-.59,2.58-.58C156.76,111,157.26,111.19,157.26,111.6Z"/><path class="cls-15" d="M157.23,111.6a.63.63,0,0,1-1.25,0,.57.57,0,0,1,.63-.53A.59.59,0,0,1,157.23,111.6Z"/><path d="M185.16,100.82c.27,1.59-2.21,1.76-4.16,2.08-6.42,1-19.08,2-19.1,1.68s12.23-3.39,18.65-4.43C182.59,99.82,184.89,99.23,185.16,100.82Z"/><path class="cls-4" d="M185.14,100.82c.25,1.49-2,1.67-3.85,2-5.91,1-17.53,1.83-17.56,1.51s11.23-3.16,17.14-4.12C182.76,99.87,184.89,99.34,185.14,100.82Z"/><path class="cls-5" d="M185.12,100.82c.23,1.38-1.86,1.57-3.54,1.84-5.39.87-16,1.65-16,1.33s10.22-2.92,15.61-3.8C182.93,99.91,184.89,99.45,185.12,100.82Z"/><path class="cls-6" d="M185.1,100.82c.21,1.27-1.69,1.47-3.22,1.72-4.89.79-14.45,1.47-14.47,1.15s9.2-2.69,14.09-3.48C183.1,100,184.89,99.56,185.1,100.82Z"/><path class="cls-7" d="M185.08,100.83c.19,1.16-1.52,1.36-2.91,1.59-4.37.71-12.9,1.29-12.93,1s8.2-2.45,12.57-3.16C183.26,100,184.89,99.67,185.08,100.83Z"/><path class="cls-8" d="M185.06,100.83c.18,1-1.35,1.27-2.6,1.47-3.86.63-11.35,1.11-11.38.79s7.19-2.21,11-2.84C183.43,100,184.88,99.78,185.06,100.83Z"/><path class="cls-9" d="M185,100.83c.16,1-1.17,1.17-2.29,1.35-3.34.54-9.8.93-9.84.61s6.19-2,9.53-2.52C183.6,100.08,184.88,99.89,185,100.83Z"/><path class="cls-10" d="M185,100.83c.14.84-1,1.07-2,1.23-2.84.46-8.26.75-8.3.44s5.17-1.75,8-2.21C183.77,100.13,184.88,100,185,100.83Z"/><path class="cls-11" d="M185,100.84c.12.72-.83,1-1.66,1.1-2.32.38-6.72.57-6.76.26s4.17-1.51,6.49-1.89C183.94,100.17,184.88,100.11,185,100.84Z"/><path class="cls-12" d="M185,100.84c.1.62-.66.87-1.35,1-1.81.29-5.17.38-5.21.08s3.16-1.28,5-1.57C184.1,100.21,184.87,100.22,185,100.84Z"/><path class="cls-13" d="M185,100.84c.08.51-.48.77-1,.86-1.29.21-3.62.2-3.66-.1s2.15-1,3.44-1.25C184.27,100.26,184.87,100.33,185,100.84Z"/><path class="cls-14" d="M184.94,100.84c.06.41-.31.67-.72.74-.79.13-2.08,0-2.13-.28s1.14-.8,1.93-.93C184.44,100.3,184.87,100.44,184.94,100.84Z"/><path class="cls-15" d="M184.92,100.84a.53.53,0,0,1-.41.62.54.54,0,1,1,.41-.62Z"/><path d="M195.48,121.07c-.23,1.6-3.37.89-5.9.5-8.33-1.27-24.35-4.8-24.26-5.12s16.36,1.1,24.68,2.38C192.64,119.23,195.71,119.48,195.48,121.07Z"/><path class="cls-4" d="M195.45,121.07c-.22,1.49-3.11.85-5.46.49-7.67-1.17-22.38-4.43-22.29-4.74s15,1,22.69,2.14C192.84,119.33,195.67,119.58,195.45,121.07Z"/><path class="cls-5" d="M195.43,121.06c-.21,1.39-2.87.83-5,.49-7-1.07-20.4-4-20.31-4.37s13.69.83,20.69,1.9C193,119.43,195.63,119.68,195.43,121.06Z"/><path class="cls-6" d="M195.4,121.06c-.19,1.27-2.62.79-4.6.48-6.34-1-18.42-3.68-18.34-4s12.36.7,18.69,1.67C193.22,119.53,195.58,119.79,195.4,121.06Z"/><path class="cls-7" d="M195.37,121.05c-.17,1.17-2.36.76-4.17.48-5.67-.86-16.44-3.31-16.36-3.62s11,.57,16.7,1.43C193.42,119.63,195.54,119.89,195.37,121.05Z"/><path class="cls-8" d="M195.35,121.05c-.16,1.06-2.12.72-3.74.47-5-.76-14.46-2.94-14.39-3.25s9.7.44,14.7,1.2C193.61,119.73,195.5,120,195.35,121.05Z"/><path class="cls-9" d="M195.32,121c-.14.95-1.87.69-3.31.47-4.34-.66-12.48-2.57-12.41-2.88s8.36.31,12.7,1C193.8,119.83,195.46,120.1,195.32,121Z"/><path class="cls-10" d="M195.3,121c-.13.84-1.62.66-2.88.46-3.68-.56-10.5-2.2-10.44-2.5s7,.17,10.71.73C194,119.93,195.42,120.2,195.3,121Z"/><path class="cls-11" d="M195.27,121c-.11.73-1.37.63-2.45.46-3-.46-8.52-1.82-8.46-2.13s5.7,0,8.71.5C194.19,120,195.38,120.3,195.27,121Z"/><path class="cls-12" d="M195.24,121c-.09.62-1.12.59-2,.45-2.35-.36-6.55-1.45-6.49-1.75s4.37-.1,6.71.26C194.38,120.13,195.33,120.41,195.24,121Z"/><path class="cls-13" d="M195.22,121c-.08.52-.87.56-1.59.45-1.68-.26-4.56-1.08-4.51-1.38s3-.23,4.72,0C194.57,120.23,195.29,120.51,195.22,121Z"/><path class="cls-14" d="M195.19,121c-.06.4-.62.52-1.15.44-1-.15-2.59-.71-2.54-1s1.7-.36,2.72-.2C194.77,120.33,195.25,120.61,195.19,121Z"/><path class="cls-15" d="M195.16,121a.59.59,0,0,1-.72.44.55.55,0,1,1,.17-1.07A.59.59,0,0,1,195.16,121Z"/><path d="M151.41,133.86c-.87,1.36-3.23-.45-5.22-1.75-6.54-4.27-18.67-13.46-18.46-13.72s13.44,7.12,20,11.39C149.78,131.14,152.28,132.51,151.41,133.86Z"/><path class="cls-4" d="M151.39,133.85c-.81,1.27-3-.39-4.85-1.6-6-3.93-17.15-12.38-16.94-12.64S142,126.11,148,130C149.91,131.3,152.21,132.58,151.39,133.85Z"/><path class="cls-5" d="M151.37,133.83c-.75,1.18-2.78-.32-4.48-1.44-5.5-3.59-15.63-11.3-15.42-11.56s11.29,5.88,16.78,9.47C150,131.46,152.13,132.66,151.37,133.83Z"/><path class="cls-6" d="M151.35,133.82c-.69,1.08-2.56-.27-4.12-1.28-5-3.25-14.09-10.23-13.89-10.49s10.21,5.26,15.18,8.51C150.15,131.62,152.05,132.74,151.35,133.82Z"/><path class="cls-7" d="M151.33,133.8c-.63,1-2.33-.2-3.75-1.12-4.45-2.91-12.57-9.16-12.37-9.41s9.13,4.64,13.59,7.55C150.27,131.79,152,132.82,151.33,133.8Z"/><path class="cls-8" d="M151.31,133.79c-.58.9-2.1-.14-3.38-1-3.93-2.57-11.05-8.08-10.85-8.33s8.06,4,12,6.59C150.39,132,151.89,132.9,151.31,133.79Z"/><path class="cls-9" d="M151.29,133.78c-.52.8-1.88-.08-3-.82-3.41-2.22-9.52-7-9.33-7.25s7,3.41,10.39,5.63C150.51,132.11,151.81,133,151.29,133.78Z"/><path class="cls-10" d="M151.27,133.76c-.46.72-1.65,0-2.64-.65-2.89-1.89-8-5.93-7.81-6.18s5.9,2.79,8.79,4.67C150.64,132.27,151.73,133.05,151.27,133.76Z"/><path class="cls-11" d="M151.25,133.75c-.4.62-1.42.05-2.27-.5-2.37-1.55-6.47-4.85-6.29-5.1s4.83,2.17,7.19,3.72C150.76,132.44,151.65,133.13,151.25,133.75Z"/><path class="cls-12" d="M151.23,133.73c-.34.53-1.2.12-1.9-.34-1.85-1.2-5-3.77-4.77-4s3.75,1.55,5.59,2.76C150.88,132.6,151.57,133.21,151.23,133.73Z"/><path class="cls-13" d="M151.21,133.72c-.28.44-1,.18-1.54-.19-1.32-.86-3.42-2.69-3.24-2.94s2.67.93,4,1.8C151,132.76,151.49,133.28,151.21,133.72Z"/><path class="cls-14" d="M151.19,133.71c-.22.34-.75.24-1.17,0-.8-.52-1.89-1.61-1.72-1.86s1.59.31,2.39.84C151.12,132.93,151.42,133.36,151.19,133.71Z"/><path class="cls-15" d="M151.17,133.69a.6.6,0,1,1-.2-.78A.57.57,0,0,1,151.17,133.69Z"/><path d="M179.46,137.66c-.59,1.51-2.78.4-4.59-.32-6-2.37-17.2-8-17.05-8.26s12.1,3.3,18.07,5.67C177.79,135.5,180,136.16,179.46,137.66Z"/><path class="cls-4" d="M179.44,137.65c-.55,1.41-2.58.4-4.26-.27-5.5-2.18-15.8-7.33-15.65-7.62s11.12,3,16.62,5.17C177.91,135.63,180,136.25,179.44,137.65Z"/><path class="cls-5" d="M179.42,137.64c-.51,1.31-2.38.4-3.94-.21-5-2-14.39-6.7-14.24-7s10.15,2.68,15.17,4.68C178,135.75,179.93,136.35,179.42,137.64Z"/><path class="cls-6" d="M179.4,137.64c-.47,1.2-2.18.4-3.61-.17-4.54-1.8-13-6.07-12.84-6.36s9.17,2.37,13.71,4.17C178.15,135.87,179.87,136.44,179.4,137.64Z"/><path class="cls-7" d="M179.38,137.63c-.43,1.1-2,.4-3.28-.11-4.06-1.61-11.58-5.44-11.45-5.73s8.2,2.06,12.27,3.67C178.27,136,179.81,136.53,179.38,137.63Z"/><path class="cls-8" d="M179.36,137.62c-.38,1-1.78.41-3-.06-3.59-1.42-10.18-4.81-10-5.1s7.23,1.75,10.82,3.18C178.39,136.12,179.75,136.63,179.36,137.62Z"/><path class="cls-9" d="M179.35,137.61c-.35.9-1.59.41-2.63,0-3.11-1.23-8.78-4.18-8.65-4.47s6.25,1.44,9.36,2.67C178.51,136.24,179.69,136.72,179.35,137.61Z"/><path class="cls-10" d="M179.33,137.6c-.31.79-1.4.41-2.3.06-2.64-1-7.38-3.56-7.25-3.84s5.27,1.12,7.91,2.17C178.63,136.36,179.64,136.82,179.33,137.6Z"/><path class="cls-11" d="M179.31,137.59c-.27.69-1.2.42-2,.11-2.16-.86-6-2.92-5.86-3.21s4.31.82,6.47,1.68C178.75,136.48,179.58,136.91,179.31,137.59Z"/><path class="cls-12" d="M179.29,137.59c-.23.58-1,.41-1.64.16-1.69-.67-4.58-2.3-4.46-2.58s3.33.51,5,1.17C178.87,136.61,179.52,137,179.29,137.59Z"/><path class="cls-13" d="M179.27,137.58c-.19.48-.8.42-1.31.21-1.21-.48-3.18-1.66-3.06-1.95s2.35.2,3.56.68C179,136.73,179.46,137.1,179.27,137.58Z"/><path class="cls-14" d="M179.25,137.57c-.15.38-.6.42-1,.27-.73-.29-1.78-1-1.66-1.32s1.38-.11,2.11.18C179.11,136.85,179.4,137.19,179.25,137.57Z"/><path class="cls-15" d="M179.24,137.56a.52.52,0,0,1-.67.32.5.5,0,0,1-.25-.68.52.52,0,0,1,.66-.33A.53.53,0,0,1,179.24,137.56Z"/><path d="M177.22,159.43c-1,1.25-3-.71-4.73-2.13-5.64-4.69-15.92-14.62-15.68-14.85s11.82,8,17.45,12.71C176.05,156.64,178.24,158.18,177.22,159.43Z"/><path class="cls-4" d="M177.2,159.41c-.95,1.17-2.81-.62-4.4-1.95-5.19-4.31-14.61-13.44-14.38-13.67s10.88,7.33,16.07,11.64C176.14,156.81,178.16,158.25,177.2,159.41Z"/><path class="cls-5" d="M177.19,159.4c-.89,1.08-2.61-.55-4.08-1.77-4.74-3.94-13.31-12.27-13.08-12.5s9.94,6.64,14.68,10.58C176.24,157,178.07,158.32,177.19,159.4Z"/><path class="cls-6" d="M177.17,159.38c-.82,1-2.4-.47-3.75-1.58-4.28-3.57-12-11.1-11.78-11.33s9,5.95,13.29,9.51C176.33,157.15,178,158.39,177.17,159.38Z"/><path class="cls-7" d="M177.15,159.36c-.75.92-2.19-.38-3.42-1.4-3.83-3.19-10.7-9.92-10.47-10.15s8.05,5.26,11.89,8.45C176.42,157.32,177.9,158.46,177.15,159.36Z"/><path class="cls-8" d="M177.14,159.35c-.68.83-2-.31-3.09-1.22-3.39-2.82-9.4-8.75-9.18-9s7.12,4.57,10.5,7.39C176.52,157.49,177.81,158.53,177.14,159.35Z"/><path class="cls-9" d="M177.12,159.33c-.61.75-1.78-.22-2.76-1-2.94-2.45-8.1-7.58-7.88-7.81s6.18,3.88,9.12,6.32C176.61,157.65,177.73,158.6,177.12,159.33Z"/><path class="cls-10" d="M177.1,159.32c-.54.66-1.57-.15-2.43-.86-2.49-2.06-6.79-6.4-6.58-6.63s5.24,3.19,7.73,5.26C176.7,157.82,177.64,158.67,177.1,159.32Z"/><path class="cls-11" d="M177.08,159.3c-.47.57-1.37-.06-2.1-.67-2-1.69-5.49-5.24-5.28-5.47s4.3,2.51,6.34,4.2C176.8,158,177.55,158.73,177.08,159.3Z"/><path class="cls-12" d="M177.07,159.29c-.4.48-1.17,0-1.77-.49-1.59-1.32-4.19-4.07-4-4.3s3.36,1.82,4.95,3.14C176.89,158.16,177.47,158.8,177.07,159.29Z"/><path class="cls-13" d="M177.05,159.27c-.33.4-1,.1-1.44-.31-1.14-.94-2.89-2.89-2.69-3.12s2.43,1.12,3.56,2.07C177,158.33,177.38,158.87,177.05,159.27Z"/><path class="cls-14" d="M177,159.26c-.26.31-.75.17-1.11-.13-.69-.57-1.58-1.72-1.38-1.95s1.48.43,2.17,1C177.08,158.49,177.29,158.94,177,159.26Z"/><path class="cls-15" d="M177,159.24a.57.57,0,0,1-.79.06.55.55,0,1,1,.79-.06Z"/><path d="M134.37,148.75c-1.39.82-2.69-1.86-3.88-3.91-3.92-6.74-10.63-20.38-10.33-20.51s8.81,12.37,12.73,19.12C134.14,145.58,135.76,147.93,134.37,148.75Z"/><path class="cls-4" d="M134.36,148.72c-1.3.77-2.52-1.69-3.62-3.59-3.61-6.21-9.76-18.74-9.46-18.87S129.41,137.6,133,143.8C134.17,145.78,135.65,148,134.36,148.72Z"/><path class="cls-5" d="M134.35,148.7c-1.21.72-2.35-1.54-3.37-3.29-3.29-5.67-8.87-17.09-8.58-17.22s7.45,10.3,10.74,16C134.21,146,135.54,148,134.35,148.7Z"/><path class="cls-6" d="M134.33,148.68c-1.11.66-2.16-1.38-3.1-3-3-5.12-8-15.44-7.7-15.58s6.75,9.27,9.74,14.4C134.24,146.18,135.44,148,134.33,148.68Z"/><path class="cls-7" d="M134.32,148.66c-1,.6-2-1.22-2.84-2.68-2.67-4.59-7.12-13.8-6.83-13.94s6.07,8.23,8.74,12.82C134.28,146.38,135.33,148.06,134.32,148.66Z"/><path class="cls-8" d="M134.31,148.64c-.92.54-1.82-1.07-2.58-2.38-2.36-4-6.25-12.16-6-12.3s5.39,7.2,7.75,11.26C134.31,146.58,135.23,148.1,134.31,148.64Z"/><path class="cls-9" d="M134.3,148.62c-.83.48-1.65-.91-2.33-2.08-2-3.51-5.36-10.51-5.08-10.65s4.71,6.17,6.75,9.68C134.35,146.78,135.12,148.13,134.3,148.62Z"/><path class="cls-10" d="M134.29,148.59c-.73.44-1.48-.74-2.07-1.76-1.73-3-4.48-8.87-4.21-9s4,5.13,5.76,8.1C134.39,147,135,148.17,134.29,148.59Z"/><path class="cls-11" d="M134.28,148.57c-.64.38-1.3-.59-1.81-1.46-1.42-2.44-3.61-7.22-3.33-7.37s3.34,4.1,4.76,6.54C134.42,147.18,134.91,148.2,134.28,148.57Z"/><path class="cls-12" d="M134.26,148.55c-.54.32-1.12-.43-1.54-1.16-1.11-1.9-2.73-5.57-2.46-5.72s2.65,3.06,3.76,5C134.46,147.38,134.81,148.23,134.26,148.55Z"/><path class="cls-13" d="M134.25,148.53c-.45.26-.95-.27-1.29-.86-.79-1.36-1.85-3.93-1.58-4.07s2,2,2.77,3.39C134.49,147.58,134.7,148.27,134.25,148.53Z"/><path class="cls-14" d="M134.24,148.51c-.35.21-.78-.12-1-.55-.48-.83-1-2.29-.71-2.44s1.29,1,1.77,1.82C134.53,147.78,134.59,148.3,134.24,148.51Z"/><path class="cls-15" d="M134.23,148.49a.6.6,0,0,1-.6-1,.58.58,0,0,1,.77.24A.59.59,0,0,1,134.23,148.49Z"/><path d="M157.44,169c-1.32.94-2.68-1.4-3.92-3.17-4.07-5.82-11.12-17.74-10.83-17.9s9,10.48,13.11,16.3C157.09,166.07,158.76,168.06,157.44,169Z"/><path class="cls-4" d="M157.43,169c-1.23.88-2.51-1.28-3.65-2.92-3.75-5.35-10.21-16.31-9.92-16.47s8.33,9.6,12.08,15C157.14,166.25,158.66,168.1,157.43,169Z"/><path class="cls-5" d="M157.42,169c-1.14.82-2.33-1.15-3.39-2.66-3.43-4.89-9.29-14.88-9-15s7.63,8.71,11,13.6C157.18,166.43,158.55,168.15,157.42,169Z"/><path class="cls-6" d="M157.41,168.94c-1,.74-2.16-1-3.13-2.42-3.1-4.42-8.37-13.45-8.09-13.61s6.92,7.83,10,12.26C157.22,166.61,158.45,168.19,157.41,168.94Z"/><path class="cls-7" d="M157.4,168.92c-1,.68-2-.9-2.87-2.16-2.77-4-7.45-12-7.18-12.19s6.22,7,9,10.91C157.26,166.8,158.35,168.24,157.4,168.92Z"/><path class="cls-8" d="M157.38,168.9c-.87.62-1.81-.78-2.6-1.91-2.45-3.5-6.54-10.59-6.26-10.76s5.51,6.07,8,9.57C157.31,167,158.25,168.28,157.38,168.9Z"/><path class="cls-9" d="M157.37,168.88c-.78.55-1.63-.65-2.34-1.66-2.12-3-5.62-9.16-5.35-9.32s4.81,5.18,6.94,8.22C157.35,167.16,158.15,168.33,157.37,168.88Z"/><path class="cls-10" d="M157.36,168.86c-.69.49-1.46-.52-2.08-1.4-1.8-2.57-4.7-7.73-4.43-7.9s4.1,4.3,5.9,6.87C157.39,167.34,158.05,168.37,157.36,168.86Z"/><path class="cls-11" d="M157.35,168.84c-.61.43-1.29-.39-1.82-1.15-1.47-2.1-3.78-6.3-3.52-6.47s3.4,3.42,4.88,5.53C157.43,167.53,158,168.42,157.35,168.84Z"/><path class="cls-12" d="M157.33,168.82c-.51.37-1.11-.27-1.54-.89-1.15-1.64-2.87-4.88-2.61-5.05s2.69,2.54,3.84,4.18C157.48,167.71,157.85,168.46,157.33,168.82Z"/><path class="cls-13" d="M157.32,168.8c-.42.3-.93-.14-1.28-.64-.83-1.17-1.95-3.44-1.7-3.61s2,1.65,2.82,2.83C157.52,167.89,157.75,168.51,157.32,168.8Z"/><path class="cls-14" d="M157.31,168.79c-.34.23-.76,0-1-.39-.5-.72-1-2-.78-2.19s1.29.77,1.78,1.48C157.56,168.07,157.64,168.55,157.31,168.79Z"/><path class="cls-15" d="M157.3,168.77a.55.55,0,1,1,.13-.76A.56.56,0,0,1,157.3,168.77Z"/><path d="M145.59,186.33c-1.49.65-2.64-2.64-3.73-5.2-3.59-8.42-9.58-25.2-9.26-25.29s8.23,15.78,11.82,24.2C145.55,182.71,147.06,185.69,145.59,186.33Z"/><path class="cls-4" d="M145.57,186.3c-1.38.61-2.47-2.43-3.48-4.8-3.3-7.75-8.78-23.16-8.46-23.25s7.59,14.47,10.89,22.21C145.58,182.94,147,185.7,145.57,186.3Z"/><path class="cls-5" d="M145.56,186.28c-1.28.56-2.3-2.22-3.23-4.41-3-7.08-8-21.12-7.68-21.22s7,13.16,10,20.24C145.6,183.17,146.84,185.72,145.56,186.28Z"/><path class="cls-6" d="M145.55,186.25c-1.18.51-2.13-2-3-4-2.72-6.4-7.19-19.09-6.88-19.18s6.33,11.85,9,18.26C145.62,183.41,146.73,185.74,145.55,186.25Z"/><path class="cls-7" d="M145.54,186.22c-1.08.47-2-1.79-2.74-3.61-2.44-5.73-6.4-17.05-6.1-17.14s5.7,10.54,8.14,16.27C145.65,183.64,146.62,185.75,145.54,186.22Z"/><path class="cls-8" d="M145.53,186.2c-1,.42-1.8-1.58-2.49-3.22-2.16-5.06-5.61-15-5.31-15.11s5.06,9.24,7.21,14.3C145.67,183.87,146.51,185.77,145.53,186.2Z"/><path class="cls-9" d="M145.52,186.17c-.88.38-1.63-1.36-2.25-2.82-1.87-4.39-4.82-13-4.52-13.07s4.43,7.92,6.3,12.31C145.69,184.11,146.4,185.79,145.52,186.17Z"/><path class="cls-10" d="M145.51,186.14c-.78.34-1.46-1.14-2-2.42-1.59-3.72-4-10.93-3.73-11s3.79,6.62,5.38,10.34C145.72,184.34,146.29,185.81,145.51,186.14Z"/><path class="cls-11" d="M145.5,186.12c-.68.29-1.29-.94-1.76-2-1.3-3-3.23-8.89-2.94-9s3.16,5.31,4.46,8.35C145.74,184.57,146.18,185.82,145.5,186.12Z"/><path class="cls-12" d="M145.49,186.09c-.58.25-1.13-.72-1.51-1.63-1-2.37-2.44-6.86-2.15-7s2.53,4,3.54,6.38C145.76,184.81,146.07,185.84,145.49,186.09Z"/><path class="cls-13" d="M145.48,186.06c-.48.21-1-.5-1.27-1.23-.72-1.7-1.64-4.82-1.35-4.93s1.89,2.69,2.61,4.4C145.79,185,146,185.86,145.48,186.06Z"/><path class="cls-14" d="M145.47,186c-.38.16-.79-.3-1-.84-.44-1-.85-2.78-.57-2.89s1.26,1.38,1.7,2.41C145.81,185.27,145.85,185.87,145.47,186Z"/><path class="cls-15" d="M145.46,186a.73.73,0,0,1-.55-1.3.63.63,0,0,1,.77.44A.63.63,0,0,1,145.46,186Z"/><path d="M111.93,156.2c-1.62,0-1.41-3-1.42-5.36-.05-7.85.93-23.13,1.26-23.09s1.48,15.22,1.52,23.08C113.3,153.32,113.54,156.18,111.93,156.2Z"/><path class="cls-4" d="M111.93,156.17c-1.51,0-1.34-2.74-1.35-4.95,0-7.23.88-21.26,1.2-21.22s1.4,14,1.44,21.2C113.23,153.51,113.43,156.16,111.93,156.17Z"/><path class="cls-5" d="M111.93,156.15c-1.4,0-1.26-2.52-1.27-4.56,0-6.6.81-19.38,1.14-19.35s1.32,12.73,1.35,19.33C113.17,153.71,113.32,156.13,111.93,156.15Z"/><path class="cls-6" d="M111.93,156.13c-1.29,0-1.19-2.3-1.2-4.17,0-6,.76-17.5,1.08-17.47S113.05,146,113.09,152C113.1,153.9,113.21,156.11,111.93,156.13Z"/><path class="cls-7" d="M111.93,156.1c-1.18,0-1.12-2.07-1.13-3.77,0-5.35.7-15.62,1-15.6S113,147,113,152.32C113,154.09,113.1,156.09,111.93,156.1Z"/><path class="cls-8" d="M111.93,156.08c-1.07,0-1.05-1.85-1.05-3.38,0-4.72.64-13.75,1-13.72s1.08,9,1.11,13.71C113,154.28,113,156.06,111.93,156.08Z"/><path class="cls-9" d="M111.93,156.05c-1,0-1-1.62-1-3,0-4.09.59-11.87.9-11.85s1,7.75,1,11.84C112.89,154.47,112.89,156,111.93,156.05Z"/><path class="cls-10" d="M111.93,156c-.85,0-.9-1.4-.91-2.59,0-3.46.53-10,.84-10s.94,6.5,1,10C112.82,154.67,112.78,156,111.93,156Z"/><path class="cls-11" d="M111.93,156c-.74,0-.83-1.17-.83-2.18,0-2.85.47-8.12.78-8.11s.85,5.25.87,8.1C112.75,154.86,112.67,156,111.93,156Z"/><path class="cls-12" d="M111.93,156c-.63,0-.76-.95-.76-1.79,0-2.22.41-6.24.72-6.23s.78,4,.79,6.22C112.68,155.05,112.56,156,111.93,156Z"/><path class="cls-13" d="M111.94,156c-.52,0-.69-.72-.7-1.39,0-1.59.36-4.36.66-4.36s.7,2.76.71,4.35C112.62,155.24,112.45,156,111.94,156Z"/><path class="cls-14" d="M111.94,155.93c-.41,0-.62-.5-.62-1,0-1,.29-2.48.6-2.48s.62,1.51.62,2.47C112.55,155.44,112.35,155.92,111.94,155.93Z"/><path class="cls-15" d="M111.94,155.9a.61.61,0,1,1,.54-.61A.58.58,0,0,1,111.94,155.9Z"/><path d="M123.41,183.41c-1.6.27-1.81-2.53-2.16-4.73-1.16-7.25-2.35-21.52-2-21.53S122.84,171,124,178.24C124.36,180.54,125,183.15,123.41,183.41Z"/><path class="cls-4" d="M123.41,183.39c-1.49.25-1.71-2.33-2-4.38-1.06-6.67-2.14-19.77-1.81-19.79s3.36,12.7,4.42,19.38C124.32,180.73,124.89,183.14,123.41,183.39Z"/><path class="cls-5" d="M123.4,183.37c-1.38.23-1.6-2.14-1.9-4-1-6.09-1.93-18-1.61-18.05S123,172.86,124,179C124.28,180.92,124.78,183.14,123.4,183.37Z"/><path class="cls-6" d="M123.4,183.34c-1.27.22-1.5-1.93-1.78-3.66-.87-5.52-1.72-16.29-1.4-16.31s2.85,10.42,3.73,15.94C124.24,181.11,124.67,183.13,123.4,183.34Z"/><path class="cls-7" d="M123.4,183.32c-1.17.19-1.4-1.74-1.65-3.31-.79-4.94-1.52-14.54-1.2-14.57s2.6,9.28,3.39,14.22C124.2,181.3,124.56,183.13,123.4,183.32Z"/><path class="cls-8" d="M123.4,183.3c-1.06.17-1.3-1.55-1.53-3-.69-4.36-1.3-12.8-1-12.83s2.35,8.15,3,12.5C124.16,181.48,124.45,183.12,123.4,183.3Z"/><path class="cls-9" d="M123.39,183.28c-.94.15-1.19-1.35-1.39-2.61-.6-3.78-1.1-11-.79-11.09s2.1,7,2.7,10.79C124.12,181.67,124.34,183.12,123.39,183.28Z"/><path class="cls-10" d="M123.39,183.25c-.84.14-1.09-1.15-1.26-2.25-.51-3.2-.9-9.31-.59-9.34s1.85,5.86,2.36,9.06C124.08,181.86,124.23,183.11,123.39,183.25Z"/><path class="cls-11" d="M123.39,183.23c-.73.12-1-.95-1.14-1.89-.42-2.63-.68-7.57-.37-7.61s1.58,4.72,2,7.35C124,182.05,124.11,183.11,123.39,183.23Z"/><path class="cls-12" d="M123.38,183.21c-.62.1-.88-.76-1-1.54-.33-2-.48-5.83-.17-5.87s1.33,3.59,1.66,5.63C124,182.24,124,183.1,123.38,183.21Z"/><path class="cls-13" d="M123.38,183.18c-.51.09-.78-.56-.88-1.18-.23-1.47-.27-4.08,0-4.12s1.08,2.44,1.31,3.91C124,182.43,123.89,183.1,123.38,183.18Z"/><path class="cls-14" d="M123.38,183.16c-.41.07-.68-.36-.75-.83-.15-.88-.06-2.34.24-2.38s.83,1.3,1,2.19C123.91,182.61,123.78,183.09,123.38,183.16Z"/><path class="cls-15" d="M123.38,183.14a.57.57,0,0,1-.63-.48.56.56,0,0,1,.45-.64.54.54,0,0,1,.62.47A.56.56,0,0,1,123.38,183.14Z"/><path d="M101.86,190.8c-1.6-.26-.85-3.32-.43-5.79,1.39-8.14,5.14-23.79,5.45-23.69s-1.32,16-2.71,24.15C103.73,188.06,103.45,191.06,101.86,190.8Z"/><path class="cls-4" d="M101.86,190.77c-1.49-.24-.81-3.07-.42-5.37,1.28-7.49,4.73-21.85,5-21.75s-1.17,14.71-2.45,22.2C103.63,188.24,103.34,191,101.86,190.77Z"/><path class="cls-5" d="M101.87,190.75c-1.38-.23-.79-2.83-.43-4.95,1.17-6.84,4.34-19.92,4.65-19.83s-1,13.41-2.18,20.25C103.53,188.43,103.24,191,101.87,190.75Z"/><path class="cls-6" d="M101.87,190.72c-1.27-.21-.75-2.58-.42-4.52,1-6.19,3.93-18,4.25-17.9s-.87,12.1-1.93,18.29C103.43,188.62,103.14,190.93,101.87,190.72Z"/><path class="cls-7" d="M101.88,190.7c-1.17-.19-.73-2.34-.43-4.1,1-5.55,3.54-16.06,3.85-16s-.72,10.8-1.66,16.34C103.32,188.8,103,190.88,101.88,190.7Z"/><path class="cls-8" d="M101.88,190.67c-1-.17-.69-2.09-.42-3.68.83-4.89,3.14-14.12,3.44-14s-.56,9.5-1.4,14.39C103.22,189,102.93,190.84,101.88,190.67Z"/><path class="cls-9" d="M101.89,190.64c-1-.15-.67-1.84-.43-3.25.73-4.24,2.74-12.18,3.05-12.11s-.42,8.19-1.14,12.44C103.12,189.18,102.83,190.8,101.89,190.64Z"/><path class="cls-10" d="M101.89,190.62c-.84-.14-.63-1.6-.42-2.83.61-3.6,2.34-10.25,2.64-10.18s-.26,6.89-.88,10.48C103,189.37,102.73,190.76,101.89,190.62Z"/><path class="cls-11" d="M101.9,190.59c-.73-.12-.61-1.35-.43-2.41.5-2.94,1.94-8.31,2.25-8.25s-.12,5.59-.62,8.53C102.91,189.55,102.63,190.71,101.9,190.59Z"/><path class="cls-12" d="M101.9,190.57c-.62-.11-.57-1.11-.42-2,.39-2.29,1.54-6.38,1.84-6.32s0,4.28-.36,6.58C102.81,189.74,102.52,190.67,101.9,190.57Z"/><path class="cls-13" d="M101.91,190.54c-.51-.08-.55-.86-.43-1.56.28-1.65,1.15-4.45,1.44-4.4s.19,3-.09,4.63C102.71,189.93,102.42,190.63,101.91,190.54Z"/><path class="cls-14" d="M101.91,190.52c-.4-.07-.51-.62-.42-1.14.17-1,.74-2.52,1-2.47s.34,1.68.17,2.67C102.61,190.11,102.32,190.58,101.91,190.52Z"/><path class="cls-15" d="M101.92,190.49a.64.64,0,1,1,.64-.53A.59.59,0,0,1,101.92,190.49Z"/><path d="M87.09,151.17c-1.39-.84.4-3.31,1.67-5.37,4.17-6.81,13.2-19.48,13.46-19.27s-6.92,13.92-11.09,20.72C89.8,149.41,88.47,152,87.09,151.17Z"/><path class="cls-4" d="M87.1,151.15c-1.29-.78.34-3.07,1.52-5,3.84-6.26,12.15-17.89,12.41-17.69s-6.32,12.81-10.16,19.07C89.64,149.54,88.39,151.92,87.1,151.15Z"/><path class="cls-5" d="M87.12,151.13c-1.2-.73.28-2.84,1.36-4.61,3.51-5.72,11.09-16.3,11.35-16.1s-5.71,11.69-9.22,17.4C89.48,149.67,88.31,151.85,87.12,151.13Z"/><path class="cls-6" d="M87.13,151.11c-1.1-.67.22-2.61,1.22-4.23,3.17-5.18,10-14.71,10.29-14.52s-5.11,10.57-8.28,15.75C89.32,149.8,88.23,151.77,87.13,151.11Z"/><path class="cls-7" d="M87.15,151.09c-1-.61.16-2.38,1.06-3.86,2.84-4.63,9-13.11,9.24-12.92s-4.51,9.45-7.35,14.08C89.16,149.93,88.15,151.69,87.15,151.09Z"/><path class="cls-8" d="M87.16,151.06c-.92-.55.1-2.14.91-3.47,2.51-4.09,7.93-11.52,8.18-11.34s-3.9,8.34-6.41,12.43C89,150.06,88.07,151.62,87.16,151.06Z"/><path class="cls-9" d="M87.17,151c-.82-.49,0-1.91.77-3.09,2.17-3.54,6.86-9.93,7.12-9.75s-3.3,7.22-5.48,10.77C88.83,150.19,88,151.54,87.17,151Z"/><path class="cls-10" d="M87.19,151c-.73-.44,0-1.68.61-2.71,1.84-3,5.81-8.34,6.07-8.17s-2.7,6.11-4.54,9.11C88.67,150.32,87.91,151.46,87.19,151Z"/><path class="cls-11" d="M87.2,151c-.63-.38-.08-1.45.46-2.33,1.51-2.46,4.76-6.75,5-6.58s-2.09,5-3.6,7.45C88.51,150.45,87.83,151.38,87.2,151Z"/><path class="cls-12" d="M87.22,151c-.54-.33-.14-1.21.31-1.95,1.17-1.92,3.69-5.16,4-5s-1.49,3.87-2.67,5.79C88.35,150.58,87.75,151.31,87.22,151Z"/><path class="cls-13" d="M87.23,151c-.44-.27-.2-1,.16-1.57.84-1.37,2.64-3.58,2.9-3.41s-.89,2.75-1.73,4.13C88.19,150.71,87.67,151.23,87.23,151Z"/><path class="cls-14" d="M87.24,150.94c-.35-.22-.26-.75,0-1.19.51-.83,1.59-2,1.84-1.83s-.28,1.64-.79,2.47C88,150.84,87.59,151.15,87.24,150.94Z"/><path class="cls-15" d="M87.26,150.92a.62.62,0,1,1,.78-.24A.58.58,0,0,1,87.26,150.92Z"/><path d="M83.7,178.73c-1.5-.6-.2-3.19.68-5.33,2.87-7.05,9.45-20.35,9.74-20.19S89.83,167.4,87,174.45C86,176.68,85.2,179.33,83.7,178.73Z"/><path class="cls-4" d="M83.71,178.71c-1.4-.56-.22-3,.6-5,2.64-6.49,8.7-18.69,9-18.53s-3.9,13-6.55,19.53C85.9,176.83,85.1,179.27,83.71,178.71Z"/><path class="cls-5" d="M83.72,178.69c-1.3-.52-.23-2.74.52-4.57,2.41-5.92,8-17,8.24-16.88s-3.51,11.9-5.93,17.82C85.77,177,85,179.21,83.72,178.69Z"/><path class="cls-6" d="M83.73,178.67c-1.2-.48-.25-2.51.44-4.19,2.19-5.36,7.2-15.37,7.48-15.22s-3.11,10.75-5.3,16.11C85.63,177.12,84.92,179.15,83.73,178.67Z"/><path class="cls-7" d="M83.74,178.65c-1.1-.44-.27-2.28.36-3.81,2-4.8,6.45-13.72,6.73-13.57s-2.72,9.61-4.68,14.41C85.5,177.27,84.83,179.08,83.74,178.65Z"/><path class="cls-8" d="M83.75,178.63c-1-.4-.28-2.06.28-3.43,1.73-4.24,5.7-12.06,6-11.92S87.68,171.75,86,176C85.36,177.41,84.74,179,83.75,178.63Z"/><path class="cls-9" d="M83.76,178.6c-.89-.35-.3-1.82.2-3,1.5-3.67,5-10.4,5.23-10.26s-1.94,7.32-3.44,11C85.23,177.56,84.65,179,83.76,178.6Z"/><path class="cls-10" d="M83.77,178.58c-.79-.32-.32-1.59.12-2.66,1.27-3.11,4.2-8.74,4.48-8.61s-1.55,6.18-2.82,9.29C85.09,177.71,84.55,178.9,83.77,178.58Z"/><path class="cls-11" d="M83.78,178.56c-.69-.28-.34-1.36,0-2.28,1-2.55,3.45-7.08,3.73-6.95s-1.16,5-2.2,7.58C85,177.85,84.46,178.83,83.78,178.56Z"/><path class="cls-12" d="M83.79,178.54c-.59-.24-.35-1.14,0-1.9.81-2,2.69-5.42,3-5.3s-.77,3.89-1.59,5.87C84.82,178,84.37,178.77,83.79,178.54Z"/><path class="cls-13" d="M83.8,178.52c-.48-.2-.37-.91-.12-1.52.58-1.42,1.94-3.76,2.22-3.64s-.37,2.74-1,4.16C84.69,178.14,84.28,178.71,83.8,178.52Z"/><path class="cls-14" d="M83.81,178.49c-.38-.15-.39-.67-.2-1.13.35-.86,1.19-2.11,1.47-2s0,1.6-.34,2.46C84.56,178.29,84.19,178.65,83.81,178.49Z"/><path class="cls-15" d="M83.82,178.47a.56.56,0,0,1-.28-.75.55.55,0,0,1,.72-.33.58.58,0,0,1-.44,1.08Z"/><path d="M61.73,175c-1.3-1,.93-3.54,2.56-5.72,5.39-7.14,16.7-20.39,16.93-20.15S71.9,163.81,66.51,171C64.81,173.22,63,176,61.73,175Z"/><path class="cls-4" d="M61.75,175c-1.22-.9.83-3.3,2.34-5.31,5-6.58,15.36-18.73,15.59-18.5s-8.52,13.51-13.48,20.08C64.62,173.36,63,175.87,61.75,175Z"/><path class="cls-5" d="M61.76,175c-1.12-.83.74-3,2.14-4.9,4.52-6,14-17.06,14.25-16.84s-7.73,12.34-12.26,18.34C64.43,173.49,62.88,175.78,61.76,175Z"/><path class="cls-6" d="M61.78,174.93c-1-.77.64-2.8,1.92-4.5C67.79,165,76.37,155,76.61,155.25s-6.93,11.16-11,16.6C64.24,173.62,62.81,175.7,61.78,174.93Z"/><path class="cls-7" d="M61.8,174.91c-.95-.7.54-2.55,1.7-4.1,3.67-4.86,11.33-13.73,11.57-13.51s-6.13,10-9.8,14.84C64.06,173.75,62.74,175.61,61.8,174.91Z"/><path class="cls-8" d="M61.82,174.89c-.86-.64.43-2.31,1.48-3.7,3.24-4.29,10-12.06,10.23-11.85s-5.33,8.8-8.57,13.1C63.87,173.89,62.67,175.52,61.82,174.89Z"/><path class="cls-9" d="M61.83,174.87c-.77-.58.34-2.06,1.28-3.3,2.8-3.72,8.65-10.4,8.89-10.19s-4.54,7.63-7.35,11.35C63.68,174,62.6,175.44,61.83,174.87Z"/><path class="cls-10" d="M61.85,174.84c-.68-.5.24-1.81,1.06-2.89,2.38-3.15,7.31-8.73,7.55-8.53s-3.74,6.46-6.12,9.61C63.5,174.15,62.53,175.35,61.85,174.84Z"/><path class="cls-11" d="M61.87,174.82c-.59-.44.14-1.56.84-2.49,1.95-2.58,6-7.06,6.21-6.86S66,170.74,64,173.33C63.31,174.28,62.46,175.26,61.87,174.82Z"/><path class="cls-12" d="M61.89,174.8c-.51-.38,0-1.32.62-2.09,1.52-2,4.63-5.4,4.87-5.2s-2.14,4.1-3.66,6.11C63.12,174.42,62.39,175.18,61.89,174.8Z"/><path class="cls-13" d="M61.9,174.78c-.41-.31,0-1.07.42-1.68,1.08-1.45,3.29-3.74,3.52-3.55s-1.34,2.93-2.43,4.37C62.93,174.55,62.32,175.09,61.9,174.78Z"/><path class="cls-14" d="M61.92,174.76c-.33-.25-.15-.82.2-1.28.66-.88,1.95-2.07,2.19-1.89s-.55,1.75-1.21,2.63C62.75,174.68,62.25,175,61.92,174.76Z"/><path class="cls-15" d="M61.94,174.73a.62.62,0,0,1,0-.87.56.56,0,1,1,.87.65A.62.62,0,0,1,61.94,174.73Z"/><path d="M70,134.74c-.83-1.39,2-2.8,4.17-4.08,7.13-4.23,21.55-11.53,21.68-11.22s-13.13,9.39-20.27,13.61C73.34,134.39,70.85,136.12,70,134.74Z"/><path class="cls-4" d="M70.05,134.73c-.78-1.3,1.82-2.62,3.83-3.81,6.57-3.89,19.82-10.57,20-10.27s-12,8.65-18.6,12.54C73.13,134.44,70.82,136,70.05,134.73Z"/><path class="cls-5" d="M70.07,134.71c-.72-1.19,1.66-2.43,3.51-3.53,6-3.55,18.07-9.62,18.21-9.32s-10.94,7.92-16.93,11.47C72.92,134.48,70.79,135.91,70.07,134.71Z"/><path class="cls-6" d="M70.09,134.7c-.66-1.1,1.49-2.25,3.19-3.26,5.43-3.21,16.33-8.67,16.47-8.38s-9.84,7.2-15.27,10.41C72.71,134.52,70.75,135.8,70.09,134.7Z"/><path class="cls-7" d="M70.11,134.69c-.6-1,1.32-2.07,2.87-3,4.86-2.87,14.59-7.72,14.73-7.43s-8.74,6.47-13.6,9.34C72.5,134.56,70.72,135.7,70.11,134.69Z"/><path class="cls-8" d="M70.14,134.68c-.55-.92,1.15-1.89,2.54-2.71,4.29-2.54,12.85-6.78,13-6.49s-7.64,5.73-11.93,8.27C72.29,134.61,70.69,135.59,70.14,134.68Z"/><path class="cls-9" d="M70.16,134.66c-.49-.82,1-1.7,2.22-2.43,3.72-2.2,11.11-5.82,11.25-5.54s-6.55,5-10.27,7.2C72.08,134.65,70.65,135.48,70.16,134.66Z"/><path class="cls-10" d="M70.18,134.65c-.43-.73.82-1.52,1.9-2.16,3.15-1.87,9.37-4.87,9.51-4.59S76.14,132.17,73,134C71.87,134.69,70.62,135.38,70.18,134.65Z"/><path class="cls-11" d="M70.21,134.64c-.38-.64.64-1.34,1.57-1.89,2.58-1.53,7.63-3.92,7.77-3.64s-4.35,3.53-6.93,5.06C71.66,134.74,70.58,135.27,70.21,134.64Z"/><path class="cls-12" d="M70.23,134.63c-.32-.54.47-1.16,1.24-1.62,2-1.19,5.9-3,6-2.7s-3.25,2.81-5.27,4C71.45,134.78,70.55,135.17,70.23,134.63Z"/><path class="cls-13" d="M70.25,134.61c-.27-.44.31-1,.92-1.34,1.45-.85,4.16-2,4.31-1.75s-2.17,2.08-3.61,2.93C71.24,134.82,70.52,135.06,70.25,134.61Z"/><path class="cls-14" d="M70.27,134.6c-.21-.35.14-.79.6-1.07.87-.51,2.41-1.06,2.57-.8s-1.07,1.34-1.94,1.86C71,134.87,70.48,135,70.27,134.6Z"/><path class="cls-15" d="M70.3,134.59a.59.59,0,0,1,.27-.79.6.6,0,0,1,.83.14.59.59,0,0,1-.28.79A.59.59,0,0,1,70.3,134.59Z"/><path d="M51.55,156.52c-1-1.29,1.51-2.89,3.4-4.32,6.22-4.69,18.93-13,19.1-12.69s-11.21,10.22-17.42,14.91C54.66,155.91,52.53,157.79,51.55,156.52Z"/><path class="cls-4" d="M51.57,156.5c-.92-1.2,1.38-2.69,3.13-4,5.72-4.32,17.41-11.91,17.58-11.62s-10.27,9.41-16,13.73C54.47,156,52.48,157.69,51.57,156.5Z"/><path class="cls-5" d="M51.59,156.49c-.85-1.11,1.24-2.51,2.86-3.73,5.22-3.95,15.88-10.84,16-10.56S61.18,150.81,56,154.75C54.27,156,52.44,157.59,51.59,156.49Z"/><path class="cls-6" d="M51.61,156.47c-.78-1,1.11-2.31,2.59-3.43,4.73-3.57,14.35-9.77,14.53-9.5s-8.38,7.81-13.11,11.38C54.08,156.09,52.39,157.49,51.61,156.47Z"/><path class="cls-7" d="M51.63,156.46c-.72-.94,1-2.12,2.32-3.14,4.23-3.2,12.83-8.71,13-8.44s-7.43,7-11.66,10.21C53.88,156.15,52.34,157.39,51.63,156.46Z"/><path class="cls-8" d="M51.65,156.45c-.65-.85.84-1.94,2.05-2.85,3.73-2.82,11.3-7.64,11.47-7.37s-6.49,6.2-10.22,9C53.69,156.21,52.3,157.29,51.65,156.45Z"/><path class="cls-9" d="M51.67,156.43c-.58-.76.7-1.74,1.78-2.55,3.24-2.45,9.78-6.57,9.95-6.31s-5.55,5.4-8.79,7.85C53.5,156.26,52.25,157.19,51.67,156.43Z"/><path class="cls-10" d="M51.69,156.42c-.52-.68.57-1.55,1.51-2.26,2.74-2.08,8.25-5.51,8.42-5.25s-4.6,4.6-7.34,6.68C53.3,156.32,52.2,157.09,51.69,156.42Z"/><path class="cls-11" d="M51.71,156.4c-.45-.58.43-1.36,1.24-2,2.24-1.7,6.72-4.44,6.9-4.19s-3.66,3.81-5.91,5.5C53.11,156.38,52.16,157,51.71,156.4Z"/><path class="cls-12" d="M51.73,156.39c-.38-.5.29-1.17,1-1.68,1.76-1.32,5.21-3.36,5.38-3.11s-2.71,3-4.47,4.32C52.91,156.44,52.11,156.89,51.73,156.39Z"/><path class="cls-13" d="M51.75,156.38c-.31-.42.16-1,.69-1.39,1.26-.94,3.68-2.3,3.86-2.05s-1.78,2.2-3,3.15C52.72,156.5,52.06,156.79,51.75,156.38Z"/><path class="cls-14" d="M51.77,156.36c-.25-.32,0-.78.42-1.09.76-.57,2.15-1.23,2.33-1s-.83,1.4-1.59,2C52.53,156.56,52,156.69,51.77,156.36Z"/><path class="cls-15" d="M51.79,156.35a.61.61,0,1,1,.81.07A.58.58,0,0,1,51.79,156.35Z"/><path d="M34.48,142.41c-.65-1.48,2.48-2.59,4.9-3.64,8-3.45,23.93-9.19,24-8.87s-14.93,8-22.91,11.43C38,142.42,35.13,143.88,34.48,142.41Z"/><path class="cls-4" d="M34.51,142.4C33.9,141,36.78,140,39,139c7.35-3.18,22-8.43,22.09-8.11s-13.69,7.36-21,10.54C37.73,142.44,35.12,143.77,34.51,142.4Z"/><path class="cls-5" d="M34.53,142.39c-.56-1.28,2.07-2.26,4.15-3.16,6.71-2.9,20.06-7.67,20.16-7.35s-12.45,6.74-19.17,9.64C37.51,142.46,35.1,143.66,34.53,142.39Z"/><path class="cls-6" d="M34.56,142.38c-.52-1.18,1.87-2.1,3.77-2.92,6.08-2.63,18.13-6.9,18.23-6.6S45.34,139,39.27,141.62C37.29,142.48,35.08,143.55,34.56,142.38Z"/><path class="cls-7" d="M34.58,142.37c-.47-1.08,1.67-1.93,3.4-2.68,5.44-2.35,16.19-6.14,16.29-5.84s-10,5.52-15.41,7.87C37.06,142.5,35.06,143.44,34.58,142.37Z"/><path class="cls-8" d="M34.61,142.36c-.43-1,1.47-1.77,3-2.44,4.8-2.08,14.26-5.38,14.36-5.08s-8.73,4.91-13.53,7C36.84,142.52,35,143.33,34.61,142.36Z"/><path class="cls-9" d="M34.64,142.35c-.39-.88,1.26-1.6,2.64-2.2,4.17-1.8,12.33-4.62,12.43-4.32s-7.49,4.29-11.66,6.09C36.62,142.54,35,143.22,34.64,142.35Z"/><path class="cls-10" d="M34.66,142.34c-.34-.78,1.07-1.44,2.28-2,3.52-1.53,10.38-3.86,10.49-3.56s-6.26,3.68-9.78,5.2C36.39,142.56,35,143.11,34.66,142.34Z"/><path class="cls-11" d="M34.69,142.33c-.3-.68.86-1.28,1.9-1.72,2.88-1.25,8.45-3.1,8.56-2.81s-5,3.07-7.91,4.32C36.17,142.58,35,143,34.69,142.33Z"/><path class="cls-12" d="M34.71,142.32c-.25-.58.67-1.11,1.53-1.49,2.25-1,6.51-2.33,6.62-2s-3.77,2.46-6,3.43C36,142.6,35,142.89,34.71,142.32Z"/><path class="cls-13" d="M34.74,142.31c-.21-.48.46-.95,1.15-1.25,1.61-.69,4.58-1.56,4.69-1.28s-2.54,1.84-4.15,2.54C35.73,142.62,35,142.78,34.74,142.31Z"/><path class="cls-14" d="M34.76,142.3c-.16-.38.26-.79.78-1,1-.42,2.64-.8,2.76-.52S37,142,36,142.42C35.5,142.65,34.93,142.67,34.76,142.3Z"/><path class="cls-15" d="M34.79,142.29a.69.69,0,1,1,.83.23A.62.62,0,0,1,34.79,142.29Z"/><path d="M64,112.37c-.13-1.62,2.9-1.61,5.3-1.79,7.91-.59,23.37-.68,23.36-.35s-15.24,2.53-23.15,3.12C67,113.54,64.13,114,64,112.37Z"/><path class="cls-4" d="M64,112.37c-.13-1.51,2.67-1.53,4.9-1.69,7.28-.55,21.48-.61,21.46-.28s-14,2.37-21.26,2.91C66.8,113.48,64.15,113.86,64,112.37Z"/><path class="cls-5" d="M64.05,112.36c-.11-1.39,2.45-1.43,4.51-1.58,6.65-.5,19.58-.54,19.57-.21s-12.73,2.2-19.38,2.7C66.6,113.43,64.17,113.75,64.05,112.36Z"/><path class="cls-6" d="M64.08,112.36c-.11-1.28,2.23-1.34,4.11-1.49,6-.44,17.69-.45,17.68-.13s-11.48,2-17.5,2.49C66.4,113.37,64.18,113.64,64.08,112.36Z"/><path class="cls-7" d="M64.1,112.36c-.09-1.17,2-1.26,3.72-1.39,5.39-.4,15.79-.38,15.79-.06S73.38,112.78,68,113.18C66.2,113.32,64.2,113.53,64.1,112.36Z"/><path class="cls-8" d="M64.13,112.36c-.09-1.06,1.78-1.17,3.32-1.29,4.76-.35,13.9-.31,13.9,0s-9,1.71-13.74,2.06C66,113.26,64.21,113.42,64.13,112.36Z"/><path class="cls-9" d="M64.15,112.36c-.08-1,1.57-1.09,2.94-1.19,4.12-.31,12-.24,12,.08s-7.74,1.54-11.86,1.85C65.81,113.21,64.23,113.31,64.15,112.36Z"/><path class="cls-10" d="M64.18,112.36c-.07-.85,1.34-1,2.54-1.09,3.49-.26,10.1-.17,10.11.15s-6.49,1.38-10,1.64C65.61,113.15,64.25,113.2,64.18,112.36Z"/><path class="cls-11" d="M64.2,112.36c-.06-.74,1.12-.91,2.15-1,2.86-.21,8.21-.09,8.22.22s-5.24,1.21-8.1,1.43C65.41,113.1,64.26,113.09,64.2,112.36Z"/><path class="cls-12" d="M64.23,112.36c0-.63.89-.83,1.75-.89,2.23-.17,6.31,0,6.32.29s-4,1-6.21,1.22C65.21,113,64.28,113,64.23,112.36Z"/><path class="cls-13" d="M64.25,112.36c0-.52.68-.74,1.36-.79,1.6-.12,4.42.05,4.43.35s-2.73.9-4.33,1C65,113,64.29,112.87,64.25,112.36Z"/><path class="cls-14" d="M64.28,112.36c0-.41.45-.65,1-.69,1-.07,2.52.12,2.54.42s-1.48.73-2.45.8C64.81,112.93,64.31,112.76,64.28,112.36Z"/><path class="cls-15" d="M64.3,112.35a.58.58,0,0,1,.57-.58.57.57,0,0,1,.65.49.62.62,0,0,1-1.22.09Z"/><path d="M35.29,121.73c-.32-1.59,2.51-1.89,4.73-2.3,7.31-1.39,21.71-3,21.73-2.7s-13.91,4-21.22,5.43C38.22,122.6,35.6,123.31,35.29,121.73Z"/><path class="cls-4" d="M35.31,121.73c-.29-1.48,2.31-1.78,4.37-2.17,6.73-1.27,20-2.76,20-2.43s-12.77,3.75-19.5,5C38,122.56,35.6,123.2,35.31,121.73Z"/><path class="cls-5" d="M35.33,121.73c-.27-1.38,2.12-1.67,4-2,6.14-1.16,18.2-2.5,18.23-2.17S46,121,39.82,122.15C37.83,122.53,35.6,123.09,35.33,121.73Z"/><path class="cls-6" d="M35.36,121.72c-.25-1.26,1.92-1.56,3.66-1.89,5.56-1,16.44-2.23,16.47-1.91s-10.47,3.18-16,4.23C37.64,122.49,35.6,123,35.36,121.72Z"/><path class="cls-7" d="M35.38,121.72c-.23-1.16,1.72-1.45,3.31-1.75,5-.94,14.68-2,14.71-1.65s-9.33,2.89-14.3,3.83C37.45,122.46,35.6,122.87,35.38,121.72Z"/><path class="cls-8" d="M35.4,121.72c-.2-1,1.53-1.35,3-1.62,4.4-.83,12.92-1.7,13-1.39s-8.18,2.6-12.57,3.43C37.26,122.42,35.61,122.76,35.4,121.72Z"/><path class="cls-9" d="M35.43,121.71c-.19-.94,1.33-1.23,2.59-1.47,3.81-.72,11.16-1.45,11.2-1.13s-7,2.31-10.84,3C37.07,122.39,35.61,122.65,35.43,121.71Z"/><path class="cls-10" d="M35.45,121.71c-.16-.83,1.13-1.13,2.24-1.34,3.23-.61,9.4-1.18,9.44-.87s-5.88,2-9.11,2.64C36.88,122.35,35.61,122.54,35.45,121.71Z"/><path class="cls-11" d="M35.47,121.71c-.14-.73.94-1,1.89-1.2C40,120,45,119.59,45,119.9s-4.73,1.73-7.38,2.23C36.68,122.32,35.61,122.43,35.47,121.71Z"/><path class="cls-12" d="M35.5,121.7c-.12-.62.74-.91,1.52-1,2.06-.39,5.89-.66,5.94-.36s-3.6,1.45-5.66,1.84C36.49,122.28,35.61,122.32,35.5,121.7Z"/><path class="cls-13" d="M35.52,121.7c-.1-.51.54-.8,1.17-.92,1.48-.28,4.13-.39,4.18-.09s-2.45,1.16-3.92,1.44C36.3,122.25,35.62,122.21,35.52,121.7Z"/><path class="cls-14" d="M35.54,121.7c-.08-.41.35-.69.82-.78.89-.17,2.37-.13,2.42.16s-1.3.87-2.19,1C36.11,122.21,35.62,122.1,35.54,121.7Z"/><path class="cls-15" d="M35.56,121.69a.57.57,0,0,1,.47-.64.54.54,0,1,1,.2,1.07A.56.56,0,0,1,35.56,121.69Z"/><path d="M27.36,101.2c.16-1.61,3.37-1,6-.75,8.49.91,24.9,3.75,24.82,4.07s-16.62-.39-25.12-1.31C30.31,102.92,27.2,102.81,27.36,101.2Z"/><path class="cls-4" d="M27.38,101.21c.15-1.5,3.12-1,5.52-.73,7.82.84,22.88,3.46,22.8,3.78s-15.27-.32-23.09-1.16C30.11,102.83,27.23,102.7,27.38,101.21Z"/><path class="cls-5" d="M27.41,101.21c.14-1.39,2.87-.95,5.08-.71,7.14.77,20.85,3.18,20.78,3.5s-13.91-.24-21.05-1C29.91,102.74,27.27,102.6,27.41,101.21Z"/><path class="cls-6" d="M27.44,101.22c.13-1.29,2.61-.91,4.64-.69,6.46.7,18.83,2.89,18.76,3.21s-12.55-.17-19-.87C29.71,102.65,27.31,102.49,27.44,101.22Z"/><path class="cls-7" d="M27.46,101.22c.12-1.17,2.37-.86,4.21-.66,5.78.62,16.81,2.61,16.74,2.92s-11.19-.09-17-.72C29.51,102.55,27.35,102.39,27.46,101.22Z"/><path class="cls-8" d="M27.49,101.22c.11-1.06,2.11-.81,3.77-.63,5.11.55,14.79,2.32,14.73,2.63s-9.85,0-15-.57C29.31,102.46,27.38,102.28,27.49,101.22Z"/><path class="cls-9" d="M27.52,101.23c.09-1,1.86-.78,3.33-.62,4.43.48,12.76,2,12.71,2.35s-8.49.05-12.92-.42C29.11,102.37,27.42,102.18,27.52,101.23Z"/><path class="cls-10" d="M27.54,101.23c.09-.85,1.61-.73,2.9-.59,3.75.41,10.74,1.75,10.69,2.06s-7.13.13-10.88-.28C28.91,102.28,27.46,102.07,27.54,101.23Z"/><path class="cls-11" d="M27.57,101.23c.08-.73,1.36-.68,2.46-.56,3.07.33,8.72,1.46,8.67,1.77s-5.77.2-8.85-.13C28.71,102.19,27.5,102,27.57,101.23Z"/><path class="cls-12" d="M27.6,101.24c.06-.63,1.1-.64,2-.54,2.39.26,6.7,1.17,6.65,1.47s-4.42.29-6.81,0C28.51,102.1,27.53,101.86,27.6,101.24Z"/><path class="cls-13" d="M27.62,101.24c.06-.52.86-.59,1.59-.52,1.72.19,4.67.89,4.63,1.19s-3.06.36-4.78.18C28.31,102,27.57,101.76,27.62,101.24Z"/><path class="cls-14" d="M27.65,101.25c0-.41.6-.56,1.15-.5,1,.11,2.65.6,2.61.9s-1.7.43-2.74.32C28.11,101.91,27.61,101.65,27.65,101.25Z"/><path class="cls-15" d="M27.68,101.25a.6.6,0,0,1,.71-.47.61.61,0,0,1,.6.61.62.62,0,0,1-.72.47A.61.61,0,0,1,27.68,101.25Z"/><path d="M87.78,72.78c1.39-.83,2.61,1.67,3.74,3.58,3.71,6.29,10,19.06,9.72,19.2s-8.4-11.49-12.12-17.78C87.94,75.78,86.4,73.61,87.78,72.78Z"/><path class="cls-4" d="M87.79,72.8c1.3-.78,2.44,1.53,3.49,3.3,3.42,5.79,9.2,17.52,8.9,17.66S92.43,83.23,89,77.45C87.91,75.6,86.51,73.57,87.79,72.8Z"/><path class="cls-5" d="M87.81,72.82c1.2-.72,2.27,1.39,3.23,3,3.13,5.29,8.37,16,8.07,16.12S92,82.4,88.89,77.11C87.88,75.41,86.61,73.54,87.81,72.82Z"/><path class="cls-6" d="M87.82,72.84c1.1-.66,2.1,1.24,3,2.74,2.82,4.79,7.53,14.44,7.24,14.58s-6.45-8.6-9.27-13.38C87.85,75.22,86.72,73.5,87.82,72.84Z"/><path class="cls-7" d="M87.83,72.86c1-.61,1.93,1.1,2.74,2.46C93.1,79.6,97.28,88.23,97,88.37s-5.8-7.64-8.33-11.92C87.82,75,86.82,73.46,87.83,72.86Z"/><path class="cls-8" d="M87.84,72.88c.92-.55,1.77,1,2.49,2.18,2.23,3.78,5.88,11.37,5.6,11.51s-5.15-6.68-7.39-10.46C87.79,74.84,86.93,73.43,87.84,72.88Z"/><path class="cls-9" d="M87.85,72.9c.82-.49,1.6.81,2.24,1.9,1.94,3.28,5,9.83,4.77,10s-4.49-5.71-6.43-9C87.76,74.65,87,73.39,87.85,72.9Z"/><path class="cls-10" d="M87.86,72.92c.73-.44,1.43.66,2,1.62,1.64,2.77,4.22,8.29,3.94,8.44S90,78.22,88.31,75.45C87.73,74.46,87.13,73.35,87.86,72.92Z"/><path class="cls-11" d="M87.87,72.94c.64-.38,1.27.52,1.75,1.33C91,76.55,93,81,92.74,81.18s-3.2-3.79-4.54-6.07C87.7,74.27,87.24,73.32,87.87,72.94Z"/><path class="cls-12" d="M87.88,73c.54-.32,1.1.37,1.5,1.05,1.05,1.78,2.56,5.22,2.3,5.37s-2.55-2.83-3.6-4.6C87.67,74.08,87.34,73.28,87.88,73Z"/><path class="cls-13" d="M87.89,73c.45-.27.93.23,1.25.77.75,1.27,1.74,3.68,1.47,3.83S88.72,75.72,88,74.45C87.64,73.89,87.45,73.25,87.89,73Z"/><path class="cls-14" d="M87.9,73c.36-.21.77.09,1,.49.45.77.9,2.15.64,2.3s-1.25-.91-1.7-1.67C87.61,73.7,87.55,73.21,87.9,73Z"/><path class="cls-15" d="M87.92,73a.56.56,0,0,1,.57,1,.56.56,0,0,1-.57-1Z"/><path d="M77.46,38.61c1.46-.69,2.38,1.85,3.28,3.8,3,6.42,7.76,19.35,7.44,19.45s-7-11.87-10-18.29C77.28,41.54,76,39.29,77.46,38.61Z"/><path class="cls-4" d="M77.47,38.63c1.36-.65,2.23,1.69,3.07,3.5C83.26,48,87.65,59.92,87.34,60s-6.47-10.88-9.2-16.79C77.27,41.35,76.11,39.26,77.47,38.63Z"/><path class="cls-5" d="M77.47,38.65c1.27-.6,2.09,1.54,2.86,3.21,2.49,5.4,6.47,16.22,6.16,16.33s-5.94-9.89-8.43-15.28C77.26,41.16,76.21,39.24,77.47,38.65Z"/><path class="cls-6" d="M77.48,38.67c1.17-.55,1.94,1.38,2.65,2.91,2.25,4.89,5.82,14.67,5.51,14.78s-5.4-8.9-7.65-13.79C77.25,41,76.32,39.21,77.48,38.67Z"/><path class="cls-7" d="M77.49,38.69c1.07-.5,1.79,1.23,2.43,2.62,2,4.37,5.18,13.1,4.87,13.21s-4.86-7.91-6.88-12.28C77.24,40.79,76.43,39.19,77.49,38.69Z"/><path class="cls-8" d="M77.5,38.71c1-.46,1.64,1.08,2.22,2.33C81.5,44.9,84.24,52.57,84,52.69s-4.34-6.92-6.12-10.78C77.23,40.6,76.54,39.16,77.5,38.71Z"/><path class="cls-9" d="M77.51,38.73c.87-.41,1.49.92,2,2,1.55,3.35,3.88,10,3.59,10.09s-3.8-5.93-5.34-9.28C77.22,40.42,76.64,39.13,77.51,38.73Z"/><path class="cls-10" d="M77.52,38.75c.77-.36,1.34.77,1.79,1.74,1.3,2.83,3.23,8.41,2.94,8.53S79,44.08,77.68,41.24C77.21,40.23,76.75,39.11,77.52,38.75Z"/><path class="cls-11" d="M77.53,38.77c.67-.31,1.19.61,1.57,1.45,1.07,2.32,2.59,6.84,2.31,7s-2.74-4-3.81-6.27C77.2,40.05,76.86,39.08,77.53,38.77Z"/><path class="cls-12" d="M77.53,38.79c.57-.27,1,.46,1.37,1.15.83,1.81,1.94,5.29,1.66,5.41s-2.2-3-3-4.78C77.2,39.86,77,39.06,77.53,38.79Z"/><path class="cls-13" d="M77.54,38.81c.47-.22.9.3,1.15.86.6,1.3,1.3,3.72,1,3.84s-1.66-2-2.26-3.27C77.19,39.67,77.07,39,77.54,38.81Z"/><path class="cls-14" d="M77.55,38.83c.37-.17.75.15.94.56.36.79.65,2.16.37,2.29s-1.13-1-1.49-1.77C77.18,39.49,77.18,39,77.55,38.83Z"/><path class="cls-15" d="M77.56,38.85a.55.55,0,0,1,.72.27.54.54,0,0,1-.26.72.54.54,0,0,1-.73-.27A.55.55,0,0,1,77.56,38.85Z"/><path d="M63.55,52.53c1.26-1,3,1.48,4.46,3.37C73,62.09,81.72,74.79,81.44,75S70.77,63.82,65.83,57.63C64.27,55.66,62.3,53.55,63.55,52.53Z"/><path class="cls-4" d="M63.56,52.55c1.18-.95,2.77,1.35,4.16,3.1C72.27,61.35,80.31,73,80,73.2S70.2,63,65.66,57.29C64.2,55.47,62.4,53.5,63.56,52.55Z"/><path class="cls-5" d="M63.58,52.57c1.09-.88,2.56,1.22,3.85,2.83,4.15,5.2,11.46,15.85,11.18,16s-9-9.27-13.13-14.47C64.14,55.28,62.5,53.45,63.58,52.57Z"/><path class="cls-6" d="M63.59,52.59c1-.81,2.37,1.08,3.55,2.56C70.9,59.86,77.47,69.48,77.2,69.66s-8.15-8.33-11.9-13C64.07,55.08,62.6,53.4,63.59,52.59Z"/><path class="cls-7" d="M63.61,52.61c.92-.74,2.17,1,3.24,2.29,3.36,4.22,9.21,12.81,8.94,13S68.48,60.5,65.12,56.28C64,54.89,62.7,53.35,63.61,52.61Z"/><path class="cls-8" d="M63.62,52.63c.84-.67,2,.81,2.94,2,3,3.73,8.08,11.29,7.82,11.47S67.91,59.67,64.94,56C63.94,54.69,62.8,53.3,63.62,52.63Z"/><path class="cls-9" d="M63.64,52.65c.74-.6,1.78.68,2.63,1.75,2.58,3.23,7,9.77,6.69,9.95s-5.63-5.51-8.2-8.74C63.87,54.5,62.9,53.25,63.64,52.65Z"/><path class="cls-10" d="M63.65,52.67c.66-.53,1.58.55,2.33,1.49,2.18,2.73,5.83,8.24,5.57,8.42s-4.79-4.57-7-7.31C63.8,54.3,63,53.21,63.65,52.67Z"/><path class="cls-11" d="M63.67,52.69c.57-.46,1.38.41,2,1.22,1.79,2.24,4.7,6.71,4.45,6.9s-4-3.63-5.74-5.87C63.74,54.11,63.09,53.16,63.67,52.69Z"/><path class="cls-12" d="M63.68,52.71c.49-.39,1.19.28,1.72.95C66.79,55.4,69,58.85,68.73,59s-3.12-2.69-4.51-4.44C63.67,53.91,63.19,53.11,63.68,52.71Z"/><path class="cls-13" d="M63.7,52.73c.4-.32,1,.15,1.41.68,1,1.25,2.45,3.67,2.2,3.86S65,55.52,64,54.26C63.61,53.72,63.29,53.06,63.7,52.73Z"/><path class="cls-14" d="M63.71,52.75c.32-.25.79,0,1.11.41.61.76,1.32,2.15,1.08,2.34s-1.43-.82-2-1.57C63.54,53.52,63.39,53,63.71,52.75Z"/><path class="cls-15" d="M63.73,52.77a.62.62,0,1,1,0,.82A.58.58,0,0,1,63.73,52.77Z"/><path d="M67.26,84.19c.88-1.36,3.68.78,6,2.33,7.69,5.12,22,16,21.83,16.2S79.43,94,71.74,88.84C69.3,87.22,66.38,85.54,67.26,84.19Z"/><path class="cls-4" d="M67.28,84.2c.83-1.26,3.42.7,5.59,2.14,7.08,4.71,20.25,14.67,20,14.92s-14.42-8-21.5-12.72C69.15,87,66.46,85.46,67.28,84.2Z"/><path class="cls-5" d="M67.3,84.22c.77-1.17,3.17.61,5.17,1.94,6.46,4.3,18.45,13.39,18.24,13.64S77.55,92.54,71.08,88.24C69,86.85,66.54,85.39,67.3,84.22Z"/><path class="cls-6" d="M67.33,84.24c.7-1.08,2.9.51,4.74,1.74,5.85,3.89,16.65,12.11,16.44,12.36s-11.9-6.51-17.75-10.4C68.85,86.67,66.63,85.31,67.33,84.24Z"/><path class="cls-7" d="M67.35,84.25c.65-1,2.65.43,4.31,1.54,5.24,3.49,14.86,10.84,14.65,11.09s-10.64-5.76-15.88-9.24C68.7,86.48,66.71,85.24,67.35,84.25Z"/><path class="cls-8" d="M67.38,84.27c.58-.89,2.38.34,3.88,1.34,4.62,3.08,13,9.55,12.85,9.8s-9.38-5-14-8.07C68.55,86.3,66.79,85.16,67.38,84.27Z"/><path class="cls-9" d="M67.4,84.29c.52-.8,2.12.25,3.46,1.14,4,2.67,11.25,8.27,11.06,8.52S73.79,89.71,69.78,87C68.4,86.12,66.88,85.09,67.4,84.29Z"/><path class="cls-10" d="M67.42,84.31c.47-.72,1.87.16,3,.93,3.4,2.26,9.46,7,9.27,7.25S72.85,89,69.46,86.74C68.25,85.93,67,85,67.42,84.31Z"/><path class="cls-11" d="M67.45,84.32c.4-.62,1.6.08,2.6.74,2.78,1.85,7.65,5.72,7.47,6s-5.61-2.74-8.39-4.59C68.1,85.75,67,84.94,67.45,84.32Z"/><path class="cls-12" d="M67.47,84.34c.35-.53,1.35,0,2.17.54,2.17,1.44,5.86,4.43,5.68,4.68s-4.34-2-6.51-3.42C68,85.57,67.13,84.86,67.47,84.34Z"/><path class="cls-13" d="M67.49,84.36c.29-.44,1.09-.1,1.75.34,1.56,1,4.06,3.15,3.88,3.4S70,86.87,68.48,85.84C67.8,85.38,67.21,84.79,67.49,84.36Z"/><path class="cls-14" d="M67.52,84.37c.22-.34.82-.19,1.32.14.94.63,2.25,1.88,2.08,2.13s-1.82-.48-2.76-1.1C67.65,85.2,67.29,84.71,67.52,84.37Z"/><path class="cls-15" d="M67.54,84.39a.64.64,0,0,1,.89-.06.56.56,0,1,1-.89.06Z"/><path d="M39.35,83.32c.5-1.54,3.41-.34,5.79.45,7.84,2.6,22.74,8.65,22.6,9S52.11,89,44.27,86.41C41.78,85.59,38.86,84.85,39.35,83.32Z"/><path class="cls-4" d="M39.38,83.33c.46-1.44,3.16-.35,5.37.39C52,86.1,65.64,91.68,65.5,92s-14.37-3.36-21.58-5.75C41.61,85.46,38.92,84.76,39.38,83.33Z"/><path class="cls-5" d="M39.4,83.34c.43-1.33,2.91-.35,5,.32,6.59,2.18,19,7.28,18.91,7.57s-13.1-3-19.69-5.2C41.44,85.33,39,84.66,39.4,83.34Z"/><path class="cls-6" d="M39.43,83.35c.39-1.23,2.66-.36,4.53.26,6,2,17.19,6.59,17.06,6.88s-11.84-2.67-17.8-4.65C41.27,85.2,39,84.57,39.43,83.35Z"/><path class="cls-7" d="M39.45,83.36c.36-1.13,2.42-.37,4.12.19,5.33,1.77,15.33,5.91,15.21,6.2s-10.57-2.33-15.91-4.09C41.1,85.07,39.09,84.47,39.45,83.36Z"/><path class="cls-8" d="M39.47,83.37c.33-1,2.17-.38,3.7.13,4.71,1.56,13.49,5.22,13.37,5.51s-9.31-2-14-3.54C40.93,84.94,39.15,84.38,39.47,83.37Z"/><path class="cls-9" d="M39.5,83.37c.29-.91,1.92-.38,3.28.07C46.87,84.79,54.42,88,54.3,88.27s-8-1.64-12.13-3C40.76,84.81,39.2,84.28,39.5,83.37Z"/><path class="cls-10" d="M39.52,83.38c.26-.8,1.68-.39,2.87,0,3.46,1.14,9.78,3.85,9.67,4.14s-6.78-1.3-10.24-2.44C40.59,84.68,39.26,84.19,39.52,83.38Z"/><path class="cls-11" d="M39.55,83.39c.23-.7,1.43-.39,2.44-.06,2.84.94,7.94,3.17,7.82,3.46s-5.5-1-8.34-1.89C40.42,84.55,39.32,84.09,39.55,83.39Z"/><path class="cls-12" d="M39.57,83.4c.2-.6,1.18-.4,2-.12,2.21.73,6.08,2.48,6,2.77s-4.24-.61-6.45-1.34C40.25,84.42,39.38,84,39.57,83.4Z"/><path class="cls-13" d="M39.6,83.41c.16-.49.93-.41,1.61-.19,1.58.53,4.23,1.8,4.12,2.09s-3-.26-4.55-.79C40.08,84.29,39.44,83.9,39.6,83.41Z"/><path class="cls-14" d="M39.62,83.42c.13-.39.69-.42,1.19-.25,1,.31,2.38,1.11,2.28,1.4s-1.7.08-2.66-.24C39.91,84.16,39.49,83.81,39.62,83.42Z"/><path class="cls-15" d="M39.64,83.43a.6.6,0,0,1,.78-.32.55.55,0,1,1-.78.32Z"/><path d="M43.16,62.24c.87-1.37,3.34.5,5.41,1.85C55.39,68.51,68.08,78,67.87,78.25s-14-7.41-20.81-11.83C44.89,65,42.29,63.59,43.16,62.24Z"/><path class="cls-4" d="M43.18,62.25c.81-1.27,3.1.44,5,1.69C54.49,68,66.13,76.73,65.92,77S53.05,70.22,46.77,66.15C44.77,64.85,42.37,63.52,43.18,62.25Z"/><path class="cls-5" d="M43.2,62.27c.75-1.18,2.87.37,4.65,1.52C53.58,67.51,64.17,75.47,64,75.72S52.22,69.6,46.49,65.89C44.64,64.69,42.45,63.44,43.2,62.27Z"/><path class="cls-6" d="M43.22,62.28c.69-1.09,2.64.31,4.27,1.36C52.68,67,62.22,74.21,62,74.46S51.39,69,46.2,65.62C44.51,64.52,42.53,63.36,43.22,62.28Z"/><path class="cls-7" d="M43.24,62.3c.64-1,2.41.23,3.88,1.19,4.65,3,13.14,9.46,12.94,9.71s-9.5-4.84-14.14-7.85C44.38,64.35,42.61,63.28,43.24,62.3Z"/><path class="cls-8" d="M43.26,62.31c.58-.9,2.17.17,3.5,1,4.1,2.66,11.55,8.34,11.35,8.6s-8.38-4.2-12.48-6.86C44.25,64.19,42.69,63.21,43.26,62.31Z"/><path class="cls-9" d="M43.28,62.32c.52-.8,1.94.11,3.12.87,3.56,2.31,10,7.23,9.76,7.48s-7.25-3.55-10.81-5.85C44.12,64,42.77,63.13,43.28,62.32Z"/><path class="cls-10" d="M43.3,62.34c.46-.72,1.71,0,2.74.7,3,2,8.36,6.12,8.17,6.37s-6.13-2.91-9.15-4.86C44,63.85,42.85,63.05,43.3,62.34Z"/><path class="cls-11" d="M43.33,62.35c.39-.62,1.46,0,2.35.54,2.46,1.6,6.76,5,6.58,5.26s-5-2.27-7.48-3.87C43.86,63.69,42.93,63,43.33,62.35Z"/><path class="cls-12" d="M43.35,62.37c.34-.53,1.23-.1,2,.37,1.92,1.25,5.17,3.89,5,4.14S46.42,65.26,44.49,64C43.74,63.52,43,62.9,43.35,62.37Z"/><path class="cls-13" d="M43.37,62.38c.28-.43,1-.17,1.58.22,1.38.89,3.58,2.77,3.41,3s-2.77-1-4.15-1.88C43.61,63.35,43.09,62.82,43.37,62.38Z"/><path class="cls-14" d="M43.39,62.4c.22-.35.76-.24,1.2.05.84.54,2,1.65,1.82,1.91s-1.65-.34-2.49-.88C43.48,63.19,43.17,62.74,43.39,62.4Z"/><path class="cls-15" d="M43.41,62.41a.63.63,0,0,1,1.05.68.58.58,0,0,1-.82.12A.6.6,0,0,1,43.41,62.41Z"/></g></g></g></g></svg>