<?xml version="1.0" encoding="UTF-8"?><svg id="Layer_2" xmlns="http://www.w3.org/2000/svg" xmlns:xlink="http://www.w3.org/1999/xlink" viewBox="0 0 46.32 51.62"><defs><style>.cls-1{fill:url(#Degradado_sin_nombre_37);opacity:.83;}.cls-2{fill:url(#Degradado_sin_nombre_48);}.cls-3{fill:url(#Degradado_sin_nombre_48-2);}</style><linearGradient id="Degradado_sin_nombre_48" x1="117.75" y1="606.75" x2="117.75" y2="567.49" gradientTransform="translate(221.96 -546.11) rotate(30.36)" gradientUnits="userSpaceOnUse"><stop offset=".29" stop-color="#fc5"/><stop offset="1" stop-color="#ff8321"/></linearGradient><linearGradient id="Degradado_sin_nombre_48-2" x1="117.75" y1="617.53" x2="117.75" y2="595.98" xlink:href="#Degradado_sin_nombre_48"/><radialGradient id="Degradado_sin_nombre_37" cx="64.46" cy="363.02" fx="64.46" fy="363.02" r="17.23" gradientTransform="translate(151.71 -308.94) rotate(31.46)" gradientUnits="userSpaceOnUse"><stop offset=".24" stop-color="#fff"/><stop offset=".7" stop-color="#fff" stop-opacity="0"/><stop offset="1" stop-color="#fff" stop-opacity="0"/></radialGradient></defs><g id="Layer_1-2"><g><path class="cls-2" d="M36.75,3.09C29.03-1.43,20.33-.93,17.32,4.2L2.93,28.78l27.97,16.38,14.39-24.58c3.01-5.14-.81-12.97-8.54-17.49Z"/><path class="cls-3" d="M30.9,45.16c-3.01,5.14-11.71,5.63-19.43,1.11C3.74,41.75-.08,33.91,2.93,28.78c3.01-5.14,11.71-5.63,19.43-1.11,7.72,4.52,11.55,12.36,8.54,17.49Z"/><circle class="cls-1" cx="17.24" cy="34.38" r="17.23" transform="translate(-7.35 4.81) rotate(-13.11)"/></g></g></svg>