<?xml version="1.0" encoding="UTF-8"?><svg id="Layer_2" xmlns="http://www.w3.org/2000/svg" xmlns:xlink="http://www.w3.org/1999/xlink" viewBox="0 0 76.12 106.13"><defs><style>.cls-1{fill:url(#Degradado_sin_nombre_37);opacity:.83;}.cls-2{fill:url(#Degradado_sin_nombre_48);}.cls-3{fill:url(#Degradado_sin_nombre_48-2);}</style><linearGradient id="Degradado_sin_nombre_48" x1="85.92" y1="-59.97" x2="85.92" y2="-138.11" gradientTransform="translate(-26.82 154.55) rotate(-12.49)" gradientUnits="userSpaceOnUse"><stop offset=".29" stop-color="#fc5"/><stop offset="1" stop-color="#ff8321"/></linearGradient><linearGradient id="Degradado_sin_nombre_48-2" x1="85.92" y1="-49.24" x2="85.92" y2="-70.7" xlink:href="#Degradado_sin_nombre_48"/><radialGradient id="Degradado_sin_nombre_37" cx="185.02" cy="-292.25" fx="185.02" fy="-292.25" r="34.3" gradientTransform="translate(-78.09 342.65) rotate(-9.86) scale(.99 .82) skewX(3.93)" gradientUnits="userSpaceOnUse"><stop offset=".24" stop-color="#fff"/><stop offset=".7" stop-color="#fff" stop-opacity="0"/><stop offset="1" stop-color="#fff" stop-opacity="0"/></radialGradient></defs><g id="Layer_1-2"><g><path class="cls-2" d="M27.2,1.14C9.81,4.99-2.22,17.49,.34,29.06l12.26,55.34,62.99-13.95L63.33,15.11C60.77,3.54,44.59-2.72,27.2,1.14Z"/><path class="cls-3" d="M75.59,70.45c1.28,5.78-11.78,13.6-29.17,17.45-17.39,3.85-32.53,2.29-33.81-3.5-1.28-5.78,11.78-13.6,29.17-17.45,17.39-3.85,32.53-2.29,33.81,3.5Z"/><ellipse class="cls-1" cx="42.08" cy="77.8" rx="34.3" ry="28" transform="translate(-15.83 10.94) rotate(-12.49)"/></g></g></svg>