<svg xmlns="http://www.w3.org/2000/svg" xmlns:xlink="http://www.w3.org/1999/xlink" viewBox="0 0 208.53 149.58"><defs><style>.cls-1{isolation:isolate;}.cls-2{fill:url(#linear-gradient);}.cls-22,.cls-23,.cls-3{mix-blend-mode:overlay;}.cls-3{fill:url(#linear-gradient-2);}.cls-4{fill:url(#linear-gradient-3);}.cls-5{fill:url(#linear-gradient-4);}.cls-6{fill:url(#linear-gradient-5);}.cls-7{fill:url(#linear-gradient-6);}.cls-8{fill:url(#linear-gradient-7);}.cls-9{fill:url(#linear-gradient-8);}.cls-10{fill:url(#linear-gradient-9);}.cls-11{fill:url(#linear-gradient-10);}.cls-12{fill:#fbb03b;}.cls-13{fill:url(#linear-gradient-11);}.cls-14{fill:url(#linear-gradient-12);}.cls-15{fill:url(#linear-gradient-13);}.cls-16{fill:url(#linear-gradient-14);}.cls-17{fill:#fcc604;}.cls-18{fill:#f7931e;}.cls-19{fill:url(#linear-gradient-15);}.cls-20{fill:url(#radial-gradient);}.cls-21{fill:#765600;}.cls-22{fill:url(#radial-gradient-2);}.cls-23{fill:url(#radial-gradient-3);}.cls-24{fill:#ffd685;}.cls-25{fill:#ff8321;}.cls-26{fill:#fc5;}.cls-27{fill:url(#linear-gradient-16);}.cls-28{fill:url(#linear-gradient-17);}.cls-29{fill:url(#linear-gradient-18);}.cls-30{fill:url(#linear-gradient-19);}.cls-31{fill:url(#linear-gradient-20);}.cls-32{fill:url(#linear-gradient-21);}.cls-33{fill:url(#linear-gradient-22);}.cls-34{fill:url(#linear-gradient-23);}.cls-35{fill:url(#linear-gradient-24);}.cls-36{fill:url(#linear-gradient-25);}.cls-37{fill:url(#linear-gradient-26);}.cls-38{fill:url(#linear-gradient-27);}.cls-39{fill:url(#linear-gradient-28);}.cls-40{fill:url(#linear-gradient-29);}.cls-41{fill:url(#linear-gradient-30);}.cls-42{fill:url(#linear-gradient-31);}</style><linearGradient id="linear-gradient" x1="106.51" y1="27.6" x2="106.45" y2="4.7" gradientUnits="userSpaceOnUse"><stop offset="0" stop-color="#ff7300"/><stop offset="0.07" stop-color="#fe7c09"/><stop offset="0.18" stop-color="#fd9622"/><stop offset="0.28" stop-color="#fbb03b"/><stop offset="1" stop-color="#ffffad"/></linearGradient><linearGradient id="linear-gradient-2" x1="106.5" y1="26.7" x2="106.46" y2="10.82" xlink:href="#linear-gradient"/><linearGradient id="linear-gradient-3" x1="3841.46" y1="70.8" x2="3898.78" y2="121.15" gradientTransform="matrix(-1, 0, 0, 1, 4025.47, 0)" gradientUnits="userSpaceOnUse"><stop offset="0" stop-color="#e25b90"/><stop offset="0.29" stop-color="#f8b7d4"/><stop offset="0.75" stop-color="#f8b4d4"/><stop offset="1" stop-color="#e35a90"/></linearGradient><linearGradient id="linear-gradient-4" x1="3869.56" y1="48.81" x2="3909.05" y2="111.66" gradientTransform="matrix(-1, 0, 0, 1, 4025.47, 0)" gradientUnits="userSpaceOnUse"><stop offset="0" stop-color="#e64e79"/><stop offset="0.28" stop-color="#f8bfc6"/><stop offset="0.75" stop-color="#f8c7c6"/><stop offset="1" stop-color="#eb6363"/></linearGradient><linearGradient id="linear-gradient-5" x1="3877.48" y1="55.69" x2="3889.59" y2="79.05" xlink:href="#linear-gradient-4"/><linearGradient id="linear-gradient-6" x1="3877.46" y1="70.06" x2="3890.57" y2="70.06" gradientTransform="matrix(-1, 0, 0, 1, 4025.47, 0)" gradientUnits="userSpaceOnUse"><stop offset="0" stop-color="#e64573"/><stop offset="0.02" stop-color="#e74a76"/><stop offset="0.17" stop-color="#ee7391"/><stop offset="0.3" stop-color="#f491a4"/><stop offset="0.42" stop-color="#f7a3b0"/><stop offset="0.5" stop-color="#f8aab4"/><stop offset="0.59" stop-color="#f7a3ac"/><stop offset="0.73" stop-color="#f48e95"/><stop offset="0.9" stop-color="#ee6d70"/><stop offset="1" stop-color="#eb5858"/></linearGradient><linearGradient id="linear-gradient-7" x1="3878.33" y1="56.64" x2="3910.62" y2="122.96" xlink:href="#linear-gradient-3"/><linearGradient id="linear-gradient-8" x1="3859.88" y1="89.58" x2="3909.17" y2="89.58" xlink:href="#linear-gradient-6"/><linearGradient id="linear-gradient-9" x1="24.27" y1="71.74" x2="83.44" y2="123.72" gradientTransform="matrix(1, 0, 0, 1, 0, 0)" xlink:href="#linear-gradient-3"/><linearGradient id="linear-gradient-10" x1="106.42" y1="32.71" x2="106.42" y2="98.19" gradientTransform="matrix(1, 0, 0, 1, 0, 0)" xlink:href="#linear-gradient-4"/><linearGradient id="linear-gradient-11" x1="55.86" y1="48.81" x2="95.36" y2="111.66" gradientTransform="matrix(1, 0, 0, 1, 0, 0)" xlink:href="#linear-gradient-4"/><linearGradient id="linear-gradient-12" x1="63.79" y1="55.69" x2="75.9" y2="79.05" gradientTransform="matrix(1, 0, 0, 1, 0, 0)" xlink:href="#linear-gradient-4"/><linearGradient id="linear-gradient-13" x1="63.76" y1="70.06" x2="76.87" y2="70.06" gradientTransform="matrix(1, 0, 0, 1, 0, 0)" xlink:href="#linear-gradient-6"/><linearGradient id="linear-gradient-14" x1="64.64" y1="56.64" x2="96.93" y2="122.96" gradientTransform="matrix(1, 0, 0, 1, 0, 0)" xlink:href="#linear-gradient-3"/><linearGradient id="linear-gradient-15" x1="100.17" y1="61.6" x2="113.54" y2="61.6" gradientUnits="userSpaceOnUse"><stop offset="0" stop-color="#fff9ea"/><stop offset="0.28" stop-color="#fffdf8"/><stop offset="0.53" stop-color="#fff"/><stop offset="0.69" stop-color="#fffefc"/><stop offset="0.79" stop-color="#fffaf3"/><stop offset="0.87" stop-color="#fff3e4"/><stop offset="0.95" stop-color="#ffe9cf"/><stop offset="1" stop-color="#ffe1bd"/></linearGradient><radialGradient id="radial-gradient" cx="106.87" cy="29.74" r="4.8" gradientUnits="userSpaceOnUse"><stop offset="0" stop-color="#fff9ea"/><stop offset="0.3" stop-color="#ffefd8"/><stop offset="0.72" stop-color="#ffe5c4"/><stop offset="1" stop-color="#ffe1bd"/></radialGradient><radialGradient id="radial-gradient-2" cx="106.89" cy="20.95" r="20.95" gradientTransform="translate(110.62 -87.95) rotate(80.78)" gradientUnits="userSpaceOnUse"><stop offset="0.01" stop-color="#f2be34"/><stop offset="1" stop-color="#fff" stop-opacity="0"/></radialGradient><radialGradient id="radial-gradient-3" cx="101.63" cy="21.1" r="11.07" gradientTransform="translate(5.96 -0.51) scale(0.99 1)" gradientUnits="userSpaceOnUse"><stop offset="0.01" stop-color="#fff9ea"/><stop offset="1" stop-color="#fff" stop-opacity="0"/></radialGradient><linearGradient id="linear-gradient-16" x1="22.89" y1="88.97" x2="62.97" y2="112.03" gradientTransform="matrix(1, 0, 0, 1, 0, 0)" xlink:href="#linear-gradient-4"/><linearGradient id="linear-gradient-17" x1="23.41" y1="106.17" x2="88.13" y2="106.17" gradientTransform="matrix(1, 0, 0, 1, 0, 0)" xlink:href="#linear-gradient-6"/><linearGradient id="linear-gradient-18" x1="24.93" y1="134.94" x2="95.57" y2="134.94" gradientTransform="matrix(1, 0, 0, 1, 0, 0)" xlink:href="#linear-gradient-4"/><linearGradient id="linear-gradient-19" x1="24.88" y1="139.9" x2="93.59" y2="139.9" gradientTransform="matrix(1, 0, 0, 1, 0, 0)" xlink:href="#linear-gradient-6"/><linearGradient id="linear-gradient-20" x1="46.18" y1="89.58" x2="95.47" y2="89.58" gradientTransform="matrix(1, 0, 0, 1, 0, 0)" xlink:href="#linear-gradient-6"/><linearGradient id="linear-gradient-21" x1="57.66" y1="63.02" x2="92.84" y2="113.77" gradientTransform="matrix(1, 0, 0, 1, 0, 0)" xlink:href="#linear-gradient-4"/><linearGradient id="linear-gradient-22" x1="58.18" y1="91.19" x2="103.1" y2="122.63" gradientTransform="matrix(1, 0, 0, 1, 0, 0)" xlink:href="#linear-gradient-3"/><linearGradient id="linear-gradient-23" x1="62.88" y1="99.31" x2="100.65" y2="131.89" gradientUnits="userSpaceOnUse"><stop offset="0" stop-color="#e64e79"/><stop offset="0.05" stop-color="#e95f84"/><stop offset="0.19" stop-color="#ef88a1"/><stop offset="0.32" stop-color="#f4a6b5"/><stop offset="0.42" stop-color="#f7b8c2"/><stop offset="0.5" stop-color="#f8bfc6"/><stop offset="0.58" stop-color="#f7b7be"/><stop offset="0.72" stop-color="#f4a2a7"/><stop offset="0.88" stop-color="#ef8082"/><stop offset="1" stop-color="#eb6363"/></linearGradient><linearGradient id="linear-gradient-24" x1="3836.58" y1="88.97" x2="3876.66" y2="112.03" xlink:href="#linear-gradient-4"/><linearGradient id="linear-gradient-25" x1="3837.11" y1="106.17" x2="3901.82" y2="106.17" xlink:href="#linear-gradient-6"/><linearGradient id="linear-gradient-26" x1="3838.63" y1="134.94" x2="3909.27" y2="134.94" xlink:href="#linear-gradient-4"/><linearGradient id="linear-gradient-27" x1="3838.57" y1="139.9" x2="3907.28" y2="139.9" xlink:href="#linear-gradient-6"/><linearGradient id="linear-gradient-28" x1="3871.36" y1="63.02" x2="3906.53" y2="113.77" xlink:href="#linear-gradient-4"/><linearGradient id="linear-gradient-29" x1="3871.88" y1="91.19" x2="3916.8" y2="122.63" xlink:href="#linear-gradient-3"/><linearGradient id="linear-gradient-30" x1="3876.57" y1="99.31" x2="3914.34" y2="131.89" gradientTransform="matrix(-1, 0, 0, 1, 4025.47, 0)" xlink:href="#linear-gradient-23"/><linearGradient id="linear-gradient-31" x1="104.92" y1="69.85" x2="105.49" y2="112.81" gradientUnits="userSpaceOnUse"><stop offset="0" stop-color="#e64e79"/><stop offset="0.05" stop-color="#e95f84"/><stop offset="0.2" stop-color="#ef8ca0"/><stop offset="0.34" stop-color="#f4acb5"/><stop offset="0.45" stop-color="#f7c0c1"/><stop offset="0.53" stop-color="#f8c7c6"/><stop offset="0.66" stop-color="#f8c4c3"/><stop offset="0.75" stop-color="#f6bbbb"/><stop offset="0.82" stop-color="#f5acac"/><stop offset="0.89" stop-color="#f29797"/><stop offset="0.95" stop-color="#ee7c7c"/><stop offset="1" stop-color="#eb6363"/></linearGradient></defs><g class="cls-1"><g id="Layer_2" data-name="Layer 2"><g id="OBJECTS"><path class="cls-2" d="M106.66,27.89c2.29,0,5.53-2.35,5.74-8.18.24-6.56-5.43-12.31-5-15.53-1.9,1.7-6.91,9.09-6.84,15.05S103.59,27.85,106.66,27.89Z"/><path class="cls-3" d="M106.6,26.91c1.59,0,3.84-1.63,4-5.68.16-4.55-3.77-8.53-3.47-10.77-1.32,1.18-4.79,6.31-4.74,10.44S104.48,26.88,106.6,26.91Z"/><path class="cls-4" d="M133.31,113.42a6.2,6.2,0,0,1-2.5-.21,2.78,2.78,0,0,0-2.29.31c-1.18.64-2.37,1.26-3.56,1.85-.7.35-1.42.67-2.15.95a9.67,9.67,0,0,1-1.33.17,2.74,2.74,0,0,1-1.3-.11,2,2,0,0,1-.86-.71,3.15,3.15,0,0,1-.25-1.09,10.27,10.27,0,0,1,.07-2c.19-1.47.39-3,.59-4.46a80.2,80.2,0,0,1,4.11-16.92,141,141,0,0,1,7.57-16.77c.25-.49.49-1,.71-1.5,4.26-9.78,10.12-18.72,18.44-25.77,1.61-1.37,3.19-2.84,4.9-4.08.18-.13.38-.33.55-.16s0,.4,0,.62a53.34,53.34,0,0,0-.6,8.84c0,3.75.16,7.39,0,11-.11,2.46-1,10.17-1.07,10.5-.22,1-.45,2-.7,3s-.51,1.9-.76,2.85c0,.13-.12.32,0,.4s.23-.09.33-.17l.58-.48c1.62-1.32,3.26-2.66,4.92-4a81,81,0,0,1,16.15-9.82,18.75,18.75,0,0,1,9-1.67c.64,0,.68.1.55.86a54.55,54.55,0,0,1-4.63,14.56,51.81,51.81,0,0,1-16.63,19.64c-1.82,1.3-3.59,2.64-5.35,4a4.27,4.27,0,0,0,1.23-.34A116.53,116.53,0,0,1,187.58,97a51.72,51.72,0,0,1,15.09,1.1,21.87,21.87,0,0,1,4.87,1.5c1.31.68,1.25.48.25,2a34.2,34.2,0,0,1-7.51,7.89A74.49,74.49,0,0,1,178,121.51a81.31,81.31,0,0,1-15.16,3.33c-12.85,2.38-29-1.2-32-2.13a14.79,14.79,0,0,1-3.6-1.46,1.54,1.54,0,0,1-.68-2.34c.09-.18.09-.29,0-.38l.21-.25a7.62,7.62,0,0,1,1-.91.67.67,0,0,0,.24-.16l.29-.24c.13-.11.26-.21.38-.33.64-.49,1.31-.93,2-1.36.88-.55,1.78-1.08,2.68-1.62.08,0,.2-.08.17-.18S133.39,113.41,133.31,113.42Z"/><path class="cls-5" d="M135.48,69.92a37.85,37.85,0,0,0,.92-11.57,52.82,52.82,0,0,0-4.92-19.46c-.5-1-.51-1-1.36-.29-1.67,1.42-3.47,2.68-5.22,4A26.08,26.08,0,0,0,120.31,47,42.14,42.14,0,0,0,113.1,59.5a51.71,51.71,0,0,0-2.42,7.67c-1.25,6.67-2.92,14-3.39,20-.07,3.72-.05,7.44.17,11.15a87.92,87.92,0,0,0,1.63,13c.22,1.09.88,1.43,1.88,1a6.13,6.13,0,0,0,1.43-1c1.62-1.44,3.24-2.86,4.86-4.29l.19-.18.18-.16c.05,0,.05,0,0,0s0-.06,0,0l-.17.16-.19.18c0,.33-.27.53-.45.77-1.27,1.65-2.52,3.31-3.82,4.93-1,1.3-1.87,2.75-3,4-.23.27-.1.53,0,.77a.66.66,0,0,0,.86.3,12.28,12.28,0,0,1,2.58-.62c3.3-.47,6.57-1,9.83-1.72a75.39,75.39,0,0,0,21.35-8.16,81.1,81.1,0,0,0,16.85-12.24,70.58,70.58,0,0,0,7.61-8.69A62.4,62.4,0,0,0,177,73a48.09,48.09,0,0,0,2.56-9.1c.45-2.27.57-4.57.82-6.85.06-.5.13-1,.16-1.49s-.09-.51-.47-.25a34.67,34.67,0,0,1-5.71,2.87c-2.81,1.25-5.73,2.25-8.6,3.36a50.45,50.45,0,0,0-9.71,4.88c-1.69,1.12-3.39,2.23-5,3.39A70.3,70.3,0,0,0,138.6,81.36Q132.26,88.62,126,96a1.69,1.69,0,0,1-.58.58.17.17,0,0,1-.19.15.43.43,0,0,1-.13.34l-.17.18c-.07,0-.07.05,0,0s0,.07,0,0l.19-.17a.45.45,0,0,1,.14-.33c0-.09.07-.16.18-.16,0-.34.22-.56.37-.82C128.56,91.13,133.41,79,135.48,69.92Z"/><path class="cls-6" d="M147.42,70.78c0-1.2.8-9.55.24-13.27a31.32,31.32,0,0,0-.78-3.83c-.2-.72-.46-.85-1.13-.53a7.15,7.15,0,0,0-1,.68,53.8,53.8,0,0,0-10.63,10.84,91,91,0,0,0-13.19,23.66c-2.64,6.88-5.11,13.83-7.35,20.85-.62,1.93-1,3.91-1.75,5.81a.83.83,0,0,0,.15,1,.89.89,0,0,0,1,.13,2.85,2.85,0,0,0,1.14-.67,3.75,3.75,0,0,1,1.45-.91,12.49,12.49,0,0,0,1.92-1,103.44,103.44,0,0,0,13.29-10.11c5.22-4.7,8.95-10.46,12-16.71a50.57,50.57,0,0,0,4.62-15.12A8.16,8.16,0,0,0,147.42,70.78Z"/><path class="cls-7" d="M140.82,82.46a48.42,48.42,0,0,0,3.35-5.75,35.57,35.57,0,0,0,3.49-10.61,26.64,26.64,0,0,0,0-8.36,33,33,0,0,0-.61-3.27c-.06-.24-.12-.48-.19-.72s-.07-.23-.2-.23-.13.16-.13.26c0,.94-.07,1.88-.17,2.82a48.51,48.51,0,0,1-1,6.48c-1.56,6.43-3.77,12.58-7.61,18-.88,1.25-1.66,2.56-2.49,3.84a4.12,4.12,0,0,0-.34.66.64.64,0,0,0,.16.76.68.68,0,0,0,.84.11A11.67,11.67,0,0,0,140.82,82.46Z"/><path class="cls-8" d="M107.06,104.65a39,39,0,0,0,0,5.82c0,.3.06.6.1.9a1,1,0,0,1-.22,1,.47.47,0,0,0,.17.86,4.58,4.58,0,0,0,2.58.68A13.12,13.12,0,0,1,113,114a41.47,41.47,0,0,0,7.72-.3,64.81,64.81,0,0,0,14.14-3.34,47.78,47.78,0,0,0,20-13.29,49.37,49.37,0,0,0,5.14-6.74,34.65,34.65,0,0,0,5.3-14.75,37.1,37.1,0,0,0-.12-10c0-.13,0-.27-.08-.41-.07-.41-.29-.54-.71-.46a13.77,13.77,0,0,0-3.29,1.13,43.57,43.57,0,0,0-9.63,6.5c-4.33,3.81-8.37,7.93-12.43,12-2.62,2.64-5.26,5.26-8,7.79l-.37.34c-.06,0-.13.12-.2,0s0-.1,0-.15.14-.36.21-.54A38.14,38.14,0,0,0,133,75.52a50.52,50.52,0,0,0-3.22-14.82,83,83,0,0,0-5.7-11.64c-.28-.49-.33-.49-.69-.08a2.39,2.39,0,0,0-.21.26c-4.78,6.15-8.9,12.65-11.25,20.16a76.79,76.79,0,0,0-2.34,10c-1,5.63-1.59,11.31-2.14,17C107.21,99.15,107.19,101.9,107.06,104.65Z"/><path class="cls-9" d="M165.55,71a25.39,25.39,0,0,0-.29-5.23c0-.2.06-.52-.22-.56s-.33.27-.44.45a14.47,14.47,0,0,0-1.41,2.91c-.67,1.91-1.32,3.83-2,5.74a69.75,69.75,0,0,1-5.47,12.11,42.54,42.54,0,0,1-12,13.09,133.57,133.57,0,0,1-14.53,9.06,40,40,0,0,1-11.92,4.28,2.57,2.57,0,0,0-.72.2c-.37.19-.35.55,0,.78a1,1,0,0,0,.64.13c.56,0,9-.07,20.3-4.56a49,49,0,0,0,23.43-20.53,34.06,34.06,0,0,0,4.42-13.15A24,24,0,0,0,165.55,71Z"/><path class="cls-10" d="M79,114.9a6.18,6.18,0,0,0,2.42-.29,2.81,2.81,0,0,1,2.21.2c1.14.56,2.29,1.08,3.43,1.58.68.29,1.36.55,2.05.79a10.69,10.69,0,0,0,1.27.1,2.72,2.72,0,0,0,1.23-.15,2.11,2.11,0,0,0,.82-.69,2.93,2.93,0,0,0,.24-1,10.27,10.27,0,0,0-.07-1.84c-.18-1.35-.38-2.72-.56-4.12a74.62,74.62,0,0,0-4-16.06A141.9,141.9,0,0,0,80.25,76.7q-.39-.75-.75-1.53A78.39,78.39,0,0,0,59.17,47.26c-1.83-1.57-3.65-3.27-5.6-4.72-.21-.15-.44-.39-.62-.19s0,.46,0,.71a63.46,63.46,0,0,1,1.17,10c.24,4.16.23,8.17.6,12.1C55,67.82,56.36,76,56.45,76.36c.29,1.06.57,2.11.88,3.14s.63,2,.94,2.94c0,.14.14.33,0,.41s-.24-.09-.35-.17-.42-.32-.63-.48c-1.77-1.35-3.57-2.72-5.4-4.09A94.66,94.66,0,0,0,33.69,67.7a22,22,0,0,0-10.16-1.82c-.73,0-.77.11-.54.94a62.19,62.19,0,0,0,6.52,15.69,57.83,57.83,0,0,0,19.15,19.67c2,1.22,3.84,2.48,5.72,3.7a4.75,4.75,0,0,1-1.28-.29,132.2,132.2,0,0,0-30.51-4.78,60,60,0,0,0-16.37,1.57A23.8,23.8,0,0,0,1,104.06c-1.37.73-1.34.54,0,2a40.7,40.7,0,0,0,9.17,7.62,87.12,87.12,0,0,0,24.66,10.67,90.6,90.6,0,0,0,15.58,2.39c12.81,1.56,28.3-2.43,31.2-3.41a14.63,14.63,0,0,0,3.4-1.47c1-.63,1.13-1.18.63-2.16-.08-.16-.08-.26,0-.34a2.19,2.19,0,0,0-.2-.22,6.53,6.53,0,0,0-1-.8.78.78,0,0,1-.23-.13l-.27-.22c-.13-.09-.26-.18-.38-.28a22.09,22.09,0,0,0-1.93-1.18L79,115.12c-.07,0-.19-.06-.16-.16S79,114.89,79,114.9Z"/><path class="cls-11" d="M117.66,61.14c-.07,3.09-2.47,13.16-3,15.2a91.92,91.92,0,0,1-6.52,18,18.79,18.79,0,0,1-1.73,2.93,1.53,1.53,0,0,1-2.69.15A10.73,10.73,0,0,1,102,94.83a50.41,50.41,0,0,1-3.15-8,64.8,64.8,0,0,1-2.73-14c-.28-3.13-1-13.48-.94-15,.06-1.78,0-3.56.21-5.32a27.39,27.39,0,0,1,3-9.11,44.89,44.89,0,0,1,6-8.75c.47-.55.89-1.14,1.34-1.7.2-.25.38-.31.55,0a.3.3,0,0,0,0,.08c1.83,3.48,4.31,6.58,6.08,10.11a85.32,85.32,0,0,1,3.75,8.34A24.93,24.93,0,0,1,117.48,58,25.37,25.37,0,0,1,117.66,61.14Z"/><polygon class="cls-12" points="34.1 59.68 34.15 59.71 34.09 59.72 34.1 59.68"/><path class="cls-13" d="M76.29,69.92a38.17,38.17,0,0,1-.92-11.57A53,53,0,0,1,80.3,38.89c.49-1,.51-1,1.36-.29,1.67,1.42,3.47,2.68,5.22,4A26.79,26.79,0,0,1,91.47,47a42.11,42.11,0,0,1,7.2,12.47,51.75,51.75,0,0,1,2.43,7.67c1.24,6.67,2.91,14,3.39,20,.06,3.72,0,7.44-.17,11.15a90.67,90.67,0,0,1-1.63,13c-.23,1.09-.88,1.43-1.89,1a5.88,5.88,0,0,1-1.42-1c-1.62-1.44-3.25-2.86-4.87-4.29l-.19-.18-.17-.16c-.06,0-.06,0,0,0s0-.06,0,0l.17.16.2.18c0,.33.27.53.45.77,1.26,1.65,2.51,3.31,3.82,4.93,1,1.3,1.87,2.75,3,4,.22.27.1.53-.05.77a.66.66,0,0,1-.86.3,12,12,0,0,0-2.58-.62c-3.29-.47-6.57-1-9.82-1.72a75.56,75.56,0,0,1-21.36-8.16A81.36,81.36,0,0,1,50.24,95.09a70.5,70.5,0,0,1-7.6-8.69A62.4,62.4,0,0,1,34.78,73a48.09,48.09,0,0,1-2.56-9.1c-.46-2.27-.58-4.57-.83-6.85-.05-.5-.12-1-.15-1.49s.09-.51.47-.25a34.67,34.67,0,0,0,5.71,2.87c2.81,1.25,5.72,2.25,8.59,3.36a50.53,50.53,0,0,1,9.72,4.88c1.68,1.12,3.38,2.23,5,3.39a70.24,70.24,0,0,1,12.4,11.53Q79.53,88.62,85.76,96c.18.21.31.46.59.58a.16.16,0,0,0,.18.15.44.44,0,0,0,.14.34l.17.18c.06,0,.06.05,0,0s0,.07,0,0l-.19-.17c0-.12,0-.25-.13-.33s-.08-.16-.19-.16c0-.34-.22-.56-.37-.82C83.21,91.13,78.36,79,76.29,69.92Z"/><path class="cls-14" d="M64.36,70.78c0-1.2-.81-9.55-.25-13.27a33.32,33.32,0,0,1,.78-3.83c.2-.72.46-.85,1.14-.53a7.74,7.74,0,0,1,1,.68A53.48,53.48,0,0,1,77.69,64.67a91,91,0,0,1,13.2,23.66q4,10.32,7.35,20.85c.61,1.93,1,3.91,1.75,5.81a.85.85,0,0,1-.16,1,.88.88,0,0,1-1,.13,2.72,2.72,0,0,1-1.14-.67,3.79,3.79,0,0,0-1.46-.91,12.39,12.39,0,0,1-1.91-1A102.85,102.85,0,0,1,81,103.43,53.75,53.75,0,0,1,69,86.72,50.87,50.87,0,0,1,64.38,71.6,7.9,7.9,0,0,1,64.36,70.78Z"/><path class="cls-15" d="M71,82.46a48.42,48.42,0,0,1-3.35-5.75A35.29,35.29,0,0,1,64.12,66.1a26.05,26.05,0,0,1,0-8.36,30.31,30.31,0,0,1,.6-3.27c.06-.24.13-.48.2-.72s.07-.23.2-.23.12.16.12.26q0,1.41.18,2.82a48.49,48.49,0,0,0,1,6.48c1.57,6.43,3.78,12.58,7.62,18,.87,1.25,1.66,2.56,2.48,3.84a4.17,4.17,0,0,1,.35.66.66.66,0,0,1-.16.76.7.7,0,0,1-.85.11A11.67,11.67,0,0,1,71,82.46Z"/><path class="cls-16" d="M104.72,104.65a39,39,0,0,1,0,5.82c0,.3-.06.6-.11.9a1,1,0,0,0,.22,1,.47.47,0,0,1-.17.86,4.55,4.55,0,0,1-2.57.68,13.2,13.2,0,0,0-3.32.08,41.5,41.5,0,0,1-7.72-.3,64.59,64.59,0,0,1-14.13-3.34,47.75,47.75,0,0,1-20-13.29,50.19,50.19,0,0,1-5.14-6.74,34.77,34.77,0,0,1-5.29-14.75,37.51,37.51,0,0,1,.11-10c0-.13.06-.27.08-.41.07-.41.29-.54.71-.46a13.7,13.7,0,0,1,3.3,1.13,43.28,43.28,0,0,1,9.62,6.5c4.34,3.81,8.38,7.93,12.44,12,2.62,2.64,5.25,5.26,8,7.79l.36.34c.06,0,.14.12.21,0s0-.1,0-.15L81,91.78a38.14,38.14,0,0,1-2.26-16.26A50.52,50.52,0,0,1,82,60.7a82,82,0,0,1,5.7-11.64c.28-.49.32-.49.69-.08l.21.26c4.77,6.15,8.9,12.65,11.24,20.16a76.83,76.83,0,0,1,2.35,10c1,5.63,1.59,11.31,2.14,17C104.56,99.15,104.59,101.9,104.72,104.65Z"/><path class="cls-17" d="M109.26,68.28c7.65.11,15,.84,22.19,3.33A32.49,32.49,0,0,1,138,74.53a17.48,17.48,0,0,1,4.51,3.76,10,10,0,0,1,1.06,1.59,7,7,0,0,1,0,6.78,12.35,12.35,0,0,1-3.75,4.19,28.7,28.7,0,0,1-6.61,3.61,54.5,54.5,0,0,1-11.15,3.06,75.33,75.33,0,0,1-17,1.06,62.46,62.46,0,0,1-20.27-4,27.35,27.35,0,0,1-6.16-3.33,14,14,0,0,1-3.15-3.09,7.16,7.16,0,0,1-.55-.84,7,7,0,0,1,.1-7.58,12.35,12.35,0,0,1,2.87-3.2,27,27,0,0,1,7.66-4.27,58.38,58.38,0,0,1,12.65-3.19A101.83,101.83,0,0,1,109.26,68.28Z"/><path class="cls-18" d="M109.26,71c7.25.1,14.21.73,21,2.88a32.14,32.14,0,0,1,6.2,2.52,16.17,16.17,0,0,1,4.28,3.25,8.51,8.51,0,0,1,1,1.36,5.59,5.59,0,0,1,0,5.86,11.28,11.28,0,0,1-3.55,3.62A28.44,28.44,0,0,1,132,93.6a56.19,56.19,0,0,1-10.57,2.64,79.16,79.16,0,0,1-16.12.91,64.06,64.06,0,0,1-19.2-3.44,27.39,27.39,0,0,1-5.85-2.88,13.14,13.14,0,0,1-3-2.66c-.18-.23-.36-.48-.52-.73a5.63,5.63,0,0,1,.1-6.54,11.38,11.38,0,0,1,2.72-2.77,26.76,26.76,0,0,1,7.26-3.69,59,59,0,0,1,12-2.74A103.66,103.66,0,0,1,109.26,71Z"/><polygon class="cls-12" points="177.68 59.68 177.63 59.71 177.69 59.72 177.68 59.68"/><rect class="cls-19" x="100.17" y="29.72" width="13.36" height="63.78"/><ellipse class="cls-20" cx="106.86" cy="29.74" rx="6.71" ry="1.06"/><path class="cls-21" d="M107,26.92a5.81,5.81,0,0,0,0-3c-.08-.22-.44-.13-.36.1a6.21,6.21,0,0,1-.08,3.2,5.11,5.11,0,0,0,.13,3c.1.22.42,0,.33-.19A5.18,5.18,0,0,1,107,26.92Z"/><circle class="cls-22" cx="106.89" cy="20.95" r="20.95" transform="translate(69.09 123.11) rotate(-80.78)"/><ellipse class="cls-23" cx="106.71" cy="20.86" rx="10.98" ry="11.12"/><ellipse class="cls-23" cx="106.71" cy="20.86" rx="10.98" ry="11.12"/><path class="cls-24" d="M84.21,84.49s-8.46-.69-10.74-2.32a2.72,2.72,0,0,1,1.89-4.92l.76.09-.18-.75a2.7,2.7,0,0,1,4.65-2.47C82.51,76.33,84.21,84.49,84.21,84.49Z"/><path class="cls-25" d="M82.39,83.05c1.09.57,1.89,1.18,1.79,1.37s-1.05-.13-2.14-.7-1.89-1.19-1.79-1.38S81.31,82.47,82.39,83.05Z"/><path class="cls-25" d="M82.56,82.86c.7,1,1.41,1.73,1.58,1.61s-.25-1-1-2-1.4-1.72-1.58-1.6S81.86,81.85,82.56,82.86Z"/><path class="cls-26" d="M84.2,84.42s-4.76,7-7.3,8.21a2.72,2.72,0,0,1-3.36-4.06L74,88l-.73-.21a2.71,2.71,0,0,1,.13-5.27C76.26,81.89,84.2,84.42,84.2,84.42Z"/><path class="cls-25" d="M82.05,85.29c1-.66,2-1.06,2.07-.88s-.63.85-1.66,1.52-2,1.06-2.08.88S81,86,82.05,85.29Z"/><path class="cls-25" d="M82,85.05c1.23-.11,2.2-.38,2.18-.58s-1-.29-2.25-.17-2.19.37-2.17.58S80.74,85.17,82,85.05Z"/><path class="cls-24" d="M84.13,84.39s3.63,7.67,3.36,10.47a2.72,2.72,0,0,1-5.2.82L82,95l-.55.52A2.7,2.7,0,0,1,77,92.72C77.92,90,84.13,84.39,84.13,84.39Z"/><path class="cls-25" d="M83.79,86.69c-.05-1.23.08-2.23.29-2.24s.42,1,.47,2.21-.09,2.23-.3,2.24S83.83,87.92,83.79,86.69Z"/><path class="cls-25" d="M83.54,86.64c.52-1.11.79-2.08.6-2.17s-.76.74-1.29,1.85-.79,2.08-.6,2.17S83,87.75,83.54,86.64Z"/><path class="cls-26" d="M84.07,84.44s8.43,1,10.65,2.71A2.72,2.72,0,0,1,92.66,92l-.76-.11.15.75a2.71,2.71,0,0,1-4.74,2.3C85.48,92.65,84.07,84.44,84.07,84.44Z"/><path class="cls-25" d="M85.84,86c-1.07-.61-1.84-1.26-1.74-1.44s1.05.17,2.12.78,1.84,1.26,1.73,1.44S86.9,86.56,85.84,86Z"/><path class="cls-25" d="M85.66,86.13c-.66-1-1.34-1.78-1.52-1.66s.22,1,.89,2.07,1.34,1.78,1.52,1.67S86.33,87.16,85.66,86.13Z"/><path class="cls-24" d="M84.08,84.51s4.89-6.94,7.45-8.08a2.72,2.72,0,0,1,3.28,4.12l-.46.61.73.23a2.7,2.7,0,0,1-.22,5.26C92,87.18,84.08,84.51,84.08,84.51Z"/><path class="cls-25" d="M86.25,83.68c-1,.64-2,1-2.09.84s.65-.84,1.69-1.49,2-1,2.09-.84S87.3,83,86.25,83.68Z"/><path class="cls-25" d="M86.33,83.92c-1.22.09-2.2.34-2.19.55s1,.3,2.25.21,2.2-.34,2.19-.55S87.55,83.83,86.33,83.92Z"/><path class="cls-26" d="M84.15,84.54S80.66,76.81,81,74a2.72,2.72,0,0,1,5.21-.73l.3.7.56-.51a2.7,2.7,0,0,1,4.42,2.86C90.47,79.1,84.15,84.54,84.15,84.54Z"/><path class="cls-25" d="M84.54,82.25c0,1.23-.13,2.23-.34,2.23s-.4-1-.42-2.22S83.9,80,84.11,80,84.51,81,84.54,82.25Z"/><path class="cls-25" d="M84.78,82.3c-.54,1.11-.83,2.07-.64,2.17s.78-.73,1.32-1.83.83-2.07.64-2.16S85.32,81.2,84.78,82.3Z"/><path class="cls-24" d="M93.41,67.72S85,67,82.67,65.39a2.72,2.72,0,0,1,1.89-4.91l.76.08-.18-.74a2.7,2.7,0,0,1,4.65-2.47C91.71,59.56,93.41,67.72,93.41,67.72Z"/><path class="cls-25" d="M91.6,66.27c1.08.58,1.88,1.19,1.78,1.38s-1-.13-2.14-.71-1.88-1.18-1.79-1.37S90.51,65.7,91.6,66.27Z"/><path class="cls-25" d="M91.76,66.08c.7,1,1.41,1.73,1.58,1.61s-.25-1-1-2S91,63.92,90.81,64,91.06,65.08,91.76,66.08Z"/><path class="cls-26" d="M93.4,67.65s-4.76,7-7.3,8.21a2.72,2.72,0,0,1-3.36-4.06l.45-.62L82.46,71a2.71,2.71,0,0,1,.13-5.27C85.46,65.12,93.4,67.65,93.4,67.65Z"/><path class="cls-25" d="M91.25,68.52c1-.67,2-1.06,2.07-.89s-.63.86-1.66,1.53-2,1.06-2.08.88S90.22,69.18,91.25,68.52Z"/><path class="cls-25" d="M91.17,68.28c1.22-.12,2.19-.38,2.17-.59s-1-.28-2.25-.17-2.19.38-2.17.59S89.94,68.39,91.17,68.28Z"/><path class="cls-24" d="M93.33,67.62S97,75.29,96.69,78.08a2.72,2.72,0,0,1-5.2.83l-.3-.7-.56.52a2.71,2.71,0,0,1-4.47-2.79C87.12,73.18,93.33,67.62,93.33,67.62Z"/><path class="cls-25" d="M93,69.92c0-1.23.08-2.23.29-2.24s.42,1,.47,2.21-.09,2.23-.3,2.23S93,71.14,93,69.92Z"/><path class="cls-25" d="M92.74,69.87c.52-1.11.79-2.09.6-2.18s-.76.74-1.29,1.85-.79,2.09-.6,2.18S92.22,71,92.74,69.87Z"/><path class="cls-26" d="M93.27,67.66s8.43,1,10.65,2.72a2.72,2.72,0,0,1-2.06,4.84l-.76-.11.15.75a2.7,2.7,0,0,1-4.73,2.3C94.68,75.88,93.27,67.66,93.27,67.66Z"/><path class="cls-25" d="M95,69.18c-1.07-.62-1.84-1.26-1.74-1.44s1,.17,2.12.78,1.84,1.25,1.73,1.44S96.1,69.79,95,69.18Z"/><path class="cls-25" d="M94.86,69.36c-.66-1-1.34-1.78-1.52-1.67s.22,1,.89,2.08,1.34,1.78,1.52,1.66S95.53,70.39,94.86,69.36Z"/><path class="cls-24" d="M93.28,67.74s4.89-6.94,7.45-8.08A2.72,2.72,0,0,1,104,63.78l-.46.61.74.22a2.71,2.71,0,0,1-.23,5.27C101.18,70.41,93.28,67.74,93.28,67.74Z"/><path class="cls-25" d="M95.45,66.91c-1,.64-2,1-2.09.84s.65-.84,1.69-1.49,2-1,2.09-.85S96.5,66.26,95.45,66.91Z"/><path class="cls-25" d="M95.53,67.15c-1.22.09-2.2.33-2.19.54s1,.31,2.25.21,2.2-.34,2.19-.54S96.76,67.05,95.53,67.15Z"/><path class="cls-26" d="M93.35,67.77S89.86,60,90.18,57.25a2.72,2.72,0,0,1,5.21-.74l.3.71.56-.52a2.71,2.71,0,0,1,4.42,2.87C99.67,62.32,93.35,67.77,93.35,67.77Z"/><path class="cls-25" d="M93.74,65.48c0,1.22-.13,2.22-.34,2.23s-.4-1-.42-2.22.12-2.22.33-2.23S93.71,64.25,93.74,65.48Z"/><path class="cls-25" d="M94,65.53c-.54,1.1-.82,2.07-.64,2.16s.78-.72,1.32-1.82.83-2.07.65-2.17S94.53,64.43,94,65.53Z"/><path class="cls-24" d="M115,76.08s-8.46-.69-10.74-2.33a2.72,2.72,0,0,1,1.89-4.91l.76.08-.18-.74a2.7,2.7,0,0,1,4.65-2.47C113.28,67.92,115,76.08,115,76.08Z"/><path class="cls-25" d="M113.16,74.63c1.09.58,1.89,1.19,1.79,1.38s-1-.13-2.14-.71-1.89-1.18-1.79-1.37S112.08,74.06,113.16,74.63Z"/><path class="cls-25" d="M113.33,74.44c.7,1,1.41,1.73,1.58,1.61s-.26-1-1-2-1.4-1.73-1.58-1.61S112.63,73.44,113.33,74.44Z"/><path class="cls-26" d="M115,76s-4.76,7-7.3,8.21a2.72,2.72,0,0,1-3.36-4.06l.45-.62-.73-.21a2.71,2.71,0,0,1,.13-5.27C107,73.48,115,76,115,76Z"/><path class="cls-25" d="M112.82,76.88c1-.67,2-1.06,2.07-.88s-.63.85-1.66,1.52-2,1.06-2.08.88S111.78,77.54,112.82,76.88Z"/><path class="cls-25" d="M112.73,76.64c1.23-.12,2.2-.38,2.18-.59s-1-.28-2.25-.17-2.19.38-2.17.59S111.51,76.75,112.73,76.64Z"/><path class="cls-24" d="M114.9,76s3.63,7.67,3.36,10.46a2.72,2.72,0,0,1-5.2.83l-.31-.7-.55.52a2.71,2.71,0,0,1-4.47-2.79C108.68,81.54,114.9,76,114.9,76Z"/><path class="cls-25" d="M114.56,78.28c0-1.23.08-2.23.29-2.24s.42,1,.46,2.21-.08,2.23-.29,2.23S114.6,79.5,114.56,78.28Z"/><path class="cls-25" d="M114.31,78.23c.52-1.11.79-2.09.6-2.18s-.77.74-1.29,1.85-.79,2.09-.6,2.18S113.79,79.34,114.31,78.23Z"/><path class="cls-26" d="M114.84,76s8.43,1,10.65,2.72a2.72,2.72,0,0,1-2.06,4.84l-.76-.11.15.75a2.71,2.71,0,0,1-4.74,2.3C116.25,84.24,114.84,76,114.84,76Z"/><path class="cls-25" d="M116.61,77.54c-1.07-.62-1.85-1.26-1.74-1.44s1,.17,2.11.78,1.85,1.25,1.74,1.44S117.67,78.15,116.61,77.54Z"/><path class="cls-25" d="M116.43,77.72c-.66-1-1.34-1.78-1.52-1.67s.22,1,.88,2.08,1.35,1.78,1.52,1.66S117.1,78.75,116.43,77.72Z"/><path class="cls-24" d="M114.85,76.1s4.89-6.94,7.45-8.08a2.72,2.72,0,0,1,3.28,4.12l-.46.61.73.22a2.71,2.71,0,0,1-.22,5.27C122.75,78.77,114.85,76.1,114.85,76.1Z"/><path class="cls-25" d="M117,75.27c-1,.64-2,1-2.09.84s.65-.84,1.69-1.49,2-1,2.09-.85S118.07,74.62,117,75.27Z"/><path class="cls-25" d="M117.1,75.51c-1.23.09-2.2.33-2.19.54s1,.31,2.25.21,2.2-.34,2.18-.54S118.32,75.41,117.1,75.51Z"/><path class="cls-26" d="M114.92,76.13s-3.5-7.74-3.17-10.52a2.72,2.72,0,0,1,5.21-.74l.29.71.57-.52a2.71,2.71,0,0,1,4.42,2.87C121.23,70.68,114.92,76.13,114.92,76.13Z"/><path class="cls-25" d="M115.31,73.84c0,1.22-.13,2.22-.34,2.23s-.4-1-.42-2.22.12-2.22.33-2.23S115.28,72.61,115.31,73.84Z"/><path class="cls-25" d="M115.55,73.89c-.54,1.1-.83,2.07-.64,2.16s.78-.72,1.32-1.82.83-2.07.64-2.17S116.09,72.79,115.55,73.89Z"/><path class="cls-24" d="M101.4,86.7s-8.46-.7-10.74-2.33a2.72,2.72,0,0,1,1.89-4.91l.76.08-.18-.74a2.71,2.71,0,0,1,4.65-2.48C99.7,78.54,101.4,86.7,101.4,86.7Z"/><path class="cls-25" d="M99.58,85.25c1.09.57,1.89,1.19,1.79,1.37s-1.06-.13-2.14-.7-1.89-1.19-1.79-1.37S98.5,84.68,99.58,85.25Z"/><path class="cls-25" d="M99.75,85.06c.7,1,1.41,1.73,1.58,1.61s-.26-1-1-2S99,82.9,98.79,83,99.05,84.05,99.75,85.06Z"/><path class="cls-26" d="M101.39,86.62s-4.76,7-7.31,8.22a2.72,2.72,0,0,1-3.35-4.07l.45-.62-.74-.21a2.7,2.7,0,0,1,.14-5.26C93.44,84.09,101.39,86.62,101.39,86.62Z"/><path class="cls-25" d="M99.24,87.49c1-.66,2-1,2.07-.88s-.63.86-1.66,1.52-2,1.06-2.08.89S98.2,88.16,99.24,87.49Z"/><path class="cls-25" d="M99.15,87.26c1.23-.12,2.2-.38,2.18-.59s-1-.28-2.25-.17-2.2.38-2.18.59S97.93,87.37,99.15,87.26Z"/><path class="cls-24" d="M101.32,86.6s3.63,7.67,3.36,10.46a2.72,2.72,0,0,1-5.2.82l-.31-.7-.55.53a2.71,2.71,0,0,1-4.47-2.79C95.1,92.15,101.32,86.6,101.32,86.6Z"/><path class="cls-25" d="M101,88.89c0-1.22.08-2.22.29-2.23s.42,1,.46,2.2-.08,2.23-.29,2.24S101,90.12,101,88.89Z"/><path class="cls-25" d="M100.73,88.84c.52-1.11.79-2.08.6-2.17s-.77.74-1.29,1.85-.79,2.08-.6,2.17S100.21,90,100.73,88.84Z"/><path class="cls-26" d="M101.26,86.64s8.43,1,10.65,2.71a2.72,2.72,0,0,1-2.07,4.85l-.75-.11.15.75a2.71,2.71,0,0,1-4.74,2.3C102.66,94.86,101.26,86.64,101.26,86.64Z"/><path class="cls-25" d="M103,88.15c-1.07-.61-1.85-1.25-1.74-1.44s1,.17,2.11.78,1.85,1.26,1.74,1.44S104.09,88.76,103,88.15Z"/><path class="cls-25" d="M102.85,88.34c-.66-1-1.34-1.78-1.52-1.67s.22,1,.88,2.08,1.35,1.77,1.52,1.66S103.51,89.37,102.85,88.34Z"/><path class="cls-24" d="M101.27,86.72s4.89-7,7.45-8.08A2.72,2.72,0,0,1,112,82.76l-.46.61.73.22a2.7,2.7,0,0,1-.22,5.26C109.17,89.39,101.27,86.72,101.27,86.72Z"/><path class="cls-25" d="M103.44,85.88c-1,.65-2,1-2.09.85s.65-.85,1.69-1.49,2-1,2.09-.85S104.48,85.24,103.44,85.88Z"/><path class="cls-25" d="M103.52,86.12c-1.23.1-2.21.34-2.19.55s1,.3,2.25.21,2.2-.34,2.18-.55S104.74,86,103.52,86.12Z"/><path class="cls-26" d="M101.34,86.75S97.84,79,98.17,76.22a2.72,2.72,0,0,1,5.21-.73l.29.71.57-.52a2.71,2.71,0,0,1,4.42,2.87C107.65,81.3,101.34,86.75,101.34,86.75Z"/><path class="cls-25" d="M101.72,84.45c0,1.23-.12,2.23-.33,2.23s-.4-1-.42-2.21.12-2.23.33-2.23S101.7,83.23,101.72,84.45Z"/><path class="cls-25" d="M102,84.51c-.54,1.1-.83,2.07-.64,2.16s.78-.73,1.32-1.83.83-2.07.64-2.16S102.51,83.41,102,84.51Z"/><path class="cls-24" d="M122.89,84.25s-8.46-.7-10.74-2.33A2.72,2.72,0,0,1,114,77l.76.09-.18-.74a2.71,2.71,0,0,1,4.65-2.48C121.19,76.08,122.89,84.25,122.89,84.25Z"/><path class="cls-25" d="M121.07,82.8c1.09.57,1.89,1.19,1.79,1.37s-1.06-.13-2.14-.7-1.89-1.19-1.79-1.37S120,82.23,121.07,82.8Z"/><path class="cls-25" d="M121.24,82.61c.7,1,1.41,1.73,1.58,1.61s-.26-1-1-2-1.41-1.73-1.58-1.61S120.54,81.6,121.24,82.61Z"/><path class="cls-26" d="M122.88,84.17s-4.76,7-7.31,8.21a2.72,2.72,0,0,1-3.35-4.06l.45-.62-.74-.21a2.7,2.7,0,0,1,.14-5.26C114.93,81.64,122.88,84.17,122.88,84.17Z"/><path class="cls-25" d="M120.72,85c1-.66,2-1.06,2.08-.88s-.63.86-1.67,1.52-2,1.06-2.07.88S119.69,85.71,120.72,85Z"/><path class="cls-25" d="M120.64,84.8c1.22-.11,2.2-.37,2.18-.58s-1-.29-2.25-.17-2.2.38-2.18.59S119.42,84.92,120.64,84.8Z"/><path class="cls-24" d="M122.81,84.14s3.63,7.68,3.36,10.47a2.72,2.72,0,0,1-5.2.82l-.31-.7-.55.53a2.71,2.71,0,0,1-4.47-2.79C116.59,89.7,122.81,84.14,122.81,84.14Z"/><path class="cls-25" d="M122.47,86.44c0-1.22.08-2.23.29-2.23s.42,1,.46,2.2-.08,2.23-.29,2.24S122.51,87.67,122.47,86.44Z"/><path class="cls-25" d="M122.22,86.39c.52-1.11.79-2.08.6-2.17s-.77.74-1.29,1.85-.79,2.08-.6,2.17S121.7,87.5,122.22,86.39Z"/><path class="cls-26" d="M122.75,84.19s8.43,1,10.65,2.71a2.72,2.72,0,0,1-2.07,4.85l-.75-.12.15.75A2.71,2.71,0,0,1,126,94.69C124.15,92.41,122.75,84.19,122.75,84.19Z"/><path class="cls-25" d="M124.51,85.7c-1.06-.61-1.84-1.25-1.73-1.44s1,.17,2.11.78,1.85,1.26,1.74,1.44S125.58,86.31,124.51,85.7Z"/><path class="cls-25" d="M124.34,85.88c-.66-1-1.34-1.77-1.52-1.66s.22,1,.88,2.07,1.35,1.78,1.52,1.67S125,86.92,124.34,85.88Z"/><path class="cls-24" d="M122.76,84.27s4.89-7,7.45-8.09a2.72,2.72,0,0,1,3.28,4.12l-.46.62.73.22a2.7,2.7,0,0,1-.22,5.26C130.66,86.94,122.76,84.27,122.76,84.27Z"/><path class="cls-25" d="M124.93,83.43c-1.05.65-2,1-2.09.85s.65-.85,1.69-1.49,2-1,2.09-.85S126,82.79,124.93,83.43Z"/><path class="cls-25" d="M125,83.67c-1.23.1-2.21.34-2.19.55s1,.3,2.25.21,2.2-.34,2.18-.55S126.23,83.58,125,83.67Z"/><path class="cls-26" d="M122.83,84.29s-3.5-7.73-3.18-10.52a2.72,2.72,0,0,1,5.22-.73l.29.71.57-.52a2.71,2.71,0,0,1,4.42,2.87C129.14,78.85,122.83,84.29,122.83,84.29Z"/><path class="cls-25" d="M123.21,82c0,1.23-.12,2.23-.33,2.23s-.4-1-.42-2.21.12-2.23.33-2.23S123.19,80.77,123.21,82Z"/><path class="cls-25" d="M123.46,82.06c-.54,1.1-.83,2.07-.64,2.16s.78-.73,1.32-1.83.83-2.07.64-2.16S124,81,123.46,82.06Z"/><path class="cls-24" d="M133.56,80.33s-8.46-.69-10.74-2.32a2.72,2.72,0,0,1,1.89-4.92l.76.09-.18-.75A2.7,2.7,0,0,1,129.94,70C131.86,72.17,133.56,80.33,133.56,80.33Z"/><path class="cls-25" d="M131.74,78.88c1.09.58,1.89,1.19,1.79,1.38s-1.06-.13-2.14-.7-1.89-1.19-1.79-1.38S130.66,78.31,131.74,78.88Z"/><path class="cls-25" d="M131.91,78.7c.7,1,1.41,1.72,1.58,1.6s-.26-1-1-2-1.41-1.73-1.58-1.61S131.21,77.69,131.91,78.7Z"/><path class="cls-26" d="M133.55,80.26s-4.76,7-7.31,8.21a2.72,2.72,0,0,1-3.35-4.06l.45-.62-.74-.21a2.71,2.71,0,0,1,.14-5.27C125.6,77.73,133.55,80.26,133.55,80.26Z"/><path class="cls-25" d="M131.39,81.13c1-.67,2-1.06,2.08-.88s-.63.85-1.67,1.52-2,1.06-2.07.88S130.36,81.79,131.39,81.13Z"/><path class="cls-25" d="M131.31,80.89c1.22-.12,2.2-.38,2.18-.59s-1-.28-2.25-.17-2.2.38-2.18.59S130.09,81,131.31,80.89Z"/><path class="cls-24" d="M133.48,80.23s3.63,7.67,3.36,10.46a2.72,2.72,0,0,1-5.2.83l-.31-.7-.55.52a2.71,2.71,0,0,1-4.47-2.79C127.26,85.79,133.48,80.23,133.48,80.23Z"/><path class="cls-25" d="M133.14,82.53c0-1.23.08-2.23.29-2.24s.42,1,.46,2.21-.08,2.23-.29,2.23S133.18,83.75,133.14,82.53Z"/><path class="cls-25" d="M132.89,82.48c.52-1.11.79-2.09.6-2.18s-.77.74-1.29,1.85-.79,2.09-.6,2.18S132.37,83.59,132.89,82.48Z"/><path class="cls-26" d="M133.42,80.27s8.43,1,10.65,2.72A2.72,2.72,0,0,1,142,87.83l-.75-.11.15.75a2.71,2.71,0,0,1-4.74,2.3C134.82,88.49,133.42,80.27,133.42,80.27Z"/><path class="cls-25" d="M135.18,81.79c-1.06-.62-1.84-1.26-1.73-1.44s1.05.17,2.11.78,1.85,1.25,1.74,1.44S136.25,82.4,135.18,81.79Z"/><path class="cls-25" d="M135,82c-.66-1-1.34-1.78-1.52-1.67s.22,1,.88,2.08,1.35,1.78,1.52,1.66S135.67,83,135,82Z"/><path class="cls-24" d="M133.43,80.35s4.89-6.94,7.45-8.08a2.72,2.72,0,0,1,3.28,4.12l-.46.61.73.22a2.71,2.71,0,0,1-.22,5.27C141.33,83,133.43,80.35,133.43,80.35Z"/><path class="cls-25" d="M135.6,79.52c-1,.64-2,1-2.09.84s.65-.84,1.69-1.49,2-1,2.09-.84S136.64,78.87,135.6,79.52Z"/><path class="cls-25" d="M135.68,79.76c-1.23.09-2.21.34-2.19.54s1,.31,2.25.21,2.2-.33,2.18-.54S136.9,79.66,135.68,79.76Z"/><path class="cls-26" d="M133.5,80.38s-3.5-7.74-3.18-10.52a2.72,2.72,0,0,1,5.22-.74l.29.71.57-.51a2.7,2.7,0,0,1,4.42,2.86C139.81,74.93,133.5,80.38,133.5,80.38Z"/><path class="cls-25" d="M133.88,78.09c0,1.22-.12,2.22-.33,2.23s-.4-1-.42-2.22.12-2.22.33-2.23S133.86,76.86,133.88,78.09Z"/><path class="cls-25" d="M134.13,78.14c-.54,1.1-.83,2.07-.64,2.16s.78-.72,1.32-1.82.83-2.07.64-2.17S134.67,77,134.13,78.14Z"/><path class="cls-24" d="M134.69,72.91s-8.46-.7-10.74-2.33a2.72,2.72,0,0,1,1.89-4.91l.76.08-.18-.74a2.7,2.7,0,0,1,4.65-2.47C133,64.75,134.69,72.91,134.69,72.91Z"/><path class="cls-25" d="M132.88,71.46c1.08.57,1.88,1.19,1.78,1.37s-1-.13-2.14-.7-1.89-1.19-1.79-1.37S131.79,70.89,132.88,71.46Z"/><path class="cls-25" d="M133,71.27c.7,1,1.41,1.73,1.58,1.61s-.25-1-1-2-1.41-1.73-1.58-1.61S132.34,70.26,133,71.27Z"/><path class="cls-26" d="M134.68,72.83s-4.76,7-7.3,8.22A2.73,2.73,0,0,1,124,77l.45-.62-.73-.21a2.7,2.7,0,0,1,.13-5.26C126.74,70.3,134.68,72.83,134.68,72.83Z"/><path class="cls-25" d="M132.53,73.7c1-.66,2-1,2.07-.88s-.63.86-1.66,1.52-2,1.06-2.08.89S131.5,74.37,132.53,73.7Z"/><path class="cls-25" d="M132.45,73.47c1.22-.12,2.19-.38,2.17-.59s-1-.28-2.25-.17-2.19.38-2.17.59S131.22,73.58,132.45,73.47Z"/><path class="cls-24" d="M134.61,72.81s3.63,7.67,3.36,10.46a2.72,2.72,0,0,1-5.2.82l-.31-.7-.55.53a2.71,2.71,0,0,1-4.47-2.79C128.4,78.36,134.61,72.81,134.61,72.81Z"/><path class="cls-25" d="M134.27,75.1c-.05-1.22.08-2.22.29-2.23s.42,1,.47,2.2-.09,2.23-.3,2.24S134.32,76.33,134.27,75.1Z"/><path class="cls-25" d="M134,75.05c.52-1.11.79-2.08.6-2.17s-.76.74-1.29,1.85-.79,2.08-.6,2.17S133.5,76.16,134,75.05Z"/><path class="cls-26" d="M134.55,72.85s8.43,1,10.65,2.71a2.72,2.72,0,0,1-2.06,4.85l-.76-.11.15.75a2.71,2.71,0,0,1-4.74,2.3C136,81.07,134.55,72.85,134.55,72.85Z"/><path class="cls-25" d="M136.32,74.36c-1.07-.61-1.84-1.25-1.74-1.43s1,.16,2.12.77,1.84,1.26,1.73,1.44S137.38,75,136.32,74.36Z"/><path class="cls-25" d="M136.14,74.55c-.66-1-1.34-1.78-1.52-1.67s.22,1,.89,2.08,1.34,1.77,1.52,1.66S136.81,75.58,136.14,74.55Z"/><path class="cls-24" d="M134.56,72.93s4.89-7,7.45-8.08A2.72,2.72,0,0,1,145.29,69l-.46.61.74.22a2.7,2.7,0,0,1-.23,5.26C142.46,75.6,134.56,72.93,134.56,72.93Z"/><path class="cls-25" d="M136.73,72.09c-1,.65-2,1-2.09.85s.65-.85,1.69-1.49,2-1,2.09-.85S137.78,71.45,136.73,72.09Z"/><path class="cls-25" d="M136.81,72.33c-1.22.1-2.2.34-2.19.55s1,.3,2.25.21,2.2-.34,2.19-.55S138,72.24,136.81,72.33Z"/><path class="cls-26" d="M134.63,73s-3.49-7.74-3.17-10.53a2.72,2.72,0,0,1,5.21-.73l.3.71.56-.52A2.71,2.71,0,0,1,142,64.76C141,67.51,134.63,73,134.63,73Z"/><path class="cls-25" d="M135,70.66c0,1.23-.13,2.23-.34,2.23s-.4-1-.42-2.21.12-2.23.33-2.23S135,69.44,135,70.66Z"/><path class="cls-25" d="M135.26,70.72c-.54,1.1-.82,2.07-.64,2.16s.78-.73,1.32-1.83.83-2.07.64-2.16S135.81,69.62,135.26,70.72Z"/><path class="cls-24" d="M115.29,62.09s-8.46-.7-10.75-2.33a2.72,2.72,0,0,1,1.89-4.91l.76.08-.17-.74a2.7,2.7,0,0,1,4.65-2.47C113.59,53.93,115.29,62.09,115.29,62.09Z"/><path class="cls-25" d="M113.47,60.64c1.08.57,1.88,1.19,1.79,1.37s-1.06-.13-2.15-.7-1.88-1.19-1.79-1.37S112.38,60.07,113.47,60.64Z"/><path class="cls-25" d="M113.64,60.45c.7,1,1.4,1.73,1.58,1.61s-.26-1-1-2-1.41-1.73-1.58-1.61S112.93,59.44,113.64,60.45Z"/><path class="cls-26" d="M115.27,62s-4.76,7-7.3,8.22a2.72,2.72,0,0,1-3.35-4.07l.45-.62-.74-.21a2.7,2.7,0,0,1,.13-5.26C107.33,59.48,115.27,62,115.27,62Z"/><path class="cls-25" d="M113.12,62.89c1-.67,2-1.06,2.08-.89s-.64.86-1.67,1.52-2,1.06-2.07.89S112.09,63.55,113.12,62.89Z"/><path class="cls-25" d="M113,62.65c1.22-.12,2.2-.38,2.18-.59s-1-.28-2.25-.17-2.2.38-2.18.59S111.82,62.76,113,62.65Z"/><path class="cls-24" d="M115.2,62s3.64,7.67,3.36,10.46a2.72,2.72,0,0,1-5.2.82l-.3-.7-.56.53A2.71,2.71,0,0,1,108,70.31C109,67.54,115.2,62,115.2,62Z"/><path class="cls-25" d="M114.86,64.28c0-1.22.09-2.22.29-2.23s.42,1,.47,2.21-.09,2.22-.3,2.23S114.91,65.51,114.86,64.28Z"/><path class="cls-25" d="M114.61,64.23c.53-1.11.8-2.08.61-2.17s-.77.74-1.29,1.85-.8,2.09-.61,2.17S114.09,65.34,114.61,64.23Z"/><path class="cls-26" d="M115.15,62s8.43,1,10.65,2.72a2.72,2.72,0,0,1-2.07,4.84l-.76-.11.15.75a2.7,2.7,0,0,1-4.73,2.3C116.55,70.25,115.15,62,115.15,62Z"/><path class="cls-25" d="M116.91,63.54c-1.06-.61-1.84-1.25-1.74-1.43s1,.16,2.12.78,1.84,1.25,1.74,1.43S118,64.15,116.91,63.54Z"/><path class="cls-25" d="M116.74,63.73c-.67-1-1.35-1.78-1.52-1.67s.21,1,.88,2.08,1.34,1.77,1.52,1.66S117.4,64.76,116.74,63.73Z"/><path class="cls-24" d="M115.16,62.11S120,55.17,122.61,54a2.72,2.72,0,0,1,3.28,4.12l-.46.61.73.22a2.7,2.7,0,0,1-.23,5.26C123.05,64.78,115.16,62.11,115.16,62.11Z"/><path class="cls-25" d="M117.32,61.27c-1,.65-2,1-2.09.85s.65-.85,1.7-1.49,2-1,2.09-.85S118.37,60.63,117.32,61.27Z"/><path class="cls-25" d="M117.4,61.51c-1.22.1-2.2.34-2.18.55s1,.3,2.24.21,2.2-.34,2.19-.55S118.63,61.42,117.4,61.51Z"/><path class="cls-26" d="M115.23,62.14s-3.5-7.74-3.18-10.53a2.72,2.72,0,0,1,5.22-.73l.29.71.56-.52a2.71,2.71,0,0,1,4.42,2.87C121.54,56.69,115.23,62.14,115.23,62.14Z"/><path class="cls-25" d="M115.61,59.84c0,1.23-.12,2.23-.33,2.23s-.4-1-.43-2.21.12-2.23.33-2.23S115.58,58.62,115.61,59.84Z"/><path class="cls-25" d="M115.86,59.9c-.55,1.1-.83,2.07-.64,2.16s.77-.73,1.32-1.83.83-2.07.64-2.16S116.4,58.8,115.86,59.9Z"/><path class="cls-24" d="M78.23,76.28S69.77,75.59,67.49,74A2.72,2.72,0,0,1,69.38,69l.76.09L70,68.38a2.7,2.7,0,0,1,4.65-2.47C76.53,68.12,78.23,76.28,78.23,76.28Z"/><path class="cls-25" d="M76.41,74.84c1.09.57,1.89,1.19,1.79,1.37s-1.06-.13-2.14-.7-1.89-1.19-1.79-1.37S75.32,74.26,76.41,74.84Z"/><path class="cls-25" d="M76.58,74.65c.7,1,1.41,1.73,1.58,1.61s-.26-1-1-2-1.41-1.73-1.58-1.61S75.88,73.64,76.58,74.65Z"/><path class="cls-26" d="M78.22,76.21s-4.76,7-7.31,8.21a2.72,2.72,0,0,1-3.35-4.06l.45-.62-.74-.21a2.7,2.7,0,0,1,.13-5.26C70.27,73.68,78.22,76.21,78.22,76.21Z"/><path class="cls-25" d="M76.06,77.08c1-.66,2-1.06,2.08-.88s-.63.86-1.67,1.52-2,1.06-2.07.88S75,77.75,76.06,77.08Z"/><path class="cls-25" d="M76,76.84c1.22-.11,2.2-.37,2.18-.58s-1-.29-2.25-.17-2.2.38-2.18.58S74.76,77,76,76.84Z"/><path class="cls-24" d="M78.15,76.18s3.63,7.67,3.36,10.47a2.72,2.72,0,0,1-5.2.82l-.31-.7-.56.53A2.7,2.7,0,0,1,71,84.51C71.93,81.74,78.15,76.18,78.15,76.18Z"/><path class="cls-25" d="M77.8,78.48c0-1.23.09-2.23.3-2.23s.41,1,.46,2.2-.08,2.23-.29,2.24S77.85,79.71,77.8,78.48Z"/><path class="cls-25" d="M77.56,78.43c.52-1.11.79-2.08.6-2.17s-.77.74-1.29,1.85-.79,2.08-.6,2.17S77,79.54,77.56,78.43Z"/><path class="cls-26" d="M78.09,76.23s8.43,1,10.65,2.71a2.72,2.72,0,0,1-2.07,4.85l-.75-.12.15.75a2.71,2.71,0,0,1-4.74,2.3C79.49,84.45,78.09,76.23,78.09,76.23Z"/><path class="cls-25" d="M79.85,77.74c-1.06-.61-1.84-1.26-1.73-1.44s1,.17,2.11.78,1.84,1.26,1.74,1.44S80.92,78.35,79.85,77.74Z"/><path class="cls-25" d="M79.68,77.92c-.66-1-1.35-1.78-1.52-1.66s.22,1,.88,2.07,1.35,1.78,1.52,1.67S80.34,79,79.68,77.92Z"/><path class="cls-24" d="M78.1,76.3s4.88-6.94,7.45-8.08a2.72,2.72,0,0,1,3.28,4.12l-.46.61.73.23a2.7,2.7,0,0,1-.22,5.26C86,79,78.1,76.3,78.1,76.3Z"/><path class="cls-25" d="M80.27,75.47c-1,.65-2,1-2.09.85s.64-.85,1.69-1.5,2-1,2.09-.84S81.31,74.82,80.27,75.47Z"/><path class="cls-25" d="M80.35,75.71c-1.23.09-2.21.34-2.19.55s1,.3,2.24.21,2.21-.34,2.19-.55S81.57,75.62,80.35,75.71Z"/><path class="cls-26" d="M78.17,76.33S74.67,68.6,75,65.81a2.72,2.72,0,0,1,5.22-.73l.29.7.57-.51a2.7,2.7,0,0,1,4.41,2.87C84.48,70.89,78.17,76.33,78.17,76.33Z"/><path class="cls-25" d="M78.55,74c0,1.23-.12,2.23-.33,2.23s-.4-1-.43-2.21.13-2.23.34-2.23S78.53,72.81,78.55,74Z"/><path class="cls-25" d="M78.8,74.1c-.54,1.1-.83,2.06-.64,2.16s.78-.73,1.32-1.83.83-2.07.64-2.16S79.34,73,78.8,74.1Z"/><path class="cls-24" d="M113.13,87.29s-8.46-.69-10.74-2.32a2.72,2.72,0,0,1,1.89-4.92l.76.09-.18-.75a2.7,2.7,0,0,1,4.65-2.47C111.43,79.13,113.13,87.29,113.13,87.29Z"/><path class="cls-25" d="M111.31,85.85c1.09.57,1.89,1.19,1.79,1.37s-1.06-.13-2.14-.7-1.89-1.19-1.79-1.37S110.23,85.27,111.31,85.85Z"/><path class="cls-25" d="M111.48,85.66c.7,1,1.41,1.73,1.58,1.61s-.26-1-1-2-1.41-1.73-1.58-1.61S110.78,84.65,111.48,85.66Z"/><path class="cls-26" d="M113.12,87.22s-4.76,7-7.31,8.21a2.72,2.72,0,0,1-3.35-4.06l.45-.62-.74-.21a2.7,2.7,0,0,1,.13-5.26C105.17,84.69,113.12,87.22,113.12,87.22Z"/><path class="cls-25" d="M111,88.09c1-.66,2-1.06,2.08-.88s-.63.86-1.67,1.52-2,1.06-2.07.88S109.93,88.76,111,88.09Z"/><path class="cls-25" d="M110.88,87.85c1.22-.11,2.2-.37,2.18-.58s-1-.29-2.25-.17-2.2.38-2.18.58S109.66,88,110.88,87.85Z"/><path class="cls-24" d="M113.05,87.19s3.63,7.67,3.36,10.47a2.72,2.72,0,0,1-5.2.82l-.31-.7-.55.53a2.71,2.71,0,0,1-4.47-2.79C106.83,92.75,113.05,87.19,113.05,87.19Z"/><path class="cls-25" d="M112.7,89.49c0-1.23.09-2.23.3-2.23s.42,1,.46,2.2-.08,2.23-.29,2.24S112.75,90.72,112.7,89.49Z"/><path class="cls-25" d="M112.46,89.44c.52-1.11.79-2.08.6-2.17s-.77.74-1.29,1.85-.79,2.08-.6,2.17S111.93,90.55,112.46,89.44Z"/><path class="cls-26" d="M113,87.24s8.43,1,10.65,2.71a2.72,2.72,0,0,1-2.07,4.85l-.75-.12.15.75a2.71,2.71,0,0,1-4.74,2.3C114.39,95.46,113,87.24,113,87.24Z"/><path class="cls-25" d="M114.75,88.75c-1.06-.61-1.84-1.26-1.73-1.44s1,.17,2.11.78,1.84,1.26,1.74,1.44S115.82,89.36,114.75,88.75Z"/><path class="cls-25" d="M114.58,88.93c-.66-1-1.34-1.78-1.52-1.66s.22,1,.88,2.07,1.35,1.78,1.52,1.67S115.24,90,114.58,88.93Z"/><path class="cls-24" d="M113,87.31s4.88-6.94,7.45-8.08a2.72,2.72,0,0,1,3.28,4.12l-.46.61.73.23a2.7,2.7,0,0,1-.22,5.26C120.9,90,113,87.31,113,87.31Z"/><path class="cls-25" d="M115.17,86.48c-1,.65-2,1-2.09.85s.65-.85,1.69-1.5,2-1,2.09-.84S116.21,85.83,115.17,86.48Z"/><path class="cls-25" d="M115.25,86.72c-1.23.09-2.21.34-2.19.55s1,.3,2.24.21,2.21-.34,2.19-.55S116.47,86.63,115.25,86.72Z"/><path class="cls-26" d="M113.07,87.34s-3.5-7.73-3.18-10.52a2.72,2.72,0,0,1,5.22-.73l.29.7.57-.51a2.7,2.7,0,0,1,4.41,2.87C119.38,81.9,113.07,87.34,113.07,87.34Z"/><path class="cls-25" d="M113.45,85.05c0,1.23-.12,2.23-.33,2.23s-.4-1-.43-2.21.13-2.23.34-2.23S113.43,83.82,113.45,85.05Z"/><path class="cls-25" d="M113.7,85.11c-.54,1.1-.83,2.06-.64,2.16s.78-.73,1.32-1.83.83-2.07.64-2.16S114.24,84,113.7,85.11Z"/><path class="cls-27" d="M80.4,125.27a68.65,68.65,0,0,1-17.68-2.22,66.63,66.63,0,0,1-13.78-4.82A52.8,52.8,0,0,1,31,104.06a39.92,39.92,0,0,1-7-13.75c-.19-.64-.39-1.27-.58-1.91s-.15-.64.48-.71a23.52,23.52,0,0,1,6.21.26,110,110,0,0,1,11.32,2.66A86.13,86.13,0,0,1,61.09,98.5c6.14,3.32,12.23,6.75,18.47,9.9,3.53,1.79,7.1,3.52,10.66,5.26,2.66,1.31,5.26,2.74,7.85,4.18a6.09,6.09,0,0,1,1.05.68,1.26,1.26,0,0,1,.06,2,4.8,4.8,0,0,1-1.16.8,30.36,30.36,0,0,1-5.82,2.22A38.28,38.28,0,0,1,80.4,125.27Z"/><path class="cls-28" d="M67.87,123.93c-4.19-.13-8.15-1.57-12.09-2.88a55.06,55.06,0,0,1-20.45-12.27A40.49,40.49,0,0,1,24,90.62c-.17-.58-.35-1.16-.53-1.75,0-.15-.18-.36,0-.46s.33.12.47.24.53.48.8.73A106.73,106.73,0,0,0,34,97c6.55,4.81,13.23,9.43,20.61,12.94a101.88,101.88,0,0,0,25,8.16,44.44,44.44,0,0,0,6.52.76,9.46,9.46,0,0,1,1.07.11c.58.09.9.36,1,.78s-.16.75-.71,1a21.55,21.55,0,0,1-2,.8,40.75,40.75,0,0,1-9.84,2A31.61,31.61,0,0,1,67.87,123.93Z"/><path class="cls-29" d="M55.72,149.57a36.71,36.71,0,0,1-20.27-5.73A32.43,32.43,0,0,1,27.56,137,12.87,12.87,0,0,1,25,132.56a.93.93,0,0,1,.37-1.21c.76-.51,1.49-1.06,2.26-1.55a47,47,0,0,1,11.21-5.58,91.11,91.11,0,0,1,11.77-2.91,59.08,59.08,0,0,1,13.07-.94,126.84,126.84,0,0,1,19.62,2.39A80.05,80.05,0,0,1,92,124.84c.87.28,1.72.62,2.56,1,1.14.48,1.33,1.09.68,2.15a58.57,58.57,0,0,1-7.43,9.48C82.68,142.88,76.29,146,69.24,148a44.88,44.88,0,0,1-8.61,1.36C59,149.5,57.36,149.56,55.72,149.57Z"/><path class="cls-30" d="M55.4,149.55a33.56,33.56,0,0,1-14.07-2.68A34.71,34.71,0,0,1,27.59,137,12.1,12.1,0,0,1,25,132.6c-.08-.28-.32-.63,0-.84s.53.16.75.34a21.38,21.38,0,0,0,6.84,3.52,56.35,56.35,0,0,0,12.52,2.55,148.38,148.38,0,0,0,20.87.47,71.36,71.36,0,0,0,13.71-2,42.29,42.29,0,0,0,13-6c.25-.17.54-.59.83-.32s-.21.52-.39.75c-3.32,4.36-6.84,8.56-11.51,11.54a41.86,41.86,0,0,1-17.91,6.47A64.26,64.26,0,0,1,55.4,149.55Z"/><path class="cls-31" d="M46.22,71a24.72,24.72,0,0,1,.3-5.23c0-.2-.07-.52.22-.56s.32.27.44.45a14.47,14.47,0,0,1,1.41,2.91c.67,1.91,1.31,3.83,2,5.74A69,69,0,0,0,56,86.41,42.63,42.63,0,0,0,68,99.5a134.54,134.54,0,0,0,14.53,9.06,40.07,40.07,0,0,0,11.93,4.28,2.42,2.42,0,0,1,.71.2c.37.19.36.55,0,.78a1,1,0,0,1-.64.13c-.55,0-9-.07-20.3-4.56A49,49,0,0,1,50.83,88.86a34.22,34.22,0,0,1-4.42-13.15A24.8,24.8,0,0,1,46.22,71Z"/><path class="cls-32" d="M59.86,68.22c0-1.55,0-3.11.11-4.66.07-.89.27-1.75.42-2.62,0-.15,0-.36.23-.4s.21.15.29.26A88.8,88.8,0,0,0,74.07,74.63c.9.79,1.76,1.61,2.68,2.38a30.86,30.86,0,0,1,5.13,5.64,86.9,86.9,0,0,1,6.49,10.26c1.95,3.7,4,7.36,5.81,11.12.39.8.84,1.57,1.28,2.34a17.75,17.75,0,0,0,5.56,6c.22.15.6.27.47.59s-.55.23-.82.14c-2.48-.89-5.13-1.12-7.66-1.87A45.41,45.41,0,0,1,77.55,103a56,56,0,0,1-9.27-9.39,40.51,40.51,0,0,1-8.05-18.4A36,36,0,0,1,59.86,68.22Z"/><path class="cls-33" d="M90.43,120.59c-10.73-.42-19-4.69-24.54-13.3a16.49,16.49,0,0,1-2.4-7.52,19.87,19.87,0,0,1,.19-5.71,9.09,9.09,0,0,1,1.08-2.81c.41-.71.55-.79,1.44-.66a10.57,10.57,0,0,1,3.44,1.19,40.17,40.17,0,0,1,6.83,4.47c2.92,2.35,5.77,4.78,8.52,7.31a38.24,38.24,0,0,0,10,6.58,45.45,45.45,0,0,0,4.19,1.94,19.66,19.66,0,0,0,9,1c.14,0,.31-.1.43,0s0,.3-.11.44c1,1.42.67,4-.53,4.77-3.74,2.39-10.32,1.82-14.86,2.13C92.26,120.49,91.36,120.59,90.43,120.59Z"/><path class="cls-34" d="M84.07,135.45a26.23,26.23,0,0,1-18.68-8.19A18.59,18.59,0,0,1,60.23,116a9.74,9.74,0,0,1,3.68-8.74c.48-.42.51-.39.93,0A17.08,17.08,0,0,0,69,110.2a35.35,35.35,0,0,0,9.63,3.32,52.75,52.75,0,0,0,8.31,1,67.94,67.94,0,0,1,9.34.94,45.15,45.15,0,0,1,6.24,1.75,14.35,14.35,0,0,0,2.65.69,4.94,4.94,0,0,0,2.06-.09,2.41,2.41,0,0,0,1.75-3.08,5.43,5.43,0,0,0-.44-1.16c-.09-.18-.14-.4.09-.51a.4.4,0,0,1,.55.23,6.29,6.29,0,0,1,.49,1.58,8.76,8.76,0,0,1-1.2,6.62,37.21,37.21,0,0,1-5,6.5,19.83,19.83,0,0,1-4.89,3.7A32.07,32.07,0,0,1,84.07,135.45Z"/><path class="cls-35" d="M131.38,125.27a68.76,68.76,0,0,0,17.68-2.22,66.84,66.84,0,0,0,13.78-4.82,52.9,52.9,0,0,0,17.94-14.17,40.1,40.1,0,0,0,7.05-13.75c.19-.64.39-1.27.57-1.91s.16-.64-.47-.71a23.48,23.48,0,0,0-6.21.26,110.2,110.2,0,0,0-11.33,2.66,86.05,86.05,0,0,0-19.7,7.89c-6.15,3.32-12.24,6.75-18.47,9.9-3.54,1.79-7.1,3.52-10.66,5.26-2.67,1.31-5.27,2.74-7.86,4.18a6,6,0,0,0-1,.68,1.25,1.25,0,0,0-.06,2,4.44,4.44,0,0,0,1.16.8,30.52,30.52,0,0,0,5.81,2.22A38.39,38.39,0,0,0,131.38,125.27Z"/><path class="cls-36" d="M143.91,123.93c4.18-.13,8.15-1.57,12.09-2.88a55.06,55.06,0,0,0,20.45-12.27,40.39,40.39,0,0,0,11.28-18.16c.18-.58.36-1.16.53-1.75.05-.15.19-.36,0-.46s-.33.12-.46.24c-.28.23-.54.48-.8.73A105.37,105.37,0,0,1,177.8,97c-6.55,4.81-13.23,9.43-20.6,12.94a101.88,101.88,0,0,1-25,8.16,44.6,44.6,0,0,1-6.52.76,9.88,9.88,0,0,0-1.08.11c-.58.09-.89.36-1,.78s.15.75.71,1a20.51,20.51,0,0,0,2,.8,40.67,40.67,0,0,0,9.83,2A31.8,31.8,0,0,0,143.91,123.93Z"/><path class="cls-37" d="M156.05,149.57a36.72,36.72,0,0,0,20.28-5.73,32.39,32.39,0,0,0,7.88-6.84,12.71,12.71,0,0,0,2.55-4.44.93.93,0,0,0-.36-1.21c-.76-.51-1.5-1.06-2.26-1.55a47.14,47.14,0,0,0-11.21-5.58,91.52,91.52,0,0,0-11.77-2.91,59.13,59.13,0,0,0-13.08-.94,127,127,0,0,0-19.62,2.39,79.88,79.88,0,0,0-8.64,2.08c-.87.28-1.72.62-2.57,1-1.14.48-1.32,1.09-.67,2.15a58.51,58.51,0,0,0,7.42,9.48c5.09,5.44,11.48,8.59,18.54,10.57a44.64,44.64,0,0,0,8.61,1.36C152.78,149.5,154.41,149.56,156.05,149.57Z"/><path class="cls-38" d="M156.38,149.55a33.59,33.59,0,0,0,14.07-2.68A34.68,34.68,0,0,0,184.18,137a12,12,0,0,0,2.55-4.44c.08-.28.32-.63,0-.84s-.54.16-.76.34a21.28,21.28,0,0,1-6.84,3.52,56.35,56.35,0,0,1-12.52,2.55,148.24,148.24,0,0,1-20.86.47,71.46,71.46,0,0,1-13.72-2,42.4,42.4,0,0,1-13-6c-.25-.17-.53-.59-.82-.32s.2.52.38.75c3.32,4.36,6.84,8.56,11.52,11.54A41.81,41.81,0,0,0,148,149.06,64.16,64.16,0,0,0,156.38,149.55Z"/><path class="cls-39" d="M151.92,68.22c0-1.55,0-3.11-.11-4.66-.07-.89-.27-1.75-.42-2.62,0-.15,0-.36-.23-.4s-.22.15-.3.26A88.34,88.34,0,0,1,137.7,74.63c-.89.79-1.76,1.61-2.67,2.38a30.91,30.91,0,0,0-5.14,5.64,86.83,86.83,0,0,0-6.48,10.26c-2,3.7-4,7.36-5.82,11.12-.39.8-.83,1.57-1.27,2.34a17.88,17.88,0,0,1-5.57,6c-.21.15-.6.27-.46.59s.55.23.81.14c2.49-.89,5.14-1.12,7.66-1.87A45.46,45.46,0,0,0,134.23,103a56,56,0,0,0,9.27-9.39,40.72,40.72,0,0,0,8.05-18.4A37.65,37.65,0,0,0,151.92,68.22Z"/><path class="cls-40" d="M121.34,120.59c10.73-.42,19-4.69,24.55-13.3a16.49,16.49,0,0,0,2.4-7.52,19.87,19.87,0,0,0-.19-5.71A9.62,9.62,0,0,0,147,91.25c-.42-.71-.56-.79-1.45-.66a10.65,10.65,0,0,0-3.44,1.19,40.57,40.57,0,0,0-6.83,4.47c-2.92,2.35-5.77,4.78-8.51,7.31a38.29,38.29,0,0,1-10,6.58,44.26,44.26,0,0,1-4.19,1.94,19.61,19.61,0,0,1-9,1c-.15,0-.32-.1-.43,0s0,.3.1.44c-1,1.42-.66,4,.53,4.77,3.75,2.39,10.33,1.82,14.87,2.13C119.52,120.49,120.41,120.59,121.34,120.59Z"/><path class="cls-41" d="M127.71,135.45a26.21,26.21,0,0,0,18.67-8.19A18.6,18.6,0,0,0,151.55,116a9.76,9.76,0,0,0-3.68-8.74c-.48-.42-.52-.39-.94,0a17.22,17.22,0,0,1-4.12,2.92,35.35,35.35,0,0,1-9.63,3.32,53,53,0,0,1-8.32,1,68.26,68.26,0,0,0-9.34.94,44.63,44.63,0,0,0-6.23,1.75,14.56,14.56,0,0,1-2.65.69,5,5,0,0,1-2.07-.09,2.41,2.41,0,0,1-1.75-3.08,6.06,6.06,0,0,1,.45-1.16c.09-.18.14-.4-.09-.51a.4.4,0,0,0-.55.23,6.32,6.32,0,0,0-.5,1.58,8.81,8.81,0,0,0,1.21,6.62,37.21,37.21,0,0,0,5,6.5,19.64,19.64,0,0,0,4.89,3.7A32,32,0,0,0,127.71,135.45Z"/><path class="cls-42" d="M105.45,113.61a18.34,18.34,0,0,1-8.16-1.69,14.73,14.73,0,0,1-4.53-3.33,11.53,11.53,0,0,1-2.5-4.26,18.88,18.88,0,0,1-1-8.84,21.64,21.64,0,0,1,6-12c2.47-2.62,5.06-5.13,7.68-7.61a13.2,13.2,0,0,0,3.1-4c.16-.35.29-.35.5,0a1.09,1.09,0,0,1,.08.15,34.75,34.75,0,0,0,5.79,8.18c1.66,1.91,3.29,3.83,4.79,5.86a22.73,22.73,0,0,1,3.58,6.82,16.33,16.33,0,0,1-1.53,12.69,14.78,14.78,0,0,1-9.54,7.59A13.7,13.7,0,0,1,105.45,113.61Z"/></g></g></g></svg>