<svg xmlns="http://www.w3.org/2000/svg" xmlns:xlink="http://www.w3.org/1999/xlink" viewBox="0 0 208.53 149.58"><defs><style>.cls-1{isolation:isolate;}.cls-2{fill:url(#linear-gradient);}.cls-22,.cls-23,.cls-3{mix-blend-mode:overlay;}.cls-3{fill:url(#linear-gradient-2);}.cls-4{fill:url(#linear-gradient-3);}.cls-5{fill:url(#linear-gradient-4);}.cls-6{fill:url(#linear-gradient-5);}.cls-7{fill:url(#linear-gradient-6);}.cls-8{fill:url(#linear-gradient-7);}.cls-9{fill:url(#linear-gradient-8);}.cls-10{fill:url(#linear-gradient-9);}.cls-11{fill:url(#linear-gradient-10);}.cls-12{fill:#fbb03b;}.cls-13{fill:url(#linear-gradient-11);}.cls-14{fill:url(#linear-gradient-12);}.cls-15{fill:url(#linear-gradient-13);}.cls-16{fill:url(#linear-gradient-14);}.cls-17{fill:#fcc604;}.cls-18{fill:#f7931e;}.cls-19{fill:url(#linear-gradient-15);}.cls-20{fill:url(#radial-gradient);}.cls-21{fill:#765600;}.cls-22{fill:url(#radial-gradient-2);}.cls-23{fill:url(#radial-gradient-3);}.cls-24{fill:#f5881f;}.cls-25{fill:#f9a11b;}.cls-26{fill:#ffd200;}.cls-27{fill:#faa819;}.cls-28{fill:#ffea00;}.cls-29{fill:#f68e1e;}.cls-30{fill:url(#linear-gradient-16);}.cls-31{fill:url(#linear-gradient-17);}.cls-32{fill:url(#linear-gradient-18);}.cls-33{fill:url(#linear-gradient-19);}.cls-34{fill:url(#linear-gradient-20);}.cls-35{fill:url(#linear-gradient-21);}.cls-36{fill:url(#linear-gradient-22);}.cls-37{fill:url(#linear-gradient-23);}.cls-38{fill:url(#linear-gradient-24);}.cls-39{fill:url(#linear-gradient-25);}.cls-40{fill:url(#linear-gradient-26);}.cls-41{fill:url(#linear-gradient-27);}.cls-42{fill:url(#linear-gradient-28);}.cls-43{fill:url(#linear-gradient-29);}.cls-44{fill:url(#linear-gradient-30);}.cls-45{fill:url(#linear-gradient-31);}</style><linearGradient id="linear-gradient" x1="106.51" y1="27.6" x2="106.45" y2="4.7" gradientUnits="userSpaceOnUse"><stop offset="0" stop-color="#ff7300"/><stop offset="0.07" stop-color="#fe7c09"/><stop offset="0.18" stop-color="#fd9622"/><stop offset="0.28" stop-color="#fbb03b"/><stop offset="1" stop-color="#ffffad"/></linearGradient><linearGradient id="linear-gradient-2" x1="106.5" y1="26.7" x2="106.46" y2="10.82" xlink:href="#linear-gradient"/><linearGradient id="linear-gradient-3" x1="3370.37" y1="70.8" x2="3427.69" y2="121.15" gradientTransform="matrix(-1, 0, 0, 1, 3554.38, 0)" gradientUnits="userSpaceOnUse"><stop offset="0" stop-color="#e25b90"/><stop offset="0.29" stop-color="#f8b7d4"/><stop offset="0.75" stop-color="#f8b4d4"/><stop offset="1" stop-color="#e35a90"/></linearGradient><linearGradient id="linear-gradient-4" x1="3398.47" y1="48.81" x2="3437.97" y2="111.66" gradientTransform="matrix(-1, 0, 0, 1, 3554.38, 0)" gradientUnits="userSpaceOnUse"><stop offset="0" stop-color="#e64e79"/><stop offset="0.28" stop-color="#f8bfc6"/><stop offset="0.75" stop-color="#f8c7c6"/><stop offset="1" stop-color="#eb6363"/></linearGradient><linearGradient id="linear-gradient-5" x1="3406.39" y1="55.69" x2="3418.5" y2="79.05" xlink:href="#linear-gradient-4"/><linearGradient id="linear-gradient-6" x1="3406.37" y1="70.06" x2="3419.48" y2="70.06" gradientTransform="matrix(-1, 0, 0, 1, 3554.38, 0)" gradientUnits="userSpaceOnUse"><stop offset="0" stop-color="#e64573"/><stop offset="0.02" stop-color="#e74a76"/><stop offset="0.17" stop-color="#ee7391"/><stop offset="0.3" stop-color="#f491a4"/><stop offset="0.42" stop-color="#f7a3b0"/><stop offset="0.5" stop-color="#f8aab4"/><stop offset="0.59" stop-color="#f7a3ac"/><stop offset="0.73" stop-color="#f48e95"/><stop offset="0.9" stop-color="#ee6d70"/><stop offset="1" stop-color="#eb5858"/></linearGradient><linearGradient id="linear-gradient-7" x1="3407.24" y1="56.64" x2="3439.53" y2="122.96" xlink:href="#linear-gradient-3"/><linearGradient id="linear-gradient-8" x1="3388.79" y1="89.58" x2="3438.08" y2="89.58" xlink:href="#linear-gradient-6"/><linearGradient id="linear-gradient-9" x1="24.27" y1="71.74" x2="83.44" y2="123.72" gradientTransform="matrix(1, 0, 0, 1, 0, 0)" xlink:href="#linear-gradient-3"/><linearGradient id="linear-gradient-10" x1="106.42" y1="32.71" x2="106.42" y2="98.19" gradientTransform="matrix(1, 0, 0, 1, 0, 0)" xlink:href="#linear-gradient-4"/><linearGradient id="linear-gradient-11" x1="55.86" y1="48.81" x2="95.36" y2="111.66" gradientTransform="matrix(1, 0, 0, 1, 0, 0)" xlink:href="#linear-gradient-4"/><linearGradient id="linear-gradient-12" x1="63.79" y1="55.69" x2="75.9" y2="79.05" gradientTransform="matrix(1, 0, 0, 1, 0, 0)" xlink:href="#linear-gradient-4"/><linearGradient id="linear-gradient-13" x1="63.76" y1="70.06" x2="76.87" y2="70.06" gradientTransform="matrix(1, 0, 0, 1, 0, 0)" xlink:href="#linear-gradient-6"/><linearGradient id="linear-gradient-14" x1="64.64" y1="56.64" x2="96.93" y2="122.96" gradientTransform="matrix(1, 0, 0, 1, 0, 0)" xlink:href="#linear-gradient-3"/><linearGradient id="linear-gradient-15" x1="100.17" y1="61.6" x2="113.54" y2="61.6" gradientUnits="userSpaceOnUse"><stop offset="0" stop-color="#fff9ea"/><stop offset="0.28" stop-color="#fffdf8"/><stop offset="0.53" stop-color="#fff"/><stop offset="0.69" stop-color="#fffefc"/><stop offset="0.79" stop-color="#fffaf3"/><stop offset="0.87" stop-color="#fff3e4"/><stop offset="0.95" stop-color="#ffe9cf"/><stop offset="1" stop-color="#ffe1bd"/></linearGradient><radialGradient id="radial-gradient" cx="106.87" cy="29.74" r="4.8" gradientUnits="userSpaceOnUse"><stop offset="0" stop-color="#fff9ea"/><stop offset="0.3" stop-color="#ffefd8"/><stop offset="0.72" stop-color="#ffe5c4"/><stop offset="1" stop-color="#ffe1bd"/></radialGradient><radialGradient id="radial-gradient-2" cx="106.89" cy="20.95" r="20.95" gradientTransform="translate(110.62 -87.95) rotate(80.78)" gradientUnits="userSpaceOnUse"><stop offset="0.01" stop-color="#f2be34"/><stop offset="1" stop-color="#fff" stop-opacity="0"/></radialGradient><radialGradient id="radial-gradient-3" cx="103.67" cy="21.1" r="11.07" gradientTransform="translate(3.93 -0.51) scale(0.99 1)" gradientUnits="userSpaceOnUse"><stop offset="0.01" stop-color="#fff9ea"/><stop offset="1" stop-color="#fff" stop-opacity="0"/></radialGradient><linearGradient id="linear-gradient-16" x1="22.89" y1="88.97" x2="62.97" y2="112.03" gradientTransform="matrix(1, 0, 0, 1, 0, 0)" xlink:href="#linear-gradient-4"/><linearGradient id="linear-gradient-17" x1="23.41" y1="106.17" x2="88.13" y2="106.17" gradientTransform="matrix(1, 0, 0, 1, 0, 0)" xlink:href="#linear-gradient-6"/><linearGradient id="linear-gradient-18" x1="24.93" y1="134.94" x2="95.57" y2="134.94" gradientTransform="matrix(1, 0, 0, 1, 0, 0)" xlink:href="#linear-gradient-4"/><linearGradient id="linear-gradient-19" x1="24.88" y1="139.9" x2="93.59" y2="139.9" gradientTransform="matrix(1, 0, 0, 1, 0, 0)" xlink:href="#linear-gradient-6"/><linearGradient id="linear-gradient-20" x1="46.18" y1="89.58" x2="95.47" y2="89.58" gradientTransform="matrix(1, 0, 0, 1, 0, 0)" xlink:href="#linear-gradient-6"/><linearGradient id="linear-gradient-21" x1="57.66" y1="63.02" x2="92.84" y2="113.77" gradientTransform="matrix(1, 0, 0, 1, 0, 0)" xlink:href="#linear-gradient-4"/><linearGradient id="linear-gradient-22" x1="58.18" y1="91.19" x2="103.1" y2="122.63" gradientTransform="matrix(1, 0, 0, 1, 0, 0)" xlink:href="#linear-gradient-3"/><linearGradient id="linear-gradient-23" x1="62.88" y1="99.31" x2="100.65" y2="131.89" gradientUnits="userSpaceOnUse"><stop offset="0" stop-color="#e64e79"/><stop offset="0.05" stop-color="#e95f84"/><stop offset="0.19" stop-color="#ef88a1"/><stop offset="0.32" stop-color="#f4a6b5"/><stop offset="0.42" stop-color="#f7b8c2"/><stop offset="0.5" stop-color="#f8bfc6"/><stop offset="0.58" stop-color="#f7b7be"/><stop offset="0.72" stop-color="#f4a2a7"/><stop offset="0.88" stop-color="#ef8082"/><stop offset="1" stop-color="#eb6363"/></linearGradient><linearGradient id="linear-gradient-24" x1="3365.5" y1="88.97" x2="3405.57" y2="112.03" xlink:href="#linear-gradient-4"/><linearGradient id="linear-gradient-25" x1="3366.02" y1="106.17" x2="3430.73" y2="106.17" xlink:href="#linear-gradient-6"/><linearGradient id="linear-gradient-26" x1="3367.54" y1="134.94" x2="3438.18" y2="134.94" xlink:href="#linear-gradient-4"/><linearGradient id="linear-gradient-27" x1="3367.48" y1="139.9" x2="3436.19" y2="139.9" xlink:href="#linear-gradient-6"/><linearGradient id="linear-gradient-28" x1="3400.27" y1="63.02" x2="3435.44" y2="113.77" xlink:href="#linear-gradient-4"/><linearGradient id="linear-gradient-29" x1="3400.79" y1="91.19" x2="3445.71" y2="122.63" xlink:href="#linear-gradient-3"/><linearGradient id="linear-gradient-30" x1="3405.49" y1="99.31" x2="3443.26" y2="131.89" gradientTransform="matrix(-1, 0, 0, 1, 3554.38, 0)" xlink:href="#linear-gradient-23"/><linearGradient id="linear-gradient-31" x1="104.92" y1="69.85" x2="105.49" y2="112.81" gradientUnits="userSpaceOnUse"><stop offset="0" stop-color="#e64e79"/><stop offset="0.05" stop-color="#e95f84"/><stop offset="0.2" stop-color="#ef8ca0"/><stop offset="0.34" stop-color="#f4acb5"/><stop offset="0.45" stop-color="#f7c0c1"/><stop offset="0.53" stop-color="#f8c7c6"/><stop offset="0.66" stop-color="#f8c4c3"/><stop offset="0.75" stop-color="#f6bbbb"/><stop offset="0.82" stop-color="#f5acac"/><stop offset="0.89" stop-color="#f29797"/><stop offset="0.95" stop-color="#ee7c7c"/><stop offset="1" stop-color="#eb6363"/></linearGradient></defs><g class="cls-1"><g id="Layer_2" data-name="Layer 2"><g id="OBJECTS"><path class="cls-2" d="M106.66,27.89c2.29,0,5.53-2.35,5.74-8.18.24-6.56-5.43-12.31-5-15.53-1.9,1.7-6.91,9.09-6.84,15.05S103.59,27.85,106.66,27.89Z"/><path class="cls-3" d="M106.6,26.91c1.59,0,3.84-1.63,4-5.68.16-4.55-3.77-8.53-3.47-10.77-1.32,1.18-4.79,6.31-4.74,10.44S104.48,26.88,106.6,26.91Z"/><path class="cls-4" d="M133.31,113.42a6.2,6.2,0,0,1-2.5-.21,2.78,2.78,0,0,0-2.29.31c-1.18.64-2.37,1.26-3.56,1.85-.7.35-1.42.67-2.15.95a9.67,9.67,0,0,1-1.33.17,2.74,2.74,0,0,1-1.3-.11,2,2,0,0,1-.86-.71,3.15,3.15,0,0,1-.25-1.09,10.27,10.27,0,0,1,.07-2c.19-1.47.39-3,.59-4.46a80.2,80.2,0,0,1,4.11-16.92,141,141,0,0,1,7.57-16.77c.25-.49.49-1,.71-1.5,4.26-9.78,10.12-18.72,18.44-25.77,1.61-1.37,3.19-2.84,4.9-4.08.18-.13.38-.33.55-.16s0,.4,0,.62a53.34,53.34,0,0,0-.6,8.84c0,3.75.16,7.39,0,11-.11,2.46-1,10.17-1.07,10.5-.22,1-.45,2-.7,3s-.51,1.9-.76,2.85c0,.13-.12.32,0,.4s.23-.09.33-.17l.58-.48c1.62-1.32,3.26-2.66,4.92-4a81,81,0,0,1,16.15-9.82,18.75,18.75,0,0,1,9-1.67c.64,0,.68.1.55.86a54.55,54.55,0,0,1-4.63,14.56,51.81,51.81,0,0,1-16.63,19.64c-1.82,1.3-3.59,2.64-5.35,4a4.27,4.27,0,0,0,1.23-.34A116.53,116.53,0,0,1,187.58,97a51.72,51.72,0,0,1,15.09,1.1,21.87,21.87,0,0,1,4.87,1.5c1.31.68,1.25.48.25,2a34.2,34.2,0,0,1-7.51,7.89A74.49,74.49,0,0,1,178,121.51a81.31,81.31,0,0,1-15.16,3.33c-12.85,2.38-29-1.2-32-2.13a14.79,14.79,0,0,1-3.6-1.46,1.54,1.54,0,0,1-.68-2.34c.09-.18.09-.29,0-.38l.21-.25a7.62,7.62,0,0,1,1-.91.67.67,0,0,0,.24-.16l.29-.24c.13-.11.26-.21.38-.33.64-.49,1.31-.93,2-1.36.88-.55,1.78-1.08,2.68-1.62.08,0,.2-.08.17-.18S133.39,113.41,133.31,113.42Z"/><path class="cls-5" d="M135.48,69.92a37.85,37.85,0,0,0,.92-11.57,52.82,52.82,0,0,0-4.92-19.46c-.5-1-.51-1-1.36-.29-1.67,1.42-3.47,2.68-5.22,4A26.08,26.08,0,0,0,120.31,47,42.14,42.14,0,0,0,113.1,59.5a51.71,51.71,0,0,0-2.42,7.67c-1.25,6.67-2.92,14-3.39,20-.07,3.72-.05,7.44.17,11.15a87.92,87.92,0,0,0,1.63,13c.22,1.09.88,1.43,1.88,1a6.13,6.13,0,0,0,1.43-1c1.62-1.44,3.24-2.86,4.86-4.29l.19-.18.18-.16c.05,0,.05,0,0,0s0-.06,0,0l-.17.16-.19.18c0,.33-.27.53-.45.77-1.27,1.65-2.52,3.31-3.82,4.93-1,1.3-1.87,2.75-3,4-.23.27-.1.53,0,.77a.66.66,0,0,0,.86.3,12.28,12.28,0,0,1,2.58-.62c3.3-.47,6.57-1,9.83-1.72a75.39,75.39,0,0,0,21.35-8.16,81.1,81.1,0,0,0,16.85-12.24,70.58,70.58,0,0,0,7.61-8.69A62.4,62.4,0,0,0,177,73a48.09,48.09,0,0,0,2.56-9.1c.45-2.27.57-4.57.82-6.85.06-.5.13-1,.16-1.49s-.09-.51-.47-.25a34.67,34.67,0,0,1-5.71,2.87c-2.81,1.25-5.73,2.25-8.6,3.36a50.45,50.45,0,0,0-9.71,4.88c-1.69,1.12-3.39,2.23-5,3.39A70.3,70.3,0,0,0,138.6,81.36Q132.26,88.62,126,96a1.69,1.69,0,0,1-.58.58.17.17,0,0,1-.19.15.43.43,0,0,1-.13.34l-.17.18c-.07,0-.07.05,0,0s0,.07,0,0l.19-.17a.45.45,0,0,1,.14-.33c0-.09.07-.16.18-.16,0-.34.22-.56.37-.82C128.56,91.13,133.41,79,135.48,69.92Z"/><path class="cls-6" d="M147.42,70.78c0-1.2.8-9.55.24-13.27a31.32,31.32,0,0,0-.78-3.83c-.2-.72-.46-.85-1.13-.53a7.15,7.15,0,0,0-1,.68,53.8,53.8,0,0,0-10.63,10.84,91,91,0,0,0-13.19,23.66c-2.64,6.88-5.11,13.83-7.35,20.85-.62,1.93-1,3.91-1.75,5.81a.83.83,0,0,0,.15,1,.89.89,0,0,0,1,.13,2.85,2.85,0,0,0,1.14-.67,3.75,3.75,0,0,1,1.45-.91,12.49,12.49,0,0,0,1.92-1,103.44,103.44,0,0,0,13.29-10.11c5.22-4.7,8.95-10.46,12-16.71a50.57,50.57,0,0,0,4.62-15.12A8.16,8.16,0,0,0,147.42,70.78Z"/><path class="cls-7" d="M140.82,82.46a48.42,48.42,0,0,0,3.35-5.75,35.57,35.57,0,0,0,3.49-10.61,26.64,26.64,0,0,0,0-8.36,33,33,0,0,0-.61-3.27c-.06-.24-.12-.48-.19-.72s-.07-.23-.2-.23-.13.16-.13.26c0,.94-.07,1.88-.17,2.82a48.51,48.51,0,0,1-1,6.48c-1.56,6.43-3.77,12.58-7.61,18-.88,1.25-1.66,2.56-2.49,3.84a4.12,4.12,0,0,0-.34.66.64.64,0,0,0,.16.76.68.68,0,0,0,.84.11A11.67,11.67,0,0,0,140.82,82.46Z"/><path class="cls-8" d="M107.06,104.65a39,39,0,0,0,0,5.82c0,.3.06.6.1.9a1,1,0,0,1-.22,1,.47.47,0,0,0,.17.86,4.58,4.58,0,0,0,2.58.68A13.12,13.12,0,0,1,113,114a41.47,41.47,0,0,0,7.72-.3,64.81,64.81,0,0,0,14.14-3.34,47.78,47.78,0,0,0,20-13.29,49.37,49.37,0,0,0,5.14-6.74,34.65,34.65,0,0,0,5.3-14.75,37.1,37.1,0,0,0-.12-10c0-.13,0-.27-.08-.41-.07-.41-.29-.54-.71-.46a13.77,13.77,0,0,0-3.29,1.13,43.57,43.57,0,0,0-9.63,6.5c-4.33,3.81-8.37,7.93-12.43,12-2.62,2.64-5.26,5.26-8,7.79l-.37.34c-.06,0-.13.12-.2,0s0-.1,0-.15.14-.36.21-.54A38.14,38.14,0,0,0,133,75.52a50.52,50.52,0,0,0-3.22-14.82,83,83,0,0,0-5.7-11.64c-.28-.49-.33-.49-.69-.08a2.39,2.39,0,0,0-.21.26c-4.78,6.15-8.9,12.65-11.25,20.16a76.79,76.79,0,0,0-2.34,10c-1,5.63-1.59,11.31-2.14,17C107.21,99.15,107.19,101.9,107.06,104.65Z"/><path class="cls-9" d="M165.55,71a25.39,25.39,0,0,0-.29-5.23c0-.2.06-.52-.22-.56s-.33.27-.44.45a14.47,14.47,0,0,0-1.41,2.91c-.67,1.91-1.32,3.83-2,5.74a69.75,69.75,0,0,1-5.47,12.11,42.54,42.54,0,0,1-12,13.09,133.57,133.57,0,0,1-14.53,9.06,40,40,0,0,1-11.92,4.28,2.57,2.57,0,0,0-.72.2c-.37.19-.35.55,0,.78a1,1,0,0,0,.64.13c.56,0,9-.07,20.3-4.56a49,49,0,0,0,23.43-20.53,34.06,34.06,0,0,0,4.42-13.15A24,24,0,0,0,165.55,71Z"/><path class="cls-10" d="M79,114.9a6.18,6.18,0,0,0,2.42-.29,2.81,2.81,0,0,1,2.21.2c1.14.56,2.29,1.08,3.43,1.58.68.29,1.36.55,2.05.79a10.69,10.69,0,0,0,1.27.1,2.72,2.72,0,0,0,1.23-.15,2.11,2.11,0,0,0,.82-.69,2.93,2.93,0,0,0,.24-1,10.27,10.27,0,0,0-.07-1.84c-.18-1.35-.38-2.72-.56-4.12a74.62,74.62,0,0,0-4-16.06A141.9,141.9,0,0,0,80.25,76.7q-.39-.75-.75-1.53A78.39,78.39,0,0,0,59.17,47.26c-1.83-1.57-3.65-3.27-5.6-4.72-.21-.15-.44-.39-.62-.19s0,.46,0,.71a63.46,63.46,0,0,1,1.17,10c.24,4.16.23,8.17.6,12.1C55,67.82,56.36,76,56.45,76.36c.29,1.06.57,2.11.88,3.14s.63,2,.94,2.94c0,.14.14.33,0,.41s-.24-.09-.35-.17-.42-.32-.63-.48c-1.77-1.35-3.57-2.72-5.4-4.09A94.66,94.66,0,0,0,33.69,67.7a22,22,0,0,0-10.16-1.82c-.73,0-.77.11-.54.94a62.19,62.19,0,0,0,6.52,15.69,57.83,57.83,0,0,0,19.15,19.67c2,1.22,3.84,2.48,5.72,3.7a4.75,4.75,0,0,1-1.28-.29,132.2,132.2,0,0,0-30.51-4.78,60,60,0,0,0-16.37,1.57A23.8,23.8,0,0,0,1,104.06c-1.37.73-1.34.54,0,2a40.7,40.7,0,0,0,9.17,7.62,87.12,87.12,0,0,0,24.66,10.67,90.6,90.6,0,0,0,15.58,2.39c12.81,1.56,28.3-2.43,31.2-3.41a14.63,14.63,0,0,0,3.4-1.47c1-.63,1.13-1.18.63-2.16-.08-.16-.08-.26,0-.34a2.19,2.19,0,0,0-.2-.22,6.53,6.53,0,0,0-1-.8.78.78,0,0,1-.23-.13l-.27-.22c-.13-.09-.26-.18-.38-.28a22.09,22.09,0,0,0-1.93-1.18L79,115.12c-.07,0-.19-.06-.16-.16S79,114.89,79,114.9Z"/><path class="cls-11" d="M117.66,61.14c-.07,3.09-2.47,13.16-3,15.2a91.92,91.92,0,0,1-6.52,18,18.79,18.79,0,0,1-1.73,2.93,1.53,1.53,0,0,1-2.69.15A10.73,10.73,0,0,1,102,94.83a50.41,50.41,0,0,1-3.15-8,64.8,64.8,0,0,1-2.73-14c-.28-3.13-1-13.48-.94-15,.06-1.78,0-3.56.21-5.32a27.39,27.39,0,0,1,3-9.11,44.89,44.89,0,0,1,6-8.75c.47-.55.89-1.14,1.34-1.7.2-.25.38-.31.55,0a.3.3,0,0,0,0,.08c1.83,3.48,4.31,6.58,6.08,10.11a85.32,85.32,0,0,1,3.75,8.34A24.93,24.93,0,0,1,117.48,58,25.37,25.37,0,0,1,117.66,61.14Z"/><polygon class="cls-12" points="34.1 59.68 34.15 59.71 34.09 59.72 34.1 59.68"/><path class="cls-13" d="M76.29,69.92a38.17,38.17,0,0,1-.92-11.57A53,53,0,0,1,80.3,38.89c.49-1,.51-1,1.36-.29,1.67,1.42,3.47,2.68,5.22,4A26.79,26.79,0,0,1,91.47,47a42.11,42.11,0,0,1,7.2,12.47,51.75,51.75,0,0,1,2.43,7.67c1.24,6.67,2.91,14,3.39,20,.06,3.72,0,7.44-.17,11.15a90.67,90.67,0,0,1-1.63,13c-.23,1.09-.88,1.43-1.89,1a5.88,5.88,0,0,1-1.42-1c-1.62-1.44-3.25-2.86-4.87-4.29l-.19-.18-.17-.16c-.06,0-.06,0,0,0s0-.06,0,0l.17.16.2.18c0,.33.27.53.45.77,1.26,1.65,2.51,3.31,3.82,4.93,1,1.3,1.87,2.75,3,4,.22.27.1.53-.05.77a.66.66,0,0,1-.86.3,12,12,0,0,0-2.58-.62c-3.29-.47-6.57-1-9.82-1.72a75.56,75.56,0,0,1-21.36-8.16A81.36,81.36,0,0,1,50.24,95.09a70.5,70.5,0,0,1-7.6-8.69A62.4,62.4,0,0,1,34.78,73a48.09,48.09,0,0,1-2.56-9.1c-.46-2.27-.58-4.57-.83-6.85-.05-.5-.12-1-.15-1.49s.09-.51.47-.25a34.67,34.67,0,0,0,5.71,2.87c2.81,1.25,5.72,2.25,8.59,3.36a50.53,50.53,0,0,1,9.72,4.88c1.68,1.12,3.38,2.23,5,3.39a70.24,70.24,0,0,1,12.4,11.53Q79.53,88.62,85.76,96c.18.21.31.46.59.58a.16.16,0,0,0,.18.15.44.44,0,0,0,.14.34l.17.18c.06,0,.06.05,0,0s0,.07,0,0l-.19-.17c0-.12,0-.25-.13-.33s-.08-.16-.19-.16c0-.34-.22-.56-.37-.82C83.21,91.13,78.36,79,76.29,69.92Z"/><path class="cls-14" d="M64.36,70.78c0-1.2-.81-9.55-.25-13.27a33.32,33.32,0,0,1,.78-3.83c.2-.72.46-.85,1.14-.53a7.74,7.74,0,0,1,1,.68A53.48,53.48,0,0,1,77.69,64.67a91,91,0,0,1,13.2,23.66q4,10.32,7.35,20.85c.61,1.93,1,3.91,1.75,5.81a.85.85,0,0,1-.16,1,.88.88,0,0,1-1,.13,2.72,2.72,0,0,1-1.14-.67,3.79,3.79,0,0,0-1.46-.91,12.39,12.39,0,0,1-1.91-1A102.85,102.85,0,0,1,81,103.43,53.75,53.75,0,0,1,69,86.72,50.87,50.87,0,0,1,64.38,71.6,7.9,7.9,0,0,1,64.36,70.78Z"/><path class="cls-15" d="M71,82.46a48.42,48.42,0,0,1-3.35-5.75A35.29,35.29,0,0,1,64.12,66.1a26.05,26.05,0,0,1,0-8.36,30.31,30.31,0,0,1,.6-3.27c.06-.24.13-.48.2-.72s.07-.23.2-.23.12.16.12.26q0,1.41.18,2.82a48.49,48.49,0,0,0,1,6.48c1.57,6.43,3.78,12.58,7.62,18,.87,1.25,1.66,2.56,2.48,3.84a4.17,4.17,0,0,1,.35.66.66.66,0,0,1-.16.76.7.7,0,0,1-.85.11A11.67,11.67,0,0,1,71,82.46Z"/><path class="cls-16" d="M104.72,104.65a39,39,0,0,1,0,5.82c0,.3-.06.6-.11.9a1,1,0,0,0,.22,1,.47.47,0,0,1-.17.86,4.55,4.55,0,0,1-2.57.68,13.2,13.2,0,0,0-3.32.08,41.5,41.5,0,0,1-7.72-.3,64.59,64.59,0,0,1-14.13-3.34,47.75,47.75,0,0,1-20-13.29,50.19,50.19,0,0,1-5.14-6.74,34.77,34.77,0,0,1-5.29-14.75,37.51,37.51,0,0,1,.11-10c0-.13.06-.27.08-.41.07-.41.29-.54.71-.46a13.7,13.7,0,0,1,3.3,1.13,43.28,43.28,0,0,1,9.62,6.5c4.34,3.81,8.38,7.93,12.44,12,2.62,2.64,5.25,5.26,8,7.79l.36.34c.06,0,.14.12.21,0s0-.1,0-.15L81,91.78a38.14,38.14,0,0,1-2.26-16.26A50.52,50.52,0,0,1,82,60.7a82,82,0,0,1,5.7-11.64c.28-.49.32-.49.69-.08l.21.26c4.77,6.15,8.9,12.65,11.24,20.16a76.83,76.83,0,0,1,2.35,10c1,5.63,1.59,11.31,2.14,17C104.56,99.15,104.59,101.9,104.72,104.65Z"/><path class="cls-17" d="M109.26,68.28c7.65.11,15,.84,22.19,3.33A32.49,32.49,0,0,1,138,74.53a17.48,17.48,0,0,1,4.51,3.76,10,10,0,0,1,1.06,1.59,7,7,0,0,1,0,6.78,12.35,12.35,0,0,1-3.75,4.19,28.7,28.7,0,0,1-6.61,3.61,54.5,54.5,0,0,1-11.15,3.06,75.33,75.33,0,0,1-17,1.06,62.46,62.46,0,0,1-20.27-4,27.35,27.35,0,0,1-6.16-3.33,14,14,0,0,1-3.15-3.09,7.16,7.16,0,0,1-.55-.84,7,7,0,0,1,.1-7.58,12.35,12.35,0,0,1,2.87-3.2,27,27,0,0,1,7.66-4.27,58.38,58.38,0,0,1,12.65-3.19A101.83,101.83,0,0,1,109.26,68.28Z"/><path class="cls-18" d="M109.26,71c7.25.1,14.21.73,21,2.88a32.14,32.14,0,0,1,6.2,2.52,16.17,16.17,0,0,1,4.28,3.25,8.51,8.51,0,0,1,1,1.36,5.59,5.59,0,0,1,0,5.86,11.28,11.28,0,0,1-3.55,3.62A28.44,28.44,0,0,1,132,93.6a56.19,56.19,0,0,1-10.57,2.64,79.16,79.16,0,0,1-16.12.91,64.06,64.06,0,0,1-19.2-3.44,27.39,27.39,0,0,1-5.85-2.88,13.14,13.14,0,0,1-3-2.66c-.18-.23-.36-.48-.52-.73a5.63,5.63,0,0,1,.1-6.54,11.38,11.38,0,0,1,2.72-2.77,26.76,26.76,0,0,1,7.26-3.69,59,59,0,0,1,12-2.74A103.66,103.66,0,0,1,109.26,71Z"/><polygon class="cls-12" points="177.68 59.68 177.63 59.71 177.69 59.72 177.68 59.68"/><rect class="cls-19" x="100.17" y="29.72" width="13.36" height="63.78"/><ellipse class="cls-20" cx="106.86" cy="29.74" rx="6.71" ry="1.06"/><path class="cls-21" d="M107,26.92a5.81,5.81,0,0,0,0-3c-.08-.22-.44-.13-.36.1a6.21,6.21,0,0,1-.08,3.2,5.11,5.11,0,0,0,.13,3c.1.22.42,0,.33-.19A5.18,5.18,0,0,1,107,26.92Z"/><circle class="cls-22" cx="106.89" cy="20.95" r="20.95" transform="translate(69.09 123.11) rotate(-80.78)"/><ellipse class="cls-23" cx="106.71" cy="20.86" rx="10.98" ry="11.12"/><ellipse class="cls-23" cx="106.71" cy="20.86" rx="10.98" ry="11.12"/><path class="cls-24" d="M145,88.82c0,2-4.64,3.6-10.36,3.6s-10.37-1.61-10.37-3.6V86.16a76.86,76.86,0,0,1,10.37-1,71.88,71.88,0,0,1,10.36,1Z"/><path class="cls-24" d="M145,88.82c0,2-4.64,3.6-10.36,3.6s-10.37-1.61-10.37-3.6V86.16a76.86,76.86,0,0,1,10.37-1,71.88,71.88,0,0,1,10.36,1Z"/><path class="cls-25" d="M145,86.58c0,2-4.64,3.91-10.36,3.91s-10.37-1.91-10.37-3.91c0-.39,3.11.15,3.11.15A9.58,9.58,0,0,1,134.63,83c4.84,0,6.62,2.81,6.62,2.81S145,86.28,145,86.58Z"/><path class="cls-26" d="M145,86.16c0,2-4.64,3.6-10.36,3.6s-10.37-1.61-10.37-3.6,4.64-3.61,10.37-3.61S145,84.17,145,86.16Z"/><path class="cls-27" d="M134.63,83.58c-4.76,0-8.61,1.13-8.61,2.52,0,.65.84,1.25,2.22,1.69-1-.4-1.59-.89-1.59-1.43,0-1.33,3.62-2.41,8.08-2.41s8.08,1.08,8.08,2.41a1.32,1.32,0,0,1-.73,1c.73-.38,1.16-.81,1.16-1.27C143.24,84.71,139.38,83.58,134.63,83.58Z"/><polygon class="cls-25" points="134.52 90.36 134.46 92.25 134.4 90.36 134.52 90.36"/><polygon class="cls-25" points="137.33 90.17 137.28 92.06 137.22 90.17 137.33 90.17"/><polygon class="cls-25" points="140.1 89.7 140.04 91.59 139.99 89.7 140.1 89.7"/><polygon class="cls-25" points="142.61 88.82 142.56 90.71 142.5 88.82 142.61 88.82"/><polygon class="cls-25" points="144.26 87.79 144.2 89.68 144.15 87.79 144.26 87.79"/><polygon class="cls-25" points="131.56 90.17 131.5 92.06 131.45 90.17 131.56 90.17"/><polygon class="cls-25" points="128.89 89.55 128.83 91.43 128.78 89.55 128.89 89.55"/><polygon class="cls-25" points="126.93 88.94 126.87 90.93 126.82 88.94 126.93 88.94"/><polygon class="cls-25" points="124.94 87.6 124.88 89.55 124.82 87.6 124.94 87.6"/><path class="cls-28" d="M127.34,86.33c0-1.08,2.85-2,6.36-2S127.34,87.41,127.34,86.33Z"/><path class="cls-28" d="M142.17,83.82s3.51,1.69.85,3.56a31.06,31.06,0,0,1-2.86,1.55s3.25-.81,4.15-1.88C145.79,85.27,142.17,83.82,142.17,83.82Z"/><path class="cls-29" d="M140.59,86.44l-.81,0a1,1,0,0,1-.75,1,4.75,4.75,0,0,1-1.76.27H137l-.3-.68H137l.5,0a3.19,3.19,0,0,0,.63-.09,1.07,1.07,0,0,0,.48-.2.48.48,0,0,0,.17-.36.55.55,0,0,0-.29-.48,2,2,0,0,0-.85-.2h-.47a2,2,0,0,0-.39.06,2.28,2.28,0,0,0-.35.11l-.31.14-.33.17-1.43.84a3,3,0,0,1-.91.34,3.71,3.71,0,0,1-.78.07h-.39a3.3,3.3,0,0,1-1.57-.42,1.21,1.21,0,0,1-.61-.94l-.79,0v-.23l.8,0a1,1,0,0,1,.66-.8,4.59,4.59,0,0,1,1.69-.24h.09l.3.64h-.7a4.68,4.68,0,0,0-.56.09.79.79,0,0,0-.39.19.41.41,0,0,0-.11.28.2.2,0,0,0,0,.07c0,.41.39.64,1.06.68h.2a2.49,2.49,0,0,0,.5,0,2.09,2.09,0,0,0,.6-.24l1.42-.84a5.14,5.14,0,0,1,1.21-.5,4.28,4.28,0,0,1,1.11-.13h.34a3.48,3.48,0,0,1,1.54.4,1.29,1.29,0,0,1,.69.85l.82,0Z"/><path class="cls-24" d="M147.86,85.26c0,2-4.64,3.6-10.36,3.6s-10.37-1.61-10.37-3.6V82.6a76.86,76.86,0,0,1,10.37-.95,71.88,71.88,0,0,1,10.36.95Z"/><path class="cls-24" d="M147.86,85.26c0,2-4.64,3.6-10.36,3.6s-10.37-1.61-10.37-3.6V82.6a76.86,76.86,0,0,1,10.37-.95,71.88,71.88,0,0,1,10.36.95Z"/><path class="cls-25" d="M147.86,83c0,2-4.64,3.9-10.36,3.9S127.13,85,127.13,83c0-.39,3.11.15,3.11.15a9.57,9.57,0,0,1,7.26-3.76c4.84,0,6.62,2.82,6.62,2.82S147.86,82.72,147.86,83Z"/><path class="cls-26" d="M147.86,82.6c0,2-4.64,3.61-10.36,3.61s-10.37-1.62-10.37-3.61S131.77,79,137.5,79,147.86,80.61,147.86,82.6Z"/><path class="cls-27" d="M137.5,80c-4.76,0-8.62,1.13-8.62,2.52,0,.65.85,1.25,2.23,1.7-1-.4-1.59-.9-1.59-1.44,0-1.33,3.62-2.4,8.08-2.4s8.08,1.07,8.08,2.4a1.32,1.32,0,0,1-.73,1c.73-.37,1.16-.81,1.16-1.27C146.11,81.15,142.25,80,137.5,80Z"/><polygon class="cls-25" points="137.39 86.81 137.33 88.69 137.27 86.81 137.39 86.81"/><polygon class="cls-25" points="140.2 86.62 140.15 88.5 140.09 86.62 140.2 86.62"/><polygon class="cls-25" points="142.97 86.14 142.91 88.03 142.86 86.14 142.97 86.14"/><polygon class="cls-25" points="145.48 85.26 145.43 87.15 145.37 85.26 145.48 85.26"/><polygon class="cls-25" points="147.13 84.23 147.07 86.12 147.02 84.23 147.13 84.23"/><polygon class="cls-25" points="134.43 86.62 134.38 88.5 134.32 86.62 134.43 86.62"/><polygon class="cls-25" points="131.76 85.99 131.7 87.87 131.65 85.99 131.76 85.99"/><polygon class="cls-25" points="129.8 85.38 129.74 87.37 129.69 85.38 129.8 85.38"/><polygon class="cls-25" points="127.81 84.04 127.75 85.99 127.69 84.04 127.81 84.04"/><path class="cls-28" d="M130.21,82.77c0-1.07,2.85-2,6.36-2S130.21,83.85,130.21,82.77Z"/><path class="cls-28" d="M145,80.26s3.51,1.69.85,3.56A31.06,31.06,0,0,1,143,85.37s3.25-.8,4.15-1.88C148.66,81.72,145,80.26,145,80.26Z"/><path class="cls-29" d="M143.46,82.88l-.81,0a1,1,0,0,1-.75,1,4.73,4.73,0,0,1-1.76.28h-.23l-.31-.67h.27l.5,0a4.17,4.17,0,0,0,.63-.08,1.19,1.19,0,0,0,.48-.21.46.46,0,0,0,.17-.36.53.53,0,0,0-.29-.47,1.82,1.82,0,0,0-.85-.21H140a3.24,3.24,0,0,0-.39.06,2,2,0,0,0-.35.11l-.31.14-.33.18-1.43.83a3.1,3.1,0,0,1-.92.34,3.55,3.55,0,0,1-.77.07h-.39a3.3,3.3,0,0,1-1.57-.42,1.18,1.18,0,0,1-.61-.94l-.79,0v-.23l.8,0a1,1,0,0,1,.66-.8,4.62,4.62,0,0,1,1.69-.23h.09l.3.64h-.26l-.44,0a3.28,3.28,0,0,0-.56.08.8.8,0,0,0-.39.2.39.39,0,0,0-.11.28.15.15,0,0,0,0,.06c0,.42.39.65,1.06.69h.2a1.93,1.93,0,0,0,.5,0,2.09,2.09,0,0,0,.6-.24l1.42-.84a5.14,5.14,0,0,1,1.21-.5,4.28,4.28,0,0,1,1.11-.13h.34a3.48,3.48,0,0,1,1.54.4,1.31,1.31,0,0,1,.69.85l.82.05Z"/><path class="cls-24" d="M146.21,80.78c0,2-4.64,3.6-10.37,3.6s-10.36-1.61-10.36-3.6V78.12a76.62,76.62,0,0,1,10.36-1,71.92,71.92,0,0,1,10.37,1Z"/><path class="cls-24" d="M146.21,80.78c0,2-4.64,3.6-10.37,3.6s-10.36-1.61-10.36-3.6V78.12a76.62,76.62,0,0,1,10.36-1,71.92,71.92,0,0,1,10.37,1Z"/><path class="cls-25" d="M146.21,78.55c0,2-4.64,3.9-10.37,3.9s-10.36-1.91-10.36-3.9c0-.4,3.1.15,3.1.15a9.57,9.57,0,0,1,7.26-3.76c4.85,0,6.62,2.82,6.62,2.82S146.21,78.24,146.21,78.55Z"/><path class="cls-26" d="M146.21,78.12c0,2-4.64,3.6-10.37,3.6s-10.36-1.61-10.36-3.6,4.64-3.61,10.36-3.61S146.21,76.13,146.21,78.12Z"/><path class="cls-27" d="M135.84,75.54c-4.75,0-8.61,1.13-8.61,2.52,0,.65.84,1.25,2.22,1.69-1-.4-1.58-.89-1.58-1.43,0-1.33,3.62-2.41,8.08-2.41S144,77,144,78.32c0,.36-.27.7-.74,1,.74-.37,1.16-.81,1.16-1.27C144.45,76.67,140.6,75.54,135.84,75.54Z"/><polygon class="cls-25" points="135.73 82.33 135.68 84.21 135.62 82.33 135.73 82.33"/><polygon class="cls-25" points="138.55 82.14 138.49 84.02 138.44 82.14 138.55 82.14"/><polygon class="cls-25" points="141.31 81.66 141.26 83.55 141.2 81.66 141.31 81.66"/><polygon class="cls-25" points="143.83 80.78 143.77 82.67 143.72 80.78 143.83 80.78"/><polygon class="cls-25" points="145.47 79.75 145.42 81.64 145.36 79.75 145.47 79.75"/><polygon class="cls-25" points="132.78 82.14 132.72 84.02 132.66 82.14 132.78 82.14"/><polygon class="cls-25" points="130.1 81.51 130.05 83.39 129.99 81.51 130.1 81.51"/><polygon class="cls-25" points="128.14 80.9 128.09 82.89 128.03 80.9 128.14 80.9"/><polygon class="cls-25" points="126.15 79.56 126.09 81.51 126.04 79.56 126.15 79.56"/><path class="cls-28" d="M128.56,78.29c0-1.07,2.85-2,6.36-2S128.56,79.37,128.56,78.29Z"/><path class="cls-28" d="M143.39,75.78s3.5,1.69.84,3.56a31.27,31.27,0,0,1-2.85,1.55s3.25-.81,4.15-1.88C147,77.24,143.39,75.78,143.39,75.78Z"/><path class="cls-29" d="M141.81,78.4l-.81-.05a1.06,1.06,0,0,1-.75,1,4.81,4.81,0,0,1-1.77.27h-.22l-.31-.67h.26l.5,0a4.3,4.3,0,0,0,.64-.08,1.21,1.21,0,0,0,.47-.21.43.43,0,0,0,.17-.36.53.53,0,0,0-.29-.48,1.93,1.93,0,0,0-.85-.2h-.46a3.24,3.24,0,0,0-.39.06,1.75,1.75,0,0,0-.35.11l-.31.14-.33.18-1.43.83a3.1,3.1,0,0,1-.92.34,3.61,3.61,0,0,1-.77.07h-.4a3.29,3.29,0,0,1-1.56-.42,1.18,1.18,0,0,1-.61-.94l-.8,0v-.23l.8,0a1,1,0,0,1,.66-.79,4.41,4.41,0,0,1,1.7-.25h.09l.29.65h-.25l-.44,0a3.15,3.15,0,0,0-.56.08.72.72,0,0,0-.39.2.36.36,0,0,0-.11.28v.06c.05.41.4.64,1.06.68h.21a2.31,2.31,0,0,0,.49-.05,2.09,2.09,0,0,0,.6-.24l1.43-.84a5.07,5.07,0,0,1,1.2-.5,4.36,4.36,0,0,1,1.12-.13h.33a3.52,3.52,0,0,1,1.55.4,1.24,1.24,0,0,1,.68.85l.83,0Z"/><path class="cls-24" d="M139.64,71.51c1.38,1.44-.84,5.82-5,9.79s-8.59,6-10,4.59L122.86,84a77.5,77.5,0,0,1,6.81-7.87,71.46,71.46,0,0,1,8.13-6.5Z"/><path class="cls-24" d="M139.64,71.51c1.38,1.44-.84,5.82-5,9.79s-8.59,6-10,4.59L122.86,84a77.5,77.5,0,0,1,6.81-7.87,71.46,71.46,0,0,1,8.13-6.5Z"/><path class="cls-25" d="M138.1,69.91c1.38,1.43-.64,6-4.77,10s-8.79,5.81-10.17,4.37c-.27-.28,2.34-2,2.34-2a9.55,9.55,0,0,1,2.63-7.74c3.49-3.36,6.72-2.57,6.72-2.57S137.88,69.69,138.1,69.91Z"/><path class="cls-26" d="M137.8,69.6c1.38,1.43-.84,5.81-5,9.78s-8.59,6-10,4.59.84-5.81,5-9.78S136.42,68.16,137.8,69.6Z"/><path class="cls-27" d="M128.54,74.93c-3.43,3.29-5.42,6.78-4.45,7.79.45.47,1.46.31,2.77-.33-1,.41-1.76.46-2.14.07-.92-1,.94-4.24,4.16-7.34s6.57-4.82,7.49-3.86a1.31,1.31,0,0,1,.17,1.23c.27-.78.27-1.38,0-1.72C135.53,69.77,132,71.63,128.54,74.93Z"/><polygon class="cls-25" points="133.17 79.89 134.43 81.29 133.09 79.97 133.17 79.89"/><polygon class="cls-25" points="135.06 77.81 136.33 79.2 134.98 77.88 135.06 77.81"/><polygon class="cls-25" points="136.73 75.54 138 76.94 136.65 75.62 136.73 75.54"/><polygon class="cls-25" points="137.93 73.17 139.2 74.56 137.85 73.25 137.93 73.17"/><polygon class="cls-25" points="138.4 71.28 139.67 72.68 138.32 71.36 138.4 71.28"/><polygon class="cls-25" points="130.91 81.81 132.17 83.2 130.82 81.88 130.91 81.81"/><polygon class="cls-25" points="128.55 83.21 129.81 84.61 128.47 83.28 128.55 83.21"/><polygon class="cls-25" points="126.71 84.13 128.05 85.6 126.63 84.21 126.71 84.13"/><polygon class="cls-25" points="124.34 84.54 125.66 85.99 124.26 84.62 124.34 84.54"/><path class="cls-28" d="M125.2,82c-.74-.77.7-3.38,3.23-5.82S126,82.74,125.2,82Z"/><path class="cls-28" d="M134.14,69.87s3.7-1.21,3.08,2a30.45,30.45,0,0,1-1,3.09s1.78-2.83,1.68-4.23C137.76,68.41,134.14,69.87,134.14,69.87Z"/><path class="cls-29" d="M134.82,72.85l-.61.53a1.05,1.05,0,0,1,.12,1.21A4.64,4.64,0,0,1,133.25,76l-.17.15-.68-.27.19-.18.34-.35a4.45,4.45,0,0,0,.4-.51,1,1,0,0,0,.2-.48.41.41,0,0,0-.12-.37.53.53,0,0,0-.54-.15,2,2,0,0,0-.76.44l-.16.15-.17.18a2.63,2.63,0,0,0-.24.31,1.4,1.4,0,0,0-.18.32,3.09,3.09,0,0,0-.13.32c0,.09-.07.21-.11.36l-.46,1.59a2.86,2.86,0,0,1-.42.88,4.26,4.26,0,0,1-.51.59l-.29.26A3.33,3.33,0,0,1,128,80a1.15,1.15,0,0,1-1.08-.25l-.61.52-.16-.17.61-.52a1,1,0,0,1-.08-1,4.85,4.85,0,0,1,1-1.35l.07-.06.66.26a1.54,1.54,0,0,0-.19.17l-.31.32a3.55,3.55,0,0,0-.35.44.87.87,0,0,0-.14.42.37.37,0,0,0,.12.27l0,0c.33.28.74.2,1.24-.24l.16-.13a2.58,2.58,0,0,0,.32-.38,2.49,2.49,0,0,0,.26-.59l.45-1.59a4.9,4.9,0,0,1,.52-1.2,4.31,4.31,0,0,1,.71-.87l.25-.22a3.5,3.5,0,0,1,1.39-.79,1.29,1.29,0,0,1,1.09.14l.63-.53Z"/><path class="cls-24" d="M115.12,87.79c0,2-4.64,3.61-10.37,3.61s-10.36-1.62-10.36-3.61V85.13a76.62,76.62,0,0,1,10.36-.95,71.92,71.92,0,0,1,10.37.95Z"/><path class="cls-24" d="M115.12,87.79c0,2-4.64,3.61-10.37,3.61s-10.36-1.62-10.36-3.61V85.13a76.62,76.62,0,0,1,10.36-.95,71.92,71.92,0,0,1,10.37.95Z"/><path class="cls-25" d="M115.12,85.56c0,2-4.64,3.91-10.37,3.91s-10.36-1.92-10.36-3.91c0-.39,3.1.15,3.1.15A9.58,9.58,0,0,1,104.75,82c4.85,0,6.62,2.81,6.62,2.81S115.12,85.25,115.12,85.56Z"/><path class="cls-26" d="M115.12,85.13c0,2-4.64,3.61-10.37,3.61s-10.36-1.62-10.36-3.61,4.64-3.6,10.36-3.6S115.12,83.14,115.12,85.13Z"/><path class="cls-27" d="M104.75,82.55c-4.75,0-8.61,1.13-8.61,2.53,0,.65.84,1.24,2.22,1.69-1-.4-1.58-.9-1.58-1.43,0-1.33,3.62-2.41,8.08-2.41s8.08,1.08,8.08,2.41c0,.36-.27.7-.74,1,.74-.37,1.16-.8,1.16-1.26C113.36,83.68,109.51,82.55,104.75,82.55Z"/><polygon class="cls-25" points="104.64 89.34 104.58 91.22 104.53 89.34 104.64 89.34"/><polygon class="cls-25" points="107.46 89.15 107.4 91.04 107.34 89.15 107.46 89.15"/><polygon class="cls-25" points="110.22 88.67 110.17 90.56 110.11 88.67 110.22 88.67"/><polygon class="cls-25" points="112.74 87.8 112.68 89.68 112.63 87.8 112.74 87.8"/><polygon class="cls-25" points="114.38 86.77 114.33 88.65 114.27 86.77 114.38 86.77"/><polygon class="cls-25" points="101.69 89.15 101.63 91.04 101.57 89.15 101.69 89.15"/><polygon class="cls-25" points="99.01 88.52 98.96 90.41 98.9 88.52 99.01 88.52"/><polygon class="cls-25" points="97.05 87.92 97 89.9 96.94 87.92 97.05 87.92"/><polygon class="cls-25" points="95.06 86.57 95 88.52 94.95 86.57 95.06 86.57"/><path class="cls-28" d="M97.47,85.31c0-1.08,2.85-2,6.36-2S97.47,86.38,97.47,85.31Z"/><path class="cls-28" d="M112.3,82.79s3.5,1.7.84,3.57a30.48,30.48,0,0,1-2.85,1.54s3.25-.8,4.14-1.88C115.91,84.25,112.3,82.79,112.3,82.79Z"/><path class="cls-29" d="M110.72,85.42l-.81,0a1.06,1.06,0,0,1-.76,1,4.75,4.75,0,0,1-1.76.27h-.22l-.31-.68h.26l.5,0a3.29,3.29,0,0,0,.64-.09,1,1,0,0,0,.47-.21.41.41,0,0,0,.17-.35.53.53,0,0,0-.29-.48,1.91,1.91,0,0,0-.85-.21h-.47l-.38,0a1.75,1.75,0,0,0-.35.11l-.32.14-.32.18-1.43.83a3.12,3.12,0,0,1-.92.35,4.4,4.4,0,0,1-.77.07l-.4,0a3.29,3.29,0,0,1-1.56-.42,1.16,1.16,0,0,1-.61-.93l-.8,0v-.23l.8,0a1,1,0,0,1,.66-.8,4.65,4.65,0,0,1,1.7-.24h.09l.3.64h-.7a3.15,3.15,0,0,0-.56.08.72.72,0,0,0-.39.2.37.37,0,0,0-.11.28v.06c0,.42.4.65,1.06.69h.21a2.31,2.31,0,0,0,.49,0,2.89,2.89,0,0,0,.6-.24l1.43-.84a4.69,4.69,0,0,1,1.2-.5,4.35,4.35,0,0,1,1.12-.14h.33a3.66,3.66,0,0,1,1.55.4,1.26,1.26,0,0,1,.68.86l.83,0Z"/><path class="cls-24" d="M118,84.23c0,2-4.64,3.61-10.37,3.61s-10.37-1.62-10.37-3.61V81.58a76.86,76.86,0,0,1,10.37-1,71.92,71.92,0,0,1,10.37,1Z"/><path class="cls-24" d="M118,84.23c0,2-4.64,3.61-10.37,3.61s-10.37-1.62-10.37-3.61V81.58a76.86,76.86,0,0,1,10.37-1,71.92,71.92,0,0,1,10.37,1Z"/><path class="cls-25" d="M118,82c0,2-4.64,3.91-10.37,3.91S97.25,84,97.25,82c0-.39,3.11.15,3.11.15a9.58,9.58,0,0,1,7.26-3.75c4.85,0,6.62,2.81,6.62,2.81S118,81.7,118,82Z"/><path class="cls-26" d="M118,81.58c0,2-4.64,3.6-10.37,3.6s-10.37-1.61-10.37-3.6S101.9,78,107.62,78,118,79.59,118,81.58Z"/><path class="cls-27" d="M107.62,79C102.86,79,99,80.13,99,81.52c0,.65.84,1.24,2.22,1.69-1-.4-1.58-.89-1.58-1.43,0-1.33,3.62-2.41,8.08-2.41s8.08,1.08,8.08,2.41c0,.36-.27.7-.74,1,.74-.37,1.16-.8,1.16-1.26C116.23,80.13,112.38,79,107.62,79Z"/><polygon class="cls-25" points="107.51 85.78 107.45 87.67 107.4 85.78 107.51 85.78"/><polygon class="cls-25" points="110.33 85.59 110.27 87.48 110.21 85.59 110.33 85.59"/><polygon class="cls-25" points="113.09 85.12 113.04 87 112.98 85.12 113.09 85.12"/><polygon class="cls-25" points="115.61 84.24 115.55 86.12 115.5 84.24 115.61 84.24"/><polygon class="cls-25" points="117.25 83.21 117.2 85.1 117.14 83.21 117.25 83.21"/><polygon class="cls-25" points="104.56 85.59 104.5 87.48 104.44 85.59 104.56 85.59"/><polygon class="cls-25" points="101.88 84.97 101.83 86.85 101.77 84.97 101.88 84.97"/><polygon class="cls-25" points="99.92 84.36 99.87 86.34 99.81 84.36 99.92 84.36"/><polygon class="cls-25" points="97.93 83.02 97.88 84.97 97.82 83.02 97.93 83.02"/><path class="cls-28" d="M100.34,81.75c0-1.08,2.85-2,6.36-2S100.34,82.83,100.34,81.75Z"/><path class="cls-28" d="M115.17,79.24s3.5,1.69.84,3.56a30.48,30.48,0,0,1-2.85,1.54s3.25-.8,4.14-1.87C118.78,80.69,115.17,79.24,115.17,79.24Z"/><path class="cls-29" d="M113.59,81.86l-.81,0a1.06,1.06,0,0,1-.76,1,4.75,4.75,0,0,1-1.76.27H110l-.31-.68H110l.5,0a3.4,3.4,0,0,0,.64-.09,1,1,0,0,0,.47-.21.41.41,0,0,0,.17-.35.53.53,0,0,0-.29-.48,1.93,1.93,0,0,0-.85-.2h-.47l-.38,0a1.82,1.82,0,0,0-.35.12l-.32.13-.32.18-1.44.83a3.06,3.06,0,0,1-.91.35,3.61,3.61,0,0,1-.77.07h-.4a3.17,3.17,0,0,1-1.56-.43,1.16,1.16,0,0,1-.61-.93l-.8,0v-.23l.8,0a1,1,0,0,1,.66-.8,4.65,4.65,0,0,1,1.7-.24h.09l.29.64h-.69a3.12,3.12,0,0,0-.56.09.71.71,0,0,0-.39.19.37.37,0,0,0-.11.28v.06c0,.42.4.65,1.06.69h.21a2.38,2.38,0,0,0,.49,0,2.89,2.89,0,0,0,.6-.24l1.43-.84a4.69,4.69,0,0,1,1.2-.5,4.36,4.36,0,0,1,1.12-.13h.33a3.53,3.53,0,0,1,1.55.39,1.28,1.28,0,0,1,.68.86l.83,0Z"/><path class="cls-24" d="M116.33,79.75c0,2-4.64,3.61-10.36,3.61S95.6,81.74,95.6,79.75V77.1A76.86,76.86,0,0,1,106,76.15a71.88,71.88,0,0,1,10.36.95Z"/><path class="cls-24" d="M116.33,79.75c0,2-4.64,3.61-10.36,3.61S95.6,81.74,95.6,79.75V77.1A76.86,76.86,0,0,1,106,76.15a71.88,71.88,0,0,1,10.36.95Z"/><path class="cls-25" d="M116.33,77.52c0,2-4.64,3.91-10.36,3.91S95.6,79.51,95.6,77.52c0-.39,3.11.15,3.11.15A9.58,9.58,0,0,1,106,73.92c4.84,0,6.62,2.81,6.62,2.81S116.33,77.22,116.33,77.52Z"/><path class="cls-26" d="M116.33,77.1c0,2-4.64,3.6-10.36,3.6S95.6,79.09,95.6,77.1s4.64-3.61,10.37-3.61S116.33,75.11,116.33,77.1Z"/><path class="cls-27" d="M106,74.51c-4.76,0-8.61,1.14-8.61,2.53,0,.65.84,1.24,2.22,1.69-1-.4-1.59-.89-1.59-1.43,0-1.33,3.62-2.41,8.08-2.41s8.08,1.08,8.08,2.41a1.29,1.29,0,0,1-.73,1c.73-.37,1.16-.8,1.16-1.26C114.58,75.65,110.72,74.51,106,74.51Z"/><polygon class="cls-25" points="105.86 81.3 105.8 83.19 105.74 81.3 105.86 81.3"/><polygon class="cls-25" points="108.67 81.11 108.62 83 108.56 81.11 108.67 81.11"/><polygon class="cls-25" points="111.44 80.64 111.38 82.52 111.33 80.64 111.44 80.64"/><polygon class="cls-25" points="113.95 79.76 113.9 81.64 113.84 79.76 113.95 79.76"/><polygon class="cls-25" points="115.6 78.73 115.54 80.61 115.49 78.73 115.6 78.73"/><polygon class="cls-25" points="102.9 81.11 102.85 83 102.79 81.11 102.9 81.11"/><polygon class="cls-25" points="100.23 80.48 100.17 82.37 100.12 80.48 100.23 80.48"/><polygon class="cls-25" points="98.27 79.88 98.21 81.86 98.16 79.88 98.27 79.88"/><polygon class="cls-25" points="96.28 78.53 96.22 80.48 96.16 78.53 96.28 78.53"/><path class="cls-28" d="M98.69,77.27c0-1.08,2.84-2,6.35-2S98.69,78.34,98.69,77.27Z"/><path class="cls-28" d="M113.51,74.76s3.51,1.69.85,3.56a30.28,30.28,0,0,1-2.86,1.54s3.25-.8,4.15-1.87C117.13,76.21,113.51,74.76,113.51,74.76Z"/><path class="cls-29" d="M111.93,77.38l-.8,0a1.06,1.06,0,0,1-.76,1,4.75,4.75,0,0,1-1.76.27h-.23l-.3-.68h.26l.5,0a3.19,3.19,0,0,0,.63-.09,1,1,0,0,0,.48-.21.44.44,0,0,0,.17-.35.55.55,0,0,0-.29-.48,2,2,0,0,0-.85-.2h-.47l-.39,0-.35.11-.31.14-.33.18-1.43.83a3.06,3.06,0,0,1-.91.35,4.52,4.52,0,0,1-.78.07h-.39a3.18,3.18,0,0,1-1.57-.43,1.18,1.18,0,0,1-.61-.93l-.79-.05v-.23l.8,0a1,1,0,0,1,.66-.8,4.59,4.59,0,0,1,1.69-.24h.09l.3.64h-.7a3.28,3.28,0,0,0-.56.08.89.89,0,0,0-.39.2.41.41,0,0,0-.11.28s0,0,0,.06c0,.42.39.65,1.06.69h.2a2.49,2.49,0,0,0,.5,0,2.89,2.89,0,0,0,.6-.24l1.42-.84a4.75,4.75,0,0,1,1.21-.5,4.27,4.27,0,0,1,1.11-.14h.34a3.61,3.61,0,0,1,1.54.4,1.33,1.33,0,0,1,.69.86l.82.05Z"/><path class="cls-24" d="M119.2,76.19c0,2-4.64,3.61-10.36,3.61s-10.37-1.62-10.37-3.61V73.54a76.86,76.86,0,0,1,10.37-1,71.88,71.88,0,0,1,10.36,1Z"/><path class="cls-24" d="M119.2,76.19c0,2-4.64,3.61-10.36,3.61s-10.37-1.62-10.37-3.61V73.54a76.86,76.86,0,0,1,10.37-1,71.88,71.88,0,0,1,10.36,1Z"/><path class="cls-25" d="M119.2,74c0,2-4.64,3.91-10.36,3.91S98.47,76,98.47,74c0-.39,3.11.15,3.11.15a9.58,9.58,0,0,1,7.26-3.75c4.84,0,6.62,2.81,6.62,2.81S119.2,73.66,119.2,74Z"/><path class="cls-26" d="M119.2,73.54c0,2-4.64,3.6-10.36,3.6s-10.37-1.61-10.37-3.6,4.64-3.61,10.37-3.61S119.2,71.55,119.2,73.54Z"/><path class="cls-27" d="M108.84,71c-4.76,0-8.61,1.13-8.61,2.52,0,.65.84,1.24,2.22,1.69-1-.4-1.59-.89-1.59-1.43,0-1.33,3.62-2.41,8.08-2.41S117,72.41,117,73.74a1.32,1.32,0,0,1-.73,1c.73-.38,1.16-.81,1.16-1.27C117.45,72.09,113.59,71,108.84,71Z"/><polygon class="cls-25" points="108.73 77.74 108.67 79.63 108.61 77.74 108.73 77.74"/><polygon class="cls-25" points="111.54 77.55 111.49 79.44 111.43 77.55 111.54 77.55"/><polygon class="cls-25" points="114.31 77.08 114.25 78.97 114.2 77.08 114.31 77.08"/><polygon class="cls-25" points="116.82 76.2 116.77 78.08 116.71 76.2 116.82 76.2"/><polygon class="cls-25" points="118.47 75.17 118.41 77.06 118.36 75.17 118.47 75.17"/><polygon class="cls-25" points="105.77 77.55 105.72 79.44 105.66 77.55 105.77 77.55"/><polygon class="cls-25" points="103.1 76.93 103.04 78.81 102.99 76.93 103.1 76.93"/><polygon class="cls-25" points="101.14 76.32 101.08 78.31 101.03 76.32 101.14 76.32"/><polygon class="cls-25" points="99.15 74.98 99.09 76.93 99.03 74.98 99.15 74.98"/><path class="cls-28" d="M101.55,73.71c0-1.08,2.85-1.95,6.36-1.95S101.55,74.79,101.55,73.71Z"/><path class="cls-28" d="M116.38,71.2s3.51,1.69.85,3.56a30.28,30.28,0,0,1-2.86,1.54s3.25-.8,4.15-1.87C120,72.65,116.38,71.2,116.38,71.2Z"/><path class="cls-29" d="M114.8,73.82l-.8,0a1.06,1.06,0,0,1-.76,1,4.75,4.75,0,0,1-1.76.27h-.23l-.3-.68h.26l.5,0a3.19,3.19,0,0,0,.63-.09,1.07,1.07,0,0,0,.48-.2.48.48,0,0,0,.17-.36.55.55,0,0,0-.29-.48,2,2,0,0,0-.85-.2h-.47L111,73a2.44,2.44,0,0,0-.35.12,2.33,2.33,0,0,0-.31.14l-.33.17-1.43.84a3.28,3.28,0,0,1-.92.34,3.55,3.55,0,0,1-.77.07h-.39a3.3,3.3,0,0,1-1.57-.42,1.21,1.21,0,0,1-.61-.94l-.79,0v-.23l.8,0a1,1,0,0,1,.66-.8,4.59,4.59,0,0,1,1.69-.24h.09l.3.64h-.7a3.27,3.27,0,0,0-.56.09.79.79,0,0,0-.39.19.41.41,0,0,0-.11.28.13.13,0,0,0,0,.06c0,.42.39.65,1.06.69h.2a2.31,2.31,0,0,0,.49-.05,2,2,0,0,0,.61-.24l1.42-.84a5.14,5.14,0,0,1,1.21-.5,4.28,4.28,0,0,1,1.11-.13h.34a3.48,3.48,0,0,1,1.54.4,1.29,1.29,0,0,1,.69.85l.82,0Z"/><path class="cls-24" d="M117.48,72.35c0,2-4.64,3.6-10.36,3.6s-10.37-1.61-10.37-3.6V69.69a76.86,76.86,0,0,1,10.37-1,71.88,71.88,0,0,1,10.36,1Z"/><path class="cls-24" d="M117.48,72.35c0,2-4.64,3.6-10.36,3.6s-10.37-1.61-10.37-3.6V69.69a76.86,76.86,0,0,1,10.37-1,71.88,71.88,0,0,1,10.36,1Z"/><path class="cls-25" d="M117.48,70.12c0,2-4.64,3.9-10.36,3.9s-10.37-1.91-10.37-3.9c0-.39,3.11.15,3.11.15a9.57,9.57,0,0,1,7.26-3.76c4.84,0,6.62,2.82,6.62,2.82S117.48,69.81,117.48,70.12Z"/><path class="cls-26" d="M117.48,69.69c0,2-4.64,3.61-10.36,3.61s-10.37-1.62-10.37-3.61,4.64-3.6,10.37-3.6S117.48,67.7,117.48,69.69Z"/><path class="cls-27" d="M107.12,67.11c-4.76,0-8.61,1.13-8.61,2.52,0,.65.84,1.25,2.22,1.7-1-.41-1.59-.9-1.59-1.44,0-1.33,3.62-2.41,8.08-2.41s8.08,1.08,8.08,2.41a1.32,1.32,0,0,1-.73,1c.73-.37,1.16-.8,1.16-1.27C115.73,68.24,111.87,67.11,107.12,67.11Z"/><polygon class="cls-25" points="107.01 73.9 106.95 75.78 106.89 73.9 107.01 73.9"/><polygon class="cls-25" points="109.82 73.71 109.77 75.59 109.71 73.71 109.82 73.71"/><polygon class="cls-25" points="112.59 73.23 112.53 75.12 112.48 73.23 112.59 73.23"/><polygon class="cls-25" points="115.1 72.35 115.05 74.24 114.99 72.35 115.1 72.35"/><polygon class="cls-25" points="116.75 71.33 116.69 73.21 116.64 71.33 116.75 71.33"/><polygon class="cls-25" points="104.05 73.71 104 75.59 103.94 73.71 104.05 73.71"/><polygon class="cls-25" points="101.38 73.08 101.32 74.97 101.27 73.08 101.38 73.08"/><polygon class="cls-25" points="99.42 72.47 99.36 74.46 99.31 72.47 99.42 72.47"/><polygon class="cls-25" points="97.43 71.13 97.37 73.08 97.31 71.13 97.43 71.13"/><path class="cls-28" d="M99.83,69.86c0-1.07,2.85-2,6.36-2S99.83,70.94,99.83,69.86Z"/><path class="cls-28" d="M114.66,67.35s3.51,1.69.85,3.57c-.75.52-2.86,1.54-2.86,1.54s3.25-.8,4.15-1.88C118.28,68.81,114.66,67.35,114.66,67.35Z"/><path class="cls-29" d="M113.08,70l-.8,0a1.06,1.06,0,0,1-.76,1,4.75,4.75,0,0,1-1.76.27h-.23l-.3-.67h.26l.5,0a4.17,4.17,0,0,0,.63-.08,1.19,1.19,0,0,0,.48-.21.46.46,0,0,0,.17-.36.53.53,0,0,0-.29-.47,1.82,1.82,0,0,0-.85-.21h-.47a3.24,3.24,0,0,0-.39.06,2.28,2.28,0,0,0-.35.11l-.31.14-.33.18-1.43.83a3,3,0,0,1-.91.34,3.71,3.71,0,0,1-.78.07h-.39a3.3,3.3,0,0,1-1.57-.42,1.18,1.18,0,0,1-.61-.93l-.79,0v-.23l.8,0a1,1,0,0,1,.66-.79,4.59,4.59,0,0,1,1.69-.24H105l.3.64h-.26l-.44,0a3.28,3.28,0,0,0-.56.08.8.8,0,0,0-.39.2.39.39,0,0,0-.11.28s0,0,0,.06c0,.42.39.65,1.06.68h.2a2.41,2.41,0,0,0,.5,0,2.09,2.09,0,0,0,.6-.24l1.42-.84a5.61,5.61,0,0,1,1.21-.5,4.28,4.28,0,0,1,1.11-.13H110a3.48,3.48,0,0,1,1.54.4,1.31,1.31,0,0,1,.69.85l.82.06Z"/><path class="cls-24" d="M120.35,68.79c0,2-4.64,3.6-10.36,3.6s-10.37-1.61-10.37-3.6V66.13A76.86,76.86,0,0,1,110,65.18a71.88,71.88,0,0,1,10.36.95Z"/><path class="cls-24" d="M120.35,68.79c0,2-4.64,3.6-10.36,3.6s-10.37-1.61-10.37-3.6V66.13A76.86,76.86,0,0,1,110,65.18a71.88,71.88,0,0,1,10.36.95Z"/><path class="cls-25" d="M120.35,66.56c0,2-4.64,3.9-10.36,3.9s-10.37-1.91-10.37-3.9c0-.39,3.11.15,3.11.15A9.57,9.57,0,0,1,110,63c4.84,0,6.62,2.82,6.62,2.82S120.35,66.25,120.35,66.56Z"/><path class="cls-26" d="M120.35,66.13c0,2-4.64,3.61-10.36,3.61s-10.37-1.62-10.37-3.61,4.64-3.6,10.37-3.6S120.35,64.14,120.35,66.13Z"/><path class="cls-27" d="M110,63.55c-4.76,0-8.61,1.13-8.61,2.53,0,.65.84,1.24,2.22,1.69-1-.4-1.59-.9-1.59-1.43,0-1.34,3.62-2.41,8.08-2.41s8.08,1.07,8.08,2.41a1.3,1.3,0,0,1-.73,1c.73-.37,1.16-.8,1.16-1.26C118.6,64.68,114.74,63.55,110,63.55Z"/><polygon class="cls-25" points="109.88 70.34 109.82 72.22 109.76 70.34 109.88 70.34"/><polygon class="cls-25" points="112.69 70.15 112.64 72.03 112.58 70.15 112.69 70.15"/><polygon class="cls-25" points="115.46 69.67 115.4 71.56 115.35 69.67 115.46 69.67"/><polygon class="cls-25" points="117.97 68.79 117.92 70.68 117.86 68.79 117.97 68.79"/><polygon class="cls-25" points="119.62 67.77 119.56 69.65 119.51 67.77 119.62 67.77"/><polygon class="cls-25" points="106.92 70.15 106.86 72.03 106.81 70.15 106.92 70.15"/><polygon class="cls-25" points="104.25 69.52 104.19 71.41 104.14 69.52 104.25 69.52"/><polygon class="cls-25" points="102.29 68.92 102.23 70.9 102.18 68.92 102.29 68.92"/><polygon class="cls-25" points="100.3 67.57 100.24 69.52 100.18 67.57 100.3 67.57"/><path class="cls-28" d="M102.7,66.31c0-1.08,2.85-2,6.36-2S102.7,67.38,102.7,66.31Z"/><path class="cls-28" d="M117.53,63.79s3.51,1.69.85,3.57c-.75.52-2.86,1.54-2.86,1.54s3.25-.8,4.15-1.88C121.15,65.25,117.53,63.79,117.53,63.79Z"/><path class="cls-29" d="M116,66.42l-.8,0a1,1,0,0,1-.76.95,4.53,4.53,0,0,1-1.76.28h-.23l-.3-.67h.76a6,6,0,0,0,.63-.09,1.19,1.19,0,0,0,.48-.21.44.44,0,0,0,.17-.35.54.54,0,0,0-.29-.48,1.82,1.82,0,0,0-.85-.21h-.47l-.39.06a2,2,0,0,0-.35.11l-.31.14-.33.18-1.43.83a3.43,3.43,0,0,1-.92.35,4.38,4.38,0,0,1-.77.06h-.39a3.3,3.3,0,0,1-1.57-.42,1.18,1.18,0,0,1-.61-.93l-.79,0v-.23l.8,0a1,1,0,0,1,.66-.8,4.59,4.59,0,0,1,1.69-.24h.09l.3.64h-.7a3.28,3.28,0,0,0-.56.08.76.76,0,0,0-.39.2.39.39,0,0,0-.11.28s0,0,0,.06c0,.42.39.65,1.06.69h.2a1.93,1.93,0,0,0,.5,0,2.09,2.09,0,0,0,.6-.24l1.42-.83a4.75,4.75,0,0,1,1.21-.5,4.27,4.27,0,0,1,1.11-.14h.34a3.48,3.48,0,0,1,1.54.4,1.31,1.31,0,0,1,.69.85l.82.06Z"/><path class="cls-24" d="M118.7,64.31c0,2-4.64,3.6-10.37,3.6S98,66.3,98,64.31V61.65a76.62,76.62,0,0,1,10.36-.95,71.92,71.92,0,0,1,10.37.95Z"/><path class="cls-24" d="M118.7,64.31c0,2-4.64,3.6-10.37,3.6S98,66.3,98,64.31V61.65a76.62,76.62,0,0,1,10.36-.95,71.92,71.92,0,0,1,10.37.95Z"/><path class="cls-25" d="M118.7,62.08c0,2-4.64,3.9-10.37,3.9S98,64.07,98,62.08c0-.39,3.1.15,3.1.15a9.57,9.57,0,0,1,7.26-3.76c4.85,0,6.62,2.82,6.62,2.82S118.7,61.77,118.7,62.08Z"/><path class="cls-26" d="M118.7,61.65c0,2-4.64,3.61-10.37,3.61S98,63.64,98,61.65s4.64-3.6,10.36-3.6S118.7,59.66,118.7,61.65Z"/><path class="cls-27" d="M108.33,59.07c-4.75,0-8.61,1.13-8.61,2.52,0,.66.84,1.25,2.22,1.7-1-.4-1.58-.9-1.58-1.43,0-1.34,3.62-2.41,8.08-2.41s8.08,1.07,8.08,2.41c0,.35-.27.69-.74,1,.74-.37,1.16-.8,1.16-1.27C116.94,60.2,113.09,59.07,108.33,59.07Z"/><polygon class="cls-25" points="108.22 65.86 108.17 67.74 108.11 65.86 108.22 65.86"/><polygon class="cls-25" points="111.04 65.67 110.98 67.55 110.93 65.67 111.04 65.67"/><polygon class="cls-25" points="113.81 65.19 113.75 67.08 113.69 65.19 113.81 65.19"/><polygon class="cls-25" points="116.32 64.31 116.26 66.2 116.21 64.31 116.32 64.31"/><polygon class="cls-25" points="117.96 63.28 117.91 65.17 117.85 63.28 117.96 63.28"/><polygon class="cls-25" points="105.27 65.67 105.21 67.55 105.16 65.67 105.27 65.67"/><polygon class="cls-25" points="102.59 65.04 102.54 66.93 102.48 65.04 102.59 65.04"/><polygon class="cls-25" points="100.63 64.44 100.58 66.42 100.52 64.44 100.63 64.44"/><polygon class="cls-25" points="98.64 63.09 98.59 65.04 98.53 63.09 98.64 63.09"/><path class="cls-28" d="M101.05,61.82c0-1.07,2.85-2,6.36-2S101.05,62.9,101.05,61.82Z"/><path class="cls-28" d="M115.88,59.31s3.5,1.69.84,3.57c-.75.52-2.85,1.54-2.85,1.54s3.25-.8,4.15-1.88C119.49,60.77,115.88,59.31,115.88,59.31Z"/><path class="cls-29" d="M114.3,61.94l-.81,0a1,1,0,0,1-.75,1,4.59,4.59,0,0,1-1.77.28h-.22l-.31-.67h.76a6.17,6.17,0,0,0,.64-.09,1.21,1.21,0,0,0,.47-.21.42.42,0,0,0,.17-.36.51.51,0,0,0-.29-.47,1.77,1.77,0,0,0-.84-.21h-.47l-.39.06a1.75,1.75,0,0,0-.35.11l-.31.14-.33.18-1.43.83a3.1,3.1,0,0,1-.92.34,3.55,3.55,0,0,1-.77.07H106a3.29,3.29,0,0,1-1.56-.42,1.18,1.18,0,0,1-.61-.93l-.8-.05v-.23l.8,0a1,1,0,0,1,.66-.8,4.65,4.65,0,0,1,1.7-.24h.09l.3.64h-.7a3.15,3.15,0,0,0-.56.08.72.72,0,0,0-.39.2.36.36,0,0,0-.11.28v.06c0,.42.4.65,1.06.69h.21a1.8,1.8,0,0,0,.49,0,2.09,2.09,0,0,0,.6-.24l1.43-.83a4.69,4.69,0,0,1,1.2-.5,4.35,4.35,0,0,1,1.12-.14h.33a3.52,3.52,0,0,1,1.55.4,1.26,1.26,0,0,1,.68.85l.83.06Z"/><path class="cls-24" d="M121.57,60.75c0,2-4.64,3.6-10.37,3.6s-10.37-1.61-10.37-3.6V58.09a76.86,76.86,0,0,1,10.37-1,71.92,71.92,0,0,1,10.37,1Z"/><path class="cls-24" d="M121.57,60.75c0,2-4.64,3.6-10.37,3.6s-10.37-1.61-10.37-3.6V58.09a76.86,76.86,0,0,1,10.37-1,71.92,71.92,0,0,1,10.37,1Z"/><path class="cls-25" d="M121.57,58.52c0,2-4.64,3.91-10.37,3.91s-10.37-1.92-10.37-3.91c0-.39,3.11.15,3.11.15a9.57,9.57,0,0,1,7.26-3.76c4.85,0,6.62,2.82,6.62,2.82S121.57,58.21,121.57,58.52Z"/><path class="cls-26" d="M121.57,58.09c0,2-4.64,3.61-10.37,3.61s-10.37-1.62-10.37-3.61,4.65-3.6,10.37-3.6S121.57,56.1,121.57,58.09Z"/><path class="cls-27" d="M111.2,55.51c-4.75,0-8.61,1.13-8.61,2.53,0,.65.84,1.24,2.22,1.69-1-.4-1.58-.9-1.58-1.43,0-1.33,3.62-2.41,8.08-2.41s8.08,1.08,8.08,2.41c0,.36-.27.7-.74,1,.74-.37,1.16-.8,1.16-1.26C119.81,56.64,116,55.51,111.2,55.51Z"/><polygon class="cls-25" points="111.09 62.3 111.03 64.18 110.98 62.3 111.09 62.3"/><polygon class="cls-25" points="113.91 62.11 113.85 64 113.8 62.11 113.91 62.11"/><polygon class="cls-25" points="116.67 61.63 116.62 63.52 116.56 61.63 116.67 61.63"/><polygon class="cls-25" points="119.19 60.76 119.13 62.64 119.08 60.76 119.19 60.76"/><polygon class="cls-25" points="120.83 59.73 120.78 61.61 120.72 59.73 120.83 59.73"/><polygon class="cls-25" points="108.14 62.11 108.08 64 108.03 62.11 108.14 62.11"/><polygon class="cls-25" points="105.46 61.48 105.41 63.37 105.35 61.48 105.46 61.48"/><polygon class="cls-25" points="103.5 60.88 103.45 62.86 103.39 60.88 103.5 60.88"/><polygon class="cls-25" points="101.51 59.53 101.45 61.48 101.4 59.53 101.51 59.53"/><path class="cls-28" d="M103.92,58.27c0-1.08,2.85-2,6.36-2S103.92,59.34,103.92,58.27Z"/><path class="cls-28" d="M118.75,55.75s3.5,1.7.84,3.57a30.48,30.48,0,0,1-2.85,1.54s3.25-.8,4.15-1.88C122.36,57.21,118.75,55.75,118.75,55.75Z"/><path class="cls-29" d="M117.17,58.38l-.81-.05a1,1,0,0,1-.76,1,4.53,4.53,0,0,1-1.76.28h-.22l-.31-.67h.76a4.29,4.29,0,0,0,.64-.09,1,1,0,0,0,.47-.21.41.41,0,0,0,.17-.35.53.53,0,0,0-.29-.48,1.79,1.79,0,0,0-.85-.21h-.46l-.39.05a1.75,1.75,0,0,0-.35.11l-.32.14-.32.18-1.43.83a3.43,3.43,0,0,1-.92.35,4.46,4.46,0,0,1-.77.06h-.4a3.29,3.29,0,0,1-1.56-.42,1.18,1.18,0,0,1-.61-.93l-.8,0v-.23l.8.05a1,1,0,0,1,.66-.8,4.65,4.65,0,0,1,1.7-.24h.09l.3.64h-.7a3.15,3.15,0,0,0-.56.08.72.72,0,0,0-.39.2.37.37,0,0,0-.11.28v.06c0,.42.4.65,1.06.69h.21a2.31,2.31,0,0,0,.49-.05,2.89,2.89,0,0,0,.6-.24l1.43-.84a4.69,4.69,0,0,1,1.2-.5,4.35,4.35,0,0,1,1.12-.14h.33a3.52,3.52,0,0,1,1.55.4,1.26,1.26,0,0,1,.68.86l.83,0Z"/><path class="cls-24" d="M128.38,92.4c0,2-4.64,3.61-10.36,3.61s-10.37-1.62-10.37-3.61V89.75a76.65,76.65,0,0,1,10.37-1,71.88,71.88,0,0,1,10.36,1Z"/><path class="cls-24" d="M128.38,92.4c0,2-4.64,3.61-10.36,3.61s-10.37-1.62-10.37-3.61V89.75a76.65,76.65,0,0,1,10.37-1,71.88,71.88,0,0,1,10.36,1Z"/><path class="cls-25" d="M128.38,90.17c0,2-4.64,3.91-10.36,3.91s-10.37-1.92-10.37-3.91c0-.39,3.11.15,3.11.15A9.55,9.55,0,0,1,118,86.57c4.84,0,6.62,2.81,6.62,2.81S128.38,89.87,128.38,90.17Z"/><path class="cls-26" d="M128.38,89.75c0,2-4.64,3.6-10.36,3.6s-10.37-1.61-10.37-3.6,4.64-3.61,10.37-3.61S128.38,87.76,128.38,89.75Z"/><path class="cls-27" d="M118,87.16c-4.76,0-8.62,1.13-8.62,2.53,0,.65.85,1.24,2.22,1.69-1-.4-1.58-.89-1.58-1.43,0-1.33,3.62-2.41,8.08-2.41s8.08,1.08,8.08,2.41a1.29,1.29,0,0,1-.73,1c.73-.37,1.16-.8,1.16-1.26C126.63,88.29,122.77,87.16,118,87.16Z"/><polygon class="cls-25" points="117.91 93.95 117.85 95.84 117.79 93.95 117.91 93.95"/><polygon class="cls-25" points="120.72 93.76 120.67 95.65 120.61 93.76 120.72 93.76"/><polygon class="cls-25" points="123.49 93.29 123.43 95.17 123.38 93.29 123.49 93.29"/><polygon class="cls-25" points="126 92.41 125.95 94.29 125.89 92.41 126 92.41"/><polygon class="cls-25" points="127.65 91.38 127.59 93.27 127.53 91.38 127.65 91.38"/><polygon class="cls-25" points="114.95 93.76 114.89 95.65 114.84 93.76 114.95 93.76"/><polygon class="cls-25" points="112.28 93.14 112.22 95.02 112.17 93.14 112.28 93.14"/><polygon class="cls-25" points="110.32 92.53 110.26 94.52 110.2 92.53 110.32 92.53"/><polygon class="cls-25" points="108.32 91.18 108.27 93.14 108.21 91.18 108.32 91.18"/><path class="cls-28" d="M110.73,89.92c0-1.08,2.85-2,6.36-2S110.73,91,110.73,89.92Z"/><path class="cls-28" d="M125.56,87.41s3.5,1.69.84,3.56a29.24,29.24,0,0,1-2.85,1.54s3.25-.8,4.15-1.87C129.18,88.86,125.56,87.41,125.56,87.41Z"/><path class="cls-29" d="M124,90l-.81,0a1,1,0,0,1-.75,1,4.75,4.75,0,0,1-1.76.27h-.23l-.31-.68h.27l.5,0a3.19,3.19,0,0,0,.63-.09,1,1,0,0,0,.48-.21.44.44,0,0,0,.17-.35.55.55,0,0,0-.29-.48,2,2,0,0,0-.85-.2h-.47l-.39,0-.35.11-.31.14-.33.18-1.43.83a3.12,3.12,0,0,1-.92.35,3.55,3.55,0,0,1-.77.07h-.39a3.18,3.18,0,0,1-1.57-.43,1.18,1.18,0,0,1-.61-.93l-.79,0v-.23l.8,0a1,1,0,0,1,.66-.8,4.55,4.55,0,0,1,1.69-.24h.09l.3.64h-.7A3.27,3.27,0,0,0,115,89a.71.71,0,0,0-.39.19.41.41,0,0,0-.11.28.13.13,0,0,0,0,.06c0,.42.39.65,1.06.69h.2a2.31,2.31,0,0,0,.49,0,2.15,2.15,0,0,0,.6-.24l1.43-.84a4.75,4.75,0,0,1,1.21-.5,4.23,4.23,0,0,1,1.11-.13h.34a3.48,3.48,0,0,1,1.54.4,1.29,1.29,0,0,1,.69.85l.82,0Z"/><path class="cls-24" d="M131.25,88.84c0,2-4.64,3.61-10.36,3.61s-10.37-1.61-10.37-3.61V86.19a76.65,76.65,0,0,1,10.37-1,71.88,71.88,0,0,1,10.36,1Z"/><path class="cls-24" d="M131.25,88.84c0,2-4.64,3.61-10.36,3.61s-10.37-1.61-10.37-3.61V86.19a76.65,76.65,0,0,1,10.37-1,71.88,71.88,0,0,1,10.36,1Z"/><path class="cls-25" d="M131.25,86.62c0,2-4.64,3.9-10.36,3.9s-10.37-1.91-10.37-3.9c0-.4,3.1.14,3.1.14A9.59,9.59,0,0,1,120.89,83c4.84,0,6.62,2.81,6.62,2.81S131.25,86.31,131.25,86.62Z"/><path class="cls-26" d="M131.25,86.19c0,2-4.64,3.6-10.36,3.6s-10.37-1.61-10.37-3.6,4.64-3.61,10.37-3.61S131.25,84.2,131.25,86.19Z"/><path class="cls-27" d="M120.89,83.61c-4.76,0-8.62,1.13-8.62,2.52,0,.65.84,1.24,2.22,1.69-1-.4-1.58-.89-1.58-1.43,0-1.33,3.62-2.41,8.08-2.41s8.08,1.08,8.08,2.41c0,.36-.26.7-.74,1,.74-.38,1.17-.81,1.17-1.27C129.5,84.74,125.64,83.61,120.89,83.61Z"/><polygon class="cls-25" points="120.77 90.39 120.72 92.28 120.66 90.39 120.77 90.39"/><polygon class="cls-25" points="123.59 90.2 123.53 92.09 123.48 90.2 123.59 90.2"/><polygon class="cls-25" points="126.36 89.73 126.3 91.61 126.25 89.73 126.36 89.73"/><polygon class="cls-25" points="128.87 88.85 128.82 90.74 128.76 88.85 128.87 88.85"/><polygon class="cls-25" points="130.52 87.82 130.46 89.71 130.4 87.82 130.52 87.82"/><polygon class="cls-25" points="117.82 90.2 117.76 92.09 117.71 90.2 117.82 90.2"/><polygon class="cls-25" points="115.15 89.58 115.09 91.46 115.03 89.58 115.15 89.58"/><polygon class="cls-25" points="113.19 88.97 113.13 90.96 113.08 88.97 113.19 88.97"/><polygon class="cls-25" points="111.19 87.63 111.14 89.58 111.08 87.63 111.19 87.63"/><path class="cls-28" d="M113.6,86.36c0-1.08,2.85-2,6.36-2S113.6,87.44,113.6,86.36Z"/><path class="cls-28" d="M128.43,83.85s3.51,1.69.84,3.56A30,30,0,0,1,126.42,89s3.25-.81,4.15-1.88C132.05,85.3,128.43,83.85,128.43,83.85Z"/><path class="cls-29" d="M126.85,86.47l-.81,0a1,1,0,0,1-.75,1,4.81,4.81,0,0,1-1.77.27h-.22L123,87h.27l.49,0a4.14,4.14,0,0,0,.64-.08,1.26,1.26,0,0,0,.48-.21.48.48,0,0,0,.17-.36.55.55,0,0,0-.29-.48,2,2,0,0,0-.85-.2h-.47a2,2,0,0,0-.39.06,2,2,0,0,0-.35.11,1.86,1.86,0,0,0-.31.14l-.33.17-1.43.83a3.12,3.12,0,0,1-.92.35,3.55,3.55,0,0,1-.77.07h-.39a3.3,3.3,0,0,1-1.57-.42,1.2,1.2,0,0,1-.61-.94l-.79,0v-.23l.8,0A1,1,0,0,1,117,85a4.55,4.55,0,0,1,1.69-.24h.09l.3.64h-.7a4.37,4.37,0,0,0-.56.09.71.71,0,0,0-.39.19.41.41,0,0,0-.11.28.2.2,0,0,0,0,.07c0,.41.39.64,1.06.68h.2a2.31,2.31,0,0,0,.49,0,2.09,2.09,0,0,0,.6-.24l1.43-.84a5.14,5.14,0,0,1,1.21-.5,4.23,4.23,0,0,1,1.11-.13h.33a3.48,3.48,0,0,1,1.55.4,1.29,1.29,0,0,1,.69.85l.82,0Z"/><path class="cls-24" d="M129.6,84.36c0,2-4.64,3.61-10.37,3.61s-10.37-1.61-10.37-3.61V81.71a76.86,76.86,0,0,1,10.37-.95,71.92,71.92,0,0,1,10.37.95Z"/><path class="cls-24" d="M129.6,84.36c0,2-4.64,3.61-10.37,3.61s-10.37-1.61-10.37-3.61V81.71a76.86,76.86,0,0,1,10.37-.95,71.92,71.92,0,0,1,10.37.95Z"/><path class="cls-25" d="M129.6,82.13c0,2-4.64,3.91-10.37,3.91s-10.37-1.92-10.37-3.91c0-.39,3.11.15,3.11.15a9.58,9.58,0,0,1,7.26-3.75c4.85,0,6.62,2.81,6.62,2.81S129.6,81.83,129.6,82.13Z"/><path class="cls-26" d="M129.6,81.71c0,2-4.64,3.6-10.37,3.6s-10.37-1.61-10.37-3.6,4.65-3.61,10.37-3.61S129.6,79.72,129.6,81.71Z"/><path class="cls-27" d="M119.23,79.13c-4.76,0-8.61,1.13-8.61,2.52,0,.65.84,1.24,2.22,1.69-1-.4-1.58-.89-1.58-1.43,0-1.33,3.61-2.41,8.08-2.41s8.08,1.08,8.08,2.41c0,.36-.27.7-.74,1,.74-.38,1.16-.81,1.16-1.27C127.84,80.26,124,79.13,119.23,79.13Z"/><polygon class="cls-25" points="119.12 85.91 119.06 87.8 119.01 85.91 119.12 85.91"/><polygon class="cls-25" points="121.94 85.72 121.88 87.61 121.82 85.72 121.94 85.72"/><polygon class="cls-25" points="124.7 85.25 124.65 87.14 124.59 85.25 124.7 85.25"/><polygon class="cls-25" points="127.22 84.37 127.16 86.25 127.11 84.37 127.22 84.37"/><polygon class="cls-25" points="128.86 83.34 128.81 85.23 128.75 83.34 128.86 83.34"/><polygon class="cls-25" points="116.17 85.72 116.11 87.61 116.05 85.72 116.17 85.72"/><polygon class="cls-25" points="113.49 85.1 113.44 86.98 113.38 85.1 113.49 85.1"/><polygon class="cls-25" points="111.53 84.49 111.48 86.48 111.42 84.49 111.53 84.49"/><polygon class="cls-25" points="109.54 83.15 109.48 85.1 109.43 83.15 109.54 83.15"/><path class="cls-28" d="M112,81.88c0-1.08,2.85-1.95,6.36-1.95S112,83,112,81.88Z"/><path class="cls-28" d="M126.77,79.37s3.51,1.69.85,3.56a30.48,30.48,0,0,1-2.85,1.54s3.25-.8,4.14-1.87C130.39,80.82,126.77,79.37,126.77,79.37Z"/><path class="cls-29" d="M125.2,82l-.81,0a1.06,1.06,0,0,1-.76,1,4.75,4.75,0,0,1-1.76.27h-.22l-.31-.68h.26l.5,0a3.4,3.4,0,0,0,.64-.09,1.08,1.08,0,0,0,.47-.2.44.44,0,0,0,.17-.36.53.53,0,0,0-.29-.48,1.93,1.93,0,0,0-.85-.2h-.47l-.38,0a1.82,1.82,0,0,0-.35.12l-.32.14-.33.17-1.43.84a3.34,3.34,0,0,1-.91.34,3.61,3.61,0,0,1-.77.07h-.4a3.29,3.29,0,0,1-1.56-.42,1.19,1.19,0,0,1-.61-.94l-.8,0v-.23l.8,0a1,1,0,0,1,.66-.8,4.62,4.62,0,0,1,1.69-.24h.1l.29.64h-.69a3.39,3.39,0,0,0-.57.09.72.72,0,0,0-.38.19.37.37,0,0,0-.11.28v.06c0,.42.4.65,1.06.69H117a2.38,2.38,0,0,0,.49,0,2.09,2.09,0,0,0,.6-.24l1.42-.84a5.33,5.33,0,0,1,1.21-.5,4.36,4.36,0,0,1,1.12-.13h.33a3.44,3.44,0,0,1,1.54.4,1.23,1.23,0,0,1,.69.85l.83.05Z"/><path class="cls-24" d="M132.47,80.81c0,2-4.64,3.6-10.37,3.6s-10.37-1.61-10.37-3.6V78.15a76.86,76.86,0,0,1,10.37-1,71.92,71.92,0,0,1,10.37,1Z"/><path class="cls-24" d="M132.47,80.81c0,2-4.64,3.6-10.37,3.6s-10.37-1.61-10.37-3.6V78.15a76.86,76.86,0,0,1,10.37-1,71.92,71.92,0,0,1,10.37,1Z"/><path class="cls-25" d="M132.47,78.58c0,2-4.64,3.9-10.37,3.9s-10.37-1.91-10.37-3.9c0-.4,3.11.15,3.11.15A9.57,9.57,0,0,1,122.1,75c4.85,0,6.62,2.82,6.62,2.82S132.47,78.27,132.47,78.58Z"/><ellipse class="cls-26" cx="122.1" cy="78.15" rx="10.37" ry="3.61"/><path class="cls-27" d="M122.1,75.57c-4.76,0-8.61,1.13-8.61,2.52,0,.65.84,1.25,2.22,1.69-1-.4-1.58-.89-1.58-1.43,0-1.33,3.61-2.41,8.08-2.41s8.08,1.08,8.08,2.41c0,.36-.27.7-.74,1,.74-.38,1.16-.81,1.16-1.27C130.71,76.7,126.86,75.57,122.1,75.57Z"/><polygon class="cls-25" points="121.99 82.35 121.93 84.24 121.88 82.35 121.99 82.35"/><polygon class="cls-25" points="124.81 82.17 124.75 84.05 124.69 82.17 124.81 82.17"/><polygon class="cls-25" points="127.57 81.69 127.52 83.58 127.46 81.69 127.57 81.69"/><polygon class="cls-25" points="130.09 80.81 130.03 82.7 129.97 80.81 130.09 80.81"/><polygon class="cls-25" points="131.73 79.78 131.68 81.67 131.62 79.78 131.73 79.78"/><polygon class="cls-25" points="119.03 82.17 118.98 84.05 118.92 82.17 119.03 82.17"/><polygon class="cls-25" points="116.36 81.54 116.31 83.42 116.25 81.54 116.36 81.54"/><polygon class="cls-25" points="114.4 80.93 114.35 82.92 114.29 80.93 114.4 80.93"/><polygon class="cls-25" points="112.41 79.59 112.35 81.54 112.3 79.59 112.41 79.59"/><path class="cls-28" d="M114.82,78.32c0-1.07,2.85-1.95,6.36-1.95S114.82,79.4,114.82,78.32Z"/><path class="cls-28" d="M129.64,75.81s3.51,1.69.85,3.56a31.27,31.27,0,0,1-2.85,1.55s3.25-.81,4.14-1.88C133.26,77.27,129.64,75.81,129.64,75.81Z"/><path class="cls-29" d="M128.06,78.43l-.8,0a1.06,1.06,0,0,1-.76,1,4.75,4.75,0,0,1-1.76.27h-.22l-.31-.67h.26l.5,0a4.48,4.48,0,0,0,.64-.08,1.21,1.21,0,0,0,.47-.21.48.48,0,0,0,.17-.36.53.53,0,0,0-.29-.47,1.79,1.79,0,0,0-.85-.21h-.47a3,3,0,0,0-.38.06,1.75,1.75,0,0,0-.35.11l-.32.14-.33.18-1.43.83a3,3,0,0,1-.91.34,3.61,3.61,0,0,1-.77.07h-.4a3.29,3.29,0,0,1-1.56-.42,1.17,1.17,0,0,1-.61-.94l-.8,0v-.23l.8,0a1,1,0,0,1,.66-.79,4.39,4.39,0,0,1,1.69-.25h.1l.29.65h-.25l-.45,0a3.43,3.43,0,0,0-.56.08.72.72,0,0,0-.38.2.35.35,0,0,0-.11.27V78c0,.42.4.64,1.06.68h.21a1.85,1.85,0,0,0,.49-.05,2.09,2.09,0,0,0,.6-.24l1.42-.84a5.14,5.14,0,0,1,1.21-.5,4.36,4.36,0,0,1,1.12-.13H125a3.44,3.44,0,0,1,1.54.4,1.23,1.23,0,0,1,.69.85l.82,0Z"/><path class="cls-24" d="M130.75,77c0,2-4.64,3.6-10.37,3.6S110,79,110,77V74.3a76.86,76.86,0,0,1,10.37-1,71.92,71.92,0,0,1,10.37,1Z"/><path class="cls-24" d="M130.75,77c0,2-4.64,3.6-10.37,3.6S110,79,110,77V74.3a76.86,76.86,0,0,1,10.37-1,71.92,71.92,0,0,1,10.37,1Z"/><path class="cls-25" d="M130.75,74.73c0,2-4.64,3.91-10.37,3.91S110,76.72,110,74.73c0-.39,3.11.15,3.11.15a9.57,9.57,0,0,1,7.26-3.76c4.85,0,6.62,2.82,6.62,2.82S130.75,74.42,130.75,74.73Z"/><path class="cls-26" d="M130.75,74.3c0,2-4.64,3.61-10.37,3.61S110,76.29,110,74.3s4.65-3.6,10.37-3.6S130.75,72.31,130.75,74.3Z"/><path class="cls-27" d="M120.38,71.72c-4.75,0-8.61,1.13-8.61,2.53,0,.65.84,1.24,2.22,1.69-1-.4-1.58-.9-1.58-1.43,0-1.33,3.61-2.41,8.08-2.41s8.08,1.08,8.08,2.41a1.32,1.32,0,0,1-.74,1c.74-.37,1.16-.8,1.16-1.26C129,72.85,125.14,71.72,120.38,71.72Z"/><polygon class="cls-25" points="120.27 78.51 120.21 80.39 120.16 78.51 120.27 78.51"/><polygon class="cls-25" points="123.09 78.32 123.03 80.2 122.97 78.32 123.09 78.32"/><polygon class="cls-25" points="125.85 77.84 125.8 79.73 125.74 77.84 125.85 77.84"/><polygon class="cls-25" points="128.37 76.96 128.31 78.85 128.26 76.96 128.37 76.96"/><polygon class="cls-25" points="130.01 75.94 129.96 77.82 129.9 75.94 130.01 75.94"/><polygon class="cls-25" points="117.31 78.32 117.26 80.2 117.2 78.32 117.31 78.32"/><polygon class="cls-25" points="114.64 77.69 114.59 79.58 114.53 77.69 114.64 77.69"/><polygon class="cls-25" points="112.68 77.09 112.63 79.07 112.57 77.09 112.68 77.09"/><polygon class="cls-25" points="110.69 75.74 110.63 77.69 110.58 75.74 110.69 75.74"/><path class="cls-28" d="M113.1,74.48c0-1.08,2.85-2,6.36-2S113.1,75.55,113.1,74.48Z"/><path class="cls-28" d="M127.92,72s3.51,1.69.85,3.57c-.75.52-2.85,1.54-2.85,1.54s3.25-.8,4.14-1.88C131.54,73.42,127.92,72,127.92,72Z"/><path class="cls-29" d="M126.35,74.59l-.81,0a1,1,0,0,1-.76.95,4.53,4.53,0,0,1-1.76.28h-.22l-.31-.67h.76c.22,0,.43,0,.64-.09a1.21,1.21,0,0,0,.47-.21.41.41,0,0,0,.17-.35.51.51,0,0,0-.29-.48,1.79,1.79,0,0,0-.85-.21h-.47l-.38.06a1.75,1.75,0,0,0-.35.11l-.32.14-.33.18-1.43.83a3.36,3.36,0,0,1-.91.35,4.46,4.46,0,0,1-.77.06H118a3.29,3.29,0,0,1-1.56-.42,1.16,1.16,0,0,1-.61-.93l-.8,0v-.23l.8,0a1,1,0,0,1,.66-.8,4.62,4.62,0,0,1,1.69-.24h.1l.29.64h-.69a3.15,3.15,0,0,0-.56.08.72.72,0,0,0-.39.2.36.36,0,0,0-.11.28v.06c0,.42.4.65,1.06.69h.21a1.85,1.85,0,0,0,.49,0,2.09,2.09,0,0,0,.6-.24l1.42-.83a4.91,4.91,0,0,1,1.21-.5A4.35,4.35,0,0,1,123,73h.33a3.52,3.52,0,0,1,1.55.4,1.26,1.26,0,0,1,.68.85l.83.06Z"/><path class="cls-24" d="M133.62,73.4c0,2-4.65,3.61-10.37,3.61s-10.37-1.62-10.37-3.61V70.74a77.65,77.65,0,0,1,10.37-.94,72.66,72.66,0,0,1,10.37.94Z"/><path class="cls-24" d="M133.62,73.4c0,2-4.65,3.61-10.37,3.61s-10.37-1.62-10.37-3.61V70.74a77.65,77.65,0,0,1,10.37-.94,72.66,72.66,0,0,1,10.37.94Z"/><path class="cls-25" d="M133.62,71.17c0,2-4.65,3.91-10.37,3.91s-10.37-1.92-10.37-3.91c0-.39,3.11.15,3.11.15a9.57,9.57,0,0,1,7.26-3.76c4.85,0,6.62,2.82,6.62,2.82S133.62,70.86,133.62,71.17Z"/><path class="cls-26" d="M133.62,70.74c0,2-4.65,3.61-10.37,3.61s-10.37-1.62-10.37-3.61,4.64-3.6,10.37-3.6S133.62,68.75,133.62,70.74Z"/><path class="cls-27" d="M123.25,68.16c-4.76,0-8.61,1.13-8.61,2.53,0,.65.84,1.24,2.22,1.69-1-.4-1.58-.9-1.58-1.43,0-1.33,3.61-2.41,8.08-2.41s8.08,1.08,8.08,2.41c0,.36-.27.7-.74,1,.74-.37,1.16-.8,1.16-1.26C131.86,69.29,128,68.16,123.25,68.16Z"/><polygon class="cls-25" points="123.14 74.95 123.08 76.83 123.03 74.95 123.14 74.95"/><polygon class="cls-25" points="125.96 74.76 125.9 76.64 125.84 74.76 125.96 74.76"/><polygon class="cls-25" points="128.72 74.29 128.67 76.17 128.61 74.29 128.72 74.29"/><polygon class="cls-25" points="131.24 73.41 131.18 75.29 131.13 73.41 131.24 73.41"/><polygon class="cls-25" points="132.88 72.38 132.83 74.27 132.77 72.38 132.88 72.38"/><polygon class="cls-25" points="120.19 74.76 120.13 76.64 120.07 74.76 120.19 74.76"/><polygon class="cls-25" points="117.51 74.14 117.46 76.02 117.4 74.14 117.51 74.14"/><polygon class="cls-25" points="115.55 73.53 115.5 75.51 115.44 73.53 115.55 73.53"/><polygon class="cls-25" points="113.56 72.18 113.5 74.14 113.45 72.18 113.56 72.18"/><path class="cls-28" d="M116,70.92c0-1.08,2.85-2,6.36-2S116,72,116,70.92Z"/><path class="cls-28" d="M130.79,68.4s3.51,1.7.85,3.57a30.48,30.48,0,0,1-2.85,1.54s3.25-.8,4.14-1.88C134.41,69.86,130.79,68.4,130.79,68.4Z"/><path class="cls-29" d="M129.22,71l-.81,0a1.06,1.06,0,0,1-.76,1,4.75,4.75,0,0,1-1.76.27h-.22l-.31-.68h.76a3.4,3.4,0,0,0,.64-.09,1,1,0,0,0,.47-.21.41.41,0,0,0,.17-.35.53.53,0,0,0-.29-.48,1.91,1.91,0,0,0-.85-.21h-.47l-.38,0a2.07,2.07,0,0,0-.36.11l-.31.14-.33.18L123,71.5a3.06,3.06,0,0,1-.91.35,4.4,4.4,0,0,1-.77.07l-.4,0a3.29,3.29,0,0,1-1.56-.42,1.16,1.16,0,0,1-.61-.93l-.8,0v-.23l.8,0a1,1,0,0,1,.66-.8,4.62,4.62,0,0,1,1.69-.24h.1l.29.64h-.7a3.43,3.43,0,0,0-.56.08.72.72,0,0,0-.38.2.37.37,0,0,0-.11.28v.06c0,.42.4.65,1.06.69H121a2.38,2.38,0,0,0,.49,0,2.89,2.89,0,0,0,.6-.24l1.42-.84a4.75,4.75,0,0,1,1.21-.5,4.35,4.35,0,0,1,1.12-.14h.33a3.57,3.57,0,0,1,1.54.4,1.25,1.25,0,0,1,.69.86l.83,0Z"/><path class="cls-24" d="M130.27,71.16c-1.22,1.58-5.87,0-10.4-3.49s-7.21-7.62-6-9.19l1.63-2.1A76,76,0,0,1,124.28,62a72,72,0,0,1,7.62,7.09Z"/><path class="cls-24" d="M130.27,71.16c-1.22,1.58-5.87,0-10.4-3.49s-7.21-7.62-6-9.19l1.63-2.1A76,76,0,0,1,124.28,62a72,72,0,0,1,7.62,7.09Z"/><path class="cls-25" d="M131.64,69.4c-1.22,1.57-6.06.25-10.59-3.25s-7-7.86-5.81-9.44c.24-.31,2.36,2,2.36,2a9.57,9.57,0,0,1,8,1.48c3.84,3,3.52,6.27,3.52,6.27S131.82,69.16,131.64,69.4Z"/><path class="cls-26" d="M131.9,69.06c-1.22,1.58-5.88,0-10.41-3.49s-7.21-7.62-6-9.19,5.88,0,10.4,3.49S133.12,67.49,131.9,69.06Z"/><path class="cls-27" d="M125.28,60.68c-3.76-2.91-7.5-4.38-8.36-3.27-.4.51-.09,1.49.72,2.69-.54-.92-.7-1.68-.37-2.1.81-1,4.33.31,7.86,3s5.73,5.8,4.92,6.85a1.32,1.32,0,0,1-1.2.34c.81.16,1.41.08,1.69-.29C131.4,66.84,129,63.59,125.28,60.68Z"/><polygon class="cls-25" points="121.04 65.98 119.84 67.44 120.95 65.91 121.04 65.98"/><polygon class="cls-25" points="123.38 67.55 122.18 69.01 123.29 67.48 123.38 67.55"/><polygon class="cls-25" points="125.86 68.87 124.66 70.33 125.77 68.8 125.86 68.87"/><polygon class="cls-25" points="128.39 69.71 127.19 71.17 128.3 69.64 128.39 69.71"/><polygon class="cls-25" points="130.32 69.91 129.12 71.36 130.23 69.84 130.32 69.91"/><polygon class="cls-25" points="118.82 64.02 117.62 65.48 118.73 63.95 118.82 64.02"/><polygon class="cls-25" points="117.09 61.89 115.89 63.34 117 61.82 117.09 61.89"/><polygon class="cls-25" points="115.91 60.21 114.65 61.75 115.82 60.14 115.91 60.21"/><polygon class="cls-25" points="115.15 57.93 113.92 59.44 115.06 57.86 115.15 57.93"/><path class="cls-28" d="M117.83,58.4c.66-.85,3.45.2,6.23,2.35S117.17,59.25,117.83,58.4Z"/><path class="cls-28" d="M131.1,65.48s1.73,3.49-1.52,3.34a31.48,31.48,0,0,1-3.2-.52s3.07,1.35,4.43,1C133.07,68.85,131.1,65.48,131.1,65.48Z"/><path class="cls-29" d="M128.24,66.59l-.61-.53a1,1,0,0,1-1.18.3,4.8,4.8,0,0,1-1.56-.87l-.17-.14.16-.72.21.17.4.29a5.33,5.33,0,0,0,.56.32,1,1,0,0,0,.51.12.44.44,0,0,0,.35-.17.56.56,0,0,0,.06-.56,1.76,1.76,0,0,0-.55-.68l-.16-.14-.21-.14a2.67,2.67,0,0,0-.34-.2,1.5,1.5,0,0,0-.34-.12l-.34-.09-.37-.06L123,63.16a3.35,3.35,0,0,1-.93-.29,3.54,3.54,0,0,1-.65-.42l-.31-.25a3.3,3.3,0,0,1-1-1.29,1.19,1.19,0,0,1,.09-1.11l-.6-.53.14-.18.61.53a1,1,0,0,1,1-.23,4.59,4.59,0,0,1,1.48.85l.07,0-.15.69-.2-.16-.36-.26a4.19,4.19,0,0,0-.5-.28.76.76,0,0,0-.42-.08.4.4,0,0,0-.26.16l0,0c-.23.36-.09.75.41,1.19l.16.13A2,2,0,0,0,122,62a2.66,2.66,0,0,0,.62.18l1.64.21a4.89,4.89,0,0,1,1.26.34,4.52,4.52,0,0,1,1,.58l.26.21a3.56,3.56,0,0,1,1,1.26,1.28,1.28,0,0,1,0,1.1l.62.54Z"/><path class="cls-24" d="M103.1,93.24c0,2-4.64,3.61-10.37,3.61s-10.37-1.62-10.37-3.61V90.59a76.86,76.86,0,0,1,10.37-1,71.92,71.92,0,0,1,10.37,1Z"/><path class="cls-24" d="M103.1,93.24c0,2-4.64,3.61-10.37,3.61s-10.37-1.62-10.37-3.61V90.59a76.86,76.86,0,0,1,10.37-1,71.92,71.92,0,0,1,10.37,1Z"/><path class="cls-25" d="M103.1,91c0,2-4.64,3.91-10.37,3.91S82.36,93,82.36,91c0-.39,3.11.15,3.11.15a9.58,9.58,0,0,1,7.26-3.75c4.85,0,6.62,2.81,6.62,2.81S103.1,90.71,103.1,91Z"/><path class="cls-26" d="M103.1,90.59c0,2-4.64,3.6-10.37,3.6s-10.37-1.61-10.37-3.6S87,87,92.73,87,103.1,88.6,103.1,90.59Z"/><path class="cls-27" d="M92.73,88c-4.75,0-8.61,1.13-8.61,2.52,0,.65.84,1.24,2.22,1.69-1-.4-1.58-.89-1.58-1.43,0-1.33,3.62-2.41,8.08-2.41s8.08,1.08,8.08,2.41c0,.36-.27.7-.74,1,.74-.38,1.16-.81,1.16-1.27C101.34,89.14,97.49,88,92.73,88Z"/><polygon class="cls-25" points="92.62 94.79 92.56 96.68 92.51 94.79 92.62 94.79"/><polygon class="cls-25" points="95.44 94.6 95.38 96.49 95.33 94.6 95.44 94.6"/><polygon class="cls-25" points="98.2 94.13 98.15 96.01 98.09 94.13 98.2 94.13"/><polygon class="cls-25" points="100.72 93.25 100.66 95.14 100.61 93.25 100.72 93.25"/><polygon class="cls-25" points="102.36 92.22 102.31 94.11 102.25 92.22 102.36 92.22"/><polygon class="cls-25" points="89.67 94.6 89.61 96.49 89.55 94.6 89.67 94.6"/><polygon class="cls-25" points="86.99 93.98 86.94 95.86 86.88 93.98 86.99 93.98"/><polygon class="cls-25" points="85.03 93.37 84.98 95.36 84.92 93.37 85.03 93.37"/><polygon class="cls-25" points="83.04 92.03 82.98 93.98 82.93 92.03 83.04 92.03"/><path class="cls-28" d="M85.45,90.76c0-1.08,2.85-2,6.36-2S85.45,91.84,85.45,90.76Z"/><path class="cls-28" d="M100.28,88.25s3.5,1.69.84,3.56a30.48,30.48,0,0,1-2.85,1.54s3.25-.8,4.14-1.87C103.89,89.7,100.28,88.25,100.28,88.25Z"/><path class="cls-29" d="M98.7,90.87l-.81-.05a1.06,1.06,0,0,1-.76,1,4.75,4.75,0,0,1-1.76.27h-.22l-.31-.68h.26l.5,0a3.29,3.29,0,0,0,.64-.09,1.08,1.08,0,0,0,.47-.2.44.44,0,0,0,.17-.36.53.53,0,0,0-.29-.48,1.93,1.93,0,0,0-.85-.2h-.47l-.38,0a1.82,1.82,0,0,0-.35.12,2.52,2.52,0,0,0-.32.14l-.32.17-1.44.83a3,3,0,0,1-.91.35,3.61,3.61,0,0,1-.77.07h-.4a3.17,3.17,0,0,1-1.56-.43,1.16,1.16,0,0,1-.61-.93l-.8,0v-.23l.8,0a1,1,0,0,1,.66-.8,4.65,4.65,0,0,1,1.7-.24h.09l.29.64h-.69a4.89,4.89,0,0,0-.57.08.8.8,0,0,0-.38.2.37.37,0,0,0-.11.28v.06c0,.42.4.65,1.06.69h.21A2.38,2.38,0,0,0,91,91a2.42,2.42,0,0,0,.6-.24L93,90a4.69,4.69,0,0,1,1.2-.5,4.36,4.36,0,0,1,1.12-.13h.33a3.53,3.53,0,0,1,1.55.39,1.28,1.28,0,0,1,.68.86l.83,0Z"/><path class="cls-24" d="M106,89.68c0,2-4.64,3.61-10.37,3.61s-10.37-1.61-10.37-3.61V87a76.86,76.86,0,0,1,10.37-1A71.92,71.92,0,0,1,106,87Z"/><path class="cls-24" d="M106,89.68c0,2-4.64,3.61-10.37,3.61s-10.37-1.61-10.37-3.61V87a76.86,76.86,0,0,1,10.37-1A71.92,71.92,0,0,1,106,87Z"/><path class="cls-25" d="M106,87.46c0,2-4.64,3.9-10.37,3.9s-10.37-1.91-10.37-3.9c0-.4,3.11.15,3.11.15a9.57,9.57,0,0,1,7.26-3.76c4.85,0,6.62,2.82,6.62,2.82S106,87.15,106,87.46Z"/><path class="cls-26" d="M106,87c0,2-4.64,3.6-10.37,3.6S85.23,89,85.23,87s4.64-3.61,10.37-3.61S106,85,106,87Z"/><path class="cls-27" d="M95.6,84.45C90.84,84.45,87,85.58,87,87c0,.65.84,1.25,2.22,1.69-1-.4-1.58-.89-1.58-1.43,0-1.33,3.62-2.41,8.08-2.41s8.08,1.08,8.08,2.41c0,.36-.27.7-.74,1,.74-.38,1.16-.81,1.16-1.27C104.21,85.58,100.36,84.45,95.6,84.45Z"/><polygon class="cls-25" points="95.49 91.23 95.43 93.12 95.38 91.23 95.49 91.23"/><polygon class="cls-25" points="98.31 91.05 98.25 92.93 98.19 91.05 98.31 91.05"/><polygon class="cls-25" points="101.07 90.57 101.02 92.45 100.96 90.57 101.07 90.57"/><polygon class="cls-25" points="103.59 89.69 103.53 91.58 103.48 89.69 103.59 89.69"/><polygon class="cls-25" points="105.23 88.66 105.18 90.55 105.12 88.66 105.23 88.66"/><polygon class="cls-25" points="92.53 91.05 92.48 92.93 92.42 91.05 92.53 91.05"/><polygon class="cls-25" points="89.86 90.42 89.81 92.3 89.75 90.42 89.86 90.42"/><polygon class="cls-25" points="87.9 89.81 87.85 91.8 87.79 89.81 87.9 89.81"/><polygon class="cls-25" points="85.91 88.47 85.85 90.42 85.8 88.47 85.91 88.47"/><path class="cls-28" d="M88.32,87.2c0-1.07,2.85-2,6.36-2S88.32,88.28,88.32,87.2Z"/><path class="cls-28" d="M103.15,84.69s3.5,1.69.84,3.56a31.27,31.27,0,0,1-2.85,1.55s3.25-.81,4.14-1.88C106.76,86.14,103.15,84.69,103.15,84.69Z"/><path class="cls-29" d="M101.57,87.31l-.81,0a1.06,1.06,0,0,1-.76,1,4.75,4.75,0,0,1-1.76.27H98l-.31-.67H98l.5,0a4.48,4.48,0,0,0,.64-.08,1.21,1.21,0,0,0,.47-.21.44.44,0,0,0,.17-.36.51.51,0,0,0-.29-.47,1.79,1.79,0,0,0-.85-.21h-.47l-.38,0-.35.12a2.52,2.52,0,0,0-.32.14l-.33.17-1.43.84a3,3,0,0,1-.91.34,3.61,3.61,0,0,1-.77.07h-.4a3.29,3.29,0,0,1-1.56-.42,1.17,1.17,0,0,1-.61-.94l-.8,0v-.23l.8,0a1,1,0,0,1,.66-.8,4.62,4.62,0,0,1,1.69-.24h.1l.29.65h-.25l-.44,0a3.4,3.4,0,0,0-.57.08.66.66,0,0,0-.38.2.35.35,0,0,0-.11.27v.07c0,.41.4.64,1.06.68h.21a2.38,2.38,0,0,0,.49,0,2.09,2.09,0,0,0,.6-.24l1.42-.84a5.33,5.33,0,0,1,1.21-.5,4.36,4.36,0,0,1,1.12-.13h.33a3.52,3.52,0,0,1,1.55.4,1.24,1.24,0,0,1,.68.85l.83,0Z"/><path class="cls-24" d="M104.31,85.2c0,2-4.64,3.61-10.36,3.61S83.58,87.2,83.58,85.2V82.55A76.86,76.86,0,0,1,94,81.6a71.88,71.88,0,0,1,10.36,1Z"/><path class="cls-24" d="M104.31,85.2c0,2-4.64,3.61-10.36,3.61S83.58,87.2,83.58,85.2V82.55A76.86,76.86,0,0,1,94,81.6a71.88,71.88,0,0,1,10.36,1Z"/><path class="cls-25" d="M104.31,83c0,2-4.64,3.9-10.36,3.9S83.58,85,83.58,83c0-.4,3.11.15,3.11.15A9.57,9.57,0,0,1,94,79.37c4.84,0,6.62,2.81,6.62,2.81S104.31,82.67,104.31,83Z"/><path class="cls-26" d="M104.31,82.55c0,2-4.64,3.6-10.36,3.6s-10.37-1.61-10.37-3.6S88.22,78.94,94,78.94,104.31,80.56,104.31,82.55Z"/><path class="cls-27" d="M94,80c-4.76,0-8.61,1.13-8.61,2.52,0,.65.84,1.24,2.22,1.69-1-.4-1.59-.89-1.59-1.43,0-1.33,3.62-2.41,8.08-2.41s8.08,1.08,8.08,2.41a1.32,1.32,0,0,1-.73,1c.73-.38,1.16-.81,1.16-1.27C102.56,81.1,98.7,80,94,80Z"/><polygon class="cls-25" points="93.84 86.75 93.78 88.64 93.72 86.75 93.84 86.75"/><polygon class="cls-25" points="96.65 86.56 96.6 88.45 96.54 86.56 96.65 86.56"/><polygon class="cls-25" points="99.42 86.09 99.36 87.97 99.31 86.09 99.42 86.09"/><polygon class="cls-25" points="101.93 85.21 101.88 87.1 101.82 85.21 101.93 85.21"/><polygon class="cls-25" points="103.58 84.18 103.52 86.07 103.47 84.18 103.58 84.18"/><polygon class="cls-25" points="90.88 86.56 90.83 88.45 90.77 86.56 90.88 86.56"/><polygon class="cls-25" points="88.21 85.94 88.15 87.82 88.1 85.94 88.21 85.94"/><polygon class="cls-25" points="86.25 85.33 86.19 87.32 86.14 85.33 86.25 85.33"/><polygon class="cls-25" points="84.26 83.99 84.2 85.94 84.14 83.99 84.26 83.99"/><path class="cls-28" d="M86.66,82.72c0-1.08,2.85-2,6.36-2S86.66,83.8,86.66,82.72Z"/><path class="cls-28" d="M101.49,80.21s3.51,1.69.85,3.56a31.06,31.06,0,0,1-2.86,1.55s3.25-.81,4.15-1.88C105.11,81.66,101.49,80.21,101.49,80.21Z"/><path class="cls-29" d="M99.91,82.83l-.81,0a1,1,0,0,1-.75,1,4.75,4.75,0,0,1-1.76.27h-.23l-.31-.67h.27l.5,0a4.17,4.17,0,0,0,.63-.08,1.19,1.19,0,0,0,.48-.21.48.48,0,0,0,.17-.36.55.55,0,0,0-.29-.48A2,2,0,0,0,97,82h-.47L96.1,82l-.35.12a2.33,2.33,0,0,0-.31.14l-.33.17-1.43.84a3.1,3.1,0,0,1-.92.34,3.55,3.55,0,0,1-.77.07H91.6A3.3,3.3,0,0,1,90,83.29a1.2,1.2,0,0,1-.61-.94l-.79,0v-.23l.8,0a1,1,0,0,1,.66-.8,4.59,4.59,0,0,1,1.69-.24h.09l.3.64h-.7a3.27,3.27,0,0,0-.56.09.79.79,0,0,0-.39.19.41.41,0,0,0-.11.28.2.2,0,0,0,0,.07c0,.41.39.64,1.06.68h.2a2.49,2.49,0,0,0,.5,0,2.09,2.09,0,0,0,.6-.24l1.42-.84a5.14,5.14,0,0,1,1.21-.5,4.28,4.28,0,0,1,1.11-.13h.34a3.48,3.48,0,0,1,1.54.4,1.29,1.29,0,0,1,.69.85l.82,0Z"/><path class="cls-24" d="M112.66,81.26c0,2-4.64,3.61-10.36,3.61s-10.37-1.61-10.37-3.61V78.61a76.86,76.86,0,0,1,10.37-1,71.88,71.88,0,0,1,10.36,1Z"/><path class="cls-24" d="M112.66,81.26c0,2-4.64,3.61-10.36,3.61s-10.37-1.61-10.37-3.61V78.61a76.86,76.86,0,0,1,10.37-1,71.88,71.88,0,0,1,10.36,1Z"/><path class="cls-25" d="M112.66,79c0,2-4.64,3.91-10.36,3.91S91.93,81,91.93,79c0-.39,3.11.15,3.11.15a9.58,9.58,0,0,1,7.26-3.75c4.84,0,6.62,2.81,6.62,2.81S112.66,78.73,112.66,79Z"/><path class="cls-26" d="M112.66,78.61c0,2-4.64,3.6-10.36,3.6s-10.37-1.61-10.37-3.6S96.57,75,102.3,75,112.66,76.62,112.66,78.61Z"/><path class="cls-27" d="M102.3,76c-4.76,0-8.62,1.13-8.62,2.52,0,.65.85,1.25,2.23,1.69-1-.4-1.59-.89-1.59-1.43,0-1.33,3.62-2.41,8.08-2.41s8.08,1.08,8.08,2.41a1.32,1.32,0,0,1-.73,1c.73-.38,1.16-.81,1.16-1.27C110.91,77.16,107.05,76,102.3,76Z"/><polygon class="cls-25" points="102.19 82.81 102.13 84.7 102.07 82.81 102.19 82.81"/><polygon class="cls-25" points="105 82.62 104.94 84.51 104.89 82.62 105 82.62"/><polygon class="cls-25" points="107.77 82.15 107.71 84.03 107.66 82.15 107.77 82.15"/><polygon class="cls-25" points="110.28 81.27 110.23 83.16 110.17 81.27 110.28 81.27"/><polygon class="cls-25" points="111.93 80.24 111.87 82.13 111.81 80.24 111.93 80.24"/><polygon class="cls-25" points="99.23 82.62 99.17 84.51 99.12 82.62 99.23 82.62"/><polygon class="cls-25" points="96.56 82 96.5 83.88 96.45 82 96.56 82"/><polygon class="cls-25" points="94.6 81.39 94.54 83.38 94.48 81.39 94.6 81.39"/><polygon class="cls-25" points="92.61 80.05 92.55 82 92.49 80.05 92.61 80.05"/><path class="cls-28" d="M95,78.78c0-1.08,2.85-2,6.36-2S95,79.86,95,78.78Z"/><path class="cls-28" d="M109.84,76.27s3.51,1.69.85,3.56a30.28,30.28,0,0,1-2.86,1.54s3.25-.8,4.15-1.87C113.46,77.72,109.84,76.27,109.84,76.27Z"/><path class="cls-29" d="M108.26,78.89l-.81,0a1,1,0,0,1-.75,1,4.75,4.75,0,0,1-1.76.27h-.23l-.31-.68h.27l.5,0a3.19,3.19,0,0,0,.63-.09,1.07,1.07,0,0,0,.48-.2.48.48,0,0,0,.17-.36.55.55,0,0,0-.29-.48,2,2,0,0,0-.85-.2h-.47l-.39,0-.35.12a2.33,2.33,0,0,0-.31.14l-.33.17-1.43.83a3.12,3.12,0,0,1-.92.35,3.55,3.55,0,0,1-.77.07H100a3.3,3.3,0,0,1-1.57-.42,1.21,1.21,0,0,1-.61-.94l-.79,0v-.23l.8,0a1,1,0,0,1,.66-.8,4.59,4.59,0,0,1,1.69-.24h.09l.3.64h-.7a4.68,4.68,0,0,0-.56.09.71.71,0,0,0-.39.19.41.41,0,0,0-.11.28.13.13,0,0,0,0,.06c0,.42.39.65,1.06.69h.2a2.31,2.31,0,0,0,.49,0,2,2,0,0,0,.61-.24l1.42-.84a5.14,5.14,0,0,1,1.21-.5,4.28,4.28,0,0,1,1.11-.13h.34a3.48,3.48,0,0,1,1.54.4,1.29,1.29,0,0,1,.69.85l.82,0Z"/><path class="cls-24" d="M92.51,78.06c1.38,1.43-.84,5.81-5,9.78s-8.59,6-10,4.59l-1.84-1.91a77.1,77.1,0,0,1,6.81-7.88,71.46,71.46,0,0,1,8.13-6.5S92.3,77.83,92.51,78.06Z"/><path class="cls-24" d="M92.51,78.06c1.38,1.43-.84,5.81-5,9.78s-8.59,6-10,4.59l-1.84-1.91a77.1,77.1,0,0,1,6.81-7.88,71.46,71.46,0,0,1,8.13-6.5S92.3,77.83,92.51,78.06Z"/><path class="cls-25" d="M91,76.45c1.39,1.43-.63,6-4.76,10S77.41,92.26,76,90.82c-.28-.28,2.34-2,2.34-2A9.58,9.58,0,0,1,81,81c3.5-3.36,6.73-2.57,6.73-2.57S90.75,76.23,91,76.45Z"/><path class="cls-26" d="M90.67,76.14c1.38,1.44-.85,5.82-5,9.79s-8.59,6-10,4.59.84-5.82,5-9.79S89.29,74.71,90.67,76.14Z"/><path class="cls-27" d="M81.41,81.47C78,84.76,76,88.25,77,89.26c.45.47,1.46.31,2.77-.32-1,.4-1.76.45-2.14.06-.92-1,.94-4.24,4.16-7.34s6.57-4.82,7.49-3.86A1.29,1.29,0,0,1,89.4,79c.28-.78.28-1.38,0-1.71C88.4,76.31,84.84,78.17,81.41,81.47Z"/><polygon class="cls-25" points="86.04 86.44 87.3 87.83 85.95 86.51 86.04 86.44"/><polygon class="cls-25" points="87.93 84.35 89.2 85.74 87.85 84.42 87.93 84.35"/><polygon class="cls-25" points="89.6 82.09 90.86 83.48 89.52 82.16 89.6 82.09"/><polygon class="cls-25" points="90.8 79.71 92.07 81.11 90.72 79.79 90.8 79.71"/><polygon class="cls-25" points="91.27 77.83 92.54 79.22 91.19 77.91 91.27 77.83"/><polygon class="cls-25" points="83.78 88.35 85.04 89.74 83.69 88.42 83.78 88.35"/><polygon class="cls-25" points="81.42 89.75 82.68 91.15 81.33 89.83 81.42 89.75"/><polygon class="cls-25" points="79.58 90.67 80.92 92.14 79.5 90.75 79.58 90.67"/><polygon class="cls-25" points="77.21 91.08 78.53 92.53 77.13 91.16 77.21 91.08"/><path class="cls-28" d="M78.07,88.5c-.74-.77.7-3.38,3.23-5.81S78.82,89.28,78.07,88.5Z"/><path class="cls-28" d="M87,76.41s3.7-1.21,3.08,2a30.45,30.45,0,0,1-1,3.09s1.78-2.83,1.68-4.22C90.63,75,87,76.41,87,76.41Z"/><path class="cls-29" d="M87.69,79.4l-.61.52a1.05,1.05,0,0,1,.12,1.21,4.64,4.64,0,0,1-1.08,1.42L86,82.7l-.69-.27.2-.18.34-.35a4.45,4.45,0,0,0,.4-.51,1.07,1.07,0,0,0,.2-.48.45.45,0,0,0-.12-.37.52.52,0,0,0-.54-.14,1.93,1.93,0,0,0-.76.43l-.16.15-.17.18a2.63,2.63,0,0,0-.24.31,1.4,1.4,0,0,0-.18.32,3.09,3.09,0,0,0-.13.32c0,.09-.07.21-.11.36l-.46,1.59a2.86,2.86,0,0,1-.42.88,3.75,3.75,0,0,1-.51.59l-.29.26a3.33,3.33,0,0,1-1.42.78,1.18,1.18,0,0,1-1.09-.25l-.6.52L79,86.68l.61-.53a1,1,0,0,1-.08-1,4.7,4.7,0,0,1,1.05-1.34.46.46,0,0,1,.07-.07l.66.26-.19.17-.31.32a3,3,0,0,0-.35.45.8.8,0,0,0-.14.41.36.36,0,0,0,.12.27l0,0c.32.27.74.19,1.24-.24l.16-.14a2.58,2.58,0,0,0,.32-.38,2.49,2.49,0,0,0,.26-.59L83,82.7a4.9,4.9,0,0,1,.52-1.2,4.31,4.31,0,0,1,.71-.87l.25-.22a3.4,3.4,0,0,1,1.39-.78,1.26,1.26,0,0,1,1.08.13l.64-.53Z"/><path class="cls-30" d="M80.4,125.27a68.65,68.65,0,0,1-17.68-2.22,66.63,66.63,0,0,1-13.78-4.82A52.8,52.8,0,0,1,31,104.06a39.92,39.92,0,0,1-7-13.75c-.19-.64-.39-1.27-.58-1.91s-.15-.64.48-.71a23.52,23.52,0,0,1,6.21.26,110,110,0,0,1,11.32,2.66A86.13,86.13,0,0,1,61.09,98.5c6.14,3.32,12.23,6.75,18.47,9.9,3.53,1.79,7.1,3.52,10.66,5.26,2.66,1.31,5.26,2.74,7.85,4.18a6.09,6.09,0,0,1,1.05.68,1.26,1.26,0,0,1,.06,2,4.8,4.8,0,0,1-1.16.8,30.36,30.36,0,0,1-5.82,2.22A38.28,38.28,0,0,1,80.4,125.27Z"/><path class="cls-31" d="M67.87,123.93c-4.19-.13-8.15-1.57-12.09-2.88a55.06,55.06,0,0,1-20.45-12.27A40.49,40.49,0,0,1,24,90.62c-.17-.58-.35-1.16-.53-1.75,0-.15-.18-.36,0-.46s.33.12.47.24.53.48.8.73A106.73,106.73,0,0,0,34,97c6.55,4.81,13.23,9.43,20.61,12.94a101.88,101.88,0,0,0,25,8.16,44.44,44.44,0,0,0,6.52.76,9.46,9.46,0,0,1,1.07.11c.58.09.9.36,1,.78s-.16.75-.71,1a21.55,21.55,0,0,1-2,.8,40.75,40.75,0,0,1-9.84,2A31.61,31.61,0,0,1,67.87,123.93Z"/><path class="cls-32" d="M55.72,149.57a36.71,36.71,0,0,1-20.27-5.73A32.43,32.43,0,0,1,27.56,137,12.87,12.87,0,0,1,25,132.56a.93.93,0,0,1,.37-1.21c.76-.51,1.49-1.06,2.26-1.55a47,47,0,0,1,11.21-5.58,91.11,91.11,0,0,1,11.77-2.91,59.08,59.08,0,0,1,13.07-.94,126.84,126.84,0,0,1,19.62,2.39A80.05,80.05,0,0,1,92,124.84c.87.28,1.72.62,2.56,1,1.14.48,1.33,1.09.68,2.15a58.57,58.57,0,0,1-7.43,9.48C82.68,142.88,76.29,146,69.24,148a44.88,44.88,0,0,1-8.61,1.36C59,149.5,57.36,149.56,55.72,149.57Z"/><path class="cls-33" d="M55.4,149.55a33.56,33.56,0,0,1-14.07-2.68A34.71,34.71,0,0,1,27.59,137,12.1,12.1,0,0,1,25,132.6c-.08-.28-.32-.63,0-.84s.53.16.75.34a21.38,21.38,0,0,0,6.84,3.52,56.35,56.35,0,0,0,12.52,2.55,148.38,148.38,0,0,0,20.87.47,71.36,71.36,0,0,0,13.71-2,42.29,42.29,0,0,0,13-6c.25-.17.54-.59.83-.32s-.21.52-.39.75c-3.32,4.36-6.84,8.56-11.51,11.54a41.86,41.86,0,0,1-17.91,6.47A64.26,64.26,0,0,1,55.4,149.55Z"/><path class="cls-34" d="M46.22,71a24.72,24.72,0,0,1,.3-5.23c0-.2-.07-.52.22-.56s.32.27.44.45a14.47,14.47,0,0,1,1.41,2.91c.67,1.91,1.31,3.83,2,5.74A69,69,0,0,0,56,86.41,42.63,42.63,0,0,0,68,99.5a134.54,134.54,0,0,0,14.53,9.06,40.07,40.07,0,0,0,11.93,4.28,2.42,2.42,0,0,1,.71.2c.37.19.36.55,0,.78a1,1,0,0,1-.64.13c-.55,0-9-.07-20.3-4.56A49,49,0,0,1,50.83,88.86a34.22,34.22,0,0,1-4.42-13.15A24.8,24.8,0,0,1,46.22,71Z"/><path class="cls-35" d="M59.86,68.22c0-1.55,0-3.11.11-4.66.07-.89.27-1.75.42-2.62,0-.15,0-.36.23-.4s.21.15.29.26A88.8,88.8,0,0,0,74.07,74.63c.9.79,1.76,1.61,2.68,2.38a30.86,30.86,0,0,1,5.13,5.64,86.9,86.9,0,0,1,6.49,10.26c1.95,3.7,4,7.36,5.81,11.12.39.8.84,1.57,1.28,2.34a17.75,17.75,0,0,0,5.56,6c.22.15.6.27.47.59s-.55.23-.82.14c-2.48-.89-5.13-1.12-7.66-1.87A45.41,45.41,0,0,1,77.55,103a56,56,0,0,1-9.27-9.39,40.51,40.51,0,0,1-8.05-18.4A36,36,0,0,1,59.86,68.22Z"/><path class="cls-36" d="M90.43,120.59c-10.73-.42-19-4.69-24.54-13.3a16.49,16.49,0,0,1-2.4-7.52,19.87,19.87,0,0,1,.19-5.71,9.09,9.09,0,0,1,1.08-2.81c.41-.71.55-.79,1.44-.66a10.57,10.57,0,0,1,3.44,1.19,40.17,40.17,0,0,1,6.83,4.47c2.92,2.35,5.77,4.78,8.52,7.31a38.24,38.24,0,0,0,10,6.58,45.45,45.45,0,0,0,4.19,1.94,19.66,19.66,0,0,0,9,1c.14,0,.31-.1.43,0s0,.3-.11.44c1,1.42.67,4-.53,4.77-3.74,2.39-10.32,1.82-14.86,2.13C92.26,120.49,91.36,120.59,90.43,120.59Z"/><path class="cls-37" d="M84.07,135.45a26.23,26.23,0,0,1-18.68-8.19A18.59,18.59,0,0,1,60.23,116a9.74,9.74,0,0,1,3.68-8.74c.48-.42.51-.39.93,0A17.08,17.08,0,0,0,69,110.2a35.35,35.35,0,0,0,9.63,3.32,52.75,52.75,0,0,0,8.31,1,67.94,67.94,0,0,1,9.34.94,45.15,45.15,0,0,1,6.24,1.75,14.35,14.35,0,0,0,2.65.69,4.94,4.94,0,0,0,2.06-.09,2.41,2.41,0,0,0,1.75-3.08,5.43,5.43,0,0,0-.44-1.16c-.09-.18-.14-.4.09-.51a.4.4,0,0,1,.55.23,6.29,6.29,0,0,1,.49,1.58,8.76,8.76,0,0,1-1.2,6.62,37.21,37.21,0,0,1-5,6.5,19.83,19.83,0,0,1-4.89,3.7A32.07,32.07,0,0,1,84.07,135.45Z"/><path class="cls-38" d="M131.38,125.27a68.76,68.76,0,0,0,17.68-2.22,66.84,66.84,0,0,0,13.78-4.82,52.9,52.9,0,0,0,17.94-14.17,40.1,40.1,0,0,0,7.05-13.75c.19-.64.39-1.27.57-1.91s.16-.64-.47-.71a23.48,23.48,0,0,0-6.21.26,110.2,110.2,0,0,0-11.33,2.66,86.05,86.05,0,0,0-19.7,7.89c-6.15,3.32-12.24,6.75-18.47,9.9-3.54,1.79-7.1,3.52-10.66,5.26-2.67,1.31-5.27,2.74-7.86,4.18a6,6,0,0,0-1,.68,1.25,1.25,0,0,0-.06,2,4.44,4.44,0,0,0,1.16.8,30.52,30.52,0,0,0,5.81,2.22A38.39,38.39,0,0,0,131.38,125.27Z"/><path class="cls-39" d="M143.91,123.93c4.18-.13,8.15-1.57,12.09-2.88a55.06,55.06,0,0,0,20.45-12.27,40.39,40.39,0,0,0,11.28-18.16c.18-.58.36-1.16.53-1.75.05-.15.19-.36,0-.46s-.33.12-.46.24c-.28.23-.54.48-.8.73A105.37,105.37,0,0,1,177.8,97c-6.55,4.81-13.23,9.43-20.6,12.94a101.88,101.88,0,0,1-25,8.16,44.6,44.6,0,0,1-6.52.76,9.88,9.88,0,0,0-1.08.11c-.58.09-.89.36-1,.78s.15.75.71,1a20.51,20.51,0,0,0,2,.8,40.67,40.67,0,0,0,9.83,2A31.8,31.8,0,0,0,143.91,123.93Z"/><path class="cls-40" d="M156.05,149.57a36.72,36.72,0,0,0,20.28-5.73,32.39,32.39,0,0,0,7.88-6.84,12.71,12.71,0,0,0,2.55-4.44.93.93,0,0,0-.36-1.21c-.76-.51-1.5-1.06-2.26-1.55a47.14,47.14,0,0,0-11.21-5.58,91.52,91.52,0,0,0-11.77-2.91,59.13,59.13,0,0,0-13.08-.94,127,127,0,0,0-19.62,2.39,79.88,79.88,0,0,0-8.64,2.08c-.87.28-1.72.62-2.57,1-1.14.48-1.32,1.09-.67,2.15a58.51,58.51,0,0,0,7.42,9.48c5.09,5.44,11.48,8.59,18.54,10.57a44.64,44.64,0,0,0,8.61,1.36C152.78,149.5,154.41,149.56,156.05,149.57Z"/><path class="cls-41" d="M156.38,149.55a33.59,33.59,0,0,0,14.07-2.68A34.68,34.68,0,0,0,184.18,137a12,12,0,0,0,2.55-4.44c.08-.28.32-.63,0-.84s-.54.16-.76.34a21.28,21.28,0,0,1-6.84,3.52,56.35,56.35,0,0,1-12.52,2.55,148.24,148.24,0,0,1-20.86.47,71.46,71.46,0,0,1-13.72-2,42.4,42.4,0,0,1-13-6c-.25-.17-.53-.59-.82-.32s.2.52.38.75c3.32,4.36,6.84,8.56,11.52,11.54A41.81,41.81,0,0,0,148,149.06,64.16,64.16,0,0,0,156.38,149.55Z"/><path class="cls-42" d="M151.92,68.22c0-1.55,0-3.11-.11-4.66-.07-.89-.27-1.75-.42-2.62,0-.15,0-.36-.23-.4s-.22.15-.3.26A88.34,88.34,0,0,1,137.7,74.63c-.89.79-1.76,1.61-2.67,2.38a30.91,30.91,0,0,0-5.14,5.64,86.83,86.83,0,0,0-6.48,10.26c-2,3.7-4,7.36-5.82,11.12-.39.8-.83,1.57-1.27,2.34a17.88,17.88,0,0,1-5.57,6c-.21.15-.6.27-.46.59s.55.23.81.14c2.49-.89,5.14-1.12,7.66-1.87A45.46,45.46,0,0,0,134.23,103a56,56,0,0,0,9.27-9.39,40.72,40.72,0,0,0,8.05-18.4A37.65,37.65,0,0,0,151.92,68.22Z"/><path class="cls-43" d="M121.34,120.59c10.73-.42,19-4.69,24.55-13.3a16.49,16.49,0,0,0,2.4-7.52,19.87,19.87,0,0,0-.19-5.71A9.62,9.62,0,0,0,147,91.25c-.42-.71-.56-.79-1.45-.66a10.65,10.65,0,0,0-3.44,1.19,40.57,40.57,0,0,0-6.83,4.47c-2.92,2.35-5.77,4.78-8.51,7.31a38.29,38.29,0,0,1-10,6.58,44.26,44.26,0,0,1-4.19,1.94,19.61,19.61,0,0,1-9,1c-.15,0-.32-.1-.43,0s0,.3.1.44c-1,1.42-.66,4,.53,4.77,3.75,2.39,10.33,1.82,14.87,2.13C119.52,120.49,120.41,120.59,121.34,120.59Z"/><path class="cls-44" d="M127.71,135.45a26.21,26.21,0,0,0,18.67-8.19A18.6,18.6,0,0,0,151.55,116a9.76,9.76,0,0,0-3.68-8.74c-.48-.42-.52-.39-.94,0a17.22,17.22,0,0,1-4.12,2.92,35.35,35.35,0,0,1-9.63,3.32,53,53,0,0,1-8.32,1,68.26,68.26,0,0,0-9.34.94,44.63,44.63,0,0,0-6.23,1.75,14.56,14.56,0,0,1-2.65.69,5,5,0,0,1-2.07-.09,2.41,2.41,0,0,1-1.75-3.08,6.06,6.06,0,0,1,.45-1.16c.09-.18.14-.4-.09-.51a.4.4,0,0,0-.55.23,6.32,6.32,0,0,0-.5,1.58,8.81,8.81,0,0,0,1.21,6.62,37.21,37.21,0,0,0,5,6.5,19.64,19.64,0,0,0,4.89,3.7A32,32,0,0,0,127.71,135.45Z"/><path class="cls-45" d="M105.45,113.61a18.34,18.34,0,0,1-8.16-1.69,14.73,14.73,0,0,1-4.53-3.33,11.53,11.53,0,0,1-2.5-4.26,18.88,18.88,0,0,1-1-8.84,21.64,21.64,0,0,1,6-12c2.47-2.62,5.06-5.13,7.68-7.61a13.2,13.2,0,0,0,3.1-4c.16-.35.29-.35.5,0a1.09,1.09,0,0,1,.08.15,34.75,34.75,0,0,0,5.79,8.18c1.66,1.91,3.29,3.83,4.79,5.86a22.73,22.73,0,0,1,3.58,6.82,16.33,16.33,0,0,1-1.53,12.69,14.78,14.78,0,0,1-9.54,7.59A13.7,13.7,0,0,1,105.45,113.61Z"/></g></g></g></svg>