<svg xmlns="http://www.w3.org/2000/svg" xmlns:xlink="http://www.w3.org/1999/xlink" viewBox="0 0 208.53 127.09"><defs><style>.cls-1{isolation:isolate;}.cls-2{fill:url(#linear-gradient);}.cls-22,.cls-23,.cls-3{mix-blend-mode:overlay;}.cls-3{fill:url(#linear-gradient-2);}.cls-4{fill:url(#linear-gradient-3);}.cls-5{fill:url(#linear-gradient-4);}.cls-6{fill:url(#linear-gradient-5);}.cls-7{fill:url(#linear-gradient-6);}.cls-8{fill:url(#linear-gradient-7);}.cls-9{fill:url(#linear-gradient-8);}.cls-10{fill:url(#linear-gradient-9);}.cls-11{fill:url(#linear-gradient-10);}.cls-12{fill:#fbb03b;}.cls-13{fill:url(#linear-gradient-11);}.cls-14{fill:url(#linear-gradient-12);}.cls-15{fill:url(#linear-gradient-13);}.cls-16{fill:url(#linear-gradient-14);}.cls-17{fill:#fcc604;}.cls-18{fill:#f7931e;}.cls-19{fill:url(#linear-gradient-15);}.cls-20{fill:url(#radial-gradient);}.cls-21{fill:#765600;}.cls-22{fill:url(#radial-gradient-2);}.cls-23{fill:url(#radial-gradient-3);}</style><linearGradient id="linear-gradient" x1="106.51" y1="27.6" x2="106.45" y2="4.7" gradientUnits="userSpaceOnUse"><stop offset="0" stop-color="#ff7300"/><stop offset="0.07" stop-color="#fe7c09"/><stop offset="0.18" stop-color="#fd9622"/><stop offset="0.28" stop-color="#fbb03b"/><stop offset="1" stop-color="#ffffad"/></linearGradient><linearGradient id="linear-gradient-2" x1="106.5" y1="26.7" x2="106.46" y2="10.82" xlink:href="#linear-gradient"/><linearGradient id="linear-gradient-3" x1="3370.37" y1="70.8" x2="3427.69" y2="121.15" gradientTransform="matrix(-1, 0, 0, 1, 3554.38, 0)" gradientUnits="userSpaceOnUse"><stop offset="0" stop-color="#e25b90"/><stop offset="0.29" stop-color="#f8b7d4"/><stop offset="0.75" stop-color="#f8b4d4"/><stop offset="1" stop-color="#e35a90"/></linearGradient><linearGradient id="linear-gradient-4" x1="3398.47" y1="48.81" x2="3437.97" y2="111.66" gradientTransform="matrix(-1, 0, 0, 1, 3554.38, 0)" gradientUnits="userSpaceOnUse"><stop offset="0" stop-color="#e64e79"/><stop offset="0.28" stop-color="#f8bfc6"/><stop offset="0.75" stop-color="#f8c7c6"/><stop offset="1" stop-color="#eb6363"/></linearGradient><linearGradient id="linear-gradient-5" x1="3406.39" y1="55.69" x2="3418.5" y2="79.05" xlink:href="#linear-gradient-4"/><linearGradient id="linear-gradient-6" x1="3406.37" y1="70.06" x2="3419.48" y2="70.06" gradientTransform="matrix(-1, 0, 0, 1, 3554.38, 0)" gradientUnits="userSpaceOnUse"><stop offset="0" stop-color="#e64573"/><stop offset="0.02" stop-color="#e74a76"/><stop offset="0.17" stop-color="#ee7391"/><stop offset="0.3" stop-color="#f491a4"/><stop offset="0.42" stop-color="#f7a3b0"/><stop offset="0.5" stop-color="#f8aab4"/><stop offset="0.59" stop-color="#f7a3ac"/><stop offset="0.73" stop-color="#f48e95"/><stop offset="0.9" stop-color="#ee6d70"/><stop offset="1" stop-color="#eb5858"/></linearGradient><linearGradient id="linear-gradient-7" x1="3407.24" y1="56.64" x2="3439.53" y2="122.96" xlink:href="#linear-gradient-3"/><linearGradient id="linear-gradient-8" x1="3388.79" y1="89.58" x2="3438.08" y2="89.58" xlink:href="#linear-gradient-6"/><linearGradient id="linear-gradient-9" x1="24.27" y1="71.74" x2="83.44" y2="123.72" gradientTransform="matrix(1, 0, 0, 1, 0, 0)" xlink:href="#linear-gradient-3"/><linearGradient id="linear-gradient-10" x1="106.42" y1="32.71" x2="106.42" y2="98.19" gradientTransform="matrix(1, 0, 0, 1, 0, 0)" xlink:href="#linear-gradient-4"/><linearGradient id="linear-gradient-11" x1="55.86" y1="48.81" x2="95.36" y2="111.66" gradientTransform="matrix(1, 0, 0, 1, 0, 0)" xlink:href="#linear-gradient-4"/><linearGradient id="linear-gradient-12" x1="63.79" y1="55.69" x2="75.9" y2="79.05" gradientTransform="matrix(1, 0, 0, 1, 0, 0)" xlink:href="#linear-gradient-4"/><linearGradient id="linear-gradient-13" x1="63.76" y1="70.06" x2="76.87" y2="70.06" gradientTransform="matrix(1, 0, 0, 1, 0, 0)" xlink:href="#linear-gradient-6"/><linearGradient id="linear-gradient-14" x1="64.64" y1="56.64" x2="96.93" y2="122.96" gradientTransform="matrix(1, 0, 0, 1, 0, 0)" xlink:href="#linear-gradient-3"/><linearGradient id="linear-gradient-15" x1="100.17" y1="61.6" x2="113.54" y2="61.6" gradientUnits="userSpaceOnUse"><stop offset="0" stop-color="#fff9ea"/><stop offset="0.28" stop-color="#fffdf8"/><stop offset="0.53" stop-color="#fff"/><stop offset="0.69" stop-color="#fffefc"/><stop offset="0.79" stop-color="#fffaf3"/><stop offset="0.87" stop-color="#fff3e4"/><stop offset="0.95" stop-color="#ffe9cf"/><stop offset="1" stop-color="#ffe1bd"/></linearGradient><radialGradient id="radial-gradient" cx="106.87" cy="29.74" r="4.8" gradientUnits="userSpaceOnUse"><stop offset="0" stop-color="#fff9ea"/><stop offset="0.3" stop-color="#ffefd8"/><stop offset="0.72" stop-color="#ffe5c4"/><stop offset="1" stop-color="#ffe1bd"/></radialGradient><radialGradient id="radial-gradient-2" cx="106.89" cy="20.95" r="20.95" gradientTransform="translate(110.62 -87.95) rotate(80.78)" gradientUnits="userSpaceOnUse"><stop offset="0.01" stop-color="#f2be34"/><stop offset="1" stop-color="#fff" stop-opacity="0"/></radialGradient><radialGradient id="radial-gradient-3" cx="103.67" cy="21.1" r="11.07" gradientTransform="translate(3.93 -0.51) scale(0.99 1)" gradientUnits="userSpaceOnUse"><stop offset="0.01" stop-color="#fff9ea"/><stop offset="1" stop-color="#fff" stop-opacity="0"/></radialGradient></defs><g class="cls-1"><g id="Layer_2" data-name="Layer 2"><g id="OBJECTS"><path class="cls-2" d="M106.66,27.89c2.29,0,5.53-2.35,5.74-8.18.24-6.56-5.43-12.31-5-15.53-1.9,1.7-6.91,9.09-6.84,15.05S103.59,27.85,106.66,27.89Z"/><path class="cls-3" d="M106.6,26.91c1.59,0,3.84-1.63,4-5.68.16-4.55-3.77-8.53-3.47-10.77-1.32,1.18-4.79,6.31-4.74,10.44S104.48,26.88,106.6,26.91Z"/><path class="cls-4" d="M133.31,113.42a6.2,6.2,0,0,1-2.5-.21,2.78,2.78,0,0,0-2.29.31c-1.18.64-2.37,1.26-3.56,1.85-.7.35-1.42.67-2.15.95a9.67,9.67,0,0,1-1.33.17,2.74,2.74,0,0,1-1.3-.11,2,2,0,0,1-.86-.71,3.15,3.15,0,0,1-.25-1.09,10.27,10.27,0,0,1,.07-2c.19-1.47.39-3,.59-4.46a80.2,80.2,0,0,1,4.11-16.92,141,141,0,0,1,7.57-16.77c.25-.49.49-1,.71-1.5,4.26-9.78,10.12-18.72,18.44-25.77,1.61-1.37,3.19-2.84,4.9-4.08.18-.13.38-.33.55-.16s0,.4,0,.62a53.34,53.34,0,0,0-.6,8.84c0,3.75.16,7.39,0,11-.11,2.46-1,10.17-1.07,10.5-.22,1-.45,2-.7,3s-.51,1.9-.76,2.85c0,.13-.12.32,0,.4s.23-.09.33-.17l.58-.48c1.62-1.32,3.26-2.66,4.92-4a81,81,0,0,1,16.15-9.82,18.75,18.75,0,0,1,9-1.67c.64,0,.68.1.55.86a54.55,54.55,0,0,1-4.63,14.56,51.81,51.81,0,0,1-16.63,19.64c-1.82,1.3-3.59,2.64-5.35,4a4.27,4.27,0,0,0,1.23-.34A116.53,116.53,0,0,1,187.58,97a51.72,51.72,0,0,1,15.09,1.1,21.87,21.87,0,0,1,4.87,1.5c1.31.68,1.25.48.25,2a34.2,34.2,0,0,1-7.51,7.89A74.49,74.49,0,0,1,178,121.51a81.31,81.31,0,0,1-15.16,3.33c-12.85,2.38-29-1.2-32-2.13a14.79,14.79,0,0,1-3.6-1.46,1.54,1.54,0,0,1-.68-2.34c.09-.18.09-.29,0-.38l.21-.25a7.62,7.62,0,0,1,1-.91.67.67,0,0,0,.24-.16l.29-.24c.13-.11.26-.21.38-.33.64-.49,1.31-.93,2-1.36.88-.55,1.78-1.08,2.68-1.62.08,0,.2-.08.17-.18S133.39,113.41,133.31,113.42Z"/><path class="cls-5" d="M135.48,69.92a37.85,37.85,0,0,0,.92-11.57,52.82,52.82,0,0,0-4.92-19.46c-.5-1-.51-1-1.36-.29-1.67,1.42-3.47,2.68-5.22,4A26.08,26.08,0,0,0,120.31,47,42.14,42.14,0,0,0,113.1,59.5a51.71,51.71,0,0,0-2.42,7.67c-1.25,6.67-2.92,14-3.39,20-.07,3.72-.05,7.44.17,11.15a87.92,87.92,0,0,0,1.63,13c.22,1.09.88,1.43,1.88,1a6.13,6.13,0,0,0,1.43-1c1.62-1.44,3.24-2.86,4.86-4.29l.19-.18.18-.16c.05,0,.05,0,0,0s0-.06,0,0l-.17.16-.19.18c0,.33-.27.53-.45.77-1.27,1.65-2.52,3.31-3.82,4.93-1,1.3-1.87,2.75-3,4-.23.27-.1.53,0,.77a.66.66,0,0,0,.86.3,12.28,12.28,0,0,1,2.58-.62c3.3-.47,6.57-1,9.83-1.72a75.39,75.39,0,0,0,21.35-8.16,81.1,81.1,0,0,0,16.85-12.24,70.58,70.58,0,0,0,7.61-8.69A62.4,62.4,0,0,0,177,73a48.09,48.09,0,0,0,2.56-9.1c.45-2.27.57-4.57.82-6.85.06-.5.13-1,.16-1.49s-.09-.51-.47-.25a34.67,34.67,0,0,1-5.71,2.87c-2.81,1.25-5.73,2.25-8.6,3.36a50.45,50.45,0,0,0-9.71,4.88c-1.69,1.12-3.39,2.23-5,3.39A70.3,70.3,0,0,0,138.6,81.36Q132.26,88.62,126,96a1.69,1.69,0,0,1-.58.58.17.17,0,0,1-.19.15.43.43,0,0,1-.13.34l-.17.18c-.07,0-.07.05,0,0s0,.07,0,0l.19-.17a.45.45,0,0,1,.14-.33c0-.09.07-.16.18-.16,0-.34.22-.56.37-.82C128.56,91.13,133.41,79,135.48,69.92Z"/><path class="cls-6" d="M147.42,70.78c0-1.2.8-9.55.24-13.27a31.32,31.32,0,0,0-.78-3.83c-.2-.72-.46-.85-1.13-.53a7.15,7.15,0,0,0-1,.68,53.8,53.8,0,0,0-10.63,10.84,91,91,0,0,0-13.19,23.66c-2.64,6.88-5.11,13.83-7.35,20.85-.62,1.93-1,3.91-1.75,5.81a.83.83,0,0,0,.15,1,.89.89,0,0,0,1,.13,2.85,2.85,0,0,0,1.14-.67,3.75,3.75,0,0,1,1.45-.91,12.49,12.49,0,0,0,1.92-1,103.44,103.44,0,0,0,13.29-10.11c5.22-4.7,8.95-10.46,12-16.71a50.57,50.57,0,0,0,4.62-15.12A8.16,8.16,0,0,0,147.42,70.78Z"/><path class="cls-7" d="M140.82,82.46a48.42,48.42,0,0,0,3.35-5.75,35.57,35.57,0,0,0,3.49-10.61,26.64,26.64,0,0,0,0-8.36,33,33,0,0,0-.61-3.27c-.06-.24-.12-.48-.19-.72s-.07-.23-.2-.23-.13.16-.13.26c0,.94-.07,1.88-.17,2.82a48.51,48.51,0,0,1-1,6.48c-1.56,6.43-3.77,12.58-7.61,18-.88,1.25-1.66,2.56-2.49,3.84a4.12,4.12,0,0,0-.34.66.64.64,0,0,0,.16.76.68.68,0,0,0,.84.11A11.67,11.67,0,0,0,140.82,82.46Z"/><path class="cls-8" d="M107.06,104.65a39,39,0,0,0,0,5.82c0,.3.06.6.1.9a1,1,0,0,1-.22,1,.47.47,0,0,0,.17.86,4.58,4.58,0,0,0,2.58.68A13.12,13.12,0,0,1,113,114a41.47,41.47,0,0,0,7.72-.3,64.81,64.81,0,0,0,14.14-3.34,47.78,47.78,0,0,0,20-13.29,49.37,49.37,0,0,0,5.14-6.74,34.65,34.65,0,0,0,5.3-14.75,37.1,37.1,0,0,0-.12-10c0-.13,0-.27-.08-.41-.07-.41-.29-.54-.71-.46a13.77,13.77,0,0,0-3.29,1.13,43.57,43.57,0,0,0-9.63,6.5c-4.33,3.81-8.37,7.93-12.43,12-2.62,2.64-5.26,5.26-8,7.79l-.37.34c-.06,0-.13.12-.2,0s0-.1,0-.15.14-.36.21-.54A38.14,38.14,0,0,0,133,75.52a50.52,50.52,0,0,0-3.22-14.82,83,83,0,0,0-5.7-11.64c-.28-.49-.33-.49-.69-.08a2.39,2.39,0,0,0-.21.26c-4.78,6.15-8.9,12.65-11.25,20.16a76.79,76.79,0,0,0-2.34,10c-1,5.63-1.59,11.31-2.14,17C107.21,99.15,107.19,101.9,107.06,104.65Z"/><path class="cls-9" d="M165.55,71a25.39,25.39,0,0,0-.29-5.23c0-.2.06-.52-.22-.56s-.33.27-.44.45a14.47,14.47,0,0,0-1.41,2.91c-.67,1.91-1.32,3.83-2,5.74a69.75,69.75,0,0,1-5.47,12.11,42.54,42.54,0,0,1-12,13.09,133.57,133.57,0,0,1-14.53,9.06,40,40,0,0,1-11.92,4.28,2.57,2.57,0,0,0-.72.2c-.37.19-.35.55,0,.78a1,1,0,0,0,.64.13c.56,0,9-.07,20.3-4.56a49,49,0,0,0,23.43-20.53,34.06,34.06,0,0,0,4.42-13.15A24,24,0,0,0,165.55,71Z"/><path class="cls-10" d="M79,114.9a6.18,6.18,0,0,0,2.42-.29,2.81,2.81,0,0,1,2.21.2c1.14.56,2.29,1.08,3.43,1.58.68.29,1.36.55,2.05.79a10.69,10.69,0,0,0,1.27.1,2.72,2.72,0,0,0,1.23-.15,2.11,2.11,0,0,0,.82-.69,2.93,2.93,0,0,0,.24-1,10.27,10.27,0,0,0-.07-1.84c-.18-1.35-.38-2.72-.56-4.12a74.62,74.62,0,0,0-4-16.06A141.9,141.9,0,0,0,80.25,76.7q-.39-.75-.75-1.53A78.39,78.39,0,0,0,59.17,47.26c-1.83-1.57-3.65-3.27-5.6-4.72-.21-.15-.44-.39-.62-.19s0,.46,0,.71a63.46,63.46,0,0,1,1.17,10c.24,4.16.23,8.17.6,12.1C55,67.82,56.36,76,56.45,76.36c.29,1.06.57,2.11.88,3.14s.63,2,.94,2.94c0,.14.14.33,0,.41s-.24-.09-.35-.17-.42-.32-.63-.48c-1.77-1.35-3.57-2.72-5.4-4.09A94.66,94.66,0,0,0,33.69,67.7a22,22,0,0,0-10.16-1.82c-.73,0-.77.11-.54.94a62.19,62.19,0,0,0,6.52,15.69,57.83,57.83,0,0,0,19.15,19.67c2,1.22,3.84,2.48,5.72,3.7a4.75,4.75,0,0,1-1.28-.29,132.2,132.2,0,0,0-30.51-4.78,60,60,0,0,0-16.37,1.57A23.8,23.8,0,0,0,1,104.06c-1.37.73-1.34.54,0,2a40.7,40.7,0,0,0,9.17,7.62,87.12,87.12,0,0,0,24.66,10.67,90.6,90.6,0,0,0,15.58,2.39c12.81,1.56,28.3-2.43,31.2-3.41a14.63,14.63,0,0,0,3.4-1.47c1-.63,1.13-1.18.63-2.16-.08-.16-.08-.26,0-.34a2.19,2.19,0,0,0-.2-.22,6.53,6.53,0,0,0-1-.8.78.78,0,0,1-.23-.13l-.27-.22c-.13-.09-.26-.18-.38-.28a22.09,22.09,0,0,0-1.93-1.18L79,115.12c-.07,0-.19-.06-.16-.16S79,114.89,79,114.9Z"/><path class="cls-11" d="M117.66,61.14c-.07,3.09-2.47,13.16-3,15.2a91.92,91.92,0,0,1-6.52,18,18.79,18.79,0,0,1-1.73,2.93,1.53,1.53,0,0,1-2.69.15A10.73,10.73,0,0,1,102,94.83a50.41,50.41,0,0,1-3.15-8,64.8,64.8,0,0,1-2.73-14c-.28-3.13-1-13.48-.94-15,.06-1.78,0-3.56.21-5.32a27.39,27.39,0,0,1,3-9.11,44.89,44.89,0,0,1,6-8.75c.47-.55.89-1.14,1.34-1.7.2-.25.38-.31.55,0a.3.3,0,0,0,0,.08c1.83,3.48,4.31,6.58,6.08,10.11a85.32,85.32,0,0,1,3.75,8.34A24.93,24.93,0,0,1,117.48,58,25.37,25.37,0,0,1,117.66,61.14Z"/><polygon class="cls-12" points="34.1 59.68 34.15 59.71 34.09 59.72 34.1 59.68"/><path class="cls-13" d="M76.29,69.92a38.17,38.17,0,0,1-.92-11.57A53,53,0,0,1,80.3,38.89c.49-1,.51-1,1.36-.29,1.67,1.42,3.47,2.68,5.22,4A26.79,26.79,0,0,1,91.47,47a42.11,42.11,0,0,1,7.2,12.47,51.75,51.75,0,0,1,2.43,7.67c1.24,6.67,2.91,14,3.39,20,.06,3.72,0,7.44-.17,11.15a90.67,90.67,0,0,1-1.63,13c-.23,1.09-.88,1.43-1.89,1a5.88,5.88,0,0,1-1.42-1c-1.62-1.44-3.25-2.86-4.87-4.29l-.19-.18-.17-.16c-.06,0-.06,0,0,0s0-.06,0,0l.17.16.2.18c0,.33.27.53.45.77,1.26,1.65,2.51,3.31,3.82,4.93,1,1.3,1.87,2.75,3,4,.22.27.1.53-.05.77a.66.66,0,0,1-.86.3,12,12,0,0,0-2.58-.62c-3.29-.47-6.57-1-9.82-1.72a75.56,75.56,0,0,1-21.36-8.16A81.36,81.36,0,0,1,50.24,95.09a70.5,70.5,0,0,1-7.6-8.69A62.4,62.4,0,0,1,34.78,73a48.09,48.09,0,0,1-2.56-9.1c-.46-2.27-.58-4.57-.83-6.85-.05-.5-.12-1-.15-1.49s.09-.51.47-.25a34.67,34.67,0,0,0,5.71,2.87c2.81,1.25,5.72,2.25,8.59,3.36a50.53,50.53,0,0,1,9.72,4.88c1.68,1.12,3.38,2.23,5,3.39a70.24,70.24,0,0,1,12.4,11.53Q79.53,88.62,85.76,96c.18.21.31.46.59.58a.16.16,0,0,0,.18.15.44.44,0,0,0,.14.34l.17.18c.06,0,.06.05,0,0s0,.07,0,0l-.19-.17c0-.12,0-.25-.13-.33s-.08-.16-.19-.16c0-.34-.22-.56-.37-.82C83.21,91.13,78.36,79,76.29,69.92Z"/><path class="cls-14" d="M64.36,70.78c0-1.2-.81-9.55-.25-13.27a33.32,33.32,0,0,1,.78-3.83c.2-.72.46-.85,1.14-.53a7.74,7.74,0,0,1,1,.68A53.48,53.48,0,0,1,77.69,64.67a91,91,0,0,1,13.2,23.66q4,10.32,7.35,20.85c.61,1.93,1,3.91,1.75,5.81a.85.85,0,0,1-.16,1,.88.88,0,0,1-1,.13,2.72,2.72,0,0,1-1.14-.67,3.79,3.79,0,0,0-1.46-.91,12.39,12.39,0,0,1-1.91-1A102.85,102.85,0,0,1,81,103.43,53.75,53.75,0,0,1,69,86.72,50.87,50.87,0,0,1,64.38,71.6,7.9,7.9,0,0,1,64.36,70.78Z"/><path class="cls-15" d="M71,82.46a48.42,48.42,0,0,1-3.35-5.75A35.29,35.29,0,0,1,64.12,66.1a26.05,26.05,0,0,1,0-8.36,30.31,30.31,0,0,1,.6-3.27c.06-.24.13-.48.2-.72s.07-.23.2-.23.12.16.12.26q0,1.41.18,2.82a48.49,48.49,0,0,0,1,6.48c1.57,6.43,3.78,12.58,7.62,18,.87,1.25,1.66,2.56,2.48,3.84a4.17,4.17,0,0,1,.35.66.66.66,0,0,1-.16.76.7.7,0,0,1-.85.11A11.67,11.67,0,0,1,71,82.46Z"/><path class="cls-16" d="M104.72,104.65a39,39,0,0,1,0,5.82c0,.3-.06.6-.11.9a1,1,0,0,0,.22,1,.47.47,0,0,1-.17.86,4.55,4.55,0,0,1-2.57.68,13.2,13.2,0,0,0-3.32.08,41.5,41.5,0,0,1-7.72-.3,64.59,64.59,0,0,1-14.13-3.34,47.75,47.75,0,0,1-20-13.29,50.19,50.19,0,0,1-5.14-6.74,34.77,34.77,0,0,1-5.29-14.75,37.51,37.51,0,0,1,.11-10c0-.13.06-.27.08-.41.07-.41.29-.54.71-.46a13.7,13.7,0,0,1,3.3,1.13,43.28,43.28,0,0,1,9.62,6.5c4.34,3.81,8.38,7.93,12.44,12,2.62,2.64,5.25,5.26,8,7.79l.36.34c.06,0,.14.12.21,0s0-.1,0-.15L81,91.78a38.14,38.14,0,0,1-2.26-16.26A50.52,50.52,0,0,1,82,60.7a82,82,0,0,1,5.7-11.64c.28-.49.32-.49.69-.08l.21.26c4.77,6.15,8.9,12.65,11.24,20.16a76.83,76.83,0,0,1,2.35,10c1,5.63,1.59,11.31,2.14,17C104.56,99.15,104.59,101.9,104.72,104.65Z"/><path class="cls-17" d="M109.26,68.28c7.65.11,15,.84,22.19,3.33A32.49,32.49,0,0,1,138,74.53a17.48,17.48,0,0,1,4.51,3.76,10,10,0,0,1,1.06,1.59,7,7,0,0,1,0,6.78,12.35,12.35,0,0,1-3.75,4.19,28.7,28.7,0,0,1-6.61,3.61,54.5,54.5,0,0,1-11.15,3.06,75.33,75.33,0,0,1-17,1.06,62.46,62.46,0,0,1-20.27-4,27.35,27.35,0,0,1-6.16-3.33,14,14,0,0,1-3.15-3.09,7.16,7.16,0,0,1-.55-.84,7,7,0,0,1,.1-7.58,12.35,12.35,0,0,1,2.87-3.2,27,27,0,0,1,7.66-4.27,58.38,58.38,0,0,1,12.65-3.19A101.83,101.83,0,0,1,109.26,68.28Z"/><path class="cls-18" d="M109.26,71c7.25.1,14.21.73,21,2.88a32.14,32.14,0,0,1,6.2,2.52,16.17,16.17,0,0,1,4.28,3.25,8.51,8.51,0,0,1,1,1.36,5.59,5.59,0,0,1,0,5.86,11.28,11.28,0,0,1-3.55,3.62A28.44,28.44,0,0,1,132,93.6a56.19,56.19,0,0,1-10.57,2.64,79.16,79.16,0,0,1-16.12.91,64.06,64.06,0,0,1-19.2-3.44,27.39,27.39,0,0,1-5.85-2.88,13.14,13.14,0,0,1-3-2.66c-.18-.23-.36-.48-.52-.73a5.63,5.63,0,0,1,.1-6.54,11.38,11.38,0,0,1,2.72-2.77,26.76,26.76,0,0,1,7.26-3.69,59,59,0,0,1,12-2.74A103.66,103.66,0,0,1,109.26,71Z"/><polygon class="cls-12" points="177.68 59.68 177.63 59.71 177.69 59.72 177.68 59.68"/><rect class="cls-19" x="100.17" y="29.72" width="13.36" height="63.78"/><ellipse class="cls-20" cx="106.86" cy="29.74" rx="6.71" ry="1.06"/><path class="cls-21" d="M107,26.92a5.81,5.81,0,0,0,0-3c-.08-.22-.44-.13-.36.1a6.21,6.21,0,0,1-.08,3.2,5.11,5.11,0,0,0,.13,3c.1.22.42,0,.33-.19A5.18,5.18,0,0,1,107,26.92Z"/><circle class="cls-22" cx="106.89" cy="20.95" r="20.95" transform="translate(69.09 123.11) rotate(-80.78)"/><ellipse class="cls-23" cx="106.71" cy="20.86" rx="10.98" ry="11.12"/><ellipse class="cls-23" cx="106.71" cy="20.86" rx="10.98" ry="11.12"/></g></g></g></svg>