<svg xmlns="http://www.w3.org/2000/svg" viewBox="0 0 72.54 42.36"><defs><style>.cls-1{fill:#f5881f;}.cls-2{fill:#f9a11b;}.cls-3{fill:#ffd200;}.cls-4{fill:#faa819;}.cls-5{fill:#ffea00;}.cls-6{fill:#f68e1e;}</style></defs><g id="Layer_2" data-name="Layer 2"><g id="OBJECTS"><path class="cls-1" d="M69.67,34.33c0,2-4.64,3.6-10.36,3.6s-10.37-1.61-10.37-3.6V31.67a76.86,76.86,0,0,1,10.37-1,71.88,71.88,0,0,1,10.36,1Z"/><path class="cls-1" d="M69.67,34.33c0,2-4.64,3.6-10.36,3.6s-10.37-1.61-10.37-3.6V31.67a76.86,76.86,0,0,1,10.37-1,71.88,71.88,0,0,1,10.36,1Z"/><path class="cls-2" d="M69.67,32.1c0,2-4.64,3.9-10.36,3.9s-10.37-1.91-10.37-3.9c0-.39,3.11.15,3.11.15a9.57,9.57,0,0,1,7.26-3.76c4.84,0,6.62,2.82,6.62,2.82S69.67,31.79,69.67,32.1Z"/><path class="cls-3" d="M69.67,31.67c0,2-4.64,3.61-10.36,3.61s-10.37-1.62-10.37-3.61,4.64-3.6,10.37-3.6S69.67,29.68,69.67,31.67Z"/><path class="cls-4" d="M59.31,29.09c-4.76,0-8.61,1.13-8.61,2.52,0,.65.84,1.25,2.22,1.7-1-.4-1.59-.9-1.59-1.44,0-1.33,3.62-2.4,8.08-2.4s8.08,1.07,8.08,2.4a1.32,1.32,0,0,1-.73,1c.73-.37,1.16-.81,1.16-1.27C67.92,30.22,64.06,29.09,59.31,29.09Z"/><polygon class="cls-2" points="59.2 35.88 59.14 37.76 59.08 35.88 59.2 35.88"/><polygon class="cls-2" points="62.01 35.69 61.96 37.57 61.9 35.69 62.01 35.69"/><polygon class="cls-2" points="64.78 35.21 64.72 37.1 64.67 35.21 64.78 35.21"/><polygon class="cls-2" points="67.29 34.33 67.24 36.22 67.18 34.33 67.29 34.33"/><polygon class="cls-2" points="68.94 33.31 68.88 35.19 68.83 33.31 68.94 33.31"/><polygon class="cls-2" points="56.24 35.69 56.19 37.57 56.13 35.69 56.24 35.69"/><polygon class="cls-2" points="53.57 35.06 53.51 36.95 53.46 35.06 53.57 35.06"/><polygon class="cls-2" points="51.61 34.45 51.55 36.44 51.5 34.45 51.61 34.45"/><polygon class="cls-2" points="49.62 33.11 49.56 35.06 49.5 33.11 49.62 33.11"/><path class="cls-5" d="M52,31.84c0-1.07,2.85-1.95,6.36-1.95S52,32.92,52,31.84Z"/><path class="cls-5" d="M66.85,29.33s3.51,1.69.85,3.57c-.75.52-2.86,1.54-2.86,1.54s3.25-.8,4.15-1.88C70.47,30.79,66.85,29.33,66.85,29.33Z"/><path class="cls-6" d="M65.27,32l-.8,0a1.06,1.06,0,0,1-.76.95,4.73,4.73,0,0,1-1.76.28h-.23l-.3-.67h.26l.5,0a4.17,4.17,0,0,0,.63-.08,1.19,1.19,0,0,0,.48-.21.46.46,0,0,0,.17-.36.53.53,0,0,0-.29-.47,1.82,1.82,0,0,0-.85-.21h-.47a3.24,3.24,0,0,0-.39.06,2.28,2.28,0,0,0-.35.11l-.31.14-.33.18L59,32.43a3,3,0,0,1-.91.34,3.71,3.71,0,0,1-.78.07H57a3.3,3.3,0,0,1-1.57-.42,1.18,1.18,0,0,1-.61-.94l-.79,0V31.2l.8.05a1,1,0,0,1,.66-.8,4.59,4.59,0,0,1,1.69-.24h.09l.3.64h-.26l-.44,0a3.28,3.28,0,0,0-.56.08.8.8,0,0,0-.39.2.39.39,0,0,0-.11.28.15.15,0,0,0,0,.06c0,.42.39.65,1.06.68H57a1.88,1.88,0,0,0,.5-.05,2.09,2.09,0,0,0,.6-.24l1.42-.83a4.75,4.75,0,0,1,1.21-.5,3.88,3.88,0,0,1,1.11-.14h.34a3.48,3.48,0,0,1,1.54.4,1.31,1.31,0,0,1,.69.85l.82,0Z"/><path class="cls-1" d="M72.54,30.77c0,2-4.64,3.6-10.36,3.6s-10.37-1.61-10.37-3.6V28.11a76.86,76.86,0,0,1,10.37-.95,71.88,71.88,0,0,1,10.36.95Z"/><path class="cls-1" d="M72.54,30.77c0,2-4.64,3.6-10.36,3.6s-10.37-1.61-10.37-3.6V28.11a76.86,76.86,0,0,1,10.37-.95,71.88,71.88,0,0,1,10.36.95Z"/><path class="cls-2" d="M72.54,28.54c0,2-4.64,3.9-10.36,3.9s-10.37-1.91-10.37-3.9c0-.39,3.11.15,3.11.15a9.57,9.57,0,0,1,7.26-3.76c4.84,0,6.62,2.82,6.62,2.82S72.54,28.23,72.54,28.54Z"/><path class="cls-3" d="M72.54,28.11c0,2-4.64,3.61-10.36,3.61S51.81,30.1,51.81,28.11s4.64-3.6,10.37-3.6S72.54,26.12,72.54,28.11Z"/><path class="cls-4" d="M62.18,25.53c-4.76,0-8.61,1.13-8.61,2.53,0,.65.84,1.24,2.22,1.69-1-.4-1.59-.9-1.59-1.43,0-1.33,3.62-2.41,8.08-2.41s8.08,1.08,8.08,2.41c0,.35-.26.69-.73,1,.73-.37,1.16-.8,1.16-1.26C70.79,26.66,66.93,25.53,62.18,25.53Z"/><polygon class="cls-2" points="62.07 32.32 62.01 34.2 61.95 32.32 62.07 32.32"/><polygon class="cls-2" points="64.88 32.13 64.83 34.01 64.77 32.13 64.88 32.13"/><polygon class="cls-2" points="67.65 31.66 67.59 33.54 67.54 31.66 67.65 31.66"/><polygon class="cls-2" points="70.16 30.77 70.11 32.66 70.05 30.77 70.16 30.77"/><polygon class="cls-2" points="71.81 29.75 71.75 31.63 71.7 29.75 71.81 29.75"/><polygon class="cls-2" points="59.11 32.13 59.05 34.01 59 32.13 59.11 32.13"/><polygon class="cls-2" points="56.44 31.5 56.38 33.39 56.33 31.5 56.44 31.5"/><polygon class="cls-2" points="54.48 30.89 54.42 32.88 54.37 30.89 54.48 30.89"/><polygon class="cls-2" points="52.49 29.55 52.43 31.5 52.37 29.55 52.49 29.55"/><path class="cls-5" d="M54.89,28.28c0-1.07,2.85-1.94,6.36-1.94S54.89,29.36,54.89,28.28Z"/><path class="cls-5" d="M69.72,25.77s3.51,1.69.85,3.57c-.75.52-2.86,1.54-2.86,1.54S71,30.08,71.86,29C73.34,27.23,69.72,25.77,69.72,25.77Z"/><path class="cls-6" d="M68.14,28.4l-.81,0a1,1,0,0,1-.75.95,4.53,4.53,0,0,1-1.76.28h-.23l-.31-.67h.77a6,6,0,0,0,.63-.09,1.07,1.07,0,0,0,.48-.21.45.45,0,0,0,.17-.36.54.54,0,0,0-.29-.47,1.82,1.82,0,0,0-.85-.21h-.47l-.39.05a2,2,0,0,0-.35.11l-.31.14-.33.18-1.43.83a2.76,2.76,0,0,1-.92.34,3.55,3.55,0,0,1-.77.07h-.39a3.3,3.3,0,0,1-1.57-.42,1.18,1.18,0,0,1-.61-.93l-.79-.05v-.23l.8.05a1,1,0,0,1,.66-.8A4.59,4.59,0,0,1,60,26.65h.09l.3.64h-.7a3.28,3.28,0,0,0-.56.08.8.8,0,0,0-.39.2.41.41,0,0,0-.11.28.13.13,0,0,0,0,.06c0,.42.39.65,1.06.69h.2a2.53,2.53,0,0,0,.5,0,2.89,2.89,0,0,0,.6-.24l1.42-.84a4.75,4.75,0,0,1,1.21-.5,4.27,4.27,0,0,1,1.11-.14h.34a3.48,3.48,0,0,1,1.54.4,1.31,1.31,0,0,1,.69.85l.82.06Z"/><path class="cls-1" d="M70.89,26.29c0,2-4.64,3.6-10.37,3.6s-10.36-1.61-10.36-3.6V23.63a76.62,76.62,0,0,1,10.36-.95,71.92,71.92,0,0,1,10.37.95Z"/><path class="cls-1" d="M70.89,26.29c0,2-4.64,3.6-10.37,3.6s-10.36-1.61-10.36-3.6V23.63a76.62,76.62,0,0,1,10.36-.95,71.92,71.92,0,0,1,10.37.95Z"/><path class="cls-2" d="M70.89,24.06c0,2-4.64,3.9-10.37,3.9s-10.36-1.91-10.36-3.9c0-.39,3.1.15,3.1.15a9.57,9.57,0,0,1,7.26-3.76c4.85,0,6.62,2.82,6.62,2.82S70.89,23.75,70.89,24.06Z"/><path class="cls-3" d="M70.89,23.63c0,2-4.64,3.61-10.37,3.61s-10.36-1.62-10.36-3.61S54.8,20,60.52,20,70.89,21.64,70.89,23.63Z"/><path class="cls-4" d="M60.52,21.05c-4.75,0-8.61,1.13-8.61,2.52,0,.66.84,1.25,2.22,1.7-1-.4-1.58-.9-1.58-1.44,0-1.32,3.62-2.4,8.08-2.4s8.08,1.08,8.08,2.4c0,.36-.27.7-.74,1,.74-.37,1.16-.8,1.16-1.27C69.13,22.18,65.28,21.05,60.52,21.05Z"/><polygon class="cls-2" points="60.41 27.84 60.36 29.72 60.3 27.84 60.41 27.84"/><polygon class="cls-2" points="63.23 27.65 63.17 29.53 63.12 27.65 63.23 27.65"/><polygon class="cls-2" points="66 27.17 65.94 29.06 65.88 27.17 66 27.17"/><polygon class="cls-2" points="68.51 26.3 68.45 28.18 68.4 26.3 68.51 26.3"/><polygon class="cls-2" points="70.15 25.27 70.1 27.15 70.04 25.27 70.15 25.27"/><polygon class="cls-2" points="57.46 27.65 57.4 29.53 57.34 27.65 57.46 27.65"/><polygon class="cls-2" points="54.78 27.02 54.73 28.91 54.67 27.02 54.78 27.02"/><polygon class="cls-2" points="52.82 26.41 52.77 28.4 52.71 26.41 52.82 26.41"/><polygon class="cls-2" points="50.83 25.07 50.77 27.02 50.72 25.07 50.83 25.07"/><path class="cls-5" d="M53.24,23.8c0-1.07,2.85-1.95,6.36-1.95S53.24,24.88,53.24,23.8Z"/><path class="cls-5" d="M68.07,21.29s3.5,1.69.84,3.57c-.75.52-2.85,1.54-2.85,1.54s3.25-.8,4.15-1.88C71.68,22.75,68.07,21.29,68.07,21.29Z"/><path class="cls-6" d="M66.49,23.92l-.81-.05a1.05,1.05,0,0,1-.75.95,4.59,4.59,0,0,1-1.77.28h-.22l-.31-.67h.76a6.17,6.17,0,0,0,.64-.09,1.34,1.34,0,0,0,.48-.21.44.44,0,0,0,.16-.36.52.52,0,0,0-.28-.47,1.86,1.86,0,0,0-.86-.21h-.46l-.39.06a1.75,1.75,0,0,0-.35.11l-.31.14-.33.18-1.43.83a3.1,3.1,0,0,1-.92.34,3.55,3.55,0,0,1-.77.07h-.4a3.29,3.29,0,0,1-1.56-.42,1.18,1.18,0,0,1-.61-.93l-.8-.05v-.23l.8.05a1,1,0,0,1,.66-.8,4.65,4.65,0,0,1,1.7-.24h.09l.29.64h-.25l-.44,0a3.15,3.15,0,0,0-.56.08.72.72,0,0,0-.39.2.36.36,0,0,0-.11.28v.06c0,.42.4.65,1.06.69h.21a1.8,1.8,0,0,0,.49-.05,2.09,2.09,0,0,0,.6-.24L60.78,23a4.69,4.69,0,0,1,1.2-.5,4.35,4.35,0,0,1,1.12-.14h.33a3.52,3.52,0,0,1,1.55.4,1.26,1.26,0,0,1,.68.85l.83.06Z"/><path class="cls-1" d="M64.32,17c1.38,1.43-.84,5.81-5,9.78s-8.59,6-10,4.59l-1.84-1.91a77.5,77.5,0,0,1,6.81-7.87,72.14,72.14,0,0,1,8.13-6.51S64.11,16.8,64.32,17Z"/><path class="cls-1" d="M64.32,17c1.38,1.43-.84,5.81-5,9.78s-8.59,6-10,4.59l-1.84-1.91a77.5,77.5,0,0,1,6.81-7.87,72.14,72.14,0,0,1,8.13-6.51S64.11,16.8,64.32,17Z"/><path class="cls-2" d="M62.78,15.42c1.38,1.43-.64,6-4.77,10s-8.79,5.81-10.17,4.37c-.27-.28,2.34-2,2.34-2A9.56,9.56,0,0,1,52.81,20c3.49-3.36,6.72-2.57,6.72-2.57S62.56,15.2,62.78,15.42Z"/><path class="cls-3" d="M62.48,15.11c1.38,1.44-.84,5.82-5,9.79s-8.59,6-10,4.59.84-5.82,5-9.79S61.1,13.68,62.48,15.11Z"/><path class="cls-4" d="M53.22,20.44c-3.43,3.3-5.42,6.78-4.45,7.79.45.47,1.46.31,2.77-.32-1,.4-1.76.45-2.13.06-.93-.95.93-4.24,4.15-7.33s6.57-4.83,7.49-3.87A1.32,1.32,0,0,1,61.22,18c.27-.78.27-1.38,0-1.71C60.21,15.28,56.65,17.14,53.22,20.44Z"/><polygon class="cls-2" points="57.85 25.41 59.11 26.8 57.77 25.48 57.85 25.41"/><polygon class="cls-2" points="59.74 23.32 61.01 24.71 59.66 23.39 59.74 23.32"/><polygon class="cls-2" points="61.41 21.06 62.68 22.45 61.33 21.13 61.41 21.06"/><polygon class="cls-2" points="62.61 18.68 63.88 20.08 62.53 18.76 62.61 18.68"/><polygon class="cls-2" points="63.08 16.8 64.35 18.2 63 16.88 63.08 16.8"/><polygon class="cls-2" points="55.59 27.32 56.85 28.71 55.51 27.4 55.59 27.32"/><polygon class="cls-2" points="53.23 28.72 54.49 30.12 53.15 28.8 53.23 28.72"/><polygon class="cls-2" points="51.39 29.64 52.73 31.11 51.31 29.72 51.39 29.64"/><polygon class="cls-2" points="49.02 30.05 50.34 31.5 48.95 30.13 49.02 30.05"/><path class="cls-5" d="M49.88,27.47c-.74-.77.7-3.38,3.23-5.81S50.63,28.25,49.88,27.47Z"/><path class="cls-5" d="M58.82,15.38s3.7-1.21,3.08,2a30.9,30.9,0,0,1-1,3.08s1.78-2.83,1.68-4.22C62.44,13.92,58.82,15.38,58.82,15.38Z"/><path class="cls-6" d="M59.51,18.37l-.62.52A1.05,1.05,0,0,1,59,20.1a4.64,4.64,0,0,1-1.08,1.42c0,.05-.11.1-.16.16l-.69-.28.19-.18c.13-.12.24-.24.34-.35a3.56,3.56,0,0,0,.4-.51,1,1,0,0,0,.2-.48.42.42,0,0,0-.12-.37.52.52,0,0,0-.54-.14,1.85,1.85,0,0,0-.76.44l-.16.14-.17.18a3.83,3.83,0,0,0-.24.31,1.92,1.92,0,0,0-.18.32,3.09,3.09,0,0,0-.13.32c0,.09-.07.21-.11.36L55.34,23a2.86,2.86,0,0,1-.42.88,3.75,3.75,0,0,1-.51.59l-.29.26a3.17,3.17,0,0,1-1.42.78,1.15,1.15,0,0,1-1.08-.25l-.61.52-.16-.16.61-.53a1,1,0,0,1-.08-1,4.7,4.7,0,0,1,1-1.34l.07-.07.66.26-.19.17-.31.32a3.64,3.64,0,0,0-.35.45.84.84,0,0,0-.14.41.39.39,0,0,0,.12.28s0,0,0,0c.33.27.74.19,1.24-.24l.16-.14a2.58,2.58,0,0,0,.32-.38,2.49,2.49,0,0,0,.26-.59l.45-1.59A4.42,4.42,0,0,1,56,19.6l.25-.22a3.59,3.59,0,0,1,1.39-.78,1.29,1.29,0,0,1,1.09.13l.63-.53Z"/><path class="cls-1" d="M39.8,33.3c0,2-4.64,3.61-10.37,3.61S19.07,35.29,19.07,33.3V30.65a76.62,76.62,0,0,1,10.36-.95,71.92,71.92,0,0,1,10.37.95Z"/><path class="cls-1" d="M39.8,33.3c0,2-4.64,3.61-10.37,3.61S19.07,35.29,19.07,33.3V30.65a76.62,76.62,0,0,1,10.36-.95,71.92,71.92,0,0,1,10.37.95Z"/><path class="cls-2" d="M39.8,31.07c0,2-4.64,3.91-10.37,3.91s-10.36-1.92-10.36-3.91c0-.39,3.1.15,3.1.15a9.58,9.58,0,0,1,7.26-3.75c4.85,0,6.62,2.81,6.62,2.81S39.8,30.77,39.8,31.07Z"/><path class="cls-3" d="M39.8,30.65c0,2-4.64,3.6-10.37,3.6s-10.36-1.61-10.36-3.6S23.71,27,29.43,27,39.8,28.66,39.8,30.65Z"/><path class="cls-4" d="M29.43,28.07c-4.75,0-8.61,1.13-8.61,2.52,0,.65.84,1.24,2.22,1.69-1-.4-1.58-.89-1.58-1.43,0-1.33,3.62-2.41,8.08-2.41s8.08,1.08,8.08,2.41c0,.36-.27.7-.74,1,.74-.37,1.16-.8,1.16-1.26C38,29.2,34.19,28.07,29.43,28.07Z"/><polygon class="cls-2" points="29.32 34.85 29.27 36.74 29.21 34.85 29.32 34.85"/><polygon class="cls-2" points="32.14 34.66 32.08 36.55 32.02 34.66 32.14 34.66"/><polygon class="cls-2" points="34.91 34.19 34.85 36.07 34.79 34.19 34.91 34.19"/><polygon class="cls-2" points="37.42 33.31 37.36 35.19 37.31 33.31 37.42 33.31"/><polygon class="cls-2" points="39.06 32.28 39.01 34.17 38.95 32.28 39.06 32.28"/><polygon class="cls-2" points="26.37 34.66 26.31 36.55 26.25 34.66 26.37 34.66"/><polygon class="cls-2" points="23.69 34.04 23.64 35.92 23.58 34.04 23.69 34.04"/><polygon class="cls-2" points="21.73 33.43 21.68 35.42 21.62 33.43 21.73 33.43"/><polygon class="cls-2" points="19.74 32.09 19.68 34.04 19.63 32.09 19.74 32.09"/><path class="cls-5" d="M22.15,30.82c0-1.08,2.85-1.95,6.36-1.95S22.15,31.9,22.15,30.82Z"/><path class="cls-5" d="M37,28.31s3.5,1.69.84,3.56A30.48,30.48,0,0,1,35,33.41s3.25-.8,4.14-1.87C40.59,29.76,37,28.31,37,28.31Z"/><path class="cls-6" d="M35.4,30.93l-.81-.05a1.06,1.06,0,0,1-.76,1,4.75,4.75,0,0,1-1.76.27h-.22l-.31-.68h.26l.5,0a3.29,3.29,0,0,0,.64-.09,1,1,0,0,0,.47-.21.41.41,0,0,0,.17-.35.53.53,0,0,0-.29-.48,1.93,1.93,0,0,0-.85-.2H32l-.38.05a1.82,1.82,0,0,0-.35.12,2.52,2.52,0,0,0-.32.14l-.32.17-1.43.83a3.12,3.12,0,0,1-.92.35,3.61,3.61,0,0,1-.77.07h-.4a3.17,3.17,0,0,1-1.56-.43,1.18,1.18,0,0,1-.61-.93l-.8,0v-.23l.8,0a1,1,0,0,1,.66-.8,4.65,4.65,0,0,1,1.7-.24h.09l.3.64H27a3.12,3.12,0,0,0-.56.09.71.71,0,0,0-.39.19.37.37,0,0,0-.11.28v.06c.05.42.4.65,1.06.69h.21a2.31,2.31,0,0,0,.49,0,2.42,2.42,0,0,0,.6-.24L29.69,30a4.69,4.69,0,0,1,1.2-.5A4.36,4.36,0,0,1,32,29.39h.33a3.67,3.67,0,0,1,1.55.39,1.28,1.28,0,0,1,.68.86l.83.05Z"/><path class="cls-1" d="M42.67,29.75c0,2-4.64,3.6-10.37,3.6s-10.37-1.61-10.37-3.6V27.09a76.86,76.86,0,0,1,10.37-.95,71.92,71.92,0,0,1,10.37.95Z"/><path class="cls-1" d="M42.67,29.75c0,2-4.64,3.6-10.37,3.6s-10.37-1.61-10.37-3.6V27.09a76.86,76.86,0,0,1,10.37-.95,71.92,71.92,0,0,1,10.37.95Z"/><path class="cls-2" d="M42.67,27.52c0,2-4.64,3.9-10.37,3.9s-10.37-1.91-10.37-3.9c0-.4,3.11.15,3.11.15a9.57,9.57,0,0,1,7.26-3.76c4.85,0,6.62,2.81,6.62,2.81S42.67,27.21,42.67,27.52Z"/><path class="cls-3" d="M42.67,27.09c0,2-4.64,3.6-10.37,3.6s-10.37-1.61-10.37-3.6,4.65-3.61,10.37-3.61S42.67,25.1,42.67,27.09Z"/><path class="cls-4" d="M32.3,24.51c-4.75,0-8.61,1.13-8.61,2.52,0,.65.84,1.25,2.22,1.69-1-.4-1.58-.89-1.58-1.43,0-1.33,3.62-2.41,8.08-2.41s8.08,1.08,8.08,2.41c0,.36-.27.7-.74,1,.74-.37,1.16-.81,1.16-1.27C40.91,25.64,37.06,24.51,32.3,24.51Z"/><polygon class="cls-2" points="32.19 31.3 32.13 33.18 32.08 31.3 32.19 31.3"/><polygon class="cls-2" points="35.01 31.11 34.95 32.99 34.9 31.11 35.01 31.11"/><polygon class="cls-2" points="37.77 30.63 37.72 32.52 37.66 30.63 37.77 30.63"/><polygon class="cls-2" points="40.29 29.75 40.23 31.64 40.18 29.75 40.29 29.75"/><polygon class="cls-2" points="41.93 28.72 41.88 30.61 41.82 28.72 41.93 28.72"/><polygon class="cls-2" points="29.24 31.11 29.18 32.99 29.12 31.11 29.24 31.11"/><polygon class="cls-2" points="26.56 30.48 26.51 32.36 26.45 30.48 26.56 30.48"/><polygon class="cls-2" points="24.6 29.87 24.55 31.86 24.49 29.87 24.6 29.87"/><polygon class="cls-2" points="22.61 28.53 22.55 30.48 22.5 28.53 22.61 28.53"/><path class="cls-5" d="M25,27.26c0-1.08,2.85-2,6.36-2S25,28.34,25,27.26Z"/><path class="cls-5" d="M39.85,24.75s3.5,1.69.84,3.56a31.27,31.27,0,0,1-2.85,1.55S41.09,29.05,42,28C43.46,26.2,39.85,24.75,39.85,24.75Z"/><path class="cls-6" d="M38.27,27.37l-.81-.05a1.06,1.06,0,0,1-.76,1,4.75,4.75,0,0,1-1.76.27h-.22l-.31-.67h.26l.5,0a4.48,4.48,0,0,0,.64-.08,1.21,1.21,0,0,0,.47-.21.44.44,0,0,0,.17-.36.53.53,0,0,0-.29-.48,1.93,1.93,0,0,0-.85-.2h-.47l-.38,0-.35.12-.32.14-.32.17L32,27.85a3.1,3.1,0,0,1-.92.34,3.61,3.61,0,0,1-.77.07H30a3.29,3.29,0,0,1-1.56-.42,1.17,1.17,0,0,1-.61-.94l-.8,0v-.23l.8,0a1,1,0,0,1,.66-.8,4.65,4.65,0,0,1,1.7-.24h.09l.29.64h-.69a4.37,4.37,0,0,0-.56.09.71.71,0,0,0-.39.19.37.37,0,0,0-.11.28v.07c.05.42.4.64,1.06.68H30a2.31,2.31,0,0,0,.49-.05,2.09,2.09,0,0,0,.6-.24l1.43-.84a5.07,5.07,0,0,1,1.2-.5,4.36,4.36,0,0,1,1.12-.13h.33a3.52,3.52,0,0,1,1.55.4,1.24,1.24,0,0,1,.68.85l.83.05Z"/><path class="cls-1" d="M41,25.27c0,2-4.64,3.6-10.36,3.6s-10.37-1.61-10.37-3.6V22.61a76.86,76.86,0,0,1,10.37-.95A71.88,71.88,0,0,1,41,22.61Z"/><path class="cls-1" d="M41,25.27c0,2-4.64,3.6-10.36,3.6s-10.37-1.61-10.37-3.6V22.61a76.86,76.86,0,0,1,10.37-.95A71.88,71.88,0,0,1,41,22.61Z"/><path class="cls-2" d="M41,23c0,2-4.64,3.91-10.36,3.91S20.28,25,20.28,23c0-.39,3.11.16,3.11.16a9.57,9.57,0,0,1,7.26-3.76c4.84,0,6.62,2.81,6.62,2.81S41,22.73,41,23Z"/><path class="cls-3" d="M41,22.61c0,2-4.64,3.6-10.36,3.6s-10.37-1.61-10.37-3.6S24.92,19,30.65,19,41,20.62,41,22.61Z"/><path class="cls-4" d="M30.65,20C25.89,20,22,21.16,22,22.55c0,.65.84,1.25,2.22,1.69-1-.4-1.59-.89-1.59-1.43,0-1.33,3.62-2.41,8.08-2.41s8.08,1.08,8.08,2.41a1.32,1.32,0,0,1-.73,1c.73-.38,1.16-.81,1.16-1.27C39.26,21.16,35.4,20,30.65,20Z"/><polygon class="cls-2" points="30.54 26.81 30.48 28.7 30.42 26.81 30.54 26.81"/><polygon class="cls-2" points="33.35 26.63 33.3 28.51 33.24 26.63 33.35 26.63"/><polygon class="cls-2" points="36.12 26.15 36.06 28.04 36.01 26.15 36.12 26.15"/><polygon class="cls-2" points="38.63 25.27 38.58 27.16 38.52 25.27 38.63 25.27"/><polygon class="cls-2" points="40.28 24.24 40.22 26.13 40.17 24.24 40.28 24.24"/><polygon class="cls-2" points="27.58 26.63 27.53 28.51 27.47 26.63 27.58 26.63"/><polygon class="cls-2" points="24.91 26 24.85 27.88 24.8 26 24.91 26"/><polygon class="cls-2" points="22.95 25.39 22.89 27.38 22.84 25.39 22.95 25.39"/><polygon class="cls-2" points="20.96 24.05 20.9 26 20.84 24.05 20.96 24.05"/><path class="cls-5" d="M23.37,22.78c0-1.08,2.84-2,6.36-2S23.37,23.86,23.37,22.78Z"/><path class="cls-5" d="M38.19,20.27S41.7,22,39,23.83a31.06,31.06,0,0,1-2.86,1.55s3.25-.81,4.15-1.88C41.81,21.72,38.19,20.27,38.19,20.27Z"/><path class="cls-6" d="M36.61,22.89l-.8-.05a1.06,1.06,0,0,1-.76,1,4.75,4.75,0,0,1-1.76.27h-.23l-.3-.68H33l.5,0a3.19,3.19,0,0,0,.63-.09,1.07,1.07,0,0,0,.48-.2.48.48,0,0,0,.17-.36.55.55,0,0,0-.29-.48,2,2,0,0,0-.85-.2h-.47a2,2,0,0,0-.39.06,2.28,2.28,0,0,0-.35.11l-.31.14-.33.17-1.43.84a3,3,0,0,1-.91.34,3.71,3.71,0,0,1-.78.07H28.3a3.3,3.3,0,0,1-1.57-.42,1.21,1.21,0,0,1-.61-.94l-.79,0v-.23l.8,0a1,1,0,0,1,.66-.8,4.59,4.59,0,0,1,1.69-.24h.09l.3.64h-.7a4.68,4.68,0,0,0-.56.09.79.79,0,0,0-.39.19.41.41,0,0,0-.11.28s0,0,0,.07c0,.41.39.64,1.06.68h.2a2.49,2.49,0,0,0,.5-.05,2.09,2.09,0,0,0,.6-.24L30.9,22a5.14,5.14,0,0,1,1.21-.5,4.28,4.28,0,0,1,1.11-.13h.34a3.48,3.48,0,0,1,1.54.4,1.29,1.29,0,0,1,.69.85l.82.05Z"/><path class="cls-1" d="M43.88,21.71c0,2-4.64,3.6-10.36,3.6s-10.37-1.61-10.37-3.6V19.05a76.86,76.86,0,0,1,10.37-.95,71.88,71.88,0,0,1,10.36.95Z"/><path class="cls-1" d="M43.88,21.71c0,2-4.64,3.6-10.36,3.6s-10.37-1.61-10.37-3.6V19.05a76.86,76.86,0,0,1,10.37-.95,71.88,71.88,0,0,1,10.36.95Z"/><path class="cls-2" d="M43.88,19.48c0,2-4.64,3.9-10.36,3.9s-10.37-1.91-10.37-3.9c0-.39,3.11.15,3.11.15a9.57,9.57,0,0,1,7.26-3.76c4.84,0,6.62,2.82,6.62,2.82S43.88,19.17,43.88,19.48Z"/><path class="cls-3" d="M43.88,19.05c0,2-4.64,3.6-10.36,3.6S23.15,21,23.15,19.05s4.64-3.61,10.37-3.61S43.88,17.06,43.88,19.05Z"/><path class="cls-4" d="M33.52,16.47c-4.76,0-8.61,1.13-8.61,2.52,0,.65.84,1.25,2.22,1.69-1-.4-1.59-.89-1.59-1.43,0-1.33,3.62-2.4,8.08-2.4s8.08,1.07,8.08,2.4a1.32,1.32,0,0,1-.73,1c.73-.37,1.16-.81,1.16-1.27C42.13,17.6,38.27,16.47,33.52,16.47Z"/><polygon class="cls-2" points="33.41 23.26 33.35 25.14 33.29 23.26 33.41 23.26"/><polygon class="cls-2" points="36.22 23.07 36.17 24.95 36.11 23.07 36.22 23.07"/><polygon class="cls-2" points="38.99 22.59 38.93 24.48 38.88 22.59 38.99 22.59"/><polygon class="cls-2" points="41.5 21.71 41.45 23.6 41.39 21.71 41.5 21.71"/><polygon class="cls-2" points="43.15 20.68 43.09 22.57 43.04 20.68 43.15 20.68"/><polygon class="cls-2" points="30.45 23.07 30.39 24.95 30.34 23.07 30.45 23.07"/><polygon class="cls-2" points="27.78 22.44 27.72 24.32 27.67 22.44 27.78 22.44"/><polygon class="cls-2" points="25.82 21.83 25.76 23.82 25.71 21.83 25.82 21.83"/><polygon class="cls-2" points="23.83 20.49 23.77 22.44 23.71 20.49 23.83 20.49"/><path class="cls-5" d="M26.23,19.22c0-1.07,2.85-1.95,6.36-1.95S26.23,20.3,26.23,19.22Z"/><path class="cls-5" d="M41.06,16.71s3.51,1.69.85,3.57c-.75.52-2.86,1.54-2.86,1.54S42.3,21,43.2,19.94C44.68,18.17,41.06,16.71,41.06,16.71Z"/><path class="cls-6" d="M39.48,19.33l-.8,0a1.06,1.06,0,0,1-.76.95,4.75,4.75,0,0,1-1.76.27h-.23l-.3-.67h.26l.5,0a4.17,4.17,0,0,0,.63-.08,1.19,1.19,0,0,0,.48-.21.46.46,0,0,0,.17-.36.53.53,0,0,0-.29-.47,1.82,1.82,0,0,0-.85-.21h-.47a3.24,3.24,0,0,0-.39.06,2.28,2.28,0,0,0-.35.11L35,18.8l-.33.18-1.43.83a3,3,0,0,1-.91.34,3.71,3.71,0,0,1-.78.07h-.39a3.3,3.3,0,0,1-1.57-.42,1.18,1.18,0,0,1-.61-.94l-.79,0v-.23l.8,0a1,1,0,0,1,.66-.8,4.59,4.59,0,0,1,1.69-.24h.09l.3.65h-.26l-.44,0a3.28,3.28,0,0,0-.56.08.8.8,0,0,0-.39.2.39.39,0,0,0-.11.27s0,.05,0,.07c0,.42.39.65,1.06.68h.2a1.93,1.93,0,0,0,.5-.05,2.09,2.09,0,0,0,.6-.24l1.42-.84a5.14,5.14,0,0,1,1.21-.5,4.28,4.28,0,0,1,1.11-.13h.34a3.48,3.48,0,0,1,1.54.4,1.31,1.31,0,0,1,.69.85l.82.05Z"/><path class="cls-1" d="M42.16,17.86c0,2-4.64,3.6-10.36,3.6s-10.37-1.61-10.37-3.6V15.2a76.86,76.86,0,0,1,10.37-.95,71.88,71.88,0,0,1,10.36.95Z"/><path class="cls-1" d="M42.16,17.86c0,2-4.64,3.6-10.36,3.6s-10.37-1.61-10.37-3.6V15.2a76.86,76.86,0,0,1,10.37-.95,71.88,71.88,0,0,1,10.36.95Z"/><path class="cls-2" d="M42.16,15.63c0,2-4.64,3.91-10.36,3.91s-10.37-1.92-10.37-3.91c0-.39,3.11.15,3.11.15A9.57,9.57,0,0,1,31.8,12c4.84,0,6.62,2.82,6.62,2.82S42.16,15.32,42.16,15.63Z"/><path class="cls-3" d="M42.16,15.2c0,2-4.64,3.61-10.36,3.61S21.43,17.19,21.43,15.2s4.64-3.6,10.37-3.6S42.16,13.21,42.16,15.2Z"/><path class="cls-4" d="M31.8,12.62c-4.76,0-8.61,1.13-8.61,2.53,0,.65.84,1.24,2.22,1.69-1-.4-1.59-.9-1.59-1.43,0-1.34,3.62-2.41,8.08-2.41S40,14.07,40,15.41a1.3,1.3,0,0,1-.73,1c.73-.37,1.16-.8,1.16-1.26C40.41,13.75,36.55,12.62,31.8,12.62Z"/><polygon class="cls-2" points="31.69 19.41 31.63 21.29 31.57 19.41 31.69 19.41"/><polygon class="cls-2" points="34.5 19.22 34.45 21.1 34.39 19.22 34.5 19.22"/><polygon class="cls-2" points="37.27 18.74 37.22 20.63 37.16 18.74 37.27 18.74"/><polygon class="cls-2" points="39.78 17.86 39.73 19.75 39.67 17.86 39.78 17.86"/><polygon class="cls-2" points="41.43 16.84 41.37 18.72 41.32 16.84 41.43 16.84"/><polygon class="cls-2" points="28.73 19.22 28.68 21.1 28.62 19.22 28.73 19.22"/><polygon class="cls-2" points="26.06 18.59 26 20.48 25.95 18.59 26.06 18.59"/><polygon class="cls-2" points="24.1 17.98 24.04 19.97 23.99 17.98 24.1 17.98"/><polygon class="cls-2" points="22.11 16.64 22.05 18.59 22 16.64 22.11 16.64"/><path class="cls-5" d="M24.52,15.38c0-1.08,2.84-2,6.35-2S24.52,16.45,24.52,15.38Z"/><path class="cls-5" d="M39.34,12.86s3.51,1.69.85,3.57A30.28,30.28,0,0,1,37.33,18s3.25-.8,4.15-1.88C43,14.32,39.34,12.86,39.34,12.86Z"/><path class="cls-6" d="M37.76,15.49l-.8-.05a1,1,0,0,1-.76,1,4.53,4.53,0,0,1-1.76.28h-.23l-.3-.67h.76a6,6,0,0,0,.63-.09,1.19,1.19,0,0,0,.48-.21.44.44,0,0,0,.17-.35.54.54,0,0,0-.29-.48,1.82,1.82,0,0,0-.85-.21h-.47l-.39,0a2.28,2.28,0,0,0-.35.11l-.31.14-.33.18L31.53,16a3.36,3.36,0,0,1-.91.35,4.58,4.58,0,0,1-.78.06h-.39a3.3,3.3,0,0,1-1.57-.42,1.18,1.18,0,0,1-.61-.93l-.79,0v-.23l.8,0a1,1,0,0,1,.66-.8,4.59,4.59,0,0,1,1.69-.24h.09l.3.64h-.7a3.28,3.28,0,0,0-.56.08.8.8,0,0,0-.39.2.39.39,0,0,0-.11.28s0,0,0,.06c0,.42.39.65,1.06.69h.2a1.88,1.88,0,0,0,.5,0,2.09,2.09,0,0,0,.6-.24l1.42-.83a4.75,4.75,0,0,1,1.21-.5,4.27,4.27,0,0,1,1.11-.14h.34a3.48,3.48,0,0,1,1.54.4,1.31,1.31,0,0,1,.69.85l.82.06Z"/><path class="cls-1" d="M45,14.3c0,2-4.64,3.61-10.36,3.61S24.3,16.29,24.3,14.3V11.64a77.65,77.65,0,0,1,10.37-.94A72.62,72.62,0,0,1,45,11.64Z"/><path class="cls-1" d="M45,14.3c0,2-4.64,3.61-10.36,3.61S24.3,16.29,24.3,14.3V11.64a77.65,77.65,0,0,1,10.37-.94A72.62,72.62,0,0,1,45,11.64Z"/><path class="cls-2" d="M45,12.07c0,2-4.64,3.91-10.36,3.91S24.3,14.06,24.3,12.07c0-.39,3.11.15,3.11.15a9.58,9.58,0,0,1,7.26-3.75c4.84,0,6.62,2.81,6.62,2.81S45,11.76,45,12.07Z"/><path class="cls-3" d="M45,11.64c0,2-4.64,3.61-10.36,3.61S24.3,13.64,24.3,11.64,28.94,8,34.67,8,45,9.65,45,11.64Z"/><path class="cls-4" d="M34.67,9.06c-4.76,0-8.61,1.13-8.61,2.53,0,.65.84,1.24,2.22,1.69-1-.4-1.59-.9-1.59-1.43,0-1.33,3.62-2.41,8.08-2.41s8.08,1.08,8.08,2.41a1.29,1.29,0,0,1-.73,1c.73-.37,1.16-.8,1.16-1.26C43.28,10.19,39.42,9.06,34.67,9.06Z"/><polygon class="cls-2" points="34.56 15.85 34.5 17.73 34.44 15.85 34.56 15.85"/><polygon class="cls-2" points="37.37 15.66 37.32 17.55 37.26 15.66 37.37 15.66"/><polygon class="cls-2" points="40.14 15.19 40.08 17.07 40.03 15.19 40.14 15.19"/><polygon class="cls-2" points="42.65 14.31 42.6 16.19 42.54 14.31 42.65 14.31"/><polygon class="cls-2" points="44.3 13.28 44.24 15.16 44.19 13.28 44.3 13.28"/><polygon class="cls-2" points="31.6 15.66 31.55 17.55 31.49 15.66 31.6 15.66"/><polygon class="cls-2" points="28.93 15.03 28.87 16.92 28.82 15.03 28.93 15.03"/><polygon class="cls-2" points="26.97 14.43 26.91 16.41 26.86 14.43 26.97 14.43"/><polygon class="cls-2" points="24.98 13.08 24.92 15.03 24.86 13.08 24.98 13.08"/><path class="cls-5" d="M27.38,11.82c0-1.08,2.85-2,6.36-2S27.38,12.89,27.38,11.82Z"/><path class="cls-5" d="M42.21,9.3s3.51,1.7.85,3.57a30.28,30.28,0,0,1-2.86,1.54s3.25-.8,4.15-1.88C45.83,10.76,42.21,9.3,42.21,9.3Z"/><path class="cls-6" d="M40.63,11.93l-.8,0a1.06,1.06,0,0,1-.76,1,4.75,4.75,0,0,1-1.76.27h-.23l-.3-.68h.76a3.19,3.19,0,0,0,.63-.09,1,1,0,0,0,.48-.21.44.44,0,0,0,.17-.35.55.55,0,0,0-.29-.48,2.1,2.1,0,0,0-.85-.21h-.47l-.39.05a2.28,2.28,0,0,0-.35.11l-.31.14-.33.18-1.43.83a3,3,0,0,1-.92.35,4.31,4.31,0,0,1-.77.07l-.39,0a3.3,3.3,0,0,1-1.57-.42,1.18,1.18,0,0,1-.61-.93l-.79,0v-.23l.8.05a1,1,0,0,1,.66-.8,4.59,4.59,0,0,1,1.69-.24h.09l.3.64h-.7a3.28,3.28,0,0,0-.56.08.8.8,0,0,0-.39.2.41.41,0,0,0-.11.28s0,0,0,.06c0,.42.39.65,1.06.69h.2a2.49,2.49,0,0,0,.5-.05,2.89,2.89,0,0,0,.6-.24L34.92,11a4.75,4.75,0,0,1,1.21-.5,4.27,4.27,0,0,1,1.11-.14h.34a3.61,3.61,0,0,1,1.54.4,1.3,1.3,0,0,1,.69.86l.82,0Z"/><path class="cls-1" d="M43.38,9.82c0,2-4.64,3.61-10.37,3.61S22.65,11.81,22.65,9.82V7.16A77.41,77.41,0,0,1,33,6.22a72.66,72.66,0,0,1,10.37.94Z"/><path class="cls-1" d="M43.38,9.82c0,2-4.64,3.61-10.37,3.61S22.65,11.81,22.65,9.82V7.16A77.41,77.41,0,0,1,33,6.22a72.66,72.66,0,0,1,10.37.94Z"/><path class="cls-2" d="M43.38,7.59c0,2-4.64,3.91-10.37,3.91S22.65,9.58,22.65,7.59c0-.39,3.1.15,3.1.15A9.58,9.58,0,0,1,33,4c4.85,0,6.62,2.81,6.62,2.81S43.38,7.28,43.38,7.59Z"/><path class="cls-3" d="M43.38,7.16c0,2-4.64,3.61-10.37,3.61S22.65,9.15,22.65,7.16,27.29,3.56,33,3.56,43.38,5.17,43.38,7.16Z"/><path class="cls-4" d="M33,4.58c-4.75,0-8.61,1.13-8.61,2.53,0,.65.84,1.24,2.22,1.69-1-.4-1.58-.9-1.58-1.43C25,6,28.66,5,33.12,5S41.2,6,41.2,7.37c0,.36-.27.7-.74,1,.74-.37,1.16-.8,1.16-1.26C41.62,5.71,37.77,4.58,33,4.58Z"/><polygon class="cls-2" points="32.9 11.37 32.84 13.25 32.79 11.37 32.9 11.37"/><polygon class="cls-2" points="35.72 11.18 35.66 13.07 35.61 11.18 35.72 11.18"/><polygon class="cls-2" points="38.49 10.71 38.43 12.59 38.37 10.71 38.49 10.71"/><polygon class="cls-2" points="41 9.83 40.94 11.71 40.89 9.83 41 9.83"/><polygon class="cls-2" points="42.65 8.8 42.59 10.68 42.53 8.8 42.65 8.8"/><polygon class="cls-2" points="29.95 11.18 29.89 13.07 29.84 11.18 29.95 11.18"/><polygon class="cls-2" points="27.27 10.55 27.22 12.44 27.16 10.55 27.27 10.55"/><polygon class="cls-2" points="25.32 9.95 25.26 11.93 25.2 9.95 25.32 9.95"/><polygon class="cls-2" points="23.32 8.6 23.27 10.55 23.21 8.6 23.32 8.6"/><path class="cls-5" d="M25.73,7.34c0-1.08,2.85-1.95,6.36-1.95S25.73,8.41,25.73,7.34Z"/><path class="cls-5" d="M40.56,4.82s3.5,1.69.84,3.57a30.48,30.48,0,0,1-2.85,1.54s3.25-.8,4.15-1.88C44.17,6.28,40.56,4.82,40.56,4.82Z"/><path class="cls-6" d="M39,7.45l-.81,0a1,1,0,0,1-.75,1,4.81,4.81,0,0,1-1.77.27h-.22L35.12,8h.76a3.29,3.29,0,0,0,.64-.09A1.06,1.06,0,0,0,37,7.64a.43.43,0,0,0,.16-.35.53.53,0,0,0-.29-.48A1.77,1.77,0,0,0,36,6.6h-.47l-.39,0a1.75,1.75,0,0,0-.35.11l-.31.14-.33.18-1.43.83a3.12,3.12,0,0,1-.92.35,4.31,4.31,0,0,1-.77.07l-.4,0A3.29,3.29,0,0,1,29.1,7.9,1.18,1.18,0,0,1,28.49,7l-.8,0V6.69l.8,0a1,1,0,0,1,.66-.8,4.65,4.65,0,0,1,1.7-.24h.09l.3.64h-.7a3.15,3.15,0,0,0-.56.08.72.72,0,0,0-.39.2.41.41,0,0,0-.11.28V7c.05.42.4.65,1.06.69h.21a2.31,2.31,0,0,0,.49,0,2.89,2.89,0,0,0,.6-.24l1.43-.84a4.69,4.69,0,0,1,1.2-.5,4.35,4.35,0,0,1,1.12-.14h.33a3.52,3.52,0,0,1,1.55.4,1.26,1.26,0,0,1,.68.86l.83,0Z"/><path class="cls-1" d="M46.25,6.26c0,2-4.64,3.61-10.37,3.61S25.52,8.25,25.52,6.26V3.6a77.41,77.41,0,0,1,10.36-.94,72.66,72.66,0,0,1,10.37.94Z"/><path class="cls-1" d="M46.25,6.26c0,2-4.64,3.61-10.37,3.61S25.52,8.25,25.52,6.26V3.6a77.41,77.41,0,0,1,10.36-.94,72.66,72.66,0,0,1,10.37.94Z"/><path class="cls-2" d="M46.25,4c0,2-4.64,3.91-10.37,3.91S25.52,6,25.52,4c0-.39,3.1.15,3.1.15A9.58,9.58,0,0,1,35.88.43c4.85,0,6.62,2.81,6.62,2.81S46.25,3.73,46.25,4Z"/><path class="cls-3" d="M46.25,3.6c0,2-4.64,3.61-10.37,3.61S25.52,5.6,25.52,3.6,30.16,0,35.88,0,46.25,1.61,46.25,3.6Z"/><path class="cls-4" d="M35.88,1c-4.75,0-8.61,1.13-8.61,2.53,0,.65.84,1.24,2.22,1.69-1-.4-1.58-.89-1.58-1.43,0-1.33,3.62-2.41,8.08-2.41s8.08,1.08,8.08,2.41c0,.36-.27.7-.74,1,.74-.37,1.16-.8,1.16-1.26C44.49,2.15,40.64,1,35.88,1Z"/><polygon class="cls-2" points="35.77 7.81 35.72 9.7 35.66 7.81 35.77 7.81"/><polygon class="cls-2" points="38.59 7.62 38.53 9.51 38.48 7.62 38.59 7.62"/><polygon class="cls-2" points="41.35 7.15 41.3 9.03 41.24 7.15 41.35 7.15"/><polygon class="cls-2" points="43.87 6.27 43.81 8.15 43.76 6.27 43.87 6.27"/><polygon class="cls-2" points="45.51 5.24 45.46 7.13 45.4 5.24 45.51 5.24"/><polygon class="cls-2" points="32.82 7.62 32.76 9.51 32.7 7.62 32.82 7.62"/><polygon class="cls-2" points="30.14 7 30.09 8.88 30.03 7 30.14 7"/><polygon class="cls-2" points="28.18 6.39 28.13 8.38 28.07 6.39 28.18 6.39"/><polygon class="cls-2" points="26.19 5.04 26.14 7 26.08 5.04 26.19 5.04"/><path class="cls-5" d="M28.6,3.78c0-1.08,2.85-1.95,6.36-1.95S28.6,4.86,28.6,3.78Z"/><path class="cls-5" d="M43.43,1.27s3.5,1.69.84,3.56a30.48,30.48,0,0,1-2.85,1.54s3.25-.8,4.15-1.87C47,2.72,43.43,1.27,43.43,1.27Z"/><path class="cls-6" d="M41.85,3.89,41,3.84a1.06,1.06,0,0,1-.75,1,4.84,4.84,0,0,1-1.77.27H38.3L38,4.39h.26l.5,0a3.29,3.29,0,0,0,.64-.09,1,1,0,0,0,.47-.21A.41.41,0,0,0,40,3.73a.53.53,0,0,0-.29-.48,1.93,1.93,0,0,0-.85-.2h-.46L38,3.1a1.82,1.82,0,0,0-.35.12l-.31.13-.33.18-1.43.83a3.12,3.12,0,0,1-.92.35,4.31,4.31,0,0,1-.77.07l-.4,0A3.29,3.29,0,0,1,32,4.34a1.18,1.18,0,0,1-.61-.93l-.8-.05V3.13l.8.05a1,1,0,0,1,.66-.8,4.65,4.65,0,0,1,1.7-.24h.09l.3.64h-.7a4.44,4.44,0,0,0-.56.08.79.79,0,0,0-.39.2.37.37,0,0,0-.11.28v.06c0,.42.4.65,1.06.69h.21a2.31,2.31,0,0,0,.49-.05,2.89,2.89,0,0,0,.6-.24L36.14,3a4.69,4.69,0,0,1,1.2-.5,4.36,4.36,0,0,1,1.12-.13h.33a3.66,3.66,0,0,1,1.55.4,1.26,1.26,0,0,1,.68.86l.83.05Z"/><path class="cls-1" d="M53.06,37.91c0,2-4.64,3.61-10.36,3.61s-10.37-1.61-10.37-3.61V35.26a76.65,76.65,0,0,1,10.37-.95,71.88,71.88,0,0,1,10.36.95Z"/><path class="cls-1" d="M53.06,37.91c0,2-4.64,3.61-10.36,3.61s-10.37-1.61-10.37-3.61V35.26a76.65,76.65,0,0,1,10.37-.95,71.88,71.88,0,0,1,10.36.95Z"/><path class="cls-2" d="M53.06,35.69c0,2-4.64,3.9-10.36,3.9s-10.37-1.91-10.37-3.9c0-.4,3.11.15,3.11.15a9.55,9.55,0,0,1,7.26-3.76c4.84,0,6.62,2.81,6.62,2.81S53.06,35.38,53.06,35.69Z"/><path class="cls-3" d="M53.06,35.26c0,2-4.64,3.6-10.36,3.6s-10.37-1.61-10.37-3.6S37,31.65,42.7,31.65,53.06,33.27,53.06,35.26Z"/><path class="cls-4" d="M42.7,32.68c-4.76,0-8.62,1.13-8.62,2.52,0,.65.85,1.24,2.22,1.69-1-.4-1.58-.89-1.58-1.43,0-1.33,3.62-2.41,8.08-2.41s8.08,1.08,8.08,2.41a1.32,1.32,0,0,1-.73,1c.73-.37,1.16-.81,1.16-1.27C51.31,33.81,47.45,32.68,42.7,32.68Z"/><polygon class="cls-2" points="42.59 39.47 42.53 41.35 42.47 39.47 42.59 39.47"/><polygon class="cls-2" points="45.4 39.27 45.34 41.16 45.29 39.27 45.4 39.27"/><polygon class="cls-2" points="48.17 38.8 48.11 40.69 48.06 38.8 48.17 38.8"/><polygon class="cls-2" points="50.68 37.92 50.63 39.81 50.57 37.92 50.68 37.92"/><polygon class="cls-2" points="52.33 36.89 52.27 38.78 52.22 36.89 52.33 36.89"/><polygon class="cls-2" points="39.63 39.27 39.57 41.16 39.52 39.27 39.63 39.27"/><polygon class="cls-2" points="36.96 38.65 36.9 40.53 36.84 38.65 36.96 38.65"/><polygon class="cls-2" points="35 38.04 34.94 40.03 34.89 38.04 35 38.04"/><polygon class="cls-2" points="33.01 36.7 32.95 38.65 32.89 36.7 33.01 36.7"/><path class="cls-5" d="M35.41,35.43c0-1.08,2.85-2,6.36-2S35.41,36.51,35.41,35.43Z"/><path class="cls-5" d="M50.24,32.92s3.5,1.69.84,3.56A30,30,0,0,1,48.23,38s3.25-.81,4.15-1.88C53.86,34.37,50.24,32.92,50.24,32.92Z"/><path class="cls-6" d="M48.66,35.54l-.81,0a1,1,0,0,1-.75,1,4.75,4.75,0,0,1-1.76.27h-.23l-.31-.67h.27l.5,0A4.17,4.17,0,0,0,46.2,36a1.19,1.19,0,0,0,.48-.21.48.48,0,0,0,.17-.36.55.55,0,0,0-.29-.48,2,2,0,0,0-.85-.2h-.47a2,2,0,0,0-.39.06,2,2,0,0,0-.35.11l-.31.14-.33.17L42.43,36a3.1,3.1,0,0,1-.92.34,3.55,3.55,0,0,1-.77.07h-.39A3.3,3.3,0,0,1,38.78,36a1.2,1.2,0,0,1-.61-.94l-.79,0v-.23l.8,0a1,1,0,0,1,.66-.8,4.55,4.55,0,0,1,1.69-.24h.09l.3.64h-.7a4.68,4.68,0,0,0-.56.09.71.71,0,0,0-.39.19.41.41,0,0,0-.11.28.2.2,0,0,0,0,.07c0,.41.39.64,1.06.68h.2a2.31,2.31,0,0,0,.49,0,1.89,1.89,0,0,0,.6-.24L43,34.63a5.14,5.14,0,0,1,1.21-.5A4.23,4.23,0,0,1,45.27,34h.34a3.48,3.48,0,0,1,1.54.4,1.29,1.29,0,0,1,.69.85l.82.05Z"/><path class="cls-1" d="M55.93,34.36c0,2-4.64,3.6-10.36,3.6S35.2,36.35,35.2,34.36V31.7a76.65,76.65,0,0,1,10.37-.95,71.88,71.88,0,0,1,10.36.95Z"/><path class="cls-1" d="M55.93,34.36c0,2-4.64,3.6-10.36,3.6S35.2,36.35,35.2,34.36V31.7a76.65,76.65,0,0,1,10.37-.95,71.88,71.88,0,0,1,10.36.95Z"/><path class="cls-2" d="M55.93,32.13c0,2-4.64,3.9-10.36,3.9S35.2,34.12,35.2,32.13c0-.39,3.11.15,3.11.15a9.55,9.55,0,0,1,7.26-3.76c4.84,0,6.62,2.82,6.62,2.82S55.93,31.82,55.93,32.13Z"/><path class="cls-3" d="M55.93,31.7c0,2-4.64,3.61-10.36,3.61S35.2,33.69,35.2,31.7s4.64-3.6,10.37-3.6S55.93,29.71,55.93,31.7Z"/><path class="cls-4" d="M45.57,29.12c-4.76,0-8.62,1.13-8.62,2.52,0,.65.84,1.25,2.22,1.7-1-.4-1.58-.9-1.58-1.44,0-1.33,3.62-2.4,8.08-2.4s8.08,1.07,8.08,2.4a1.32,1.32,0,0,1-.73,1c.73-.37,1.16-.81,1.16-1.27C54.18,30.25,50.32,29.12,45.57,29.12Z"/><polygon class="cls-2" points="45.45 35.91 45.4 37.79 45.34 35.91 45.45 35.91"/><polygon class="cls-2" points="48.27 35.72 48.22 37.6 48.16 35.72 48.27 35.72"/><polygon class="cls-2" points="51.04 35.24 50.98 37.13 50.93 35.24 51.04 35.24"/><polygon class="cls-2" points="53.55 34.36 53.5 36.25 53.44 34.36 53.55 34.36"/><polygon class="cls-2" points="55.2 33.34 55.14 35.22 55.09 33.34 55.2 33.34"/><polygon class="cls-2" points="42.5 35.72 42.44 37.6 42.39 35.72 42.5 35.72"/><polygon class="cls-2" points="39.83 35.09 39.77 36.98 39.72 35.09 39.83 35.09"/><polygon class="cls-2" points="37.87 34.48 37.81 36.47 37.76 34.48 37.87 34.48"/><polygon class="cls-2" points="35.87 33.14 35.82 35.09 35.76 33.14 35.87 33.14"/><path class="cls-5" d="M38.28,31.87c0-1.07,2.85-1.95,6.36-1.95S38.28,33,38.28,31.87Z"/><path class="cls-5" d="M53.11,29.36s3.51,1.69.84,3.57a31.69,31.69,0,0,1-2.85,1.54s3.25-.81,4.15-1.88C56.73,30.82,53.11,29.36,53.11,29.36Z"/><path class="cls-6" d="M51.53,32l-.81,0a1,1,0,0,1-.75.95,4.77,4.77,0,0,1-1.77.27H48l-.31-.67h.27l.49,0a4.14,4.14,0,0,0,.64-.08,1.26,1.26,0,0,0,.48-.21.46.46,0,0,0,.17-.36.53.53,0,0,0-.29-.47,1.85,1.85,0,0,0-.85-.21h-.47a3.24,3.24,0,0,0-.39.06,2,2,0,0,0-.35.11l-.31.14-.33.18-1.43.83a3.1,3.1,0,0,1-.92.34,3.55,3.55,0,0,1-.77.07h-.39a3.3,3.3,0,0,1-1.57-.42A1.18,1.18,0,0,1,41,31.5l-.79,0v-.23l.8,0a1,1,0,0,1,.66-.79,4.55,4.55,0,0,1,1.69-.24h.09l.3.64h-.26l-.44,0a3.15,3.15,0,0,0-.56.08.72.72,0,0,0-.39.2.39.39,0,0,0-.11.27.15.15,0,0,0,0,.07c0,.42.39.65,1.06.68h.2a2.31,2.31,0,0,0,.49-.05,2.09,2.09,0,0,0,.6-.24l1.43-.84a5.61,5.61,0,0,1,1.21-.5,4.23,4.23,0,0,1,1.11-.13h.33a3.48,3.48,0,0,1,1.55.4,1.29,1.29,0,0,1,.69.85l.82.05Z"/><path class="cls-1" d="M54.28,29.88c0,2-4.64,3.6-10.37,3.6s-10.37-1.61-10.37-3.6V27.22a76.86,76.86,0,0,1,10.37-.95,71.92,71.92,0,0,1,10.37.95Z"/><path class="cls-1" d="M54.28,29.88c0,2-4.64,3.6-10.37,3.6s-10.37-1.61-10.37-3.6V27.22a76.86,76.86,0,0,1,10.37-.95,71.92,71.92,0,0,1,10.37.95Z"/><path class="cls-2" d="M54.28,27.65c0,2-4.64,3.9-10.37,3.9s-10.37-1.91-10.37-3.9c0-.39,3.11.15,3.11.15A9.57,9.57,0,0,1,43.91,24c4.85,0,6.62,2.82,6.62,2.82S54.28,27.34,54.28,27.65Z"/><path class="cls-3" d="M54.28,27.22c0,2-4.64,3.61-10.37,3.61s-10.37-1.62-10.37-3.61,4.65-3.61,10.37-3.61S54.28,25.23,54.28,27.22Z"/><path class="cls-4" d="M43.91,24.64c-4.75,0-8.61,1.13-8.61,2.52,0,.65.84,1.25,2.22,1.7-1-.4-1.58-.9-1.58-1.44C35.94,26.09,39.55,25,44,25s8.08,1.08,8.08,2.41c0,.36-.27.7-.74,1,.74-.37,1.16-.81,1.16-1.27C52.52,25.77,48.67,24.64,43.91,24.64Z"/><polygon class="cls-2" points="43.8 31.43 43.74 33.31 43.69 31.43 43.8 31.43"/><polygon class="cls-2" points="46.62 31.24 46.56 33.12 46.5 31.24 46.62 31.24"/><polygon class="cls-2" points="49.38 30.76 49.33 32.65 49.27 30.76 49.38 30.76"/><polygon class="cls-2" points="51.9 29.88 51.84 31.77 51.79 29.88 51.9 29.88"/><polygon class="cls-2" points="53.54 28.86 53.49 30.74 53.43 28.86 53.54 28.86"/><polygon class="cls-2" points="40.84 31.24 40.79 33.12 40.73 31.24 40.84 31.24"/><polygon class="cls-2" points="38.17 30.61 38.12 32.49 38.06 30.61 38.17 30.61"/><polygon class="cls-2" points="36.21 30 36.16 31.99 36.1 30 36.21 30"/><polygon class="cls-2" points="34.22 28.66 34.16 30.61 34.11 28.66 34.22 28.66"/><path class="cls-5" d="M36.63,27.39c0-1.07,2.85-1.95,6.36-1.95S36.63,28.47,36.63,27.39Z"/><path class="cls-5" d="M51.45,24.88s3.51,1.69.85,3.56A31.27,31.27,0,0,1,49.45,30s3.25-.81,4.14-1.88C55.07,26.34,51.45,24.88,51.45,24.88Z"/><path class="cls-6" d="M49.88,27.5l-.81,0a1.06,1.06,0,0,1-.76.95,4.73,4.73,0,0,1-1.76.28h-.22L46,28h.26l.5,0a4.48,4.48,0,0,0,.64-.08,1.21,1.21,0,0,0,.47-.21.43.43,0,0,0,.17-.36.51.51,0,0,0-.29-.47,1.79,1.79,0,0,0-.85-.21h-.47a3,3,0,0,0-.38.06,1.75,1.75,0,0,0-.35.11L45.4,27l-.32.18L43.64,28a3,3,0,0,1-.91.34,3.61,3.61,0,0,1-.77.07h-.4A3.29,3.29,0,0,1,40,28a1.16,1.16,0,0,1-.61-.94l-.8,0v-.23l.8,0a1,1,0,0,1,.66-.8,4.85,4.85,0,0,1,1.69-.24h.1l.29.65h-.25l-.44,0a3.15,3.15,0,0,0-.56.08.72.72,0,0,0-.39.2.35.35,0,0,0-.11.27V27c0,.42.4.65,1.06.69h.21a1.85,1.85,0,0,0,.49,0,2.09,2.09,0,0,0,.6-.24l1.42-.84a5.33,5.33,0,0,1,1.21-.5A4.36,4.36,0,0,1,46.49,26h.33a3.44,3.44,0,0,1,1.54.4,1.23,1.23,0,0,1,.69.85l.83.05Z"/><path class="cls-1" d="M57.15,26.32c0,2-4.64,3.6-10.37,3.6s-10.37-1.61-10.37-3.6V23.66a76.86,76.86,0,0,1,10.37-.95,71.92,71.92,0,0,1,10.37.95Z"/><path class="cls-1" d="M57.15,26.32c0,2-4.64,3.6-10.37,3.6s-10.37-1.61-10.37-3.6V23.66a76.86,76.86,0,0,1,10.37-.95,71.92,71.92,0,0,1,10.37.95Z"/><path class="cls-2" d="M57.15,24.09c0,2-4.64,3.9-10.37,3.9s-10.37-1.91-10.37-3.9c0-.39,3.11.15,3.11.15a9.57,9.57,0,0,1,7.26-3.76c4.85,0,6.62,2.82,6.62,2.82S57.15,23.78,57.15,24.09Z"/><ellipse class="cls-3" cx="46.78" cy="23.66" rx="10.37" ry="3.61"/><path class="cls-4" d="M46.78,21.08c-4.76,0-8.61,1.13-8.61,2.53,0,.65.84,1.24,2.22,1.69-1-.4-1.58-.9-1.58-1.44,0-1.32,3.61-2.4,8.08-2.4S55,22.54,55,23.86c0,.36-.27.7-.74,1,.74-.37,1.16-.8,1.16-1.26C55.39,22.21,51.54,21.08,46.78,21.08Z"/><polygon class="cls-2" points="46.67 27.87 46.61 29.75 46.56 27.87 46.67 27.87"/><polygon class="cls-2" points="49.49 27.68 49.43 29.56 49.37 27.68 49.49 27.68"/><polygon class="cls-2" points="52.25 27.2 52.2 29.09 52.14 27.2 52.25 27.2"/><polygon class="cls-2" points="54.77 26.32 54.71 28.21 54.66 26.32 54.77 26.32"/><polygon class="cls-2" points="56.41 25.3 56.36 27.18 56.3 25.3 56.41 25.3"/><polygon class="cls-2" points="43.72 27.68 43.66 29.56 43.6 27.68 43.72 27.68"/><polygon class="cls-2" points="41.04 27.05 40.99 28.94 40.93 27.05 41.04 27.05"/><polygon class="cls-2" points="39.08 26.45 39.03 28.43 38.97 26.45 39.08 26.45"/><polygon class="cls-2" points="37.09 25.1 37.03 27.05 36.98 25.1 37.09 25.1"/><path class="cls-5" d="M39.5,23.83c0-1.07,2.85-1.95,6.36-1.95S39.5,24.91,39.5,23.83Z"/><path class="cls-5" d="M54.32,21.32s3.51,1.69.85,3.57c-.75.52-2.85,1.54-2.85,1.54s3.25-.8,4.14-1.88C57.94,22.78,54.32,21.32,54.32,21.32Z"/><path class="cls-6" d="M52.74,24l-.8-.05a1,1,0,0,1-.76,1,4.73,4.73,0,0,1-1.76.28H49.2l-.31-.67h.76c.22,0,.43-.05.64-.09a1.21,1.21,0,0,0,.47-.21.42.42,0,0,0,.17-.36.53.53,0,0,0-.29-.47,1.79,1.79,0,0,0-.85-.21h-.47l-.38.06a1.75,1.75,0,0,0-.35.11l-.32.14-.33.18-1.43.83a3,3,0,0,1-.91.34,3.61,3.61,0,0,1-.77.07h-.4a3.29,3.29,0,0,1-1.56-.42,1.16,1.16,0,0,1-.61-.93l-.8,0v-.23l.8,0a1,1,0,0,1,.66-.8,4.62,4.62,0,0,1,1.69-.24h.1l.29.64h-.25l-.45,0a3.43,3.43,0,0,0-.56.08.72.72,0,0,0-.38.2.36.36,0,0,0-.11.28v.06c0,.42.4.65,1.06.69h.21a1.85,1.85,0,0,0,.49-.05,2.09,2.09,0,0,0,.6-.24L47,23a5.12,5.12,0,0,1,1.21-.49,4.35,4.35,0,0,1,1.12-.14h.33a3.44,3.44,0,0,1,1.54.4,1.25,1.25,0,0,1,.69.85l.82.06Z"/><path class="cls-1" d="M55.43,22.47c0,2-4.64,3.61-10.37,3.61s-10.37-1.62-10.37-3.61V19.81a77.65,77.65,0,0,1,10.37-.94,72.66,72.66,0,0,1,10.37.94Z"/><path class="cls-1" d="M55.43,22.47c0,2-4.64,3.61-10.37,3.61s-10.37-1.62-10.37-3.61V19.81a77.65,77.65,0,0,1,10.37-.94,72.66,72.66,0,0,1,10.37.94Z"/><path class="cls-2" d="M55.43,20.24c0,2-4.64,3.91-10.37,3.91s-10.37-1.92-10.37-3.91c0-.39,3.11.15,3.11.15a9.58,9.58,0,0,1,7.26-3.75c4.85,0,6.62,2.81,6.62,2.81S55.43,19.94,55.43,20.24Z"/><path class="cls-3" d="M55.43,19.81c0,2-4.64,3.61-10.37,3.61s-10.37-1.61-10.37-3.61,4.65-3.6,10.37-3.6S55.43,17.82,55.43,19.81Z"/><path class="cls-4" d="M45.06,17.23c-4.75,0-8.61,1.13-8.61,2.53,0,.65.84,1.24,2.22,1.69-1-.4-1.58-.9-1.58-1.43,0-1.33,3.61-2.41,8.08-2.41s8.08,1.08,8.08,2.41c0,.36-.27.7-.74,1,.74-.37,1.16-.8,1.16-1.26C53.67,18.36,49.82,17.23,45.06,17.23Z"/><polygon class="cls-2" points="44.95 24.02 44.89 25.91 44.84 24.02 44.95 24.02"/><polygon class="cls-2" points="47.77 23.83 47.71 25.72 47.66 23.83 47.77 23.83"/><polygon class="cls-2" points="50.53 23.36 50.48 25.24 50.42 23.36 50.53 23.36"/><polygon class="cls-2" points="53.05 22.48 52.99 24.36 52.94 22.48 53.05 22.48"/><polygon class="cls-2" points="54.69 21.45 54.64 23.34 54.58 21.45 54.69 21.45"/><polygon class="cls-2" points="41.99 23.83 41.94 25.72 41.88 23.83 41.99 23.83"/><polygon class="cls-2" points="39.32 23.2 39.27 25.09 39.21 23.2 39.32 23.2"/><polygon class="cls-2" points="37.36 22.6 37.31 24.58 37.25 22.6 37.36 22.6"/><polygon class="cls-2" points="35.37 21.25 35.31 23.2 35.26 21.25 35.37 21.25"/><path class="cls-5" d="M37.78,20c0-1.08,2.85-1.95,6.36-1.95S37.78,21.06,37.78,20Z"/><path class="cls-5" d="M52.6,17.47s3.51,1.7.85,3.57a30.48,30.48,0,0,1-2.85,1.54s3.25-.8,4.14-1.88C56.22,18.93,52.6,17.47,52.6,17.47Z"/><path class="cls-6" d="M51,20.1l-.81-.05a1.06,1.06,0,0,1-.76,1,4.75,4.75,0,0,1-1.76.27h-.22l-.31-.68h.76a3.4,3.4,0,0,0,.64-.09,1,1,0,0,0,.47-.21.41.41,0,0,0,.17-.35.53.53,0,0,0-.29-.48,2.06,2.06,0,0,0-.85-.21H47.6l-.38,0a1.75,1.75,0,0,0-.35.11l-.32.14-.33.18-1.43.83a3.06,3.06,0,0,1-.91.35,4.4,4.4,0,0,1-.77.07l-.4,0a3.29,3.29,0,0,1-1.56-.42,1.16,1.16,0,0,1-.61-.93l-.8-.05v-.23l.8.05a1,1,0,0,1,.66-.8,4.65,4.65,0,0,1,1.7-.24H43l.29.64h-.69a3.15,3.15,0,0,0-.56.08.72.72,0,0,0-.39.2.37.37,0,0,0-.11.28v.06c0,.42.4.65,1.06.69h.21a2.38,2.38,0,0,0,.49-.05,2.89,2.89,0,0,0,.6-.24l1.42-.84a4.91,4.91,0,0,1,1.21-.5,4.35,4.35,0,0,1,1.12-.14H48a3.66,3.66,0,0,1,1.55.4,1.26,1.26,0,0,1,.68.86l.83.05Z"/><path class="cls-1" d="M58.3,18.91c0,2-4.64,3.61-10.37,3.61S37.56,20.9,37.56,18.91V16.26a76.86,76.86,0,0,1,10.37-1,71.92,71.92,0,0,1,10.37,1Z"/><path class="cls-1" d="M58.3,18.91c0,2-4.64,3.61-10.37,3.61S37.56,20.9,37.56,18.91V16.26a76.86,76.86,0,0,1,10.37-1,71.92,71.92,0,0,1,10.37,1Z"/><path class="cls-2" d="M58.3,16.68c0,2-4.64,3.91-10.37,3.91s-10.37-1.92-10.37-3.91c0-.39,3.11.15,3.11.15a9.58,9.58,0,0,1,7.26-3.75c4.85,0,6.62,2.81,6.62,2.81S58.3,16.38,58.3,16.68Z"/><path class="cls-3" d="M58.3,16.26c0,2-4.64,3.6-10.37,3.6s-10.37-1.61-10.37-3.6,4.65-3.61,10.37-3.61S58.3,14.27,58.3,16.26Z"/><path class="cls-4" d="M47.93,13.67c-4.76,0-8.61,1.13-8.61,2.53,0,.65.84,1.24,2.22,1.69-1-.4-1.58-.89-1.58-1.43,0-1.33,3.61-2.41,8.08-2.41s8.08,1.08,8.08,2.41c0,.36-.27.7-.74,1,.74-.38,1.16-.81,1.16-1.27C56.54,14.8,52.69,13.67,47.93,13.67Z"/><polygon class="cls-2" points="47.82 20.46 47.76 22.35 47.71 20.46 47.82 20.46"/><polygon class="cls-2" points="50.64 20.27 50.58 22.16 50.52 20.27 50.64 20.27"/><polygon class="cls-2" points="53.4 19.8 53.35 21.68 53.29 19.8 53.4 19.8"/><polygon class="cls-2" points="55.92 18.92 55.86 20.8 55.81 18.92 55.92 18.92"/><polygon class="cls-2" points="57.56 17.89 57.51 19.78 57.45 17.89 57.56 17.89"/><polygon class="cls-2" points="44.87 20.27 44.81 22.16 44.75 20.27 44.87 20.27"/><polygon class="cls-2" points="42.19 19.65 42.14 21.53 42.08 19.65 42.19 19.65"/><polygon class="cls-2" points="40.23 19.04 40.18 21.02 40.12 19.04 40.23 19.04"/><polygon class="cls-2" points="38.24 17.7 38.18 19.65 38.13 17.7 38.24 17.7"/><path class="cls-5" d="M40.65,16.43c0-1.08,2.85-1.95,6.36-1.95S40.65,17.51,40.65,16.43Z"/><path class="cls-5" d="M55.47,13.92s3.51,1.69.85,3.56A30.48,30.48,0,0,1,53.47,19s3.25-.8,4.14-1.87C59.09,15.37,55.47,13.92,55.47,13.92Z"/><path class="cls-6" d="M53.9,16.54l-.81-.05a1.06,1.06,0,0,1-.76,1,4.75,4.75,0,0,1-1.76.27h-.22L50,17h.26l.5,0a3.4,3.4,0,0,0,.64-.09,1,1,0,0,0,.47-.21.41.41,0,0,0,.17-.35.53.53,0,0,0-.29-.48,1.93,1.93,0,0,0-.85-.2h-.47l-.38.05a1.82,1.82,0,0,0-.35.12,2.52,2.52,0,0,0-.32.14l-.33.17L47.66,17a3.06,3.06,0,0,1-.91.35,4.4,4.4,0,0,1-.77.07h-.4A3.17,3.17,0,0,1,44,17a1.16,1.16,0,0,1-.61-.93l-.8,0v-.23l.8.05a1,1,0,0,1,.66-.8,4.62,4.62,0,0,1,1.69-.24h.1l.29.64h-.69a4.89,4.89,0,0,0-.57.08.8.8,0,0,0-.38.2.37.37,0,0,0-.11.28v.06c0,.42.4.65,1.06.69h.21a2.38,2.38,0,0,0,.49-.05,2.89,2.89,0,0,0,.6-.24l1.42-.84a4.75,4.75,0,0,1,1.21-.5A4.36,4.36,0,0,1,50.51,15h.33a3.66,3.66,0,0,1,1.55.4,1.28,1.28,0,0,1,.68.86l.83,0Z"/><path class="cls-1" d="M55,16.68c-1.22,1.57-5.87,0-10.4-3.5s-7.21-7.62-6-9.19l1.63-2.1A77.55,77.55,0,0,1,49,7.48a73.14,73.14,0,0,1,7.62,7.09Z"/><path class="cls-1" d="M55,16.68c-1.22,1.57-5.87,0-10.4-3.5s-7.21-7.62-6-9.19l1.63-2.1A77.55,77.55,0,0,1,49,7.48a73.14,73.14,0,0,1,7.62,7.09Z"/><path class="cls-2" d="M56.32,14.91c-1.22,1.58-6.06.25-10.59-3.25s-7-7.86-5.81-9.43c.24-.31,2.36,2,2.36,2a9.55,9.55,0,0,1,8,1.47c3.84,3,3.52,6.28,3.52,6.28S56.5,14.67,56.32,14.91Z"/><path class="cls-3" d="M56.58,14.57c-1.22,1.58-5.88,0-10.41-3.49s-7.21-7.62-6-9.19,5.88,0,10.4,3.49S57.8,13,56.58,14.57Z"/><path class="cls-4" d="M50,6.19c-3.76-2.91-7.5-4.38-8.36-3.27-.4.51-.09,1.5.72,2.7-.54-.93-.7-1.68-.37-2.11.81-1,4.33.31,7.86,3s5.73,5.8,4.92,6.85a1.32,1.32,0,0,1-1.2.35c.81.15,1.41.07,1.69-.29C56.08,12.35,53.72,9.1,50,6.19Z"/><polygon class="cls-2" points="45.72 11.49 44.52 12.95 45.63 11.42 45.72 11.49"/><polygon class="cls-2" points="48.06 13.06 46.86 14.52 47.97 13 48.06 13.06"/><polygon class="cls-2" points="50.54 14.38 49.34 15.84 50.45 14.31 50.54 14.38"/><polygon class="cls-2" points="53.07 15.23 51.87 16.68 52.98 15.16 53.07 15.23"/><polygon class="cls-2" points="55 15.42 53.8 16.88 54.91 15.35 55 15.42"/><polygon class="cls-2" points="43.5 9.53 42.3 10.99 43.41 9.46 43.5 9.53"/><polygon class="cls-2" points="41.77 7.4 40.57 8.86 41.68 7.33 41.77 7.4"/><polygon class="cls-2" points="40.59 5.72 39.33 7.26 40.5 5.65 40.59 5.72"/><polygon class="cls-2" points="39.83 3.44 38.59 4.95 39.74 3.37 39.83 3.44"/><path class="cls-5" d="M42.51,3.91c.66-.85,3.45.2,6.23,2.35S41.85,4.76,42.51,3.91Z"/><path class="cls-5" d="M55.78,11s1.74,3.48-1.52,3.34c-.91-.05-3.2-.53-3.2-.53s3.07,1.35,4.43,1C57.75,14.36,55.78,11,55.78,11Z"/><path class="cls-6" d="M52.92,12.11l-.61-.53a1.05,1.05,0,0,1-1.18.29A4.94,4.94,0,0,1,49.57,11l-.17-.14.16-.73.21.17.4.29a4,4,0,0,0,.56.32,1.2,1.2,0,0,0,.51.13.48.48,0,0,0,.35-.18.54.54,0,0,0,.06-.55,1.86,1.86,0,0,0-.55-.69l-.16-.14-.21-.14-.34-.2A2.23,2.23,0,0,0,50.05,9,2,2,0,0,0,49.71,9l-.37-.06L47.7,8.67a3,3,0,0,1-.93-.29A3.54,3.54,0,0,1,46.12,8c-.1-.07-.2-.16-.31-.25a3.3,3.3,0,0,1-1-1.29,1.19,1.19,0,0,1,.09-1.11l-.6-.52.14-.19.61.53a1,1,0,0,1,1-.23,4.59,4.59,0,0,1,1.48.85l.07,0-.15.69-.2-.16-.36-.26a3.06,3.06,0,0,0-.5-.27A.7.7,0,0,0,46,5.71a.4.4,0,0,0-.26.16l0,0c-.23.36-.09.75.41,1.19l.16.13a2.09,2.09,0,0,0,.42.27,2.25,2.25,0,0,0,.62.17L49,7.89a4.54,4.54,0,0,1,1.26.35,4.09,4.09,0,0,1,1,.57l.26.21a3.45,3.45,0,0,1,1,1.26,1.25,1.25,0,0,1,0,1.1l.62.54Z"/><path class="cls-1" d="M27.78,38.76c0,2-4.64,3.6-10.37,3.6S7,40.75,7,38.76V36.1a76.86,76.86,0,0,1,10.37-1,71.92,71.92,0,0,1,10.37,1Z"/><path class="cls-1" d="M27.78,38.76c0,2-4.64,3.6-10.37,3.6S7,40.75,7,38.76V36.1a76.86,76.86,0,0,1,10.37-1,71.92,71.92,0,0,1,10.37,1Z"/><path class="cls-2" d="M27.78,36.53c0,2-4.64,3.9-10.37,3.9S7,38.52,7,36.53c0-.39,3.11.15,3.11.15a9.57,9.57,0,0,1,7.26-3.76c4.85,0,6.62,2.82,6.62,2.82S27.78,36.22,27.78,36.53Z"/><path class="cls-3" d="M27.78,36.1c0,2-4.64,3.61-10.37,3.61S7,38.09,7,36.1s4.65-3.61,10.37-3.61S27.78,34.11,27.78,36.1Z"/><path class="cls-4" d="M17.41,33.52c-4.75,0-8.61,1.13-8.61,2.52,0,.65.84,1.25,2.22,1.69-1-.4-1.58-.89-1.58-1.43,0-1.33,3.62-2.41,8.08-2.41S25.6,35,25.6,36.3c0,.36-.27.7-.74,1C25.6,36.94,26,36.5,26,36,26,34.65,22.17,33.52,17.41,33.52Z"/><polygon class="cls-2" points="17.3 40.3 17.25 42.19 17.19 40.3 17.3 40.3"/><polygon class="cls-2" points="20.12 40.12 20.06 42 20 40.12 20.12 40.12"/><polygon class="cls-2" points="22.88 39.64 22.83 41.52 22.77 39.64 22.88 39.64"/><polygon class="cls-2" points="25.4 38.76 25.34 40.65 25.29 38.76 25.4 38.76"/><polygon class="cls-2" points="27.04 37.73 26.99 39.62 26.93 37.73 27.04 37.73"/><polygon class="cls-2" points="14.35 40.12 14.29 42 14.23 40.12 14.35 40.12"/><polygon class="cls-2" points="11.67 39.49 11.62 41.37 11.56 39.49 11.67 39.49"/><polygon class="cls-2" points="9.71 38.88 9.66 40.87 9.6 38.88 9.71 38.88"/><polygon class="cls-2" points="7.72 37.54 7.66 39.49 7.61 37.54 7.72 37.54"/><path class="cls-5" d="M10.13,36.27c0-1.07,2.85-2,6.36-2S10.13,37.35,10.13,36.27Z"/><path class="cls-5" d="M25,33.76s3.5,1.69.84,3.56A31.27,31.27,0,0,1,23,38.87s3.25-.81,4.14-1.88C28.57,35.21,25,33.76,25,33.76Z"/><path class="cls-6" d="M23.38,36.38l-.81,0a1.06,1.06,0,0,1-.76.95,4.75,4.75,0,0,1-1.76.27h-.22l-.31-.67h.26l.5,0a4.3,4.3,0,0,0,.64-.08,1.21,1.21,0,0,0,.47-.21.43.43,0,0,0,.17-.36.51.51,0,0,0-.29-.47,1.79,1.79,0,0,0-.85-.21H20a3.38,3.38,0,0,0-.38.06,1.75,1.75,0,0,0-.35.11l-.32.14-.32.18-1.44.83a2.94,2.94,0,0,1-.91.34,3.61,3.61,0,0,1-.77.07h-.4a3.29,3.29,0,0,1-1.56-.42,1.16,1.16,0,0,1-.61-.94l-.8,0v-.23l.8,0a1,1,0,0,1,.66-.8,4.65,4.65,0,0,1,1.7-.24h.09l.29.65h-.25l-.44,0a3.15,3.15,0,0,0-.56.08.72.72,0,0,0-.39.2.35.35,0,0,0-.11.27v.07c0,.42.4.64,1.06.68h.21a2.38,2.38,0,0,0,.49-.05,2.09,2.09,0,0,0,.6-.24l1.43-.84a5.07,5.07,0,0,1,1.2-.5A4.36,4.36,0,0,1,20,34.84h.33a3.52,3.52,0,0,1,1.55.4,1.24,1.24,0,0,1,.68.85l.83,0Z"/><path class="cls-1" d="M30.65,35.2c0,2-4.64,3.6-10.37,3.6S9.91,37.19,9.91,35.2V32.54a76.86,76.86,0,0,1,10.37-.95,71.92,71.92,0,0,1,10.37.95Z"/><path class="cls-1" d="M30.65,35.2c0,2-4.64,3.6-10.37,3.6S9.91,37.19,9.91,35.2V32.54a76.86,76.86,0,0,1,10.37-.95,71.92,71.92,0,0,1,10.37.95Z"/><path class="cls-2" d="M30.65,33c0,2-4.64,3.9-10.37,3.9S9.91,35,9.91,33c0-.39,3.11.15,3.11.15a9.57,9.57,0,0,1,7.26-3.76c4.85,0,6.62,2.82,6.62,2.82S30.65,32.66,30.65,33Z"/><path class="cls-3" d="M30.65,32.54c0,2-4.64,3.61-10.37,3.61S9.91,34.53,9.91,32.54s4.65-3.6,10.37-3.6S30.65,30.55,30.65,32.54Z"/><path class="cls-4" d="M20.28,30c-4.76,0-8.61,1.13-8.61,2.52,0,.66.84,1.25,2.22,1.7-1-.4-1.58-.9-1.58-1.44,0-1.32,3.62-2.4,8.08-2.4s8.08,1.08,8.08,2.4c0,.36-.27.7-.74,1,.74-.37,1.16-.8,1.16-1.27C28.89,31.09,25,30,20.28,30Z"/><polygon class="cls-2" points="20.17 36.75 20.11 38.63 20.06 36.75 20.17 36.75"/><polygon class="cls-2" points="22.99 36.56 22.93 38.44 22.88 36.56 22.99 36.56"/><polygon class="cls-2" points="25.75 36.08 25.7 37.97 25.64 36.08 25.75 36.08"/><polygon class="cls-2" points="28.27 35.2 28.21 37.09 28.16 35.2 28.27 35.2"/><polygon class="cls-2" points="29.91 34.18 29.86 36.06 29.8 34.18 29.91 34.18"/><polygon class="cls-2" points="17.21 36.56 17.16 38.44 17.1 36.56 17.21 36.56"/><polygon class="cls-2" points="14.54 35.93 14.49 37.82 14.43 35.93 14.54 35.93"/><polygon class="cls-2" points="12.58 35.32 12.53 37.31 12.47 35.32 12.58 35.32"/><polygon class="cls-2" points="10.59 33.98 10.53 35.93 10.48 33.98 10.59 33.98"/><path class="cls-5" d="M13,32.71c0-1.07,2.85-1.95,6.36-1.95S13,33.79,13,32.71Z"/><path class="cls-5" d="M27.83,30.2s3.5,1.69.84,3.57c-.75.52-2.85,1.54-2.85,1.54s3.25-.8,4.14-1.88C31.44,31.66,27.83,30.2,27.83,30.2Z"/><path class="cls-6" d="M26.25,32.83l-.81,0a1.06,1.06,0,0,1-.76.95,4.75,4.75,0,0,1-1.76.27H22.7l-.31-.67h.76c.22,0,.43,0,.64-.09a1.21,1.21,0,0,0,.47-.21.42.42,0,0,0,.17-.36.51.51,0,0,0-.29-.47,1.79,1.79,0,0,0-.85-.21h-.47a3,3,0,0,0-.38.06,1.75,1.75,0,0,0-.35.11l-.32.14-.32.18L20,33.3a2.94,2.94,0,0,1-.91.34,3.61,3.61,0,0,1-.77.07h-.4a3.29,3.29,0,0,1-1.56-.42,1.16,1.16,0,0,1-.61-.93L15,32.3v-.23l.8,0a1,1,0,0,1,.66-.8,4.65,4.65,0,0,1,1.7-.24h.09l.29.64h-.25l-.44,0a3.4,3.4,0,0,0-.57.08.72.72,0,0,0-.38.2.36.36,0,0,0-.11.28v.06c0,.42.4.65,1.06.69H18a1.85,1.85,0,0,0,.49,0,2.09,2.09,0,0,0,.6-.24l1.42-.84a5.29,5.29,0,0,1,1.21-.49,4,4,0,0,1,1.12-.14h.33a3.52,3.52,0,0,1,1.55.4,1.26,1.26,0,0,1,.68.85l.83.06Z"/><path class="cls-1" d="M29,30.72c0,2-4.64,3.6-10.36,3.6S8.26,32.71,8.26,30.72V28.06a76.86,76.86,0,0,1,10.37-.95A71.88,71.88,0,0,1,29,28.06Z"/><path class="cls-1" d="M29,30.72c0,2-4.64,3.6-10.36,3.6S8.26,32.71,8.26,30.72V28.06a76.86,76.86,0,0,1,10.37-.95A71.88,71.88,0,0,1,29,28.06Z"/><path class="cls-2" d="M29,28.49c0,2-4.64,3.9-10.36,3.9S8.26,30.48,8.26,28.49c0-.39,3.11.15,3.11.15a9.57,9.57,0,0,1,7.26-3.76c4.84,0,6.62,2.82,6.62,2.82S29,28.18,29,28.49Z"/><path class="cls-3" d="M29,28.06c0,2-4.64,3.61-10.36,3.61S8.26,30.05,8.26,28.06s4.64-3.6,10.37-3.6S29,26.07,29,28.06Z"/><path class="cls-4" d="M18.63,25.48C13.87,25.48,10,26.61,10,28c0,.65.84,1.25,2.22,1.7-1-.41-1.59-.9-1.59-1.44,0-1.33,3.62-2.41,8.08-2.41s8.08,1.08,8.08,2.41a1.32,1.32,0,0,1-.73,1c.73-.37,1.16-.81,1.16-1.27C27.24,26.61,23.38,25.48,18.63,25.48Z"/><polygon class="cls-2" points="18.52 32.27 18.46 34.15 18.4 32.27 18.52 32.27"/><polygon class="cls-2" points="21.33 32.08 21.28 33.96 21.22 32.08 21.33 32.08"/><polygon class="cls-2" points="24.1 31.6 24.04 33.49 23.99 31.6 24.1 31.6"/><polygon class="cls-2" points="26.61 30.72 26.56 32.61 26.5 30.72 26.61 30.72"/><polygon class="cls-2" points="28.26 29.7 28.2 31.58 28.15 29.7 28.26 29.7"/><polygon class="cls-2" points="15.56 32.08 15.51 33.96 15.45 32.08 15.56 32.08"/><polygon class="cls-2" points="12.89 31.45 12.83 33.34 12.78 31.45 12.89 31.45"/><polygon class="cls-2" points="10.93 30.84 10.87 32.83 10.82 30.84 10.93 30.84"/><polygon class="cls-2" points="8.94 29.5 8.88 31.45 8.82 29.5 8.94 29.5"/><path class="cls-5" d="M11.34,28.23c0-1.07,2.85-1.95,6.36-1.95S11.34,29.31,11.34,28.23Z"/><path class="cls-5" d="M26.17,25.72s3.51,1.69.85,3.57c-.75.52-2.86,1.54-2.86,1.54S27.41,30,28.31,29C29.79,27.18,26.17,25.72,26.17,25.72Z"/><path class="cls-6" d="M24.59,28.34l-.81-.05a1,1,0,0,1-.75,1,4.75,4.75,0,0,1-1.76.27H21l-.31-.67H21l.5,0a4.17,4.17,0,0,0,.63-.08,1.19,1.19,0,0,0,.48-.21.46.46,0,0,0,.17-.36.53.53,0,0,0-.29-.47,1.82,1.82,0,0,0-.85-.21h-.47a3.24,3.24,0,0,0-.39.06,2,2,0,0,0-.35.11l-.31.14-.33.18-1.43.83a3.14,3.14,0,0,1-.91.34,3.71,3.71,0,0,1-.78.07h-.39a3.3,3.3,0,0,1-1.57-.42,1.18,1.18,0,0,1-.61-.93l-.79-.05v-.23l.8.05a1,1,0,0,1,.66-.8,4.59,4.59,0,0,1,1.69-.24h.09l.3.64h-.26l-.44,0a3.28,3.28,0,0,0-.56.08.8.8,0,0,0-.39.2.39.39,0,0,0-.11.28.13.13,0,0,0,0,.06c0,.42.39.65,1.06.69h.2a2.49,2.49,0,0,0,.5,0,2.09,2.09,0,0,0,.6-.24l1.42-.84a5.61,5.61,0,0,1,1.21-.5,4.28,4.28,0,0,1,1.11-.13h.34a3.48,3.48,0,0,1,1.54.4,1.31,1.31,0,0,1,.69.85l.82.05Z"/><path class="cls-1" d="M37.34,26.78c0,2-4.64,3.6-10.36,3.6s-10.37-1.61-10.37-3.6V24.12A76.86,76.86,0,0,1,27,23.17a71.88,71.88,0,0,1,10.36.95Z"/><path class="cls-1" d="M37.34,26.78c0,2-4.64,3.6-10.36,3.6s-10.37-1.61-10.37-3.6V24.12A76.86,76.86,0,0,1,27,23.17a71.88,71.88,0,0,1,10.36.95Z"/><path class="cls-2" d="M37.34,24.55c0,2-4.64,3.9-10.36,3.9s-10.37-1.91-10.37-3.9c0-.39,3.11.15,3.11.15A9.57,9.57,0,0,1,27,20.94c4.84,0,6.62,2.82,6.62,2.82S37.34,24.24,37.34,24.55Z"/><path class="cls-3" d="M37.34,24.12c0,2-4.64,3.61-10.36,3.61s-10.37-1.62-10.37-3.61S21.25,20.51,27,20.51,37.34,22.13,37.34,24.12Z"/><path class="cls-4" d="M27,21.54c-4.76,0-8.62,1.13-8.62,2.52,0,.65.85,1.25,2.23,1.69-1-.39-1.59-.89-1.59-1.43,0-1.33,3.62-2.4,8.08-2.4s8.08,1.07,8.08,2.4a1.32,1.32,0,0,1-.73,1c.73-.37,1.16-.81,1.16-1.27C35.59,22.67,31.73,21.54,27,21.54Z"/><polygon class="cls-2" points="26.87 28.32 26.81 30.21 26.75 28.32 26.87 28.32"/><polygon class="cls-2" points="29.68 28.14 29.63 30.02 29.57 28.14 29.68 28.14"/><polygon class="cls-2" points="32.45 27.66 32.39 29.55 32.34 27.66 32.45 27.66"/><polygon class="cls-2" points="34.96 26.78 34.91 28.67 34.85 26.78 34.96 26.78"/><polygon class="cls-2" points="36.61 25.75 36.55 27.64 36.49 25.75 36.61 25.75"/><polygon class="cls-2" points="23.91 28.14 23.85 30.02 23.8 28.14 23.91 28.14"/><polygon class="cls-2" points="21.24 27.51 21.18 29.39 21.13 27.51 21.24 27.51"/><polygon class="cls-2" points="19.28 26.9 19.22 28.89 19.16 26.9 19.28 26.9"/><polygon class="cls-2" points="17.29 25.56 17.23 27.51 17.17 25.56 17.29 25.56"/><path class="cls-5" d="M19.69,24.29c0-1.07,2.85-1.95,6.36-1.95S19.69,25.37,19.69,24.29Z"/><path class="cls-5" d="M34.52,21.78s3.51,1.69.85,3.57c-.75.52-2.86,1.54-2.86,1.54s3.25-.81,4.15-1.88C38.14,23.24,34.52,21.78,34.52,21.78Z"/><path class="cls-6" d="M32.94,24.4l-.81,0a1,1,0,0,1-.75,1,4.75,4.75,0,0,1-1.76.27h-.23l-.31-.67h.27l.5,0a4.17,4.17,0,0,0,.63-.08A1.19,1.19,0,0,0,31,24.6a.46.46,0,0,0,.17-.36.53.53,0,0,0-.29-.47,1.82,1.82,0,0,0-.85-.21h-.47a3.24,3.24,0,0,0-.39.06,2,2,0,0,0-.35.11l-.31.14-.33.18-1.43.83a3.1,3.1,0,0,1-.92.34,3.55,3.55,0,0,1-.77.07h-.39a3.3,3.3,0,0,1-1.57-.42,1.18,1.18,0,0,1-.61-.94l-.79,0v-.23l.8,0a1,1,0,0,1,.66-.8,4.59,4.59,0,0,1,1.69-.24h.09l.3.65h-.26l-.44,0a3.28,3.28,0,0,0-.56.08.72.72,0,0,0-.39.2.39.39,0,0,0-.11.27.17.17,0,0,0,0,.07c0,.42.39.65,1.06.68h.2a1.8,1.8,0,0,0,.49-.05,2,2,0,0,0,.61-.24l1.42-.84a5.14,5.14,0,0,1,1.21-.5,4.28,4.28,0,0,1,1.11-.13h.34a3.48,3.48,0,0,1,1.54.4,1.29,1.29,0,0,1,.69.85l.82.05Z"/><path class="cls-1" d="M17.19,23.57c1.38,1.43-.84,5.81-5,9.78s-8.59,6-10,4.59L.41,36a77.5,77.5,0,0,1,6.81-7.87,72.14,72.14,0,0,1,8.13-6.51Z"/><path class="cls-1" d="M17.19,23.57c1.38,1.43-.84,5.81-5,9.78s-8.59,6-10,4.59L.41,36a77.5,77.5,0,0,1,6.81-7.87,72.14,72.14,0,0,1,8.13-6.51Z"/><path class="cls-2" d="M15.64,22C17,23.39,15,28,10.88,32S2.09,37.77.71,36.34c-.28-.29,2.34-2.05,2.34-2.05a9.58,9.58,0,0,1,2.62-7.74C9.17,23.19,12.4,24,12.4,24S15.43,21.74,15.64,22Z"/><path class="cls-3" d="M15.35,21.65c1.38,1.44-.85,5.82-5,9.79s-8.59,6-10,4.59.84-5.82,5-9.79S14,20.22,15.35,21.65Z"/><path class="cls-4" d="M6.09,27c-3.43,3.3-5.42,6.79-4.45,7.79.45.47,1.46.31,2.77-.32-1,.4-1.76.45-2.14.07-.92-1,.94-4.25,4.16-7.34s6.57-4.83,7.49-3.87a1.31,1.31,0,0,1,.16,1.24c.28-.78.28-1.39,0-1.72C13.08,21.82,9.52,23.68,6.09,27Z"/><polygon class="cls-2" points="10.72 31.95 11.98 33.34 10.63 32.02 10.72 31.95"/><polygon class="cls-2" points="12.61 29.86 13.88 31.25 12.53 29.94 12.61 29.86"/><polygon class="cls-2" points="14.28 27.6 15.54 28.99 14.2 27.68 14.28 27.6"/><polygon class="cls-2" points="15.48 25.22 16.75 26.62 15.4 25.3 15.48 25.22"/><polygon class="cls-2" points="15.95 23.34 17.22 24.74 15.87 23.42 15.95 23.34"/><polygon class="cls-2" points="8.46 33.86 9.72 35.26 8.38 33.94 8.46 33.86"/><polygon class="cls-2" points="6.09 35.26 7.36 36.66 6.01 35.34 6.09 35.26"/><polygon class="cls-2" points="4.26 36.18 5.6 37.65 4.18 36.26 4.26 36.18"/><polygon class="cls-2" points="1.89 36.6 3.21 38.04 1.81 36.67 1.89 36.6"/><path class="cls-5" d="M2.75,34C2,33.24,3.45,30.63,6,28.2S3.5,34.79,2.75,34Z"/><path class="cls-5" d="M11.69,21.92s3.7-1.21,3.08,2a31.34,31.34,0,0,1-1,3.09s1.78-2.84,1.68-4.23C15.31,20.46,11.69,21.92,11.69,21.92Z"/><path class="cls-6" d="M12.37,24.91l-.61.52a1.07,1.07,0,0,1,.12,1.22,4.61,4.61,0,0,1-1.08,1.41l-.17.16-.69-.28.2-.17.34-.36a3.2,3.2,0,0,0,.4-.51,1,1,0,0,0,.2-.48.42.42,0,0,0-.12-.37.52.52,0,0,0-.54-.14,1.85,1.85,0,0,0-.76.44l-.16.14a1.54,1.54,0,0,0-.17.19,2.61,2.61,0,0,0-.24.3,1.29,1.29,0,0,0-.18.33,3.05,3.05,0,0,0-.13.31c0,.09-.07.21-.11.36l-.46,1.59a2.75,2.75,0,0,1-.42.88,3.75,3.75,0,0,1-.51.59L7,31.3a3.25,3.25,0,0,1-1.42.79,1.21,1.21,0,0,1-1.09-.25l-.6.51-.16-.16.61-.52a1,1,0,0,1-.08-1,4.7,4.7,0,0,1,1-1.34l.07-.07.66.26-.19.18c-.12.11-.22.21-.31.31a4.58,4.58,0,0,0-.35.45.84.84,0,0,0-.14.41.39.39,0,0,0,.12.28s0,0,0,0c.32.27.74.19,1.24-.24l.16-.14a2.15,2.15,0,0,0,.32-.38,2.49,2.49,0,0,0,.26-.59l.45-1.59a4.56,4.56,0,0,1,1.23-2.07l.25-.22a3.59,3.59,0,0,1,1.39-.78,1.26,1.26,0,0,1,1.08.14l.64-.54Z"/></g></g></svg>