<svg xmlns="http://www.w3.org/2000/svg" viewBox="0 0 82.29 50.91"><defs><style>.cls-1{fill:#ffd685;}.cls-2{fill:#ff8321;}.cls-3{fill:#fc5;}</style></defs><g id="Layer_2" data-name="Layer 2"><g id="OBJECTS"><path class="cls-1" d="M19,35.29S10.5,34.6,8.22,33a2.72,2.72,0,0,1,1.89-4.91l.76.08-.18-.74a2.7,2.7,0,0,1,4.65-2.47C17.26,27.13,19,35.29,19,35.29Z"/><path class="cls-2" d="M17.14,33.84c1.09.58,1.89,1.19,1.79,1.38s-1.05-.13-2.14-.71S14.9,33.33,15,33.14,16.06,33.27,17.14,33.84Z"/><path class="cls-2" d="M17.31,33.65c.7,1,1.41,1.73,1.58,1.61s-.26-1-1-2-1.4-1.73-1.58-1.61S16.61,32.65,17.31,33.65Z"/><path class="cls-3" d="M19,35.22s-4.76,7-7.3,8.21a2.72,2.72,0,0,1-3.36-4.06l.45-.62L8,38.54a2.71,2.71,0,0,1,.13-5.27C11,32.69,19,35.22,19,35.22Z"/><path class="cls-2" d="M16.8,36.09c1-.67,2-1.06,2.07-.89s-.63.86-1.66,1.53-2,1.06-2.08.88S15.76,36.75,16.8,36.09Z"/><path class="cls-2" d="M16.71,35.85c1.23-.12,2.2-.38,2.18-.59s-1-.28-2.25-.17-2.19.38-2.18.59S15.49,36,16.71,35.85Z"/><path class="cls-1" d="M18.88,35.19s3.63,7.67,3.36,10.46a2.72,2.72,0,0,1-5.2.83l-.31-.7-.55.52a2.71,2.71,0,0,1-4.47-2.79C12.66,40.75,18.88,35.19,18.88,35.19Z"/><path class="cls-2" d="M18.54,37.49c-.05-1.23.08-2.23.29-2.24s.42,1,.46,2.21-.08,2.23-.29,2.23S18.58,38.71,18.54,37.49Z"/><path class="cls-2" d="M18.29,37.44c.52-1.11.79-2.09.6-2.18s-.77.74-1.29,1.85-.79,2.09-.6,2.18S17.77,38.55,18.29,37.44Z"/><path class="cls-3" d="M18.82,35.23s8.43,1,10.65,2.72a2.72,2.72,0,0,1-2.06,4.84l-.76-.11.15.75a2.71,2.71,0,0,1-4.74,2.3C20.23,43.45,18.82,35.23,18.82,35.23Z"/><path class="cls-2" d="M20.59,36.75c-1.07-.62-1.85-1.26-1.74-1.44s1,.17,2.11.78,1.85,1.25,1.74,1.44S21.65,37.36,20.59,36.75Z"/><path class="cls-2" d="M20.41,36.93c-.66-1-1.34-1.78-1.52-1.67s.22,1.05.88,2.08,1.35,1.78,1.52,1.66S21.08,38,20.41,36.93Z"/><path class="cls-1" d="M18.83,35.31s4.89-6.94,7.45-8.08a2.72,2.72,0,0,1,3.28,4.12L29.1,32l.73.22a2.71,2.71,0,0,1-.22,5.27C26.73,38,18.83,35.31,18.83,35.31Z"/><path class="cls-2" d="M21,34.48c-1,.64-2,1-2.09.84s.65-.84,1.69-1.49,2-1,2.09-.85S22.05,33.83,21,34.48Z"/><path class="cls-2" d="M21.08,34.72c-1.23.09-2.2.33-2.19.54s1,.31,2.25.21,2.2-.34,2.18-.54S22.3,34.62,21.08,34.72Z"/><path class="cls-3" d="M18.9,35.34s-3.5-7.74-3.17-10.52a2.72,2.72,0,0,1,5.21-.74l.29.71.57-.52a2.71,2.71,0,0,1,4.42,2.87C25.21,29.89,18.9,35.34,18.9,35.34Z"/><path class="cls-2" d="M19.29,33.05c0,1.22-.13,2.22-.34,2.23s-.4-1-.42-2.22.12-2.22.33-2.23S19.26,31.82,19.29,33.05Z"/><path class="cls-2" d="M19.53,33.1c-.54,1.1-.83,2.07-.64,2.16s.78-.72,1.32-1.82.83-2.07.64-2.17S20.07,32,19.53,33.1Z"/><path class="cls-1" d="M28.16,18.52s-8.46-.7-10.74-2.33a2.72,2.72,0,0,1,1.89-4.91l.76.08-.18-.74a2.7,2.7,0,0,1,4.65-2.47C26.46,10.36,28.16,18.52,28.16,18.52Z"/><path class="cls-2" d="M26.34,17.07c1.09.57,1.89,1.19,1.79,1.37s-1.05-.12-2.14-.7-1.89-1.19-1.79-1.37S25.26,16.5,26.34,17.07Z"/><path class="cls-2" d="M26.51,16.88c.7,1,1.41,1.73,1.58,1.61s-.25-1-1-2-1.4-1.73-1.58-1.61S25.81,15.87,26.51,16.88Z"/><path class="cls-3" d="M28.15,18.44s-4.76,7-7.3,8.22a2.73,2.73,0,0,1-3.36-4.07l.45-.61-.73-.22a2.7,2.7,0,0,1,.13-5.26C20.21,15.91,28.15,18.44,28.15,18.44Z"/><path class="cls-2" d="M26,19.32c1-.67,2-1.06,2.07-.89s-.63.86-1.66,1.52-2,1.06-2.08.89S25,20,26,19.32Z"/><path class="cls-2" d="M25.91,19.08c1.23-.12,2.2-.38,2.18-.59s-1-.28-2.25-.17-2.19.38-2.17.59S24.69,19.19,25.91,19.08Z"/><path class="cls-1" d="M28.08,18.42s3.63,7.67,3.36,10.46a2.72,2.72,0,0,1-5.2.82l-.31-.7-.55.53a2.71,2.71,0,0,1-4.47-2.79C21.87,24,28.08,18.42,28.08,18.42Z"/><path class="cls-2" d="M27.74,20.71c0-1.22.08-2.22.29-2.23s.42,1,.47,2.21-.09,2.22-.3,2.23S27.78,21.94,27.74,20.71Z"/><path class="cls-2" d="M27.49,20.66c.52-1.11.79-2.08.6-2.17s-.76.74-1.29,1.85-.79,2.09-.6,2.17S27,21.78,27.49,20.66Z"/><path class="cls-3" d="M28,18.46s8.43,1,10.65,2.72A2.72,2.72,0,0,1,36.61,26l-.76-.11.15.75A2.71,2.71,0,0,1,31.26,29C29.43,26.68,28,18.46,28,18.46Z"/><path class="cls-2" d="M29.79,20c-1.07-.61-1.84-1.25-1.74-1.43s1.05.16,2.12.78S32,20.57,31.9,20.75,30.85,20.59,29.79,20Z"/><path class="cls-2" d="M29.61,20.16c-.66-1-1.34-1.78-1.52-1.67s.22,1,.89,2.08,1.34,1.77,1.52,1.66S30.28,21.19,29.61,20.16Z"/><path class="cls-1" d="M28,18.54s4.89-6.94,7.45-8.08a2.72,2.72,0,0,1,3.28,4.12l-.46.61.73.22a2.7,2.7,0,0,1-.22,5.26C35.93,21.21,28,18.54,28,18.54Z"/><path class="cls-2" d="M30.2,17.7c-1,.65-2,1-2.09.85s.65-.85,1.69-1.49,2-1,2.09-.85S31.25,17.06,30.2,17.7Z"/><path class="cls-2" d="M30.28,17.94c-1.22.1-2.2.34-2.19.55s1,.3,2.25.21,2.2-.34,2.19-.55S31.5,17.85,30.28,17.94Z"/><path class="cls-3" d="M28.1,18.57S24.61,10.83,24.93,8a2.72,2.72,0,0,1,5.21-.73l.3.71L31,7.5a2.71,2.71,0,0,1,4.42,2.87C34.42,13.12,28.1,18.57,28.1,18.57Z"/><path class="cls-2" d="M28.49,16.27c0,1.23-.13,2.23-.34,2.23s-.4-1-.42-2.21.12-2.23.33-2.23S28.46,15.05,28.49,16.27Z"/><path class="cls-2" d="M28.73,16.33c-.54,1.1-.83,2.07-.64,2.16s.78-.72,1.32-1.83.83-2.07.64-2.16S29.27,15.23,28.73,16.33Z"/><path class="cls-1" d="M49.73,26.88s-8.46-.7-10.74-2.33a2.72,2.72,0,0,1,1.89-4.91l.76.08L41.46,19a2.7,2.7,0,0,1,4.65-2.47C48,18.72,49.73,26.88,49.73,26.88Z"/><path class="cls-2" d="M47.91,25.43C49,26,49.8,26.62,49.7,26.8s-1.06-.12-2.14-.7-1.89-1.19-1.79-1.37S46.83,24.86,47.91,25.43Z"/><path class="cls-2" d="M48.08,25.24c.7,1,1.41,1.73,1.58,1.61s-.26-1-1-2-1.41-1.73-1.58-1.61S47.38,24.23,48.08,25.24Z"/><path class="cls-3" d="M49.72,26.8S45,33.83,42.41,35A2.72,2.72,0,0,1,39.06,31l.45-.62-.74-.22a2.7,2.7,0,0,1,.14-5.26C41.77,24.27,49.72,26.8,49.72,26.8Z"/><path class="cls-2" d="M47.57,27.68c1-.67,2-1.06,2.07-.89S49,27.65,48,28.31s-2,1.06-2.08.89S46.53,28.34,47.57,27.68Z"/><path class="cls-2" d="M47.48,27.44c1.23-.12,2.2-.38,2.18-.59s-1-.28-2.25-.17-2.2.38-2.18.59S46.26,27.55,47.48,27.44Z"/><path class="cls-1" d="M49.65,26.78S53.28,34.45,53,37.24a2.72,2.72,0,0,1-5.2.82l-.31-.7-.55.53a2.71,2.71,0,0,1-4.47-2.79C43.43,32.33,49.65,26.78,49.65,26.78Z"/><path class="cls-2" d="M49.31,29.07c-.05-1.22.08-2.22.29-2.23s.42,1,.46,2.21-.08,2.22-.29,2.23S49.35,30.3,49.31,29.07Z"/><path class="cls-2" d="M49.06,29c.52-1.11.79-2.08.6-2.17s-.77.74-1.29,1.85-.79,2.09-.6,2.17S48.54,30.14,49.06,29Z"/><path class="cls-3" d="M49.59,26.82s8.43,1,10.65,2.72a2.72,2.72,0,0,1-2.07,4.84l-.75-.11.15.75a2.71,2.71,0,0,1-4.74,2.3C51,35,49.59,26.82,49.59,26.82Z"/><path class="cls-2" d="M51.36,28.33c-1.07-.61-1.85-1.25-1.74-1.43s1.05.16,2.11.78,1.85,1.25,1.74,1.43S52.42,29,51.36,28.33Z"/><path class="cls-2" d="M51.18,28.52c-.66-1-1.34-1.78-1.52-1.67s.22,1,.88,2.08,1.35,1.77,1.52,1.66S51.84,29.55,51.18,28.52Z"/><path class="cls-1" d="M49.6,26.9s4.89-6.94,7.45-8.08a2.72,2.72,0,0,1,3.28,4.12l-.46.61.73.22A2.7,2.7,0,0,1,60.38,29C57.5,29.57,49.6,26.9,49.6,26.9Z"/><path class="cls-2" d="M51.77,26.06c-1,.65-2,1-2.09.85s.65-.85,1.69-1.49,2-1,2.09-.85S52.81,25.42,51.77,26.06Z"/><path class="cls-2" d="M51.85,26.3c-1.23.1-2.21.34-2.19.55s1,.3,2.25.21,2.2-.34,2.18-.55S53.07,26.21,51.85,26.3Z"/><path class="cls-3" d="M49.67,26.93s-3.5-7.74-3.18-10.53a2.72,2.72,0,0,1,5.22-.73l.29.71.57-.52A2.71,2.71,0,0,1,57,18.73C56,21.48,49.67,26.93,49.67,26.93Z"/><path class="cls-2" d="M50.05,24.63c0,1.23-.12,2.23-.33,2.23s-.4-1-.42-2.21.12-2.23.33-2.23S50,23.41,50.05,24.63Z"/><path class="cls-2" d="M50.3,24.69c-.54,1.1-.83,2.07-.64,2.16S50.44,26.13,51,25s.83-2.07.64-2.16S50.84,23.59,50.3,24.69Z"/><path class="cls-1" d="M36.15,37.49s-8.46-.69-10.74-2.32a2.72,2.72,0,0,1,1.89-4.92l.76.09-.18-.75a2.7,2.7,0,0,1,4.65-2.47C34.45,29.33,36.15,37.49,36.15,37.49Z"/><path class="cls-2" d="M34.33,36.05c1.09.57,1.89,1.19,1.79,1.37s-1.06-.13-2.14-.7-1.89-1.19-1.79-1.37S33.25,35.47,34.33,36.05Z"/><path class="cls-2" d="M34.5,35.86c.7,1,1.41,1.73,1.58,1.61s-.26-1-1-2-1.41-1.73-1.58-1.61S33.8,34.85,34.5,35.86Z"/><path class="cls-3" d="M36.14,37.42s-4.76,7-7.31,8.21a2.72,2.72,0,0,1-3.35-4.06l.45-.62-.74-.21a2.7,2.7,0,0,1,.14-5.26C28.19,34.89,36.14,37.42,36.14,37.42Z"/><path class="cls-2" d="M34,38.29c1-.66,2-1.06,2.08-.88s-.63.86-1.67,1.52-2,1.06-2.07.88S33,39,34,38.29Z"/><path class="cls-2" d="M33.9,38.05c1.22-.11,2.2-.37,2.18-.58s-1-.29-2.25-.17-2.2.38-2.18.58S32.68,38.17,33.9,38.05Z"/><path class="cls-1" d="M36.07,37.39s3.63,7.67,3.36,10.47a2.72,2.72,0,0,1-5.2.82l-.31-.7-.55.53a2.71,2.71,0,0,1-4.47-2.79C29.85,43,36.07,37.39,36.07,37.39Z"/><path class="cls-2" d="M35.72,39.69c0-1.23.09-2.23.3-2.23s.42,1,.46,2.2-.08,2.23-.29,2.24S35.77,40.92,35.72,39.69Z"/><path class="cls-2" d="M35.48,39.64c.52-1.11.79-2.08.6-2.17s-.77.74-1.29,1.85-.79,2.08-.6,2.17S35,40.75,35.48,39.64Z"/><path class="cls-3" d="M36,37.44s8.43,1,10.65,2.71A2.72,2.72,0,0,1,44.59,45l-.75-.12.15.75a2.71,2.71,0,0,1-4.74,2.3C37.41,45.66,36,37.44,36,37.44Z"/><path class="cls-2" d="M37.77,39c-1.06-.61-1.84-1.26-1.73-1.44s1.05.17,2.11.78,1.84,1.26,1.74,1.44S38.84,39.56,37.77,39Z"/><path class="cls-2" d="M37.6,39.13c-.66-1-1.34-1.78-1.52-1.66s.22,1,.88,2.07,1.35,1.78,1.52,1.67S38.26,40.17,37.6,39.13Z"/><path class="cls-1" d="M36,37.51s4.89-6.94,7.45-8.08a2.72,2.72,0,0,1,3.28,4.12l-.46.61.73.23a2.7,2.7,0,0,1-.22,5.26C43.92,40.18,36,37.51,36,37.51Z"/><path class="cls-2" d="M38.19,36.68c-1,.65-2,1-2.09.85s.65-.85,1.69-1.49,2-1,2.09-.85S39.23,36,38.19,36.68Z"/><path class="cls-2" d="M38.27,36.92c-1.23.09-2.21.34-2.19.55s1,.3,2.24.21,2.21-.34,2.19-.55S39.49,36.83,38.27,36.92Z"/><path class="cls-3" d="M36.09,37.54S32.59,29.81,32.91,27a2.72,2.72,0,0,1,5.22-.73l.29.7.57-.51a2.7,2.7,0,0,1,4.41,2.87C42.4,32.1,36.09,37.54,36.09,37.54Z"/><path class="cls-2" d="M36.47,35.25c0,1.23-.12,2.23-.33,2.23s-.4-1-.43-2.21.13-2.23.34-2.23S36.45,34,36.47,35.25Z"/><path class="cls-2" d="M36.72,35.31c-.54,1.1-.83,2.07-.64,2.16s.78-.73,1.32-1.83.83-2.07.64-2.16S37.26,34.2,36.72,35.31Z"/><path class="cls-1" d="M57.64,35s-8.46-.69-10.74-2.32a2.72,2.72,0,0,1,1.89-4.92l.76.09-.18-.75A2.7,2.7,0,0,1,54,24.67C55.94,26.88,57.64,35,57.64,35Z"/><path class="cls-2" d="M55.82,33.6c1.09.57,1.89,1.18,1.79,1.37s-1.06-.13-2.14-.7-1.89-1.19-1.79-1.38S54.74,33,55.82,33.6Z"/><path class="cls-2" d="M56,33.41c.7,1,1.41,1.73,1.58,1.61s-.26-1-1-2.05S55.2,31.25,55,31.37,55.29,32.4,56,33.41Z"/><path class="cls-3" d="M57.63,35s-4.76,7-7.31,8.21A2.72,2.72,0,0,1,47,39.12l.45-.62-.74-.21A2.71,2.71,0,0,1,46.81,33C49.68,32.44,57.63,35,57.63,35Z"/><path class="cls-2" d="M55.47,35.84c1-.66,2-1.06,2.08-.88s-.63.85-1.67,1.52-2,1.06-2.07.88S54.44,36.51,55.47,35.84Z"/><path class="cls-2" d="M55.39,35.6c1.22-.11,2.2-.38,2.18-.58s-1-.29-2.25-.17-2.2.37-2.18.58S54.17,35.72,55.39,35.6Z"/><path class="cls-1" d="M57.56,34.94s3.63,7.67,3.36,10.47a2.72,2.72,0,0,1-5.2.82l-.31-.7-.55.52a2.7,2.7,0,0,1-4.47-2.78C51.34,40.5,57.56,34.94,57.56,34.94Z"/><path class="cls-2" d="M57.21,37.24c0-1.23.09-2.23.3-2.24s.42,1,.46,2.21-.08,2.23-.29,2.24S57.26,38.47,57.21,37.24Z"/><path class="cls-2" d="M57,37.19c.52-1.11.79-2.08.6-2.17s-.77.74-1.29,1.85S55.49,39,55.68,39,56.44,38.3,57,37.19Z"/><path class="cls-3" d="M57.5,35s8.43,1,10.65,2.71a2.72,2.72,0,0,1-2.07,4.85l-.75-.12.15.75a2.71,2.71,0,0,1-4.74,2.3C58.9,43.2,57.5,35,57.5,35Z"/><path class="cls-2" d="M59.26,36.5c-1.06-.61-1.84-1.26-1.73-1.44s1,.17,2.11.78,1.84,1.26,1.74,1.44S60.33,37.11,59.26,36.5Z"/><path class="cls-2" d="M59.09,36.68c-.66-1-1.35-1.78-1.52-1.66s.22,1,.88,2.07S59.8,38.87,60,38.76,59.75,37.71,59.09,36.68Z"/><path class="cls-1" d="M57.51,35.06S62.39,28.12,65,27a2.72,2.72,0,0,1,3.28,4.12l-.46.61.73.23a2.7,2.7,0,0,1-.22,5.26C65.41,37.73,57.51,35.06,57.51,35.06Z"/><path class="cls-2" d="M59.68,34.23c-1,.64-2,1-2.09.85s.65-.85,1.69-1.5,2-1,2.09-.84S60.72,33.58,59.68,34.23Z"/><path class="cls-2" d="M59.76,34.47c-1.23.09-2.21.34-2.19.55s1,.3,2.24.21S62,34.89,62,34.68,61,34.38,59.76,34.47Z"/><path class="cls-3" d="M57.58,35.09s-3.5-7.73-3.18-10.52a2.72,2.72,0,0,1,5.22-.73l.29.7.57-.51a2.7,2.7,0,0,1,4.41,2.86C63.89,29.65,57.58,35.09,57.58,35.09Z"/><path class="cls-2" d="M58,32.8C58,34,57.84,35,57.63,35s-.4-1-.43-2.21.13-2.23.34-2.24S57.94,31.57,58,32.8Z"/><path class="cls-2" d="M58.21,32.85c-.54,1.11-.83,2.07-.64,2.17s.78-.73,1.32-1.83.83-2.07.64-2.16S58.75,31.75,58.21,32.85Z"/><path class="cls-1" d="M68.31,31.13s-8.46-.69-10.74-2.33a2.72,2.72,0,0,1,1.89-4.91l.76.08L60,23.23a2.7,2.7,0,0,1,4.65-2.47C66.61,23,68.31,31.13,68.31,31.13Z"/><path class="cls-2" d="M66.49,29.68c1.09.58,1.89,1.19,1.79,1.38s-1.06-.13-2.14-.71S64.25,29.16,64.35,29,65.41,29.11,66.49,29.68Z"/><path class="cls-2" d="M66.66,29.49c.7,1,1.41,1.73,1.58,1.61s-.26-1-1-2-1.41-1.73-1.58-1.61S66,28.48,66.66,29.49Z"/><path class="cls-3" d="M68.3,31.05s-4.76,7-7.31,8.22a2.72,2.72,0,0,1-3.35-4.06l.45-.62-.74-.21a2.71,2.71,0,0,1,.13-5.27C60.35,28.52,68.3,31.05,68.3,31.05Z"/><path class="cls-2" d="M66.14,31.93c1-.67,2-1.06,2.08-.89s-.63.86-1.67,1.52-2,1.06-2.07.89S65.11,32.59,66.14,31.93Z"/><path class="cls-2" d="M66.06,31.69c1.22-.12,2.2-.38,2.18-.59s-1-.28-2.25-.17-2.2.38-2.18.59S64.84,31.8,66.06,31.69Z"/><path class="cls-1" d="M68.23,31s3.63,7.67,3.36,10.46a2.72,2.72,0,0,1-5.2.83l-.31-.71-.55.53a2.71,2.71,0,0,1-4.47-2.79C62,36.58,68.23,31,68.23,31Z"/><path class="cls-2" d="M67.88,33.33c0-1.23.09-2.23.3-2.24s.42,1,.46,2.21-.08,2.22-.29,2.23S67.93,34.55,67.88,33.33Z"/><path class="cls-2" d="M67.64,33.27c.52-1.11.79-2.08.6-2.17S67.47,31.84,67,33s-.79,2.09-.6,2.18S67.11,34.39,67.64,33.27Z"/><path class="cls-3" d="M68.17,31.07s8.43,1,10.65,2.72a2.72,2.72,0,0,1-2.07,4.84L76,38.52l.15.75a2.71,2.71,0,0,1-4.74,2.3C69.57,39.29,68.17,31.07,68.17,31.07Z"/><path class="cls-2" d="M69.93,32.58c-1.06-.61-1.84-1.25-1.73-1.43s1,.16,2.11.78,1.84,1.25,1.74,1.43S71,33.2,69.93,32.58Z"/><path class="cls-2" d="M69.76,32.77c-.66-1-1.34-1.78-1.52-1.67s.22,1,.88,2.08,1.35,1.77,1.52,1.66S70.42,33.8,69.76,32.77Z"/><path class="cls-1" d="M68.18,31.15s4.88-6.94,7.45-8.08a2.72,2.72,0,0,1,3.28,4.12l-.46.61.73.22A2.7,2.7,0,0,1,79,33.28C76.08,33.82,68.18,31.15,68.18,31.15Z"/><path class="cls-2" d="M70.35,30.31c-1,.65-2,1-2.09.85s.65-.85,1.69-1.49,2-1,2.09-.85S71.39,29.67,70.35,30.31Z"/><path class="cls-2" d="M70.43,30.55c-1.23.1-2.21.34-2.19.55s1,.3,2.24.21,2.21-.34,2.19-.55S71.65,30.46,70.43,30.55Z"/><path class="cls-3" d="M68.25,31.18s-3.5-7.74-3.18-10.53a2.72,2.72,0,0,1,5.22-.73l.29.71.57-.52A2.7,2.7,0,0,1,75.56,23C74.56,25.73,68.25,31.18,68.25,31.18Z"/><path class="cls-2" d="M68.63,28.88c0,1.23-.12,2.23-.33,2.23s-.4-1-.43-2.21.13-2.23.34-2.23S68.61,27.66,68.63,28.88Z"/><path class="cls-2" d="M68.88,28.94c-.54,1.1-.83,2.07-.64,2.16s.78-.72,1.32-1.83.83-2.07.64-2.16S69.42,27.84,68.88,28.94Z"/><path class="cls-1" d="M69.44,23.7S61,23,58.7,21.38a2.72,2.72,0,0,1,1.89-4.92l.76.09-.18-.75a2.7,2.7,0,0,1,4.65-2.47C67.74,15.54,69.44,23.7,69.44,23.7Z"/><path class="cls-2" d="M67.62,22.26c1.09.57,1.89,1.19,1.79,1.37s-1-.13-2.14-.7-1.89-1.19-1.79-1.37S66.54,21.68,67.62,22.26Z"/><path class="cls-2" d="M67.79,22.07c.7,1,1.41,1.73,1.58,1.61s-.25-1-1-2S67,19.91,66.83,20,67.09,21.06,67.79,22.07Z"/><path class="cls-3" d="M69.43,23.63s-4.76,7-7.3,8.21a2.72,2.72,0,0,1-3.36-4.06l.45-.62L58.49,27a2.7,2.7,0,0,1,.13-5.26C61.49,21.1,69.43,23.63,69.43,23.63Z"/><path class="cls-2" d="M67.28,24.5c1-.66,2-1.06,2.07-.88s-.63.86-1.66,1.52-2,1.06-2.08.88S66.24,25.17,67.28,24.5Z"/><path class="cls-2" d="M67.19,24.26c1.23-.11,2.2-.37,2.18-.58s-1-.29-2.25-.17-2.19.38-2.17.58S66,24.38,67.19,24.26Z"/><path class="cls-1" d="M69.36,23.6S73,31.28,72.72,34.07a2.72,2.72,0,0,1-5.2.82l-.31-.7-.55.53a2.71,2.71,0,0,1-4.47-2.79C63.15,29.16,69.36,23.6,69.36,23.6Z"/><path class="cls-2" d="M69,25.9c0-1.23.08-2.23.29-2.23s.42,1,.47,2.2-.09,2.23-.3,2.24S69.06,27.13,69,25.9Z"/><path class="cls-2" d="M68.77,25.85c.52-1.11.79-2.08.6-2.17s-.76.74-1.29,1.85-.79,2.08-.6,2.17S68.25,27,68.77,25.85Z"/><path class="cls-3" d="M69.3,23.65s8.43,1,10.65,2.71a2.72,2.72,0,0,1-2.06,4.85l-.76-.12.15.75a2.71,2.71,0,0,1-4.74,2.3C70.71,31.87,69.3,23.65,69.3,23.65Z"/><path class="cls-2" d="M71.07,25.16c-1.07-.61-1.85-1.26-1.74-1.44s1,.17,2.12.78,1.84,1.26,1.73,1.44S72.13,25.77,71.07,25.16Z"/><path class="cls-2" d="M70.89,25.34c-.66-1-1.34-1.78-1.52-1.66s.22,1,.88,2.07,1.35,1.78,1.53,1.67S71.56,26.38,70.89,25.34Z"/><path class="cls-1" d="M69.31,23.72s4.89-6.94,7.45-8.08A2.72,2.72,0,0,1,80,19.76l-.46.61.73.23a2.7,2.7,0,0,1-.22,5.26C77.21,26.39,69.31,23.72,69.31,23.72Z"/><path class="cls-2" d="M71.48,22.89c-1,.65-2,1-2.09.85s.65-.85,1.69-1.49,2-1,2.09-.85S72.53,22.24,71.48,22.89Z"/><path class="cls-2" d="M71.56,23.13c-1.22.09-2.2.34-2.19.55s1,.3,2.25.21,2.2-.34,2.19-.55S72.78,23,71.56,23.13Z"/><path class="cls-3" d="M69.38,23.75S65.89,16,66.21,13.23a2.72,2.72,0,0,1,5.21-.73l.3.7.56-.51a2.71,2.71,0,0,1,4.42,2.87C75.69,18.31,69.38,23.75,69.38,23.75Z"/><path class="cls-2" d="M69.77,21.46c0,1.23-.13,2.23-.34,2.23s-.4-1-.42-2.21.12-2.23.33-2.23S69.74,20.23,69.77,21.46Z"/><path class="cls-2" d="M70,21.52c-.54,1.1-.83,2.07-.64,2.16s.78-.73,1.32-1.83.83-2.07.64-2.16S70.55,20.41,70,21.52Z"/><path class="cls-1" d="M50,12.88s-8.47-.69-10.75-2.32a2.72,2.72,0,0,1,1.89-4.92l.76.09L41.76,5a2.71,2.71,0,0,1,4.65-2.48C48.33,4.72,50,12.88,50,12.88Z"/><path class="cls-2" d="M48.22,11.44C49.3,12,50.1,12.63,50,12.81s-1.06-.13-2.15-.7S46,10.92,46.07,10.74,47.13,10.87,48.22,11.44Z"/><path class="cls-2" d="M48.38,11.25c.71,1,1.41,1.73,1.58,1.61s-.25-1-1-2S47.6,9.09,47.43,9.21,47.68,10.24,48.38,11.25Z"/><path class="cls-3" d="M50,12.81s-4.76,7-7.3,8.21A2.72,2.72,0,0,1,39.37,17l.44-.62-.73-.21a2.7,2.7,0,0,1,.13-5.26C42.08,10.28,50,12.81,50,12.81Z"/><path class="cls-2" d="M47.87,13.68c1-.66,2-1.06,2.07-.88s-.63.86-1.66,1.52-2,1.06-2.08.88S46.84,14.35,47.87,13.68Z"/><path class="cls-2" d="M47.79,13.44C49,13.33,50,13.07,50,12.86s-1-.29-2.24-.17-2.2.38-2.18.58S46.56,13.56,47.79,13.44Z"/><path class="cls-1" d="M50,12.78s3.64,7.68,3.36,10.47a2.72,2.72,0,0,1-5.2.82l-.3-.7-.56.53a2.71,2.71,0,0,1-4.47-2.79C43.74,18.34,50,12.78,50,12.78Z"/><path class="cls-2" d="M49.61,15.08c0-1.23.08-2.23.29-2.23s.42,1,.47,2.2-.09,2.23-.3,2.24S49.66,16.31,49.61,15.08Z"/><path class="cls-2" d="M49.36,15c.52-1.11.79-2.08.6-2.17s-.76.74-1.28,1.85-.8,2.08-.61,2.17S48.84,16.14,49.36,15Z"/><path class="cls-3" d="M49.89,12.83s8.43,1,10.66,2.71a2.73,2.73,0,0,1-2.07,4.85l-.76-.12.15.75a2.7,2.7,0,0,1-4.73,2.31C51.3,21.05,49.89,12.83,49.89,12.83Z"/><path class="cls-2" d="M51.66,14.34c-1.06-.61-1.84-1.26-1.74-1.44s1,.17,2.12.78,1.84,1.26,1.74,1.44S52.72,15,51.66,14.34Z"/><path class="cls-2" d="M51.49,14.52c-.67-1-1.35-1.78-1.53-1.66s.22,1,.89,2.07,1.34,1.78,1.52,1.67S52.15,15.56,51.49,14.52Z"/><path class="cls-1" d="M49.91,12.91S54.79,6,57.35,4.82a2.72,2.72,0,0,1,3.28,4.12l-.45.61.73.23A2.7,2.7,0,0,1,60.68,15C57.8,15.57,49.91,12.91,49.91,12.91Z"/><path class="cls-2" d="M52.07,12.07c-1,.65-2,1-2.09.85s.65-.85,1.7-1.49,2-1,2.09-.85S53.12,11.43,52.07,12.07Z"/><path class="cls-2" d="M52.15,12.31c-1.22.09-2.2.34-2.19.55s1,.3,2.25.21,2.2-.34,2.19-.55S53.38,12.22,52.15,12.31Z"/><path class="cls-3" d="M50,12.93S46.48,5.2,46.8,2.41A2.72,2.72,0,0,1,52,1.68l.3.71.56-.52a2.71,2.71,0,0,1,4.42,2.87C56.29,7.49,50,12.93,50,12.93Z"/><path class="cls-2" d="M50.36,10.64c0,1.23-.13,2.23-.34,2.23s-.39-1-.42-2.21.12-2.23.33-2.23S50.33,9.41,50.36,10.64Z"/><path class="cls-2" d="M50.61,10.7c-.55,1.1-.83,2.07-.65,2.16s.78-.73,1.33-1.83.82-2.07.64-2.16S51.15,9.59,50.61,10.7Z"/><path class="cls-1" d="M13,27.08s-8.46-.69-10.74-2.32a2.72,2.72,0,0,1,1.89-4.92l.76.09-.18-.75a2.7,2.7,0,0,1,4.65-2.47C11.28,18.92,13,27.08,13,27.08Z"/><path class="cls-2" d="M11.16,25.64c1.09.57,1.89,1.18,1.79,1.37s-1.06-.13-2.14-.7S8.92,25.12,9,24.93,10.07,25.06,11.16,25.64Z"/><path class="cls-2" d="M11.33,25.45c.7,1,1.41,1.72,1.58,1.6s-.26-1-1-2-1.41-1.73-1.58-1.61S10.63,24.44,11.33,25.45Z"/><path class="cls-3" d="M13,27S8.2,34,5.66,35.22a2.72,2.72,0,0,1-3.35-4.06l.45-.62L2,30.33a2.71,2.71,0,0,1,.13-5.27C5,24.48,13,27,13,27Z"/><path class="cls-2" d="M10.81,27.88c1-.66,2-1.06,2.08-.88s-.63.85-1.67,1.52-2,1.06-2.07.88S9.78,28.54,10.81,27.88Z"/><path class="cls-2" d="M10.73,27.64c1.22-.11,2.2-.38,2.18-.59s-1-.28-2.25-.16-2.2.37-2.18.58S9.51,27.76,10.73,27.64Z"/><path class="cls-1" d="M12.9,27s3.63,7.67,3.36,10.46a2.73,2.73,0,0,1-5.21.83l-.3-.7-.56.52A2.7,2.7,0,0,1,5.73,35.3C6.68,32.54,12.9,27,12.9,27Z"/><path class="cls-2" d="M12.55,29.28c0-1.23.09-2.23.3-2.24s.41,1,.46,2.21-.08,2.23-.29,2.24S12.6,30.51,12.55,29.28Z"/><path class="cls-2" d="M12.31,29.23c.52-1.11.79-2.09.6-2.18s-.77.74-1.29,1.86S10.83,31,11,31.08,11.78,30.34,12.31,29.23Z"/><path class="cls-3" d="M12.84,27s8.43,1,10.65,2.71a2.72,2.72,0,0,1-2.07,4.84l-.75-.11.15.75a2.71,2.71,0,0,1-4.74,2.3C14.24,35.24,12.84,27,12.84,27Z"/><path class="cls-2" d="M14.6,28.54c-1.06-.62-1.84-1.26-1.74-1.44s1.06.17,2.12.78,1.84,1.26,1.74,1.44S15.67,29.15,14.6,28.54Z"/><path class="cls-2" d="M14.43,28.72c-.67-1-1.35-1.78-1.52-1.67s.22,1.05.88,2.08,1.34,1.78,1.52,1.67S15.09,29.75,14.43,28.72Z"/><path class="cls-1" d="M12.85,27.1S17.73,20.16,20.3,19a2.72,2.72,0,0,1,3.28,4.12l-.46.61.73.23a2.7,2.7,0,0,1-.23,5.26C20.75,29.77,12.85,27.1,12.85,27.1Z"/><path class="cls-2" d="M15,26.27c-1,.64-2,1-2.09.84s.64-.84,1.69-1.49,2-1,2.09-.84S16.06,25.62,15,26.27Z"/><path class="cls-2" d="M15.1,26.51c-1.23.09-2.21.34-2.19.54s1,.31,2.24.21,2.21-.33,2.19-.54S16.32,26.41,15.1,26.51Z"/><path class="cls-3" d="M12.92,27.13s-3.5-7.74-3.18-10.52A2.72,2.72,0,0,1,15,15.88l.29.7.57-.51a2.7,2.7,0,0,1,4.41,2.86C19.23,21.68,12.92,27.13,12.92,27.13Z"/><path class="cls-2" d="M13.3,24.84c0,1.23-.12,2.22-.33,2.23s-.4-1-.43-2.22.13-2.22.34-2.23S13.28,23.61,13.3,24.84Z"/><path class="cls-2" d="M13.55,24.89C13,26,12.72,27,12.91,27.05s.78-.72,1.32-1.82.83-2.07.64-2.16S14.09,23.79,13.55,24.89Z"/><path class="cls-1" d="M47.88,38.09s-8.46-.69-10.74-2.32A2.72,2.72,0,0,1,39,30.85l.76.09-.18-.75a2.7,2.7,0,0,1,4.65-2.47C46.18,29.93,47.88,38.09,47.88,38.09Z"/><path class="cls-2" d="M46.06,36.65c1.09.57,1.89,1.18,1.79,1.37s-1.06-.13-2.14-.7-1.89-1.19-1.79-1.38S45,36.07,46.06,36.65Z"/><path class="cls-2" d="M46.23,36.46c.7,1,1.41,1.72,1.58,1.6s-.26-1-1-2-1.41-1.73-1.58-1.61S45.53,35.45,46.23,36.46Z"/><path class="cls-3" d="M47.87,38s-4.76,7-7.31,8.21a2.72,2.72,0,0,1-3.35-4.06l.45-.62-.74-.21a2.71,2.71,0,0,1,.13-5.27C39.92,35.49,47.87,38,47.87,38Z"/><path class="cls-2" d="M45.71,38.89c1-.66,2-1.06,2.08-.88s-.63.85-1.67,1.52-2,1.06-2.07.88S44.68,39.55,45.71,38.89Z"/><path class="cls-2" d="M45.63,38.65c1.22-.11,2.2-.38,2.18-.59s-1-.28-2.25-.16-2.2.37-2.18.58S44.41,38.77,45.63,38.65Z"/><path class="cls-1" d="M47.8,38s3.63,7.67,3.36,10.46a2.72,2.72,0,0,1-5.2.83l-.31-.7-.56.52a2.7,2.7,0,0,1-4.46-2.79C41.58,43.55,47.8,38,47.8,38Z"/><path class="cls-2" d="M47.45,40.29c0-1.23.09-2.23.3-2.24s.41,1,.46,2.21-.08,2.23-.29,2.24S47.5,41.52,47.45,40.29Z"/><path class="cls-2" d="M47.21,40.24c.52-1.11.79-2.09.6-2.18s-.77.74-1.29,1.86-.79,2.08-.6,2.17S46.68,41.35,47.21,40.24Z"/><path class="cls-3" d="M47.74,38s8.43,1,10.65,2.71a2.72,2.72,0,0,1-2.07,4.84l-.75-.11.15.75A2.71,2.71,0,0,1,51,48.53C49.14,46.25,47.74,38,47.74,38Z"/><path class="cls-2" d="M49.5,39.55c-1.06-.62-1.84-1.26-1.73-1.44s1,.17,2.11.78,1.84,1.26,1.74,1.44S50.57,40.16,49.5,39.55Z"/><path class="cls-2" d="M49.33,39.73c-.67-1-1.35-1.78-1.52-1.67s.22,1,.88,2.08,1.35,1.78,1.52,1.67S50,40.76,49.33,39.73Z"/><path class="cls-1" d="M47.75,38.11S52.63,31.17,55.2,30a2.72,2.72,0,0,1,3.28,4.12l-.46.61.73.23a2.7,2.7,0,0,1-.22,5.26C55.65,40.78,47.75,38.11,47.75,38.11Z"/><path class="cls-2" d="M49.92,37.28c-1.05.64-2,1-2.09.84s.64-.84,1.69-1.49,2-1,2.09-.84S51,36.63,49.92,37.28Z"/><path class="cls-2" d="M50,37.52c-1.23.09-2.21.34-2.19.54s1,.31,2.24.21,2.21-.33,2.19-.54S51.22,37.42,50,37.52Z"/><path class="cls-3" d="M47.82,38.14s-3.5-7.74-3.18-10.52a2.72,2.72,0,0,1,5.22-.73l.29.7.57-.51a2.7,2.7,0,0,1,4.41,2.86C54.13,32.69,47.82,38.14,47.82,38.14Z"/><path class="cls-2" d="M48.2,35.85c0,1.23-.12,2.22-.33,2.23s-.4-1-.43-2.22.13-2.22.34-2.23S48.18,34.62,48.2,35.85Z"/><path class="cls-2" d="M48.45,35.9c-.54,1.1-.83,2.07-.64,2.16s.78-.72,1.32-1.82.83-2.07.64-2.16S49,34.8,48.45,35.9Z"/></g></g></svg>