<?xml version="1.0" encoding="utf-8"?>
<!DOCTYPE svg PUBLIC "-//W3C//DTD SVG 1.1//EN" "http://www.w3.org/Graphics/SVG/1.1/DTD/svg11.dtd">
<svg version="1.1" id="Layer_1" xmlns="http://www.w3.org/2000/svg" xmlns:xlink="http://www.w3.org/1999/xlink" x="0px" y="0px"
	width="1155px" height="1155px" viewBox="0 0 1155 1155" enable-background="new 0 0 1155 1155" xml:space="preserve">
	<g transform="translate(70,70)">
		<g transform="translate(315,0) scale(0.35,0.35)">
			<g transform="" style="fill: rgb(0, 0, 0);">
				<g>
					<path d="M100,34.375V0H34.375C24.87,0,16.764,3.353,10.059,10.059S0,24.87,0,34.375V100h100V34.375z" />
				</g>
			</g>
		</g>
		<g transform="translate(350,0) scale(0.35,0.35)">
			<g transform="" style="fill: rgb(0, 0, 0);">
				<rect width="100" height="100" />
			</g>
		</g>
		<g transform="translate(385,0) scale(0.35,0.35)">
			<g transform="" style="fill: rgb(0, 0, 0);">
				<rect width="100" height="100" />
			</g>
		</g>
		<g transform="translate(420,0) scale(0.35,0.35)">
			<g transform="" style="fill: rgb(0, 0, 0);">
				<rect width="100" height="100" />
			</g>
		</g>
		<g transform="translate(455,0) scale(0.35,0.35)">
			<g transform="" style="fill: rgb(0, 0, 0);">
				<rect width="100" height="100" />
			</g>
		</g>
		<g transform="translate(490,0) scale(0.35,0.35)">
			<g transform="" style="fill: rgb(0, 0, 0);">
				<rect width="100" height="100" />
			</g>
		</g>
		<g transform="translate(525,0) scale(0.35,0.35)">
			<g transform="" style="fill: rgb(0, 0, 0);">
				<g>
					<path d="M100,34.375c0-9.505-3.354-17.611-10.059-24.316C83.236,3.354,75.13,0,65.625,0H0v100h100V34.375z" />
				</g>
			</g>
		</g>
		<g transform="translate(630,0) scale(0.35,0.35)">
			<g transform="" style="fill: rgb(0, 0, 0);">
				<g>
					<path d="M100,65.625c0,9.507-3.355,17.611-10.059,24.316C83.236,96.645,75.132,100,65.625,100h-31.25
		c-9.504,0-17.61-3.355-24.315-10.059C3.354,83.236,0,75.132,0,65.625v-31.25c0-9.504,3.353-17.61,10.059-24.315
		C16.766,3.354,24.871,0,34.375,0h31.25c9.508,0,17.613,3.353,24.316,10.059C96.646,16.766,100,24.871,100,34.375V65.625z" />
				</g>
			</g>
		</g>
		<g transform="translate(700,0) scale(0.35,0.35)">
			<g transform="" style="fill: rgb(0, 0, 0);">
				<g>
					<path d="M100,34.375c0-9.505-3.354-17.611-10.059-24.316C83.236,3.354,75.13,0,65.625,0h-31.25C24.87,0,16.764,3.353,10.059,10.059
		S0,24.87,0,34.375v31.25c0,0.521,0.065,1.303,0.195,2.344H0V100h100V67.969h-0.195c0.132-1.041,0.195-1.822,0.195-2.344V34.375z" />
				</g>
			</g>
		</g>
		<g transform="translate(280,35) scale(0.35,0.35)">
			<g transform="" style="fill: rgb(0, 0, 0);">
				<g>
					<path d="M100,34.375V0H34.375C24.87,0,16.764,3.353,10.059,10.059S0,24.87,0,34.375V100h100V34.375z" />
				</g>
			</g>
		</g>
		<g transform="translate(315,35) scale(0.35,0.35)">
			<g transform="" style="fill: rgb(0, 0, 0);">
				<g>
					<path d="M100,0H0v100h65.625c9.505,0,17.611-3.354,24.316-10.059C96.646,83.236,100,75.13,100,65.625V0z" />
				</g>
			</g>
		</g>
		<g transform="translate(420,35) scale(0.35,0.35)">
			<g transform="" style="fill: rgb(0, 0, 0);">
				<rect width="100" height="100" />
			</g>
		</g>
		<g transform="translate(525,35) scale(0.35,0.35)">
			<g transform="" style="fill: rgb(0, 0, 0);">
				<g>
					<path d="M99.805,32.031H100V0H0v32.031h0.195C0.065,33.073,0,33.854,0,34.375v31.25c0,9.505,3.353,17.611,10.059,24.316
		C16.765,96.646,24.87,100,34.375,100h31.25c9.505,0,17.611-3.354,24.316-10.059C96.646,83.236,100,75.13,100,65.625v-31.25
		C100,33.854,99.937,33.073,99.805,32.031z" />
				</g>
			</g>
		</g>
		<g transform="translate(595,35) scale(0.35,0.35)">
			<g transform="" style="fill: rgb(0, 0, 0);">
				<g>
					<path d="M100,65.625c0,9.507-3.355,17.611-10.059,24.316C83.236,96.645,75.132,100,65.625,100h-31.25
		c-9.504,0-17.61-3.355-24.315-10.059C3.354,83.236,0,75.132,0,65.625v-31.25c0-9.504,3.353-17.61,10.059-24.315
		C16.766,3.354,24.871,0,34.375,0h31.25c9.508,0,17.613,3.353,24.316,10.059C96.646,16.766,100,24.871,100,34.375V65.625z" />
				</g>
			</g>
		</g>
		<g transform="translate(700,35) scale(0.35,0.35)">
			<g transform="" style="fill: rgb(0, 0, 0);">
				<g>
					<path d="M99.805,32.031H100V0H0v32.031h0.195C0.065,33.073,0,33.854,0,34.375v31.25c0,9.505,3.353,17.611,10.059,24.316
		C16.765,96.646,24.87,100,34.375,100h31.25c9.505,0,17.611-3.354,24.316-10.059C96.646,83.236,100,75.13,100,65.625v-31.25
		C100,33.854,99.937,33.073,99.805,32.031z" />
				</g>
			</g>
		</g>
		<g transform="translate(280,70) scale(0.35,0.35)">
			<g transform="" style="fill: rgb(0, 0, 0);">
				<rect width="100" height="100" />
			</g>
		</g>
		<g transform="translate(350,70) scale(0.35,0.35)">
			<g transform="" style="fill: rgb(0, 0, 0);">
				<g>
					<path d="M100,34.375V0H34.375C24.87,0,16.764,3.353,10.059,10.059S0,24.87,0,34.375v31.25c0,9.505,3.353,17.611,10.059,24.316
		C16.765,96.646,24.87,100,34.375,100H100V34.375z" />
				</g>
			</g>
		</g>
		<g transform="translate(385,70) scale(0.35,0.35)">
			<g transform="" style="fill: rgb(0, 0, 0);">
				<rect width="100" height="100" />
			</g>
		</g>
		<g transform="translate(420,70) scale(0.35,0.35)">
			<g transform="" style="fill: rgb(0, 0, 0);">
				<rect width="100" height="100" />
			</g>
		</g>
		<g transform="translate(490,70) scale(0.35,0.35)">
			<g transform="" style="fill: rgb(0, 0, 0);">
				<g>
					<path d="M100,34.375c0-9.505-3.354-17.611-10.059-24.316C83.236,3.354,75.13,0,65.625,0h-31.25C24.87,0,16.764,3.353,10.059,10.059
		S0,24.87,0,34.375v31.25c0,0.521,0.065,1.303,0.195,2.344H0V100h100V67.969h-0.195c0.132-1.041,0.195-1.822,0.195-2.344V34.375z" />
				</g>
			</g>
		</g>
		<g transform="translate(560,70) scale(0.35,0.35)">
			<g transform="" style="fill: rgb(0, 0, 0);">
				<g>
					<path d="M100,34.375c0-9.505-3.354-17.611-10.059-24.316C83.236,3.354,75.13,0,65.625,0h-31.25C24.87,0,16.764,3.353,10.059,10.059
		S0,24.87,0,34.375v31.25c0,0.521,0.065,1.303,0.195,2.344H0V100h100V67.969h-0.195c0.132-1.041,0.195-1.822,0.195-2.344V34.375z" />
				</g>
			</g>
		</g>
		<g transform="translate(665,70) scale(0.35,0.35)">
			<g transform="" style="fill: rgb(0, 0, 0);">
				<g>
					<path d="M100,34.375c0-9.505-3.354-17.611-10.059-24.316C83.236,3.354,75.13,0,65.625,0h-31.25C24.87,0,16.764,3.353,10.059,10.059
		S0,24.87,0,34.375v31.25c0,0.521,0.065,1.303,0.195,2.344H0V100h100V67.969h-0.195c0.132-1.041,0.195-1.822,0.195-2.344V34.375z" />
				</g>
			</g>
		</g>
		<g transform="translate(280,105) scale(0.35,0.35)">
			<g transform="" style="fill: rgb(0, 0, 0);">
				<g>
					<path d="M100,0H0v65.625c0,9.505,3.353,17.611,10.059,24.316C16.765,96.646,24.87,100,34.375,100H100V0z" />
				</g>
			</g>
		</g>
		<g transform="translate(315,105) scale(0.35,0.35)">
			<g transform="" style="fill: rgb(0, 0, 0);">
				<g>
					<path d="M100,34.375c0-9.505-3.354-17.611-10.059-24.316C83.236,3.354,75.13,0,65.625,0H0v100h100V34.375z" />
				</g>
			</g>
		</g>
		<g transform="translate(420,105) scale(0.35,0.35)">
			<g transform="" style="fill: rgb(0, 0, 0);">
				<g>
					<path d="M99.805,32.031H100V0H0v32.031h0.195C0.065,33.073,0,33.854,0,34.375v31.25c0,9.505,3.353,17.611,10.059,24.316
		C16.765,96.646,24.87,100,34.375,100h31.25c9.505,0,17.611-3.354,24.316-10.059C96.646,83.236,100,75.13,100,65.625v-31.25
		C100,33.854,99.937,33.073,99.805,32.031z" />
				</g>
			</g>
		</g>
		<g transform="translate(490,105) scale(0.35,0.35)">
			<g transform="" style="fill: rgb(0, 0, 0);">
				<rect width="100" height="100" />
			</g>
		</g>
		<g transform="translate(525,105) scale(0.35,0.35)">
			<g transform="" style="fill: rgb(0, 0, 0);">
				<rect width="100" height="100" />
			</g>
		</g>
		<g transform="translate(560,105) scale(0.35,0.35)">
			<g transform="" style="fill: rgb(0, 0, 0);">
				<rect width="100" height="100" />
			</g>
		</g>
		<g transform="translate(595,105) scale(0.35,0.35)">
			<g transform="" style="fill: rgb(0, 0, 0);">
				<g>
					<path d="M100,34.375c0-9.505-3.354-17.611-10.059-24.316C83.236,3.354,75.13,0,65.625,0H0v100h100V34.375z" />
				</g>
			</g>
		</g>
		<g transform="translate(665,105) scale(0.35,0.35)">
			<g transform="" style="fill: rgb(0, 0, 0);">
				<rect width="100" height="100" />
			</g>
		</g>
		<g transform="translate(700,105) scale(0.35,0.35)">
			<g transform="" style="fill: rgb(0, 0, 0);">
				<g>
					<path d="M100,34.375c0-9.505-3.354-17.611-10.059-24.316C83.236,3.354,75.13,0,65.625,0H0v100h100V34.375z" />
				</g>
			</g>
		</g>
		<g transform="translate(315,140) scale(0.35,0.35)">
			<g transform="" style="fill: rgb(0, 0, 0);">
				<rect width="100" height="100" />
			</g>
		</g>
		<g transform="translate(350,140) scale(0.35,0.35)">
			<g transform="" style="fill: rgb(0, 0, 0);">
				<rect width="100" height="100" />
			</g>
		</g>
		<g transform="translate(385,140) scale(0.35,0.35)">
			<g transform="" style="fill: rgb(0, 0, 0);">
				<g>
					<path d="M100,34.375c0-9.505-3.354-17.611-10.059-24.316C83.236,3.354,75.13,0,65.625,0H0v100h100V34.375z" />
				</g>
			</g>
		</g>
		<g transform="translate(455,140) scale(0.35,0.35)">
			<g transform="" style="fill: rgb(0, 0, 0);">
				<g>
					<path d="M100,34.375V0H34.375C24.87,0,16.764,3.353,10.059,10.059S0,24.87,0,34.375V100h100V34.375z" />
				</g>
			</g>
		</g>
		<g transform="translate(490,140) scale(0.35,0.35)">
			<g transform="" style="fill: rgb(0, 0, 0);">
				<rect width="100" height="100" />
			</g>
		</g>
		<g transform="translate(525,140) scale(0.35,0.35)">
			<g transform="" style="fill: rgb(0, 0, 0);">
				<g>
					<path d="M100,0H0v100h65.625c9.505,0,17.611-3.354,24.316-10.059C96.646,83.236,100,75.13,100,65.625V0z" />
				</g>
			</g>
		</g>
		<g transform="translate(595,140) scale(0.35,0.35)">
			<g transform="" style="fill: rgb(0, 0, 0);">
				<g>
					<path d="M100,0H0v65.625c0,9.505,3.353,17.611,10.059,24.316C16.765,96.646,24.87,100,34.375,100H100V0z" />
				</g>
			</g>
		</g>
		<g transform="translate(630,140) scale(0.35,0.35)">
			<g transform="" style="fill: rgb(0, 0, 0);">
				<rect width="100" height="100" />
			</g>
		</g>
		<g transform="translate(665,140) scale(0.35,0.35)">
			<g transform="" style="fill: rgb(0, 0, 0);">
				<rect width="100" height="100" />
			</g>
		</g>
		<g transform="translate(700,140) scale(0.35,0.35)">
			<g transform="" style="fill: rgb(0, 0, 0);">
				<g>
					<path d="M100,0H0v100h65.625c9.505,0,17.611-3.354,24.316-10.059C96.646,83.236,100,75.13,100,65.625V0z" />
				</g>
			</g>
		</g>
		<g transform="translate(315,175) scale(0.35,0.35)">
			<g transform="" style="fill: rgb(0, 0, 0);">
				<g>
					<path d="M99.805,32.031H100V0H0v32.031h0.195C0.065,33.073,0,33.854,0,34.375v31.25c0,9.505,3.353,17.611,10.059,24.316
		C16.765,96.646,24.87,100,34.375,100h31.25c9.505,0,17.611-3.354,24.316-10.059C96.646,83.236,100,75.13,100,65.625v-31.25
		C100,33.854,99.937,33.073,99.805,32.031z" />
				</g>
			</g>
		</g>
		<g transform="translate(385,175) scale(0.35,0.35)">
			<g transform="" style="fill: rgb(0, 0, 0);">
				<g>
					<path d="M100,0H0v65.625c0,9.505,3.353,17.611,10.059,24.316C16.765,96.646,24.87,100,34.375,100H100V0z" />
				</g>
			</g>
		</g>
		<g transform="translate(420,175) scale(0.35,0.35)">
			<g transform="" style="fill: rgb(0, 0, 0);">
				<rect width="100" height="100" />
			</g>
		</g>
		<g transform="translate(455,175) scale(0.35,0.35)">
			<g transform="" style="fill: rgb(0, 0, 0);">
				<rect width="100" height="100" />
			</g>
		</g>
		<g transform="translate(490,175) scale(0.35,0.35)">
			<g transform="" style="fill: rgb(0, 0, 0);">
				<rect width="100" height="100" />
			</g>
		</g>
		<g transform="translate(560,175) scale(0.35,0.35)">
			<g transform="" style="fill: rgb(0, 0, 0);">
				<g>
					<path d="M100,34.375c0-9.505-3.354-17.611-10.059-24.316C83.236,3.354,75.13,0,65.625,0h-31.25C24.87,0,16.764,3.353,10.059,10.059
		S0,24.87,0,34.375v31.25c0,0.521,0.065,1.303,0.195,2.344H0V100h100V67.969h-0.195c0.132-1.041,0.195-1.822,0.195-2.344V34.375z" />
				</g>
			</g>
		</g>
		<g transform="translate(280,210) scale(0.35,0.35)">
			<g transform="" style="fill: rgb(0, 0, 0);">
				<g>
					<path d="M100,34.375c0-9.505-3.354-17.611-10.059-24.316C83.236,3.354,75.13,0,65.625,0h-31.25C24.87,0,16.764,3.353,10.059,10.059
		S0,24.87,0,34.375v31.25c0,0.521,0.065,1.303,0.195,2.344H0V100h100V67.969h-0.195c0.132-1.041,0.195-1.822,0.195-2.344V34.375z" />
				</g>
			</g>
		</g>
		<g transform="translate(350,210) scale(0.35,0.35)">
			<g transform="" style="fill: rgb(0, 0, 0);">
				<g>
					<path d="M100,34.375c0-9.505-3.354-17.611-10.059-24.316C83.236,3.354,75.13,0,65.625,0h-31.25C24.87,0,16.764,3.353,10.059,10.059
		S0,24.87,0,34.375v31.25c0,0.521,0.065,1.303,0.195,2.344H0V100h100V67.969h-0.195c0.132-1.041,0.195-1.822,0.195-2.344V34.375z" />
				</g>
			</g>
		</g>
		<g transform="translate(420,210) scale(0.35,0.35)">
			<g transform="" style="fill: rgb(0, 0, 0);">
				<g>
					<path d="M99.805,32.031H100V0H0v32.031h0.195C0.065,33.073,0,33.854,0,34.375v31.25c0,9.505,3.353,17.611,10.059,24.316
		C16.765,96.646,24.87,100,34.375,100h31.25c9.505,0,17.611-3.354,24.316-10.059C96.646,83.236,100,75.13,100,65.625v-31.25
		C100,33.854,99.937,33.073,99.805,32.031z" />
				</g>
			</g>
		</g>
		<g transform="translate(490,210) scale(0.35,0.35)">
			<g transform="" style="fill: rgb(0, 0, 0);">
				<g>
					<path d="M99.805,32.031H100V0H0v32.031h0.195C0.065,33.073,0,33.854,0,34.375v31.25c0,9.505,3.353,17.611,10.059,24.316
		C16.765,96.646,24.87,100,34.375,100h31.25c9.505,0,17.611-3.354,24.316-10.059C96.646,83.236,100,75.13,100,65.625v-31.25
		C100,33.854,99.937,33.073,99.805,32.031z" />
				</g>
			</g>
		</g>
		<g transform="translate(560,210) scale(0.35,0.35)">
			<g transform="" style="fill: rgb(0, 0, 0);">
				<rect width="100" height="100" />
			</g>
		</g>
		<g transform="translate(630,210) scale(0.35,0.35)">
			<g transform="" style="fill: rgb(0, 0, 0);">
				<g>
					<path d="M100,34.375c0-9.505-3.354-17.611-10.059-24.316C83.236,3.354,75.13,0,65.625,0h-31.25C24.87,0,16.764,3.353,10.059,10.059
		S0,24.87,0,34.375v31.25c0,0.521,0.065,1.303,0.195,2.344H0V100h100V67.969h-0.195c0.132-1.041,0.195-1.822,0.195-2.344V34.375z" />
				</g>
			</g>
		</g>
		<g transform="translate(700,210) scale(0.35,0.35)">
			<g transform="" style="fill: rgb(0, 0, 0);">
				<g>
					<path d="M100,34.375c0-9.505-3.354-17.611-10.059-24.316C83.236,3.354,75.13,0,65.625,0h-31.25C24.87,0,16.764,3.353,10.059,10.059
		S0,24.87,0,34.375v31.25c0,0.521,0.065,1.303,0.195,2.344H0V100h100V67.969h-0.195c0.132-1.041,0.195-1.822,0.195-2.344V34.375z" />
				</g>
			</g>
		</g>
		<g transform="translate(280,245) scale(0.35,0.35)">
			<g transform="" style="fill: rgb(0, 0, 0);">
				<rect width="100" height="100" />
			</g>
		</g>
		<g transform="translate(350,245) scale(0.35,0.35)">
			<g transform="" style="fill: rgb(0, 0, 0);">
				<rect width="100" height="100" />
			</g>
		</g>
		<g transform="translate(455,245) scale(0.35,0.35)">
			<g transform="" style="fill: rgb(0, 0, 0);">
				<g>
					<path d="M100,65.625c0,9.507-3.355,17.611-10.059,24.316C83.236,96.645,75.132,100,65.625,100h-31.25
		c-9.504,0-17.61-3.355-24.315-10.059C3.354,83.236,0,75.132,0,65.625v-31.25c0-9.504,3.353-17.61,10.059-24.315
		C16.766,3.354,24.871,0,34.375,0h31.25c9.508,0,17.613,3.353,24.316,10.059C96.646,16.766,100,24.871,100,34.375V65.625z" />
				</g>
			</g>
		</g>
		<g transform="translate(525,245) scale(0.35,0.35)">
			<g transform="" style="fill: rgb(0, 0, 0);">
				<g>
					<path d="M100,34.375V0H34.375C24.87,0,16.764,3.353,10.059,10.059S0,24.87,0,34.375v31.25c0,9.505,3.353,17.611,10.059,24.316
		C16.765,96.646,24.87,100,34.375,100H100V34.375z" />
				</g>
			</g>
		</g>
		<g transform="translate(560,245) scale(0.35,0.35)">
			<g transform="" style="fill: rgb(0, 0, 0);">
				<g>
					<path d="M100,0H0v100h65.625c9.505,0,17.611-3.354,24.316-10.059C96.646,83.236,100,75.13,100,65.625V0z" />
				</g>
			</g>
		</g>
		<g transform="translate(630,245) scale(0.35,0.35)">
			<g transform="" style="fill: rgb(0, 0, 0);">
				<g>
					<path d="M100,0H0v65.625c0,9.505,3.353,17.611,10.059,24.316C16.765,96.646,24.87,100,34.375,100H100V0z" />
				</g>
			</g>
		</g>
		<g transform="translate(665,245) scale(0.35,0.35)">
			<g transform="" style="fill: rgb(0, 0, 0);">
				<rect width="100" height="100" />
			</g>
		</g>
		<g transform="translate(700,245) scale(0.35,0.35)">
			<g transform="" style="fill: rgb(0, 0, 0);">
				<g>
					<path d="M100,0H0v100h65.625c9.505,0,17.611-3.354,24.316-10.059C96.646,83.236,100,75.13,100,65.625V0z" />
				</g>
			</g>
		</g>
		<g transform="translate(0,280) scale(0.35,0.35)">
			<g transform="" style="fill: rgb(0, 0, 0);">
				<g>
					<path d="M100,65.625c0,9.507-3.355,17.611-10.059,24.316C83.236,96.645,75.132,100,65.625,100h-31.25
		c-9.504,0-17.61-3.355-24.315-10.059C3.354,83.236,0,75.132,0,65.625v-31.25c0-9.504,3.353-17.61,10.059-24.315
		C16.766,3.354,24.871,0,34.375,0h31.25c9.508,0,17.613,3.353,24.316,10.059C96.646,16.766,100,24.871,100,34.375V65.625z" />
				</g>
			</g>
		</g>
		<g transform="translate(210,280) scale(0.35,0.35)">
			<g transform="" style="fill: rgb(0, 0, 0);">
				<g>
					<path d="M100,65.625c0,9.507-3.355,17.611-10.059,24.316C83.236,96.645,75.132,100,65.625,100h-31.25
		c-9.504,0-17.61-3.355-24.315-10.059C3.354,83.236,0,75.132,0,65.625v-31.25c0-9.504,3.353-17.61,10.059-24.315
		C16.766,3.354,24.871,0,34.375,0h31.25c9.508,0,17.613,3.353,24.316,10.059C96.646,16.766,100,24.871,100,34.375V65.625z" />
				</g>
			</g>
		</g>
		<g transform="translate(280,280) scale(0.35,0.35)">
			<g transform="" style="fill: rgb(0, 0, 0);">
				<g>
					<path d="M99.805,32.031H100V0H0v32.031h0.195C0.065,33.073,0,33.854,0,34.375v31.25c0,9.505,3.353,17.611,10.059,24.316
		C16.765,96.646,24.87,100,34.375,100h31.25c9.505,0,17.611-3.354,24.316-10.059C96.646,83.236,100,75.13,100,65.625v-31.25
		C100,33.854,99.937,33.073,99.805,32.031z" />
				</g>
			</g>
		</g>
		<g transform="translate(350,280) scale(0.35,0.35)">
			<g transform="" style="fill: rgb(0, 0, 0);">
				<g>
					<path d="M99.805,32.031H100V0H0v32.031h0.195C0.065,33.073,0,33.854,0,34.375v31.25c0,9.505,3.353,17.611,10.059,24.316
		C16.765,96.646,24.87,100,34.375,100h31.25c9.505,0,17.611-3.354,24.316-10.059C96.646,83.236,100,75.13,100,65.625v-31.25
		C100,33.854,99.937,33.073,99.805,32.031z" />
				</g>
			</g>
		</g>
		<g transform="translate(490,280) scale(0.35,0.35)">
			<g transform="" style="fill: rgb(0, 0, 0);">
				<g>
					<path d="M100,34.375c0-9.505-3.354-17.611-10.059-24.316C83.236,3.354,75.13,0,65.625,0h-31.25C24.87,0,16.764,3.353,10.059,10.059
		S0,24.87,0,34.375v31.25c0,0.521,0.065,1.303,0.195,2.344H0V100h100V67.969h-0.195c0.132-1.041,0.195-1.822,0.195-2.344V34.375z" />
				</g>
			</g>
		</g>
		<g transform="translate(595,280) scale(0.35,0.35)">
			<g transform="" style="fill: rgb(0, 0, 0);">
				<g>
					<path d="M100,34.375c0-9.505-3.354-17.611-10.059-24.316C83.236,3.354,75.13,0,65.625,0h-31.25C24.87,0,16.764,3.353,10.059,10.059
		S0,24.87,0,34.375v31.25c0,0.521,0.065,1.303,0.195,2.344H0V100h100V67.969h-0.195c0.132-1.041,0.195-1.822,0.195-2.344V34.375z" />
				</g>
			</g>
		</g>
		<g transform="translate(665,280) scale(0.35,0.35)">
			<g transform="" style="fill: rgb(0, 0, 0);">
				<rect width="100" height="100" />
			</g>
		</g>
		<g transform="translate(735,280) scale(0.35,0.35)">
			<g transform="" style="fill: rgb(0, 0, 0);">
				<g>
					<path d="M100,34.375V0H34.375C24.87,0,16.764,3.353,10.059,10.059S0,24.87,0,34.375v31.25c0,9.505,3.353,17.611,10.059,24.316
		C16.765,96.646,24.87,100,34.375,100H100V34.375z" />
				</g>
			</g>
		</g>
		<g transform="translate(770,280) scale(0.35,0.35)">
			<g transform="" style="fill: rgb(0, 0, 0);">
				<g>
					<path d="M65.625,0H0v100h65.625c9.505,0,17.611-3.354,24.316-10.059C96.646,83.236,100,75.13,100,65.625v-31.25
		c0-9.505-3.354-17.611-10.059-24.316C83.236,3.354,75.13,0,65.625,0z" />
				</g>
			</g>
		</g>
		<g transform="translate(875,280) scale(0.35,0.35)">
			<g transform="" style="fill: rgb(0, 0, 0);">
				<g>
					<path d="M100,34.375V0H34.375C24.87,0,16.764,3.353,10.059,10.059S0,24.87,0,34.375v31.25c0,9.505,3.353,17.611,10.059,24.316
		C16.765,96.646,24.87,100,34.375,100H100V34.375z" />
				</g>
			</g>
		</g>
		<g transform="translate(910,280) scale(0.35,0.35)">
			<g transform="" style="fill: rgb(0, 0, 0);">
				<rect width="100" height="100" />
			</g>
		</g>
		<g transform="translate(945,280) scale(0.35,0.35)">
			<g transform="" style="fill: rgb(0, 0, 0);">
				<g>
					<path d="M100,34.375c0-9.505-3.354-17.611-10.059-24.316C83.236,3.354,75.13,0,65.625,0H0v100h100V34.375z" />
				</g>
			</g>
		</g>
		<g transform="translate(105,315) scale(0.35,0.35)">
			<g transform="" style="fill: rgb(0, 0, 0);">
				<g>
					<path d="M100,34.375V0H34.375C24.87,0,16.764,3.353,10.059,10.059S0,24.87,0,34.375V100h100V34.375z" />
				</g>
			</g>
		</g>
		<g transform="translate(140,315) scale(0.35,0.35)">
			<g transform="" style="fill: rgb(0, 0, 0);">
				<g>
					<path d="M65.625,0H0v100h65.625c9.505,0,17.611-3.354,24.316-10.059C96.646,83.236,100,75.13,100,65.625v-31.25
		c0-9.505-3.354-17.611-10.059-24.316C83.236,3.354,75.13,0,65.625,0z" />
				</g>
			</g>
		</g>
		<g transform="translate(245,315) scale(0.35,0.35)">
			<g transform="" style="fill: rgb(0, 0, 0);">
				<g>
					<path d="M100,34.375c0-9.505-3.354-17.611-10.059-24.316C83.236,3.354,75.13,0,65.625,0h-31.25C24.87,0,16.764,3.353,10.059,10.059
		S0,24.87,0,34.375v31.25c0,0.521,0.065,1.303,0.195,2.344H0V100h100V67.969h-0.195c0.132-1.041,0.195-1.822,0.195-2.344V34.375z" />
				</g>
			</g>
		</g>
		<g transform="translate(315,315) scale(0.35,0.35)">
			<g transform="" style="fill: rgb(0, 0, 0);">
				<g>
					<path d="M100,34.375c0-9.505-3.354-17.611-10.059-24.316C83.236,3.354,75.13,0,65.625,0h-31.25C24.87,0,16.764,3.353,10.059,10.059
		S0,24.87,0,34.375v31.25c0,0.521,0.065,1.303,0.195,2.344H0V100h100V67.969h-0.195c0.132-1.041,0.195-1.822,0.195-2.344V34.375z" />
				</g>
			</g>
		</g>
		<g transform="translate(490,315) scale(0.35,0.35)">
			<g transform="" style="fill: rgb(0, 0, 0);">
				<g>
					<path d="M100,0H0v65.625c0,9.505,3.353,17.611,10.059,24.316C16.765,96.646,24.87,100,34.375,100H100V0z" />
				</g>
			</g>
		</g>
		<g transform="translate(525,315) scale(0.35,0.35)">
			<g transform="" style="fill: rgb(0, 0, 0);">
				<rect width="100" height="100" />
			</g>
		</g>
		<g transform="translate(560,315) scale(0.35,0.35)">
			<g transform="" style="fill: rgb(0, 0, 0);">
				<rect width="100" height="100" />
			</g>
		</g>
		<g transform="translate(595,315) scale(0.35,0.35)">
			<g transform="" style="fill: rgb(0, 0, 0);">
				<rect width="100" height="100" />
			</g>
		</g>
		<g transform="translate(630,315) scale(0.35,0.35)">
			<g transform="" style="fill: rgb(0, 0, 0);">
				<rect width="100" height="100" />
			</g>
		</g>
		<g transform="translate(665,315) scale(0.35,0.35)">
			<g transform="" style="fill: rgb(0, 0, 0);">
				<g>
					<path d="M100,0H0v100h65.625c9.505,0,17.611-3.354,24.316-10.059C96.646,83.236,100,75.13,100,65.625V0z" />
				</g>
			</g>
		</g>
		<g transform="translate(805,315) scale(0.35,0.35)">
			<g transform="" style="fill: rgb(0, 0, 0);">
				<g>
					<path d="M100,34.375V0H34.375C24.87,0,16.764,3.353,10.059,10.059S0,24.87,0,34.375v31.25c0,9.505,3.353,17.611,10.059,24.316
		C16.765,96.646,24.87,100,34.375,100H100V34.375z" />
				</g>
			</g>
		</g>
		<g transform="translate(840,315) scale(0.35,0.35)">
			<g transform="" style="fill: rgb(0, 0, 0);">
				<g>
					<path d="M65.625,0H0v100h65.625c9.505,0,17.611-3.354,24.316-10.059C96.646,83.236,100,75.13,100,65.625v-31.25
		c0-9.505-3.354-17.611-10.059-24.316C83.236,3.354,75.13,0,65.625,0z" />
				</g>
			</g>
		</g>
		<g transform="translate(910,315) scale(0.35,0.35)">
			<g transform="" style="fill: rgb(0, 0, 0);">
				<g>
					<path d="M100,0H0v65.625c0,9.505,3.353,17.611,10.059,24.316C16.765,96.646,24.87,100,34.375,100H100V0z" />
				</g>
			</g>
		</g>
		<g transform="translate(945,315) scale(0.35,0.35)">
			<g transform="" style="fill: rgb(0, 0, 0);">
				<g>
					<path d="M100,0H0v100h65.625c9.505,0,17.611-3.354,24.316-10.059C96.646,83.236,100,75.13,100,65.625V0z" />
				</g>
			</g>
		</g>
		<g transform="translate(105,350) scale(0.35,0.35)">
			<g transform="" style="fill: rgb(0, 0, 0);">
				<rect width="100" height="100" />
			</g>
		</g>
		<g transform="translate(175,350) scale(0.35,0.35)">
			<g transform="" style="fill: rgb(0, 0, 0);">
				<g>
					<path d="M100,34.375V0H34.375C24.87,0,16.764,3.353,10.059,10.059S0,24.87,0,34.375v31.25c0,9.505,3.353,17.611,10.059,24.316
		C16.765,96.646,24.87,100,34.375,100H100V34.375z" />
				</g>
			</g>
		</g>
		<g transform="translate(210,350) scale(0.35,0.35)">
			<g transform="" style="fill: rgb(0, 0, 0);">
				<rect width="100" height="100" />
			</g>
		</g>
		<g transform="translate(245,350) scale(0.35,0.35)">
			<g transform="" style="fill: rgb(0, 0, 0);">
				<rect width="100" height="100" />
			</g>
		</g>
		<g transform="translate(280,350) scale(0.35,0.35)">
			<g transform="" style="fill: rgb(0, 0, 0);">
				<rect width="100" height="100" />
			</g>
		</g>
		<g transform="translate(315,350) scale(0.35,0.35)">
			<g transform="" style="fill: rgb(0, 0, 0);">
				<g>
					<path d="M100,0H0v100h65.625c9.505,0,17.611-3.354,24.316-10.059C96.646,83.236,100,75.13,100,65.625V0z" />
				</g>
			</g>
		</g>
		<g transform="translate(385,350) scale(0.35,0.35)">
			<g transform="" style="fill: rgb(0, 0, 0);">
				<g>
					<path d="M100,34.375V0H34.375C24.87,0,16.764,3.353,10.059,10.059S0,24.87,0,34.375V100h100V34.375z" />
				</g>
			</g>
		</g>
		<g transform="translate(420,350) scale(0.35,0.35)">
			<g transform="" style="fill: rgb(0, 0, 0);">
				<g>
					<path d="M65.625,0H0v100h65.625c9.505,0,17.611-3.354,24.316-10.059C96.646,83.236,100,75.13,100,65.625v-31.25
		c0-9.505-3.354-17.611-10.059-24.316C83.236,3.354,75.13,0,65.625,0z" />
				</g>
			</g>
		</g>
		<g transform="translate(525,350) scale(0.35,0.35)">
			<g transform="" style="fill: rgb(0, 0, 0);">
				<rect width="100" height="100" />
			</g>
		</g>
		<g transform="translate(560,350) scale(0.35,0.35)">
			<g transform="" style="fill: rgb(0, 0, 0);">
				<rect width="100" height="100" />
			</g>
		</g>
		<g transform="translate(595,350) scale(0.35,0.35)">
			<g transform="" style="fill: rgb(0, 0, 0);">
				<g>
					<path d="M100,0H0v100h65.625c9.505,0,17.611-3.354,24.316-10.059C96.646,83.236,100,75.13,100,65.625V0z" />
				</g>
			</g>
		</g>
		<g transform="translate(700,350) scale(0.35,0.35)">
			<g transform="" style="fill: rgb(0, 0, 0);">
				<g>
					<path d="M100,34.375V0H34.375C24.87,0,16.764,3.353,10.059,10.059S0,24.87,0,34.375v31.25c0,9.505,3.353,17.611,10.059,24.316
		C16.765,96.646,24.87,100,34.375,100H100V34.375z" />
				</g>
			</g>
		</g>
		<g transform="translate(735,350) scale(0.35,0.35)">
			<g transform="" style="fill: rgb(0, 0, 0);">
				<g>
					<path d="M100,34.375c0-9.505-3.354-17.611-10.059-24.316C83.236,3.354,75.13,0,65.625,0H0v100h100V34.375z" />
				</g>
			</g>
		</g>
		<g transform="translate(105,385) scale(0.35,0.35)">
			<g transform="" style="fill: rgb(0, 0, 0);">
				<rect width="100" height="100" />
			</g>
		</g>
		<g transform="translate(140,385) scale(0.35,0.35)">
			<g transform="" style="fill: rgb(0, 0, 0);">
				<g>
					<path d="M65.625,0H0v100h65.625c9.505,0,17.611-3.354,24.316-10.059C96.646,83.236,100,75.13,100,65.625v-31.25
		c0-9.505-3.354-17.611-10.059-24.316C83.236,3.354,75.13,0,65.625,0z" />
				</g>
			</g>
		</g>
		<g transform="translate(350,385) scale(0.35,0.35)">
			<g transform="" style="fill: rgb(0, 0, 0);">
				<g>
					<path d="M100,34.375V0H34.375C24.87,0,16.764,3.353,10.059,10.059S0,24.87,0,34.375V100h100V34.375z" />
				</g>
			</g>
		</g>
		<g transform="translate(385,385) scale(0.35,0.35)">
			<g transform="" style="fill: rgb(0, 0, 0);">
				<g>
					<path d="M100,0H0v100h65.625c9.505,0,17.611-3.354,24.316-10.059C96.646,83.236,100,75.13,100,65.625V0z" />
				</g>
			</g>
		</g>
		<g transform="translate(490,385) scale(0.35,0.35)">
			<g transform="" style="fill: rgb(0, 0, 0);">
				<g>
					<path d="M100,34.375V0H34.375C24.87,0,16.764,3.353,10.059,10.059S0,24.87,0,34.375V100h100V34.375z" />
				</g>
			</g>
		</g>
		<g transform="translate(525,385) scale(0.35,0.35)">
			<g transform="" style="fill: rgb(0, 0, 0);">
				<rect width="100" height="100" />
			</g>
		</g>
		<g transform="translate(560,385) scale(0.35,0.35)">
			<g transform="" style="fill: rgb(0, 0, 0);">
				<rect width="100" height="100" />
			</g>
		</g>
		<g transform="translate(735,385) scale(0.35,0.35)">
			<g transform="" style="fill: rgb(0, 0, 0);">
				<g>
					<path d="M99.805,32.031H100V0H0v32.031h0.195C0.065,33.073,0,33.854,0,34.375v31.25c0,9.505,3.353,17.611,10.059,24.316
		C16.765,96.646,24.87,100,34.375,100h31.25c9.505,0,17.611-3.354,24.316-10.059C96.646,83.236,100,75.13,100,65.625v-31.25
		C100,33.854,99.937,33.073,99.805,32.031z" />
				</g>
			</g>
		</g>
		<g transform="translate(805,385) scale(0.35,0.35)">
			<g transform="" style="fill: rgb(0, 0, 0);">
				<g>
					<path d="M100,34.375c0-9.505-3.354-17.611-10.059-24.316C83.236,3.354,75.13,0,65.625,0h-31.25C24.87,0,16.764,3.353,10.059,10.059
		S0,24.87,0,34.375v31.25c0,0.521,0.065,1.303,0.195,2.344H0V100h100V67.969h-0.195c0.132-1.041,0.195-1.822,0.195-2.344V34.375z" />
				</g>
			</g>
		</g>
		<g transform="translate(875,385) scale(0.35,0.35)">
			<g transform="" style="fill: rgb(0, 0, 0);">
				<g>
					<path d="M100,65.625c0,9.507-3.355,17.611-10.059,24.316C83.236,96.645,75.132,100,65.625,100h-31.25
		c-9.504,0-17.61-3.355-24.315-10.059C3.354,83.236,0,75.132,0,65.625v-31.25c0-9.504,3.353-17.61,10.059-24.315
		C16.766,3.354,24.871,0,34.375,0h31.25c9.508,0,17.613,3.353,24.316,10.059C96.646,16.766,100,24.871,100,34.375V65.625z" />
				</g>
			</g>
		</g>
		<g transform="translate(35,420) scale(0.35,0.35)">
			<g transform="" style="fill: rgb(0, 0, 0);">
				<g>
					<path d="M100,34.375V0H34.375C24.87,0,16.764,3.353,10.059,10.059S0,24.87,0,34.375V100h100V34.375z" />
				</g>
			</g>
		</g>
		<g transform="translate(70,420) scale(0.35,0.35)">
			<g transform="" style="fill: rgb(0, 0, 0);">
				<rect width="100" height="100" />
			</g>
		</g>
		<g transform="translate(105,420) scale(0.35,0.35)">
			<g transform="" style="fill: rgb(0, 0, 0);">
				<g>
					<path d="M100,0H0v100h65.625c9.505,0,17.611-3.354,24.316-10.059C96.646,83.236,100,75.13,100,65.625V0z" />
				</g>
			</g>
		</g>
		<g transform="translate(175,420) scale(0.35,0.35)">
			<g transform="" style="fill: rgb(0, 0, 0);">
				<g>
					<path d="M100,34.375V0H34.375C24.87,0,16.764,3.353,10.059,10.059S0,24.87,0,34.375V100h100V34.375z" />
				</g>
			</g>
		</g>
		<g transform="translate(210,420) scale(0.35,0.35)">
			<g transform="" style="fill: rgb(0, 0, 0);">
				<g>
					<path d="M65.625,0H0v100h65.625c9.505,0,17.611-3.354,24.316-10.059C96.646,83.236,100,75.13,100,65.625v-31.25
		c0-9.505-3.354-17.611-10.059-24.316C83.236,3.354,75.13,0,65.625,0z" />
				</g>
			</g>
		</g>
		<g transform="translate(350,420) scale(0.35,0.35)">
			<g transform="" style="fill: rgb(0, 0, 0);">
				<g>
					<path d="M99.805,32.031H100V0H0v32.031h0.195C0.065,33.073,0,33.854,0,34.375v31.25c0,9.505,3.353,17.611,10.059,24.316
		C16.765,96.646,24.87,100,34.375,100h31.25c9.505,0,17.611-3.354,24.316-10.059C96.646,83.236,100,75.13,100,65.625v-31.25
		C100,33.854,99.937,33.073,99.805,32.031z" />
				</g>
			</g>
		</g>
		<g transform="translate(455,420) scale(0.35,0.35)">
			<g transform="" style="fill: rgb(0, 0, 0);">
				<g>
					<path d="M100,34.375V0H34.375C24.87,0,16.764,3.353,10.059,10.059S0,24.87,0,34.375V100h100V34.375z" />
				</g>
			</g>
		</g>
		<g transform="translate(490,420) scale(0.35,0.35)">
			<g transform="" style="fill: rgb(0, 0, 0);">
				<rect width="100" height="100" />
			</g>
		</g>
		<g transform="translate(525,420) scale(0.35,0.35)">
			<g transform="" style="fill: rgb(0, 0, 0);">
				<rect width="100" height="100" />
			</g>
		</g>
		<g transform="translate(560,420) scale(0.35,0.35)">
			<g transform="" style="fill: rgb(0, 0, 0);">
				<rect width="100" height="100" />
			</g>
		</g>
		<g transform="translate(700,420) scale(0.35,0.35)">
			<g transform="" style="fill: rgb(0, 0, 0);">
				<g>
					<path d="M100,34.375c0-9.505-3.354-17.611-10.059-24.316C83.236,3.354,75.13,0,65.625,0h-31.25C24.87,0,16.764,3.353,10.059,10.059
		S0,24.87,0,34.375v31.25c0,0.521,0.065,1.303,0.195,2.344H0V100h100V67.969h-0.195c0.132-1.041,0.195-1.822,0.195-2.344V34.375z" />
				</g>
			</g>
		</g>
		<g transform="translate(770,420) scale(0.35,0.35)">
			<g transform="" style="fill: rgb(0, 0, 0);">
				<g>
					<path d="M100,34.375V0H34.375C24.87,0,16.764,3.353,10.059,10.059S0,24.87,0,34.375V100h100V34.375z" />
				</g>
			</g>
		</g>
		<g transform="translate(805,420) scale(0.35,0.35)">
			<g transform="" style="fill: rgb(0, 0, 0);">
				<g>
					<path d="M100,0H0v100h65.625c9.505,0,17.611-3.354,24.316-10.059C96.646,83.236,100,75.13,100,65.625V0z" />
				</g>
			</g>
		</g>
		<g transform="translate(980,420) scale(0.35,0.35)">
			<g transform="" style="fill: rgb(0, 0, 0);">
				<g>
					<path d="M100,34.375c0-9.505-3.354-17.611-10.059-24.316C83.236,3.354,75.13,0,65.625,0h-31.25C24.87,0,16.764,3.353,10.059,10.059
		S0,24.87,0,34.375v31.25c0,0.521,0.065,1.303,0.195,2.344H0V100h100V67.969h-0.195c0.132-1.041,0.195-1.822,0.195-2.344V34.375z" />
				</g>
			</g>
		</g>
		<g transform="translate(35,455) scale(0.35,0.35)">
			<g transform="" style="fill: rgb(0, 0, 0);">
				<rect width="100" height="100" />
			</g>
		</g>
		<g transform="translate(70,455) scale(0.35,0.35)">
			<g transform="" style="fill: rgb(0, 0, 0);">
				<g>
					<path d="M100,0H0v100h65.625c9.505,0,17.611-3.354,24.316-10.059C96.646,83.236,100,75.13,100,65.625V0z" />
				</g>
			</g>
		</g>
		<g transform="translate(175,455) scale(0.35,0.35)">
			<g transform="" style="fill: rgb(0, 0, 0);">
				<g>
					<path d="M99.805,32.031H100V0H0v32.031h0.195C0.065,33.073,0,33.854,0,34.375v31.25c0,9.505,3.353,17.611,10.059,24.316
		C16.765,96.646,24.87,100,34.375,100h31.25c9.505,0,17.611-3.354,24.316-10.059C96.646,83.236,100,75.13,100,65.625v-31.25
		C100,33.854,99.937,33.073,99.805,32.031z" />
				</g>
			</g>
		</g>
		<g transform="translate(245,455) scale(0.35,0.35)">
			<g transform="" style="fill: rgb(0, 0, 0);">
				<g>
					<path d="M100,65.625c0,9.507-3.355,17.611-10.059,24.316C83.236,96.645,75.132,100,65.625,100h-31.25
		c-9.504,0-17.61-3.355-24.315-10.059C3.354,83.236,0,75.132,0,65.625v-31.25c0-9.504,3.353-17.61,10.059-24.315
		C16.766,3.354,24.871,0,34.375,0h31.25c9.508,0,17.613,3.353,24.316,10.059C96.646,16.766,100,24.871,100,34.375V65.625z" />
				</g>
			</g>
		</g>
		<g transform="translate(315,455) scale(0.35,0.35)">
			<g transform="" style="fill: rgb(0, 0, 0);">
				<g>
					<path d="M100,65.625c0,9.507-3.355,17.611-10.059,24.316C83.236,96.645,75.132,100,65.625,100h-31.25
		c-9.504,0-17.61-3.355-24.315-10.059C3.354,83.236,0,75.132,0,65.625v-31.25c0-9.504,3.353-17.61,10.059-24.315
		C16.766,3.354,24.871,0,34.375,0h31.25c9.508,0,17.613,3.353,24.316,10.059C96.646,16.766,100,24.871,100,34.375V65.625z" />
				</g>
			</g>
		</g>
		<g transform="translate(385,455) scale(0.35,0.35)">
			<g transform="" style="fill: rgb(0, 0, 0);">
				<g>
					<path d="M100,34.375c0-9.505-3.354-17.611-10.059-24.316C83.236,3.354,75.13,0,65.625,0h-31.25C24.87,0,16.764,3.353,10.059,10.059
		S0,24.87,0,34.375v31.25c0,0.521,0.065,1.303,0.195,2.344H0V100h100V67.969h-0.195c0.132-1.041,0.195-1.822,0.195-2.344V34.375z" />
				</g>
			</g>
		</g>
		<g transform="translate(455,455) scale(0.35,0.35)">
			<g transform="" style="fill: rgb(0, 0, 0);">
				<rect width="100" height="100" />
			</g>
		</g>
		<g transform="translate(490,455) scale(0.35,0.35)">
			<g transform="" style="fill: rgb(0, 0, 0);">
				<rect width="100" height="100" />
			</g>
		</g>
		<g transform="translate(525,455) scale(0.35,0.35)">
			<g transform="" style="fill: rgb(0, 0, 0);">
				<rect width="100" height="100" />
			</g>
		</g>
		<g transform="translate(560,455) scale(0.35,0.35)">
			<g transform="" style="fill: rgb(0, 0, 0);">
				<rect width="100" height="100" />
			</g>
		</g>
		<g transform="translate(595,455) scale(0.35,0.35)">
			<g transform="" style="fill: rgb(0, 0, 0);">
				<g>
					<path d="M65.625,0H0v100h65.625c9.505,0,17.611-3.354,24.316-10.059C96.646,83.236,100,75.13,100,65.625v-31.25
		c0-9.505-3.354-17.611-10.059-24.316C83.236,3.354,75.13,0,65.625,0z" />
				</g>
			</g>
		</g>
		<g transform="translate(665,455) scale(0.35,0.35)">
			<g transform="" style="fill: rgb(0, 0, 0);">
				<g>
					<path d="M100,34.375V0H34.375C24.87,0,16.764,3.353,10.059,10.059S0,24.87,0,34.375v31.25c0,9.505,3.353,17.611,10.059,24.316
		C16.765,96.646,24.87,100,34.375,100H100V34.375z" />
				</g>
			</g>
		</g>
		<g transform="translate(700,455) scale(0.35,0.35)">
			<g transform="" style="fill: rgb(0, 0, 0);">
				<g>
					<path d="M100,0H0v100h65.625c9.505,0,17.611-3.354,24.316-10.059C96.646,83.236,100,75.13,100,65.625V0z" />
				</g>
			</g>
		</g>
		<g transform="translate(770,455) scale(0.35,0.35)">
			<g transform="" style="fill: rgb(0, 0, 0);">
				<g>
					<path d="M99.805,32.031H100V0H0v32.031h0.195C0.065,33.073,0,33.854,0,34.375v31.25c0,9.505,3.353,17.611,10.059,24.316
		C16.765,96.646,24.87,100,34.375,100h31.25c9.505,0,17.611-3.354,24.316-10.059C96.646,83.236,100,75.13,100,65.625v-31.25
		C100,33.854,99.937,33.073,99.805,32.031z" />
				</g>
			</g>
		</g>
		<g transform="translate(840,455) scale(0.35,0.35)">
			<g transform="" style="fill: rgb(0, 0, 0);">
				<g>
					<path d="M100,65.625c0,9.507-3.355,17.611-10.059,24.316C83.236,96.645,75.132,100,65.625,100h-31.25
		c-9.504,0-17.61-3.355-24.315-10.059C3.354,83.236,0,75.132,0,65.625v-31.25c0-9.504,3.353-17.61,10.059-24.315
		C16.766,3.354,24.871,0,34.375,0h31.25c9.508,0,17.613,3.353,24.316,10.059C96.646,16.766,100,24.871,100,34.375V65.625z" />
				</g>
			</g>
		</g>
		<g transform="translate(945,455) scale(0.35,0.35)">
			<g transform="" style="fill: rgb(0, 0, 0);">
				<g>
					<path d="M100,34.375V0H34.375C24.87,0,16.764,3.353,10.059,10.059S0,24.87,0,34.375v31.25c0,9.505,3.353,17.611,10.059,24.316
		C16.765,96.646,24.87,100,34.375,100H100V34.375z" />
				</g>
			</g>
		</g>
		<g transform="translate(980,455) scale(0.35,0.35)">
			<g transform="" style="fill: rgb(0, 0, 0);">
				<g>
					<path d="M100,0H0v100h65.625c9.505,0,17.611-3.354,24.316-10.059C96.646,83.236,100,75.13,100,65.625V0z" />
				</g>
			</g>
		</g>
		<g transform="translate(35,490) scale(0.35,0.35)">
			<g transform="" style="fill: rgb(0, 0, 0);">
				<g>
					<path d="M99.805,32.031H100V0H0v32.031h0.195C0.065,33.073,0,33.854,0,34.375v31.25c0,9.505,3.353,17.611,10.059,24.316
		C16.765,96.646,24.87,100,34.375,100h31.25c9.505,0,17.611-3.354,24.316-10.059C96.646,83.236,100,75.13,100,65.625v-31.25
		C100,33.854,99.937,33.073,99.805,32.031z" />
				</g>
			</g>
		</g>
		<g transform="translate(140,490) scale(0.35,0.35)">
			<g transform="" style="fill: rgb(0, 0, 0);">
				<g>
					<path d="M100,65.625c0,9.507-3.355,17.611-10.059,24.316C83.236,96.645,75.132,100,65.625,100h-31.25
		c-9.504,0-17.61-3.355-24.315-10.059C3.354,83.236,0,75.132,0,65.625v-31.25c0-9.504,3.353-17.61,10.059-24.315
		C16.766,3.354,24.871,0,34.375,0h31.25c9.508,0,17.613,3.353,24.316,10.059C96.646,16.766,100,24.871,100,34.375V65.625z" />
				</g>
			</g>
		</g>
		<g transform="translate(210,490) scale(0.35,0.35)">
			<g transform="" style="fill: rgb(0, 0, 0);">
				<g>
					<path d="M100,65.625c0,9.507-3.355,17.611-10.059,24.316C83.236,96.645,75.132,100,65.625,100h-31.25
		c-9.504,0-17.61-3.355-24.315-10.059C3.354,83.236,0,75.132,0,65.625v-31.25c0-9.504,3.353-17.61,10.059-24.315
		C16.766,3.354,24.871,0,34.375,0h31.25c9.508,0,17.613,3.353,24.316,10.059C96.646,16.766,100,24.871,100,34.375V65.625z" />
				</g>
			</g>
		</g>
		<g transform="translate(350,490) scale(0.35,0.35)">
			<g transform="" style="fill: rgb(0, 0, 0);">
				<g>
					<path d="M100,34.375V0H34.375C24.87,0,16.764,3.353,10.059,10.059S0,24.87,0,34.375v31.25c0,9.505,3.353,17.611,10.059,24.316
		C16.765,96.646,24.87,100,34.375,100H100V34.375z" />
				</g>
			</g>
		</g>
		<g transform="translate(385,490) scale(0.35,0.35)">
			<g transform="" style="fill: rgb(0, 0, 0);">
				<g>
					<path d="M100,0H0v100h65.625c9.505,0,17.611-3.354,24.316-10.059C96.646,83.236,100,75.13,100,65.625V0z" />
				</g>
			</g>
		</g>
		<g transform="translate(455,490) scale(0.35,0.35)">
			<g transform="" style="fill: rgb(0, 0, 0);">
				<rect width="100" height="100" />
			</g>
		</g>
		<g transform="translate(490,490) scale(0.35,0.35)">
			<g transform="" style="fill: rgb(0, 0, 0);">
				<rect width="100" height="100" />
			</g>
		</g>
		<g transform="translate(525,490) scale(0.35,0.35)">
			<g transform="" style="fill: rgb(0, 0, 0);">
				<rect width="100" height="100" />
			</g>
		</g>
		<g transform="translate(630,490) scale(0.35,0.35)">
			<g transform="" style="fill: rgb(0, 0, 0);">
				<g>
					<path d="M100,65.625c0,9.507-3.355,17.611-10.059,24.316C83.236,96.645,75.132,100,65.625,100h-31.25
		c-9.504,0-17.61-3.355-24.315-10.059C3.354,83.236,0,75.132,0,65.625v-31.25c0-9.504,3.353-17.61,10.059-24.315
		C16.766,3.354,24.871,0,34.375,0h31.25c9.508,0,17.613,3.353,24.316,10.059C96.646,16.766,100,24.871,100,34.375V65.625z" />
				</g>
			</g>
		</g>
		<g transform="translate(735,490) scale(0.35,0.35)">
			<g transform="" style="fill: rgb(0, 0, 0);">
				<g>
					<path d="M100,34.375c0-9.505-3.354-17.611-10.059-24.316C83.236,3.354,75.13,0,65.625,0h-31.25C24.87,0,16.764,3.353,10.059,10.059
		S0,24.87,0,34.375v31.25c0,0.521,0.065,1.303,0.195,2.344H0V100h100V67.969h-0.195c0.132-1.041,0.195-1.822,0.195-2.344V34.375z" />
				</g>
			</g>
		</g>
		<g transform="translate(875,490) scale(0.35,0.35)">
			<g transform="" style="fill: rgb(0, 0, 0);">
				<g>
					<path d="M100,34.375V0H34.375C24.87,0,16.764,3.353,10.059,10.059S0,24.87,0,34.375v31.25c0,9.505,3.353,17.611,10.059,24.316
		C16.765,96.646,24.87,100,34.375,100H100V34.375z" />
				</g>
			</g>
		</g>
		<g transform="translate(910,490) scale(0.35,0.35)">
			<g transform="" style="fill: rgb(0, 0, 0);">
				<g>
					<path d="M100,34.375c0-9.505-3.354-17.611-10.059-24.316C83.236,3.354,75.13,0,65.625,0H0v100h100V34.375z" />
				</g>
			</g>
		</g>
		<g transform="translate(0,525) scale(0.35,0.35)">
			<g transform="" style="fill: rgb(0, 0, 0);">
				<g>
					<path d="M100,65.625c0,9.507-3.355,17.611-10.059,24.316C83.236,96.645,75.132,100,65.625,100h-31.25
		c-9.504,0-17.61-3.355-24.315-10.059C3.354,83.236,0,75.132,0,65.625v-31.25c0-9.504,3.353-17.61,10.059-24.315
		C16.766,3.354,24.871,0,34.375,0h31.25c9.508,0,17.613,3.353,24.316,10.059C96.646,16.766,100,24.871,100,34.375V65.625z" />
				</g>
			</g>
		</g>
		<g transform="translate(70,525) scale(0.35,0.35)">
			<g transform="" style="fill: rgb(0, 0, 0);">
				<g>
					<path d="M100,34.375V0H34.375C24.87,0,16.764,3.353,10.059,10.059S0,24.87,0,34.375v31.25c0,9.505,3.353,17.611,10.059,24.316
		C16.765,96.646,24.87,100,34.375,100H100V34.375z" />
				</g>
			</g>
		</g>
		<g transform="translate(105,525) scale(0.35,0.35)">
			<g transform="" style="fill: rgb(0, 0, 0);">
				<g>
					<path d="M65.625,0H0v100h65.625c9.505,0,17.611-3.354,24.316-10.059C96.646,83.236,100,75.13,100,65.625v-31.25
		c0-9.505-3.354-17.611-10.059-24.316C83.236,3.354,75.13,0,65.625,0z" />
				</g>
			</g>
		</g>
		<g transform="translate(175,525) scale(0.35,0.35)">
			<g transform="" style="fill: rgb(0, 0, 0);">
				<g>
					<path d="M100,34.375c0-9.505-3.354-17.611-10.059-24.316C83.236,3.354,75.13,0,65.625,0h-31.25C24.87,0,16.764,3.353,10.059,10.059
		S0,24.87,0,34.375v31.25c0,0.521,0.065,1.303,0.195,2.344H0V100h100V67.969h-0.195c0.132-1.041,0.195-1.822,0.195-2.344V34.375z" />
				</g>
			</g>
		</g>
		<g transform="translate(245,525) scale(0.35,0.35)">
			<g transform="" style="fill: rgb(0, 0, 0);">
				<g>
					<path d="M100,34.375V0H34.375C24.87,0,16.764,3.353,10.059,10.059S0,24.87,0,34.375V100h100V34.375z" />
				</g>
			</g>
		</g>
		<g transform="translate(280,525) scale(0.35,0.35)">
			<g transform="" style="fill: rgb(0, 0, 0);">
				<g>
					<path d="M65.625,0H0v100h65.625c9.505,0,17.611-3.354,24.316-10.059C96.646,83.236,100,75.13,100,65.625v-31.25
		c0-9.505-3.354-17.611-10.059-24.316C83.236,3.354,75.13,0,65.625,0z" />
				</g>
			</g>
		</g>
		<g transform="translate(455,525) scale(0.35,0.35)">
			<g transform="" style="fill: rgb(0, 0, 0);">
				<g>
					<path d="M100,0H0v65.625c0,9.505,3.353,17.611,10.059,24.316C16.765,96.646,24.87,100,34.375,100H100V0z" />
				</g>
			</g>
		</g>
		<g transform="translate(490,525) scale(0.35,0.35)">
			<g transform="" style="fill: rgb(0, 0, 0);">
				<rect width="100" height="100" />
			</g>
		</g>
		<g transform="translate(525,525) scale(0.35,0.35)">
			<g transform="" style="fill: rgb(0, 0, 0);">
				<g>
					<path d="M100,0H0v100h65.625c9.505,0,17.611-3.354,24.316-10.059C96.646,83.236,100,75.13,100,65.625V0z" />
				</g>
			</g>
		</g>
		<g transform="translate(735,525) scale(0.35,0.35)">
			<g transform="" style="fill: rgb(0, 0, 0);">
				<rect width="100" height="100" />
			</g>
		</g>
		<g transform="translate(840,525) scale(0.35,0.35)">
			<g transform="" style="fill: rgb(0, 0, 0);">
				<g>
					<path d="M100,65.625c0,9.507-3.355,17.611-10.059,24.316C83.236,96.645,75.132,100,65.625,100h-31.25
		c-9.504,0-17.61-3.355-24.315-10.059C3.354,83.236,0,75.132,0,65.625v-31.25c0-9.504,3.353-17.61,10.059-24.315
		C16.766,3.354,24.871,0,34.375,0h31.25c9.508,0,17.613,3.353,24.316,10.059C96.646,16.766,100,24.871,100,34.375V65.625z" />
				</g>
			</g>
		</g>
		<g transform="translate(910,525) scale(0.35,0.35)">
			<g transform="" style="fill: rgb(0, 0, 0);">
				<rect width="100" height="100" />
			</g>
		</g>
		<g transform="translate(980,525) scale(0.35,0.35)">
			<g transform="" style="fill: rgb(0, 0, 0);">
				<g>
					<path d="M100,65.625c0,9.507-3.355,17.611-10.059,24.316C83.236,96.645,75.132,100,65.625,100h-31.25
		c-9.504,0-17.61-3.355-24.315-10.059C3.354,83.236,0,75.132,0,65.625v-31.25c0-9.504,3.353-17.61,10.059-24.315
		C16.766,3.354,24.871,0,34.375,0h31.25c9.508,0,17.613,3.353,24.316,10.059C96.646,16.766,100,24.871,100,34.375V65.625z" />
				</g>
			</g>
		</g>
		<g transform="translate(140,560) scale(0.35,0.35)">
			<g transform="" style="fill: rgb(0, 0, 0);">
				<g>
					<path d="M100,34.375V0H34.375C24.87,0,16.764,3.353,10.059,10.059S0,24.87,0,34.375v31.25c0,9.505,3.353,17.611,10.059,24.316
		C16.765,96.646,24.87,100,34.375,100H100V34.375z" />
				</g>
			</g>
		</g>
		<g transform="translate(175,560) scale(0.35,0.35)">
			<g transform="" style="fill: rgb(0, 0, 0);">
				<rect width="100" height="100" />
			</g>
		</g>
		<g transform="translate(210,560) scale(0.35,0.35)">
			<g transform="" style="fill: rgb(0, 0, 0);">
				<rect width="100" height="100" />
			</g>
		</g>
		<g transform="translate(245,560) scale(0.35,0.35)">
			<g transform="" style="fill: rgb(0, 0, 0);">
				<rect width="100" height="100" />
			</g>
		</g>
		<g transform="translate(315,560) scale(0.35,0.35)">
			<g transform="" style="fill: rgb(0, 0, 0);">
				<g>
					<path d="M100,34.375V0H34.375C24.87,0,16.764,3.353,10.059,10.059S0,24.87,0,34.375V100h100V34.375z" />
				</g>
			</g>
		</g>
		<g transform="translate(350,560) scale(0.35,0.35)">
			<g transform="" style="fill: rgb(0, 0, 0);">
				<rect width="100" height="100" />
			</g>
		</g>
		<g transform="translate(385,560) scale(0.35,0.35)">
			<g transform="" style="fill: rgb(0, 0, 0);">
				<rect width="100" height="100" />
			</g>
		</g>
		<g transform="translate(420,560) scale(0.35,0.35)">
			<g transform="" style="fill: rgb(0, 0, 0);">
				<g>
					<path d="M65.625,0H0v100h65.625c9.505,0,17.611-3.354,24.316-10.059C96.646,83.236,100,75.13,100,65.625v-31.25
		c0-9.505-3.354-17.611-10.059-24.316C83.236,3.354,75.13,0,65.625,0z" />
				</g>
			</g>
		</g>
		<g transform="translate(490,560) scale(0.35,0.35)">
			<g transform="" style="fill: rgb(0, 0, 0);">
				<g>
					<path d="M99.805,32.031H100V0H0v32.031h0.195C0.065,33.073,0,33.854,0,34.375v31.25c0,9.505,3.353,17.611,10.059,24.316
		C16.765,96.646,24.87,100,34.375,100h31.25c9.505,0,17.611-3.354,24.316-10.059C96.646,83.236,100,75.13,100,65.625v-31.25
		C100,33.854,99.937,33.073,99.805,32.031z" />
				</g>
			</g>
		</g>
		<g transform="translate(595,560) scale(0.35,0.35)">
			<g transform="" style="fill: rgb(0, 0, 0);">
				<g>
					<path d="M100,34.375c0-9.505-3.354-17.611-10.059-24.316C83.236,3.354,75.13,0,65.625,0h-31.25C24.87,0,16.764,3.353,10.059,10.059
		S0,24.87,0,34.375v31.25c0,0.521,0.065,1.303,0.195,2.344H0V100h100V67.969h-0.195c0.132-1.041,0.195-1.822,0.195-2.344V34.375z" />
				</g>
			</g>
		</g>
		<g transform="translate(665,560) scale(0.35,0.35)">
			<g transform="" style="fill: rgb(0, 0, 0);">
				<g>
					<path d="M100,34.375c0-9.505-3.354-17.611-10.059-24.316C83.236,3.354,75.13,0,65.625,0h-31.25C24.87,0,16.764,3.353,10.059,10.059
		S0,24.87,0,34.375v31.25c0,0.521,0.065,1.303,0.195,2.344H0V100h100V67.969h-0.195c0.132-1.041,0.195-1.822,0.195-2.344V34.375z" />
				</g>
			</g>
		</g>
		<g transform="translate(735,560) scale(0.35,0.35)">
			<g transform="" style="fill: rgb(0, 0, 0);">
				<g>
					<path d="M99.805,32.031H100V0H0v32.031h0.195C0.065,33.073,0,33.854,0,34.375v31.25c0,9.505,3.353,17.611,10.059,24.316
		C16.765,96.646,24.87,100,34.375,100h31.25c9.505,0,17.611-3.354,24.316-10.059C96.646,83.236,100,75.13,100,65.625v-31.25
		C100,33.854,99.937,33.073,99.805,32.031z" />
				</g>
			</g>
		</g>
		<g transform="translate(805,560) scale(0.35,0.35)">
			<g transform="" style="fill: rgb(0, 0, 0);">
				<g>
					<path d="M100,34.375c0-9.505-3.354-17.611-10.059-24.316C83.236,3.354,75.13,0,65.625,0h-31.25C24.87,0,16.764,3.353,10.059,10.059
		S0,24.87,0,34.375v31.25c0,0.521,0.065,1.303,0.195,2.344H0V100h100V67.969h-0.195c0.132-1.041,0.195-1.822,0.195-2.344V34.375z" />
				</g>
			</g>
		</g>
		<g transform="translate(875,560) scale(0.35,0.35)">
			<g transform="" style="fill: rgb(0, 0, 0);">
				<g>
					<path d="M100,34.375V0H34.375C24.87,0,16.764,3.353,10.059,10.059S0,24.87,0,34.375v31.25c0,9.505,3.353,17.611,10.059,24.316
		C16.765,96.646,24.87,100,34.375,100H100V34.375z" />
				</g>
			</g>
		</g>
		<g transform="translate(910,560) scale(0.35,0.35)">
			<g transform="" style="fill: rgb(0, 0, 0);">
				<rect width="100" height="100" />
			</g>
		</g>
		<g transform="translate(0,595) scale(0.35,0.35)">
			<g transform="" style="fill: rgb(0, 0, 0);">
				<g>
					<path d="M100,34.375c0-9.505-3.354-17.611-10.059-24.316C83.236,3.354,75.13,0,65.625,0h-31.25C24.87,0,16.764,3.353,10.059,10.059
		S0,24.87,0,34.375v31.25c0,0.521,0.065,1.303,0.195,2.344H0V100h100V67.969h-0.195c0.132-1.041,0.195-1.822,0.195-2.344V34.375z" />
				</g>
			</g>
		</g>
		<g transform="translate(245,595) scale(0.35,0.35)">
			<g transform="" style="fill: rgb(0, 0, 0);">
				<g>
					<path d="M99.805,32.031H100V0H0v32.031h0.195C0.065,33.073,0,33.854,0,34.375v31.25c0,9.505,3.353,17.611,10.059,24.316
		C16.765,96.646,24.87,100,34.375,100h31.25c9.505,0,17.611-3.354,24.316-10.059C96.646,83.236,100,75.13,100,65.625v-31.25
		C100,33.854,99.937,33.073,99.805,32.031z" />
				</g>
			</g>
		</g>
		<g transform="translate(315,595) scale(0.35,0.35)">
			<g transform="" style="fill: rgb(0, 0, 0);">
				<g>
					<path d="M99.805,32.031H100V0H0v32.031h0.195C0.065,33.073,0,33.854,0,34.375v31.25c0,9.505,3.353,17.611,10.059,24.316
		C16.765,96.646,24.87,100,34.375,100h31.25c9.505,0,17.611-3.354,24.316-10.059C96.646,83.236,100,75.13,100,65.625v-31.25
		C100,33.854,99.937,33.073,99.805,32.031z" />
				</g>
			</g>
		</g>
		<g transform="translate(525,595) scale(0.35,0.35)">
			<g transform="" style="fill: rgb(0, 0, 0);">
				<g>
					<path d="M100,34.375V0H34.375C24.87,0,16.764,3.353,10.059,10.059S0,24.87,0,34.375V100h100V34.375z" />
				</g>
			</g>
		</g>
		<g transform="translate(560,595) scale(0.35,0.35)">
			<g transform="" style="fill: rgb(0, 0, 0);">
				<rect width="100" height="100" />
			</g>
		</g>
		<g transform="translate(595,595) scale(0.35,0.35)">
			<g transform="" style="fill: rgb(0, 0, 0);">
				<rect width="100" height="100" />
			</g>
		</g>
		<g transform="translate(630,595) scale(0.35,0.35)">
			<g transform="" style="fill: rgb(0, 0, 0);">
				<rect width="100" height="100" />
			</g>
		</g>
		<g transform="translate(665,595) scale(0.35,0.35)">
			<g transform="" style="fill: rgb(0, 0, 0);">
				<rect width="100" height="100" />
			</g>
		</g>
		<g transform="translate(700,595) scale(0.35,0.35)">
			<g transform="" style="fill: rgb(0, 0, 0);">
				<g>
					<path d="M65.625,0H0v100h65.625c9.505,0,17.611-3.354,24.316-10.059C96.646,83.236,100,75.13,100,65.625v-31.25
		c0-9.505-3.354-17.611-10.059-24.316C83.236,3.354,75.13,0,65.625,0z" />
				</g>
			</g>
		</g>
		<g transform="translate(770,595) scale(0.35,0.35)">
			<g transform="" style="fill: rgb(0, 0, 0);">
				<g>
					<path d="M100,34.375V0H34.375C24.87,0,16.764,3.353,10.059,10.059S0,24.87,0,34.375v31.25c0,9.505,3.353,17.611,10.059,24.316
		C16.765,96.646,24.87,100,34.375,100H100V34.375z" />
				</g>
			</g>
		</g>
		<g transform="translate(805,595) scale(0.35,0.35)">
			<g transform="" style="fill: rgb(0, 0, 0);">
				<rect width="100" height="100" />
			</g>
		</g>
		<g transform="translate(840,595) scale(0.35,0.35)">
			<g transform="" style="fill: rgb(0, 0, 0);">
				<g>
					<path d="M65.625,0H0v100h65.625c9.505,0,17.611-3.354,24.316-10.059C96.646,83.236,100,75.13,100,65.625v-31.25
		c0-9.505-3.354-17.611-10.059-24.316C83.236,3.354,75.13,0,65.625,0z" />
				</g>
			</g>
		</g>
		<g transform="translate(910,595) scale(0.35,0.35)">
			<g transform="" style="fill: rgb(0, 0, 0);">
				<g>
					<path d="M100,0H0v65.625c0,9.505,3.353,17.611,10.059,24.316C16.765,96.646,24.87,100,34.375,100H100V0z" />
				</g>
			</g>
		</g>
		<g transform="translate(945,595) scale(0.35,0.35)">
			<g transform="" style="fill: rgb(0, 0, 0);">
				<rect width="100" height="100" />
			</g>
		</g>
		<g transform="translate(980,595) scale(0.35,0.35)">
			<g transform="" style="fill: rgb(0, 0, 0);">
				<g>
					<path d="M100,34.375c0-9.505-3.354-17.611-10.059-24.316C83.236,3.354,75.13,0,65.625,0H0v100h100V34.375z" />
				</g>
			</g>
		</g>
		<g transform="translate(0,630) scale(0.35,0.35)">
			<g transform="" style="fill: rgb(0, 0, 0);">
				<rect width="100" height="100" />
			</g>
		</g>
		<g transform="translate(35,630) scale(0.35,0.35)">
			<g transform="" style="fill: rgb(0, 0, 0);">
				<g>
					<path d="M65.625,0H0v100h65.625c9.505,0,17.611-3.354,24.316-10.059C96.646,83.236,100,75.13,100,65.625v-31.25
		c0-9.505-3.354-17.611-10.059-24.316C83.236,3.354,75.13,0,65.625,0z" />
				</g>
			</g>
		</g>
		<g transform="translate(140,630) scale(0.35,0.35)">
			<g transform="" style="fill: rgb(0, 0, 0);">
				<g>
					<path d="M100,34.375V0H34.375C24.87,0,16.764,3.353,10.059,10.059S0,24.87,0,34.375v31.25c0,9.505,3.353,17.611,10.059,24.316
		C16.765,96.646,24.87,100,34.375,100H100V34.375z" />
				</g>
			</g>
		</g>
		<g transform="translate(175,630) scale(0.35,0.35)">
			<g transform="" style="fill: rgb(0, 0, 0);">
				<rect width="100" height="100" />
			</g>
		</g>
		<g transform="translate(210,630) scale(0.35,0.35)">
			<g transform="" style="fill: rgb(0, 0, 0);">
				<g>
					<path d="M65.625,0H0v100h65.625c9.505,0,17.611-3.354,24.316-10.059C96.646,83.236,100,75.13,100,65.625v-31.25
		c0-9.505-3.354-17.611-10.059-24.316C83.236,3.354,75.13,0,65.625,0z" />
				</g>
			</g>
		</g>
		<g transform="translate(280,630) scale(0.35,0.35)">
			<g transform="" style="fill: rgb(0, 0, 0);">
				<g>
					<path d="M100,34.375c0-9.505-3.354-17.611-10.059-24.316C83.236,3.354,75.13,0,65.625,0h-31.25C24.87,0,16.764,3.353,10.059,10.059
		S0,24.87,0,34.375v31.25c0,0.521,0.065,1.303,0.195,2.344H0V100h100V67.969h-0.195c0.132-1.041,0.195-1.822,0.195-2.344V34.375z" />
				</g>
			</g>
		</g>
		<g transform="translate(420,630) scale(0.35,0.35)">
			<g transform="" style="fill: rgb(0, 0, 0);">
				<g>
					<path d="M100,34.375V0H34.375C24.87,0,16.764,3.353,10.059,10.059S0,24.87,0,34.375v31.25c0,9.505,3.353,17.611,10.059,24.316
		C16.765,96.646,24.87,100,34.375,100H100V34.375z" />
				</g>
			</g>
		</g>
		<g transform="translate(455,630) scale(0.35,0.35)">
			<g transform="" style="fill: rgb(0, 0, 0);">
				<rect width="100" height="100" />
			</g>
		</g>
		<g transform="translate(490,630) scale(0.35,0.35)">
			<g transform="" style="fill: rgb(0, 0, 0);">
				<rect width="100" height="100" />
			</g>
		</g>
		<g transform="translate(525,630) scale(0.35,0.35)">
			<g transform="" style="fill: rgb(0, 0, 0);">
				<rect width="100" height="100" />
			</g>
		</g>
		<g transform="translate(630,630) scale(0.35,0.35)">
			<g transform="" style="fill: rgb(0, 0, 0);">
				<g>
					<path d="M100,0H0v65.625c0,9.505,3.353,17.611,10.059,24.316C16.765,96.646,24.87,100,34.375,100H100V0z" />
				</g>
			</g>
		</g>
		<g transform="translate(665,630) scale(0.35,0.35)">
			<g transform="" style="fill: rgb(0, 0, 0);">
				<rect width="100" height="100" />
			</g>
		</g>
		<g transform="translate(875,630) scale(0.35,0.35)">
			<g transform="" style="fill: rgb(0, 0, 0);">
				<g>
					<path d="M100,65.625c0,9.507-3.355,17.611-10.059,24.316C83.236,96.645,75.132,100,65.625,100h-31.25
		c-9.504,0-17.61-3.355-24.315-10.059C3.354,83.236,0,75.132,0,65.625v-31.25c0-9.504,3.353-17.61,10.059-24.315
		C16.766,3.354,24.871,0,34.375,0h31.25c9.508,0,17.613,3.353,24.316,10.059C96.646,16.766,100,24.871,100,34.375V65.625z" />
				</g>
			</g>
		</g>
		<g transform="translate(980,630) scale(0.35,0.35)">
			<g transform="" style="fill: rgb(0, 0, 0);">
				<g>
					<path d="M99.805,32.031H100V0H0v32.031h0.195C0.065,33.073,0,33.854,0,34.375v31.25c0,9.505,3.353,17.611,10.059,24.316
		C16.765,96.646,24.87,100,34.375,100h31.25c9.505,0,17.611-3.354,24.316-10.059C96.646,83.236,100,75.13,100,65.625v-31.25
		C100,33.854,99.937,33.073,99.805,32.031z" />
				</g>
			</g>
		</g>
		<g transform="translate(0,665) scale(0.35,0.35)">
			<g transform="" style="fill: rgb(0, 0, 0);">
				<rect width="100" height="100" />
			</g>
		</g>
		<g transform="translate(70,665) scale(0.35,0.35)">
			<g transform="" style="fill: rgb(0, 0, 0);">
				<g>
					<path d="M100,34.375V0H34.375C24.87,0,16.764,3.353,10.059,10.059S0,24.87,0,34.375V100h100V34.375z" />
				</g>
			</g>
		</g>
		<g transform="translate(105,665) scale(0.35,0.35)">
			<g transform="" style="fill: rgb(0, 0, 0);">
				<g>
					<path d="M100,34.375c0-9.505-3.354-17.611-10.059-24.316C83.236,3.354,75.13,0,65.625,0H0v100h100V34.375z" />
				</g>
			</g>
		</g>
		<g transform="translate(175,665) scale(0.35,0.35)">
			<g transform="" style="fill: rgb(0, 0, 0);">
				<g>
					<path d="M99.805,32.031H100V0H0v32.031h0.195C0.065,33.073,0,33.854,0,34.375v31.25c0,9.505,3.353,17.611,10.059,24.316
		C16.765,96.646,24.87,100,34.375,100h31.25c9.505,0,17.611-3.354,24.316-10.059C96.646,83.236,100,75.13,100,65.625v-31.25
		C100,33.854,99.937,33.073,99.805,32.031z" />
				</g>
			</g>
		</g>
		<g transform="translate(245,665) scale(0.35,0.35)">
			<g transform="" style="fill: rgb(0, 0, 0);">
				<g>
					<path d="M100,34.375V0H34.375C24.87,0,16.764,3.353,10.059,10.059S0,24.87,0,34.375v31.25c0,9.505,3.353,17.611,10.059,24.316
		C16.765,96.646,24.87,100,34.375,100H100V34.375z" />
				</g>
			</g>
		</g>
		<g transform="translate(280,665) scale(0.35,0.35)">
			<g transform="" style="fill: rgb(0, 0, 0);">
				<rect width="100" height="100" />
			</g>
		</g>
		<g transform="translate(350,665) scale(0.35,0.35)">
			<g transform="" style="fill: rgb(0, 0, 0);">
				<g>
					<path d="M100,34.375c0-9.505-3.354-17.611-10.059-24.316C83.236,3.354,75.13,0,65.625,0h-31.25C24.87,0,16.764,3.353,10.059,10.059
		S0,24.87,0,34.375v31.25c0,0.521,0.065,1.303,0.195,2.344H0V100h100V67.969h-0.195c0.132-1.041,0.195-1.822,0.195-2.344V34.375z" />
				</g>
			</g>
		</g>
		<g transform="translate(490,665) scale(0.35,0.35)">
			<g transform="" style="fill: rgb(0, 0, 0);">
				<g>
					<path d="M100,0H0v65.625c0,9.505,3.353,17.611,10.059,24.316C16.765,96.646,24.87,100,34.375,100H100V0z" />
				</g>
			</g>
		</g>
		<g transform="translate(525,665) scale(0.35,0.35)">
			<g transform="" style="fill: rgb(0, 0, 0);">
				<rect width="100" height="100" />
			</g>
		</g>
		<g transform="translate(560,665) scale(0.35,0.35)">
			<g transform="" style="fill: rgb(0, 0, 0);">
				<g>
					<path d="M65.625,0H0v100h65.625c9.505,0,17.611-3.354,24.316-10.059C96.646,83.236,100,75.13,100,65.625v-31.25
		c0-9.505-3.354-17.611-10.059-24.316C83.236,3.354,75.13,0,65.625,0z" />
				</g>
			</g>
		</g>
		<g transform="translate(665,665) scale(0.35,0.35)">
			<g transform="" style="fill: rgb(0, 0, 0);">
				<rect width="100" height="100" />
			</g>
		</g>
		<g transform="translate(700,665) scale(0.35,0.35)">
			<g transform="" style="fill: rgb(0, 0, 0);">
				<g>
					<path d="M100,34.375c0-9.505-3.354-17.611-10.059-24.316C83.236,3.354,75.13,0,65.625,0H0v100h100V34.375z" />
				</g>
			</g>
		</g>
		<g transform="translate(770,665) scale(0.35,0.35)">
			<g transform="" style="fill: rgb(0, 0, 0);">
				<g>
					<path d="M100,34.375c0-9.505-3.354-17.611-10.059-24.316C83.236,3.354,75.13,0,65.625,0h-31.25C24.87,0,16.764,3.353,10.059,10.059
		S0,24.87,0,34.375v31.25c0,0.521,0.065,1.303,0.195,2.344H0V100h100V67.969h-0.195c0.132-1.041,0.195-1.822,0.195-2.344V34.375z" />
				</g>
			</g>
		</g>
		<g transform="translate(0,700) scale(0.35,0.35)">
			<g transform="" style="fill: rgb(0, 0, 0);">
				<g>
					<path d="M99.805,32.031H100V0H0v32.031h0.195C0.065,33.073,0,33.854,0,34.375v31.25c0,9.505,3.353,17.611,10.059,24.316
		C16.765,96.646,24.87,100,34.375,100h31.25c9.505,0,17.611-3.354,24.316-10.059C96.646,83.236,100,75.13,100,65.625v-31.25
		C100,33.854,99.937,33.073,99.805,32.031z" />
				</g>
			</g>
		</g>
		<g transform="translate(70,700) scale(0.35,0.35)">
			<g transform="" style="fill: rgb(0, 0, 0);">
				<g>
					<path d="M100,0H0v65.625c0,9.505,3.353,17.611,10.059,24.316C16.765,96.646,24.87,100,34.375,100H100V0z" />
				</g>
			</g>
		</g>
		<g transform="translate(105,700) scale(0.35,0.35)">
			<g transform="" style="fill: rgb(0, 0, 0);">
				<g>
					<path d="M100,0H0v100h65.625c9.505,0,17.611-3.354,24.316-10.059C96.646,83.236,100,75.13,100,65.625V0z" />
				</g>
			</g>
		</g>
		<g transform="translate(210,700) scale(0.35,0.35)">
			<g transform="" style="fill: rgb(0, 0, 0);">
				<g>
					<path d="M100,65.625c0,9.507-3.355,17.611-10.059,24.316C83.236,96.645,75.132,100,65.625,100h-31.25
		c-9.504,0-17.61-3.355-24.315-10.059C3.354,83.236,0,75.132,0,65.625v-31.25c0-9.504,3.353-17.61,10.059-24.315
		C16.766,3.354,24.871,0,34.375,0h31.25c9.508,0,17.613,3.353,24.316,10.059C96.646,16.766,100,24.871,100,34.375V65.625z" />
				</g>
			</g>
		</g>
		<g transform="translate(280,700) scale(0.35,0.35)">
			<g transform="" style="fill: rgb(0, 0, 0);">
				<rect width="100" height="100" />
			</g>
		</g>
		<g transform="translate(350,700) scale(0.35,0.35)">
			<g transform="" style="fill: rgb(0, 0, 0);">
				<g>
					<path d="M99.805,32.031H100V0H0v32.031h0.195C0.065,33.073,0,33.854,0,34.375v31.25c0,9.505,3.353,17.611,10.059,24.316
		C16.765,96.646,24.87,100,34.375,100h31.25c9.505,0,17.611-3.354,24.316-10.059C96.646,83.236,100,75.13,100,65.625v-31.25
		C100,33.854,99.937,33.073,99.805,32.031z" />
				</g>
			</g>
		</g>
		<g transform="translate(420,700) scale(0.35,0.35)">
			<g transform="" style="fill: rgb(0, 0, 0);">
				<g>
					<path d="M100,65.625c0,9.507-3.355,17.611-10.059,24.316C83.236,96.645,75.132,100,65.625,100h-31.25
		c-9.504,0-17.61-3.355-24.315-10.059C3.354,83.236,0,75.132,0,65.625v-31.25c0-9.504,3.353-17.61,10.059-24.315
		C16.766,3.354,24.871,0,34.375,0h31.25c9.508,0,17.613,3.353,24.316,10.059C96.646,16.766,100,24.871,100,34.375V65.625z" />
				</g>
			</g>
		</g>
		<g transform="translate(595,700) scale(0.35,0.35)">
			<g transform="" style="fill: rgb(0, 0, 0);">
				<g>
					<path d="M100,65.625c0,9.507-3.355,17.611-10.059,24.316C83.236,96.645,75.132,100,65.625,100h-31.25
		c-9.504,0-17.61-3.355-24.315-10.059C3.354,83.236,0,75.132,0,65.625v-31.25c0-9.504,3.353-17.61,10.059-24.315
		C16.766,3.354,24.871,0,34.375,0h31.25c9.508,0,17.613,3.353,24.316,10.059C96.646,16.766,100,24.871,100,34.375V65.625z" />
				</g>
			</g>
		</g>
		<g transform="translate(665,700) scale(0.35,0.35)">
			<g transform="" style="fill: rgb(0, 0, 0);">
				<g>
					<path d="M100,0H0v65.625c0,9.505,3.353,17.611,10.059,24.316C16.765,96.646,24.87,100,34.375,100H100V0z" />
				</g>
			</g>
		</g>
		<g transform="translate(700,700) scale(0.35,0.35)">
			<g transform="" style="fill: rgb(0, 0, 0);">
				<rect width="100" height="100" />
			</g>
		</g>
		<g transform="translate(735,700) scale(0.35,0.35)">
			<g transform="" style="fill: rgb(0, 0, 0);">
				<rect width="100" height="100" />
			</g>
		</g>
		<g transform="translate(770,700) scale(0.35,0.35)">
			<g transform="" style="fill: rgb(0, 0, 0);">
				<rect width="100" height="100" />
			</g>
		</g>
		<g transform="translate(805,700) scale(0.35,0.35)">
			<g transform="" style="fill: rgb(0, 0, 0);">
				<rect width="100" height="100" />
			</g>
		</g>
		<g transform="translate(840,700) scale(0.35,0.35)">
			<g transform="" style="fill: rgb(0, 0, 0);">
				<g>
					<path d="M100,34.375c0-9.505-3.354-17.611-10.059-24.316C83.236,3.354,75.13,0,65.625,0H0v100h100V34.375z" />
				</g>
			</g>
		</g>
		<g transform="translate(910,700) scale(0.35,0.35)">
			<g transform="" style="fill: rgb(0, 0, 0);">
				<g>
					<path d="M100,34.375V0H34.375C24.87,0,16.764,3.353,10.059,10.059S0,24.87,0,34.375v31.25c0,9.505,3.353,17.611,10.059,24.316
		C16.765,96.646,24.87,100,34.375,100H100V34.375z" />
				</g>
			</g>
		</g>
		<g transform="translate(945,700) scale(0.35,0.35)">
			<g transform="" style="fill: rgb(0, 0, 0);">
				<rect width="100" height="100" />
			</g>
		</g>
		<g transform="translate(980,700) scale(0.35,0.35)">
			<g transform="" style="fill: rgb(0, 0, 0);">
				<g>
					<path d="M65.625,0H0v100h65.625c9.505,0,17.611-3.354,24.316-10.059C96.646,83.236,100,75.13,100,65.625v-31.25
		c0-9.505-3.354-17.611-10.059-24.316C83.236,3.354,75.13,0,65.625,0z" />
				</g>
			</g>
		</g>
		<g transform="translate(280,735) scale(0.35,0.35)">
			<g transform="" style="fill: rgb(0, 0, 0);">
				<g>
					<path d="M99.805,32.031H100V0H0v32.031h0.195C0.065,33.073,0,33.854,0,34.375v31.25c0,9.505,3.353,17.611,10.059,24.316
		C16.765,96.646,24.87,100,34.375,100h31.25c9.505,0,17.611-3.354,24.316-10.059C96.646,83.236,100,75.13,100,65.625v-31.25
		C100,33.854,99.937,33.073,99.805,32.031z" />
				</g>
			</g>
		</g>
		<g transform="translate(385,735) scale(0.35,0.35)">
			<g transform="" style="fill: rgb(0, 0, 0);">
				<g>
					<path d="M100,65.625c0,9.507-3.355,17.611-10.059,24.316C83.236,96.645,75.132,100,65.625,100h-31.25
		c-9.504,0-17.61-3.355-24.315-10.059C3.354,83.236,0,75.132,0,65.625v-31.25c0-9.504,3.353-17.61,10.059-24.315
		C16.766,3.354,24.871,0,34.375,0h31.25c9.508,0,17.613,3.353,24.316,10.059C96.646,16.766,100,24.871,100,34.375V65.625z" />
				</g>
			</g>
		</g>
		<g transform="translate(455,735) scale(0.35,0.35)">
			<g transform="" style="fill: rgb(0, 0, 0);">
				<g>
					<path d="M100,34.375c0-9.505-3.354-17.611-10.059-24.316C83.236,3.354,75.13,0,65.625,0h-31.25C24.87,0,16.764,3.353,10.059,10.059
		S0,24.87,0,34.375v31.25c0,0.521,0.065,1.303,0.195,2.344H0V100h100V67.969h-0.195c0.132-1.041,0.195-1.822,0.195-2.344V34.375z" />
				</g>
			</g>
		</g>
		<g transform="translate(525,735) scale(0.35,0.35)">
			<g transform="" style="fill: rgb(0, 0, 0);">
				<g>
					<path d="M100,34.375c0-9.505-3.354-17.611-10.059-24.316C83.236,3.354,75.13,0,65.625,0h-31.25C24.87,0,16.764,3.353,10.059,10.059
		S0,24.87,0,34.375v31.25c0,0.521,0.065,1.303,0.195,2.344H0V100h100V67.969h-0.195c0.132-1.041,0.195-1.822,0.195-2.344V34.375z" />
				</g>
			</g>
		</g>
		<g transform="translate(700,735) scale(0.35,0.35)">
			<g transform="" style="fill: rgb(0, 0, 0);">
				<rect width="100" height="100" />
			</g>
		</g>
		<g transform="translate(840,735) scale(0.35,0.35)">
			<g transform="" style="fill: rgb(0, 0, 0);">
				<rect width="100" height="100" />
			</g>
		</g>
		<g transform="translate(875,735) scale(0.35,0.35)">
			<g transform="" style="fill: rgb(0, 0, 0);">
				<g>
					<path d="M100,34.375c0-9.505-3.354-17.611-10.059-24.316C83.236,3.354,75.13,0,65.625,0H0v100h100V34.375z" />
				</g>
			</g>
		</g>
		<g transform="translate(420,770) scale(0.35,0.35)">
			<g transform="" style="fill: rgb(0, 0, 0);">
				<g>
					<path d="M100,34.375V0H34.375C24.87,0,16.764,3.353,10.059,10.059S0,24.87,0,34.375v31.25c0,9.505,3.353,17.611,10.059,24.316
		C16.765,96.646,24.87,100,34.375,100H100V34.375z" />
				</g>
			</g>
		</g>
		<g transform="translate(455,770) scale(0.35,0.35)">
			<g transform="" style="fill: rgb(0, 0, 0);">
				<rect width="100" height="100" />
			</g>
		</g>
		<g transform="translate(490,770) scale(0.35,0.35)">
			<g transform="" style="fill: rgb(0, 0, 0);">
				<rect width="100" height="100" />
			</g>
		</g>
		<g transform="translate(525,770) scale(0.35,0.35)">
			<g transform="" style="fill: rgb(0, 0, 0);">
				<g>
					<path d="M100,0H0v100h65.625c9.505,0,17.611-3.354,24.316-10.059C96.646,83.236,100,75.13,100,65.625V0z" />
				</g>
			</g>
		</g>
		<g transform="translate(595,770) scale(0.35,0.35)">
			<g transform="" style="fill: rgb(0, 0, 0);">
				<g>
					<path d="M100,34.375V0H34.375C24.87,0,16.764,3.353,10.059,10.059S0,24.87,0,34.375v31.25c0,9.505,3.353,17.611,10.059,24.316
		C16.765,96.646,24.87,100,34.375,100H100V34.375z" />
				</g>
			</g>
		</g>
		<g transform="translate(630,770) scale(0.35,0.35)">
			<g transform="" style="fill: rgb(0, 0, 0);">
				<rect width="100" height="100" />
			</g>
		</g>
		<g transform="translate(665,770) scale(0.35,0.35)">
			<g transform="" style="fill: rgb(0, 0, 0);">
				<rect width="100" height="100" />
			</g>
		</g>
		<g transform="translate(700,770) scale(0.35,0.35)">
			<g transform="" style="fill: rgb(0, 0, 0);">
				<rect width="100" height="100" />
			</g>
		</g>
		<g transform="translate(770,770) scale(0.35,0.35)">
			<g transform="" style="fill: rgb(0, 0, 0);">
				<g>
					<path d="M100,65.625c0,9.507-3.355,17.611-10.059,24.316C83.236,96.645,75.132,100,65.625,100h-31.25
		c-9.504,0-17.61-3.355-24.315-10.059C3.354,83.236,0,75.132,0,65.625v-31.25c0-9.504,3.353-17.61,10.059-24.315
		C16.766,3.354,24.871,0,34.375,0h31.25c9.508,0,17.613,3.353,24.316,10.059C96.646,16.766,100,24.871,100,34.375V65.625z" />
				</g>
			</g>
		</g>
		<g transform="translate(840,770) scale(0.35,0.35)">
			<g transform="" style="fill: rgb(0, 0, 0);">
				<rect width="100" height="100" />
			</g>
		</g>
		<g transform="translate(875,770) scale(0.35,0.35)">
			<g transform="" style="fill: rgb(0, 0, 0);">
				<rect width="100" height="100" />
			</g>
		</g>
		<g transform="translate(910,770) scale(0.35,0.35)">
			<g transform="" style="fill: rgb(0, 0, 0);">
				<g>
					<path d="M65.625,0H0v100h65.625c9.505,0,17.611-3.354,24.316-10.059C96.646,83.236,100,75.13,100,65.625v-31.25
		c0-9.505-3.354-17.611-10.059-24.316C83.236,3.354,75.13,0,65.625,0z" />
				</g>
			</g>
		</g>
		<g transform="translate(315,805) scale(0.35,0.35)">
			<g transform="" style="fill: rgb(0, 0, 0);">
				<g>
					<path d="M100,34.375V0H34.375C24.87,0,16.764,3.353,10.059,10.059S0,24.87,0,34.375v31.25c0,9.505,3.353,17.611,10.059,24.316
		C16.765,96.646,24.87,100,34.375,100H100V34.375z" />
				</g>
			</g>
		</g>
		<g transform="translate(350,805) scale(0.35,0.35)">
			<g transform="" style="fill: rgb(0, 0, 0);">
				<rect width="100" height="100" />
			</g>
		</g>
		<g transform="translate(385,805) scale(0.35,0.35)">
			<g transform="" style="fill: rgb(0, 0, 0);">
				<g>
					<path d="M100,34.375c0-9.505-3.354-17.611-10.059-24.316C83.236,3.354,75.13,0,65.625,0H0v100h100V34.375z" />
				</g>
			</g>
		</g>
		<g transform="translate(455,805) scale(0.35,0.35)">
			<g transform="" style="fill: rgb(0, 0, 0);">
				<rect width="100" height="100" />
			</g>
		</g>
		<g transform="translate(630,805) scale(0.35,0.35)">
			<g transform="" style="fill: rgb(0, 0, 0);">
				<g>
					<path d="M99.805,32.031H100V0H0v32.031h0.195C0.065,33.073,0,33.854,0,34.375v31.25c0,9.505,3.353,17.611,10.059,24.316
		C16.765,96.646,24.87,100,34.375,100h31.25c9.505,0,17.611-3.354,24.316-10.059C96.646,83.236,100,75.13,100,65.625v-31.25
		C100,33.854,99.937,33.073,99.805,32.031z" />
				</g>
			</g>
		</g>
		<g transform="translate(700,805) scale(0.35,0.35)">
			<g transform="" style="fill: rgb(0, 0, 0);">
				<rect width="100" height="100" />
			</g>
		</g>
		<g transform="translate(840,805) scale(0.35,0.35)">
			<g transform="" style="fill: rgb(0, 0, 0);">
				<rect width="100" height="100" />
			</g>
		</g>
		<g transform="translate(945,805) scale(0.35,0.35)">
			<g transform="" style="fill: rgb(0, 0, 0);">
				<g>
					<path d="M100,34.375V0H34.375C24.87,0,16.764,3.353,10.059,10.059S0,24.87,0,34.375V100h100V34.375z" />
				</g>
			</g>
		</g>
		<g transform="translate(980,805) scale(0.35,0.35)">
			<g transform="" style="fill: rgb(0, 0, 0);">
				<g>
					<path d="M100,34.375c0-9.505-3.354-17.611-10.059-24.316C83.236,3.354,75.13,0,65.625,0H0v100h100V34.375z" />
				</g>
			</g>
		</g>
		<g transform="translate(350,840) scale(0.35,0.35)">
			<g transform="" style="fill: rgb(0, 0, 0);">
				<rect width="100" height="100" />
			</g>
		</g>
		<g transform="translate(385,840) scale(0.35,0.35)">
			<g transform="" style="fill: rgb(0, 0, 0);">
				<g>
					<path d="M100,0H0v100h65.625c9.505,0,17.611-3.354,24.316-10.059C96.646,83.236,100,75.13,100,65.625V0z" />
				</g>
			</g>
		</g>
		<g transform="translate(455,840) scale(0.35,0.35)">
			<g transform="" style="fill: rgb(0, 0, 0);">
				<g>
					<path d="M99.805,32.031H100V0H0v32.031h0.195C0.065,33.073,0,33.854,0,34.375v31.25c0,9.505,3.353,17.611,10.059,24.316
		C16.765,96.646,24.87,100,34.375,100h31.25c9.505,0,17.611-3.354,24.316-10.059C96.646,83.236,100,75.13,100,65.625v-31.25
		C100,33.854,99.937,33.073,99.805,32.031z" />
				</g>
			</g>
		</g>
		<g transform="translate(560,840) scale(0.35,0.35)">
			<g transform="" style="fill: rgb(0, 0, 0);">
				<g>
					<path d="M100,34.375c0-9.505-3.354-17.611-10.059-24.316C83.236,3.354,75.13,0,65.625,0h-31.25C24.87,0,16.764,3.353,10.059,10.059
		S0,24.87,0,34.375v31.25c0,0.521,0.065,1.303,0.195,2.344H0V100h100V67.969h-0.195c0.132-1.041,0.195-1.822,0.195-2.344V34.375z" />
				</g>
			</g>
		</g>
		<g transform="translate(665,840) scale(0.35,0.35)">
			<g transform="" style="fill: rgb(0, 0, 0);">
				<g>
					<path d="M100,34.375V0H34.375C24.87,0,16.764,3.353,10.059,10.059S0,24.87,0,34.375v31.25c0,9.505,3.353,17.611,10.059,24.316
		C16.765,96.646,24.87,100,34.375,100H100V34.375z" />
				</g>
			</g>
		</g>
		<g transform="translate(700,840) scale(0.35,0.35)">
			<g transform="" style="fill: rgb(0, 0, 0);">
				<rect width="100" height="100" />
			</g>
		</g>
		<g transform="translate(735,840) scale(0.35,0.35)">
			<g transform="" style="fill: rgb(0, 0, 0);">
				<rect width="100" height="100" />
			</g>
		</g>
		<g transform="translate(770,840) scale(0.35,0.35)">
			<g transform="" style="fill: rgb(0, 0, 0);">
				<rect width="100" height="100" />
			</g>
		</g>
		<g transform="translate(805,840) scale(0.35,0.35)">
			<g transform="" style="fill: rgb(0, 0, 0);">
				<rect width="100" height="100" />
			</g>
		</g>
		<g transform="translate(840,840) scale(0.35,0.35)">
			<g transform="" style="fill: rgb(0, 0, 0);">
				<rect width="100" height="100" />
			</g>
		</g>
		<g transform="translate(875,840) scale(0.35,0.35)">
			<g transform="" style="fill: rgb(0, 0, 0);">
				<g>
					<path d="M100,34.375c0-9.505-3.354-17.611-10.059-24.316C83.236,3.354,75.13,0,65.625,0H0v100h100V34.375z" />
				</g>
			</g>
		</g>
		<g transform="translate(945,840) scale(0.35,0.35)">
			<g transform="" style="fill: rgb(0, 0, 0);">
				<g>
					<path d="M100,0H0v65.625c0,9.505,3.353,17.611,10.059,24.316C16.765,96.646,24.87,100,34.375,100H100V0z" />
				</g>
			</g>
		</g>
		<g transform="translate(980,840) scale(0.35,0.35)">
			<g transform="" style="fill: rgb(0, 0, 0);">
				<rect width="100" height="100" />
			</g>
		</g>
		<g transform="translate(350,875) scale(0.35,0.35)">
			<g transform="" style="fill: rgb(0, 0, 0);">
				<rect width="100" height="100" />
			</g>
		</g>
		<g transform="translate(525,875) scale(0.35,0.35)">
			<g transform="" style="fill: rgb(0, 0, 0);">
				<g>
					<path d="M100,34.375V0H34.375C24.87,0,16.764,3.353,10.059,10.059S0,24.87,0,34.375V100h100V34.375z" />
				</g>
			</g>
		</g>
		<g transform="translate(560,875) scale(0.35,0.35)">
			<g transform="" style="fill: rgb(0, 0, 0);">
				<g>
					<path d="M100,0H0v100h65.625c9.505,0,17.611-3.354,24.316-10.059C96.646,83.236,100,75.13,100,65.625V0z" />
				</g>
			</g>
		</g>
		<g transform="translate(630,875) scale(0.35,0.35)">
			<g transform="" style="fill: rgb(0, 0, 0);">
				<g>
					<path d="M100,34.375c0-9.505-3.354-17.611-10.059-24.316C83.236,3.354,75.13,0,65.625,0h-31.25C24.87,0,16.764,3.353,10.059,10.059
		S0,24.87,0,34.375v31.25c0,0.521,0.065,1.303,0.195,2.344H0V100h100V67.969h-0.195c0.132-1.041,0.195-1.822,0.195-2.344V34.375z" />
				</g>
			</g>
		</g>
		<g transform="translate(735,875) scale(0.35,0.35)">
			<g transform="" style="fill: rgb(0, 0, 0);">
				<g>
					<path d="M99.805,32.031H100V0H0v32.031h0.195C0.065,33.073,0,33.854,0,34.375v31.25c0,9.505,3.353,17.611,10.059,24.316
		C16.765,96.646,24.87,100,34.375,100h31.25c9.505,0,17.611-3.354,24.316-10.059C96.646,83.236,100,75.13,100,65.625v-31.25
		C100,33.854,99.937,33.073,99.805,32.031z" />
				</g>
			</g>
		</g>
		<g transform="translate(875,875) scale(0.35,0.35)">
			<g transform="" style="fill: rgb(0, 0, 0);">
				<rect width="100" height="100" />
			</g>
		</g>
		<g transform="translate(910,875) scale(0.35,0.35)">
			<g transform="" style="fill: rgb(0, 0, 0);">
				<g>
					<path d="M100,34.375c0-9.505-3.354-17.611-10.059-24.316C83.236,3.354,75.13,0,65.625,0H0v100h100V34.375z" />
				</g>
			</g>
		</g>
		<g transform="translate(980,875) scale(0.35,0.35)">
			<g transform="" style="fill: rgb(0, 0, 0);">
				<g>
					<path d="M99.805,32.031H100V0H0v32.031h0.195C0.065,33.073,0,33.854,0,34.375v31.25c0,9.505,3.353,17.611,10.059,24.316
		C16.765,96.646,24.87,100,34.375,100h31.25c9.505,0,17.611-3.354,24.316-10.059C96.646,83.236,100,75.13,100,65.625v-31.25
		C100,33.854,99.937,33.073,99.805,32.031z" />
				</g>
			</g>
		</g>
		<g transform="translate(315,910) scale(0.35,0.35)">
			<g transform="" style="fill: rgb(0, 0, 0);">
				<g>
					<path d="M100,34.375V0H34.375C24.87,0,16.764,3.353,10.059,10.059S0,24.87,0,34.375V100h100V34.375z" />
				</g>
			</g>
		</g>
		<g transform="translate(350,910) scale(0.35,0.35)">
			<g transform="" style="fill: rgb(0, 0, 0);">
				<rect width="100" height="100" />
			</g>
		</g>
		<g transform="translate(420,910) scale(0.35,0.35)">
			<g transform="" style="fill: rgb(0, 0, 0);">
				<g>
					<path d="M100,34.375V0H34.375C24.87,0,16.764,3.353,10.059,10.059S0,24.87,0,34.375V100h100V34.375z" />
				</g>
			</g>
		</g>
		<g transform="translate(455,910) scale(0.35,0.35)">
			<g transform="" style="fill: rgb(0, 0, 0);">
				<rect width="100" height="100" />
			</g>
		</g>
		<g transform="translate(490,910) scale(0.35,0.35)">
			<g transform="" style="fill: rgb(0, 0, 0);">
				<rect width="100" height="100" />
			</g>
		</g>
		<g transform="translate(525,910) scale(0.35,0.35)">
			<g transform="" style="fill: rgb(0, 0, 0);">
				<g>
					<path d="M100,0H0v100h65.625c9.505,0,17.611-3.354,24.316-10.059C96.646,83.236,100,75.13,100,65.625V0z" />
				</g>
			</g>
		</g>
		<g transform="translate(630,910) scale(0.35,0.35)">
			<g transform="" style="fill: rgb(0, 0, 0);">
				<g>
					<path d="M99.805,32.031H100V0H0v32.031h0.195C0.065,33.073,0,33.854,0,34.375v31.25c0,9.505,3.353,17.611,10.059,24.316
		C16.765,96.646,24.87,100,34.375,100h31.25c9.505,0,17.611-3.354,24.316-10.059C96.646,83.236,100,75.13,100,65.625v-31.25
		C100,33.854,99.937,33.073,99.805,32.031z" />
				</g>
			</g>
		</g>
		<g transform="translate(700,910) scale(0.35,0.35)">
			<g transform="" style="fill: rgb(0, 0, 0);">
				<g>
					<path d="M100,65.625c0,9.507-3.355,17.611-10.059,24.316C83.236,96.645,75.132,100,65.625,100h-31.25
		c-9.504,0-17.61-3.355-24.315-10.059C3.354,83.236,0,75.132,0,65.625v-31.25c0-9.504,3.353-17.61,10.059-24.315
		C16.766,3.354,24.871,0,34.375,0h31.25c9.508,0,17.613,3.353,24.316,10.059C96.646,16.766,100,24.871,100,34.375V65.625z" />
				</g>
			</g>
		</g>
		<g transform="translate(770,910) scale(0.35,0.35)">
			<g transform="" style="fill: rgb(0, 0, 0);">
				<g>
					<path d="M100,34.375V0H34.375C24.87,0,16.764,3.353,10.059,10.059S0,24.87,0,34.375V100h100V34.375z" />
				</g>
			</g>
		</g>
		<g transform="translate(805,910) scale(0.35,0.35)">
			<g transform="" style="fill: rgb(0, 0, 0);">
				<rect width="100" height="100" />
			</g>
		</g>
		<g transform="translate(840,910) scale(0.35,0.35)">
			<g transform="" style="fill: rgb(0, 0, 0);">
				<rect width="100" height="100" />
			</g>
		</g>
		<g transform="translate(875,910) scale(0.35,0.35)">
			<g transform="" style="fill: rgb(0, 0, 0);">
				<rect width="100" height="100" />
			</g>
		</g>
		<g transform="translate(910,910) scale(0.35,0.35)">
			<g transform="" style="fill: rgb(0, 0, 0);">
				<rect width="100" height="100" />
			</g>
		</g>
		<g transform="translate(945,910) scale(0.35,0.35)">
			<g transform="" style="fill: rgb(0, 0, 0);">
				<g>
					<path d="M65.625,0H0v100h65.625c9.505,0,17.611-3.354,24.316-10.059C96.646,83.236,100,75.13,100,65.625v-31.25
		c0-9.505-3.354-17.611-10.059-24.316C83.236,3.354,75.13,0,65.625,0z" />
				</g>
			</g>
		</g>
		<g transform="translate(315,945) scale(0.35,0.35)">
			<g transform="" style="fill: rgb(0, 0, 0);">
				<g>
					<path d="M100,0H0v65.625c0,9.505,3.353,17.611,10.059,24.316C16.765,96.646,24.87,100,34.375,100H100V0z" />
				</g>
			</g>
		</g>
		<g transform="translate(350,945) scale(0.35,0.35)">
			<g transform="" style="fill: rgb(0, 0, 0);">
				<rect width="100" height="100" />
			</g>
		</g>
		<g transform="translate(385,945) scale(0.35,0.35)">
			<g transform="" style="fill: rgb(0, 0, 0);">
				<rect width="100" height="100" />
			</g>
		</g>
		<g transform="translate(420,945) scale(0.35,0.35)">
			<g transform="" style="fill: rgb(0, 0, 0);">
				<rect width="100" height="100" />
			</g>
		</g>
		<g transform="translate(455,945) scale(0.35,0.35)">
			<g transform="" style="fill: rgb(0, 0, 0);">
				<rect width="100" height="100" />
			</g>
		</g>
		<g transform="translate(490,945) scale(0.35,0.35)">
			<g transform="" style="fill: rgb(0, 0, 0);">
				<g>
					<path d="M100,0H0v100h65.625c9.505,0,17.611-3.354,24.316-10.059C96.646,83.236,100,75.13,100,65.625V0z" />
				</g>
			</g>
		</g>
		<g transform="translate(735,945) scale(0.35,0.35)">
			<g transform="" style="fill: rgb(0, 0, 0);">
				<g>
					<path d="M100,34.375V0H34.375C24.87,0,16.764,3.353,10.059,10.059S0,24.87,0,34.375V100h100V34.375z" />
				</g>
			</g>
		</g>
		<g transform="translate(770,945) scale(0.35,0.35)">
			<g transform="" style="fill: rgb(0, 0, 0);">
				<rect width="100" height="100" />
			</g>
		</g>
		<g transform="translate(805,945) scale(0.35,0.35)">
			<g transform="" style="fill: rgb(0, 0, 0);">
				<g>
					<path d="M100,0H0v100h65.625c9.505,0,17.611-3.354,24.316-10.059C96.646,83.236,100,75.13,100,65.625V0z" />
				</g>
			</g>
		</g>
		<g transform="translate(875,945) scale(0.35,0.35)">
			<g transform="" style="fill: rgb(0, 0, 0);">
				<rect width="100" height="100" />
			</g>
		</g>
		<g transform="translate(910,945) scale(0.35,0.35)">
			<g transform="" style="fill: rgb(0, 0, 0);">
				<rect width="100" height="100" />
			</g>
		</g>
		<g transform="translate(980,945) scale(0.35,0.35)">
			<g transform="" style="fill: rgb(0, 0, 0);">
				<g>
					<path d="M100,65.625c0,9.507-3.355,17.611-10.059,24.316C83.236,96.645,75.132,100,65.625,100h-31.25
		c-9.504,0-17.61-3.355-24.315-10.059C3.354,83.236,0,75.132,0,65.625v-31.25c0-9.504,3.353-17.61,10.059-24.315
		C16.766,3.354,24.871,0,34.375,0h31.25c9.508,0,17.613,3.353,24.316,10.059C96.646,16.766,100,24.871,100,34.375V65.625z" />
				</g>
			</g>
		</g>
		<g transform="translate(280,980) scale(0.35,0.35)">
			<g transform="" style="fill: rgb(0, 0, 0);">
				<g>
					<path d="M100,65.625c0,9.507-3.355,17.611-10.059,24.316C83.236,96.645,75.132,100,65.625,100h-31.25
		c-9.504,0-17.61-3.355-24.315-10.059C3.354,83.236,0,75.132,0,65.625v-31.25c0-9.504,3.353-17.61,10.059-24.315
		C16.766,3.354,24.871,0,34.375,0h31.25c9.508,0,17.613,3.353,24.316,10.059C96.646,16.766,100,24.871,100,34.375V65.625z" />
				</g>
			</g>
		</g>
		<g transform="translate(420,980) scale(0.35,0.35)">
			<g transform="" style="fill: rgb(0, 0, 0);">
				<g>
					<path d="M99.805,32.031H100V0H0v32.031h0.195C0.065,33.073,0,33.854,0,34.375v31.25c0,9.505,3.353,17.611,10.059,24.316
		C16.765,96.646,24.87,100,34.375,100h31.25c9.505,0,17.611-3.354,24.316-10.059C96.646,83.236,100,75.13,100,65.625v-31.25
		C100,33.854,99.937,33.073,99.805,32.031z" />
				</g>
			</g>
		</g>
		<g transform="translate(525,980) scale(0.35,0.35)">
			<g transform="" style="fill: rgb(0, 0, 0);">
				<g>
					<path d="M100,34.375V0H34.375C24.87,0,16.764,3.353,10.059,10.059S0,24.87,0,34.375v31.25c0,9.505,3.353,17.611,10.059,24.316
		C16.765,96.646,24.87,100,34.375,100H100V34.375z" />
				</g>
			</g>
		</g>
		<g transform="translate(560,980) scale(0.35,0.35)">
			<g transform="" style="fill: rgb(0, 0, 0);">
				<rect width="100" height="100" />
			</g>
		</g>
		<g transform="translate(595,980) scale(0.35,0.35)">
			<g transform="" style="fill: rgb(0, 0, 0);">
				<g>
					<path d="M65.625,0H0v100h65.625c9.505,0,17.611-3.354,24.316-10.059C96.646,83.236,100,75.13,100,65.625v-31.25
		c0-9.505-3.354-17.611-10.059-24.316C83.236,3.354,75.13,0,65.625,0z" />
				</g>
			</g>
		</g>
		<g transform="translate(665,980) scale(0.35,0.35)">
			<g transform="" style="fill: rgb(0, 0, 0);">
				<g>
					<path d="M100,65.625c0,9.507-3.355,17.611-10.059,24.316C83.236,96.645,75.132,100,65.625,100h-31.25
		c-9.504,0-17.61-3.355-24.315-10.059C3.354,83.236,0,75.132,0,65.625v-31.25c0-9.504,3.353-17.61,10.059-24.315
		C16.766,3.354,24.871,0,34.375,0h31.25c9.508,0,17.613,3.353,24.316,10.059C96.646,16.766,100,24.871,100,34.375V65.625z" />
				</g>
			</g>
		</g>
		<g transform="translate(735,980) scale(0.35,0.35)">
			<g transform="" style="fill: rgb(0, 0, 0);">
				<g>
					<path d="M99.805,32.031H100V0H0v32.031h0.195C0.065,33.073,0,33.854,0,34.375v31.25c0,9.505,3.353,17.611,10.059,24.316
		C16.765,96.646,24.87,100,34.375,100h31.25c9.505,0,17.611-3.354,24.316-10.059C96.646,83.236,100,75.13,100,65.625v-31.25
		C100,33.854,99.937,33.073,99.805,32.031z" />
				</g>
			</g>
		</g>
		<g transform="translate(840,980) scale(0.35,0.35)">
			<g transform="" style="fill: rgb(0, 0, 0);">
				<g>
					<path d="M100,34.375V0H34.375C24.87,0,16.764,3.353,10.059,10.059S0,24.87,0,34.375v31.25c0,9.505,3.353,17.611,10.059,24.316
		C16.765,96.646,24.87,100,34.375,100H100V34.375z" />
				</g>
			</g>
		</g>
		<g transform="translate(875,980) scale(0.35,0.35)">
			<g transform="" style="fill: rgb(0, 0, 0);">
				<rect width="100" height="100" />
			</g>
		</g>
		<g transform="translate(910,980) scale(0.35,0.35)">
			<g transform="" style="fill: rgb(0, 0, 0);">
				<g>
					<path d="M100,0H0v100h65.625c9.505,0,17.611-3.354,24.316-10.059C96.646,83.236,100,75.13,100,65.625V0z" />
				</g>
			</g>
		</g>
		<g transform="translate(0,0) scale(2.45, 2.45)">
			<g transform=" translate(0,100) scale(1,-1) " style="fill: rgb(0, 0, 0);">
				<g>
					<path style="fill:none;" d="M33.78,85H85V15H15.004l0.016,50.855C15.02,76.414,23.436,85,33.78,85z" />
					<path d="M100,100V65.859V34.141C100,25.65,100,0,100,0S76.46,0,66.25,0H0l0.02,65.859C0.02,84.68,15.16,100,33.78,100h32.47H100z
		 M85,85H33.78c-10.344,0-18.76-8.586-18.76-19.145L15.004,15H85V85z" />
				</g>
			</g>
		</g>
		<g transform="translate(770,0) scale(2.45, 2.45)">
			<g transform=" translate(0,100) scale(1,-1)  translate(100, 0) scale(-1,1) " style="fill: rgb(0, 0, 0);">
				<g>
					<path style="fill:none;" d="M33.78,85H85V15H15.004l0.016,50.855C15.02,76.414,23.436,85,33.78,85z" />
					<path d="M100,100V65.859V34.141C100,25.65,100,0,100,0S76.46,0,66.25,0H0l0.02,65.859C0.02,84.68,15.16,100,33.78,100h32.47H100z
		 M85,85H33.78c-10.344,0-18.76-8.586-18.76-19.145L15.004,15H85V85z" />
				</g>
			</g>
		</g>
		<g transform="translate(0,770) scale(2.45, 2.45)">
			<g transform="" style="fill: rgb(0, 0, 0);">
				<g>
					<path style="fill:none;" d="M33.78,85H85V15H15.004l0.016,50.855C15.02,76.414,23.436,85,33.78,85z" />
					<path d="M100,100V65.859V34.141C100,25.65,100,0,100,0S76.46,0,66.25,0H0l0.02,65.859C0.02,84.68,15.16,100,33.78,100h32.47H100z
		 M85,85H33.78c-10.344,0-18.76-8.586-18.76-19.145L15.004,15H85V85z" />
				</g>
			</g>
		</g>
		<g transform="translate(70,70) scale(1.05, 1.05)">
			<g transform=" translate(0,100) scale(1,-1) " style="fill: rgb(0, 0, 0);">
				<path d="M100.061,99.984V0h-100l0.028,72.369C0.088,87.602,12.27,100,27.226,100h45.528c4.682,0,11.508,0,17.171-0.016
	C95.574,99.984,100.061,99.984,100.061,99.984z" />
			</g>
		</g>
		<g transform="translate(840,70) scale(1.05, 1.05)">
			<g transform=" translate(0,100) scale(1,-1)  translate(100, 0) scale(-1,1) " style="fill: rgb(0, 0, 0);">
				<path d="M100.061,99.984V0h-100l0.028,72.369C0.088,87.602,12.27,100,27.226,100h45.528c4.682,0,11.508,0,17.171-0.016
	C95.574,99.984,100.061,99.984,100.061,99.984z" />
			</g>
		</g>
		<g transform="translate(70,840) scale(1.05, 1.05)">
			<g transform="" style="fill: rgb(0, 0, 0);">
				<path d="M100.061,99.984V0h-100l0.028,72.369C0.088,87.602,12.27,100,27.226,100h45.528c4.682,0,11.508,0,17.171-0.016
	C95.574,99.984,100.061,99.984,100.061,99.984z" />
			</g>
		</g>
	</g>
</svg>