<svg xmlns="http://www.w3.org/2000/svg" viewBox="0 0 654.27 39.6"><defs><style>.cls-1{fill:lightblue;}</style></defs><g id="Layer_2" data-name="Layer 2"><g id="Layer_1-2" data-name="Layer 1"><path class="cls-1" d="M627,6.9C613.3,6.9,613.3,0,599.65,0S586,6.9,572.34,6.9,558.69,0,545,0s-13.65,6.9-27.31,6.9S504.07,0,490.42,0,476.76,6.9,463.1,6.9h-.22C449.5,6.8,449.4,0,435.85,0h-.06c-13.64,0-13.65,6.89-27.28,6.9S394.87,0,381.23,0h-.06c-13.64,0-13.65,6.88-27.28,6.89h-.15c-.47,0-.91,0-1.35,0l-.63,0-.71,0C340.2,5.89,339.23,0,326.61,0,313.16,0,313,6.69,299.9,6.89,286.75,6.72,286.57,0,273.09,0H272c-13.47,0-13.67,6.7-26.77,6.89C232.14,6.7,231.94,0,218.47,0h-1.09c-13.47,0-13.67,6.7-26.76,6.89C177.52,6.7,177.32,0,163.86,0h-1.11C149.29,0,149.09,6.7,136,6.89,122.9,6.7,122.71,0,109.24,0,95.59,0,95.59,6.9,81.93,6.9S68.28,0,54.62,0,41,6.9,27.31,6.9,13.66,0,0,0V39.6H654.27V0C640.61,0,640.61,6.9,627,6.9Z"/></g></g></svg>