<svg xmlns="http://www.w3.org/2000/svg" xmlns:xlink="http://www.w3.org/1999/xlink" viewBox="0 0 165.23 89.04"><defs><style>.cls-1{fill:url(#linear-gradient);}.cls-2{fill:url(#linear-gradient-2);}.cls-3{fill:url(#linear-gradient-3);}.cls-4{fill:url(#linear-gradient-4);}.cls-5{fill:url(#linear-gradient-5);}.cls-6{fill:url(#linear-gradient-6);}.cls-7{fill:url(#linear-gradient-7);}.cls-8{fill:url(#linear-gradient-8);}.cls-9{fill:url(#linear-gradient-9);}.cls-10{fill:url(#linear-gradient-10);}.cls-11{fill:url(#linear-gradient-11);}.cls-12{fill:url(#linear-gradient-12);}.cls-13{fill:url(#linear-gradient-13);}.cls-14{fill:url(#linear-gradient-14);}.cls-15{fill:url(#linear-gradient-15);}.cls-16{fill:url(#linear-gradient-16);}</style><linearGradient id="linear-gradient" x1="-0.38" y1="28.43" x2="39.69" y2="51.49" gradientUnits="userSpaceOnUse"><stop offset="0" stop-color="#e64e79"/><stop offset="0.28" stop-color="#f8bfc6"/><stop offset="0.75" stop-color="#f8c7c6"/><stop offset="1" stop-color="#eb6363"/></linearGradient><linearGradient id="linear-gradient-2" x1="0.14" y1="45.64" x2="64.85" y2="45.64" gradientUnits="userSpaceOnUse"><stop offset="0" stop-color="#e64573"/><stop offset="0.02" stop-color="#e74a76"/><stop offset="0.17" stop-color="#ee7391"/><stop offset="0.3" stop-color="#f491a4"/><stop offset="0.42" stop-color="#f7a3b0"/><stop offset="0.5" stop-color="#f8aab4"/><stop offset="0.59" stop-color="#f7a3ac"/><stop offset="0.73" stop-color="#f48e95"/><stop offset="0.9" stop-color="#ee6d70"/><stop offset="1" stop-color="#eb5858"/></linearGradient><linearGradient id="linear-gradient-3" x1="1.66" y1="74.4" x2="72.3" y2="74.4" xlink:href="#linear-gradient"/><linearGradient id="linear-gradient-4" x1="1.6" y1="79.36" x2="70.31" y2="79.36" xlink:href="#linear-gradient-2"/><linearGradient id="linear-gradient-5" x1="22.91" y1="29.04" x2="72.2" y2="29.04" xlink:href="#linear-gradient-2"/><linearGradient id="linear-gradient-6" x1="34.39" y1="2.48" x2="69.57" y2="53.23" xlink:href="#linear-gradient"/><linearGradient id="linear-gradient-7" x1="34.91" y1="30.65" x2="79.83" y2="62.09" gradientUnits="userSpaceOnUse"><stop offset="0" stop-color="#e25b90"/><stop offset="0.29" stop-color="#f8b7d4"/><stop offset="0.75" stop-color="#f8b4d4"/><stop offset="1" stop-color="#e35a90"/></linearGradient><linearGradient id="linear-gradient-8" x1="39.61" y1="38.77" x2="77.38" y2="71.35" gradientUnits="userSpaceOnUse"><stop offset="0" stop-color="#e64e79"/><stop offset="0.05" stop-color="#e95f84"/><stop offset="0.19" stop-color="#ef88a1"/><stop offset="0.32" stop-color="#f4a6b5"/><stop offset="0.42" stop-color="#f7b8c2"/><stop offset="0.5" stop-color="#f8bfc6"/><stop offset="0.58" stop-color="#f7b7be"/><stop offset="0.72" stop-color="#f4a2a7"/><stop offset="0.88" stop-color="#ef8082"/><stop offset="1" stop-color="#eb6363"/></linearGradient><linearGradient id="linear-gradient-9" x1="3342.22" y1="28.43" x2="3382.3" y2="51.49" gradientTransform="matrix(-1, 0, 0, 1, 3507.83, 0)" xlink:href="#linear-gradient"/><linearGradient id="linear-gradient-10" x1="3342.74" y1="45.64" x2="3407.46" y2="45.64" gradientTransform="matrix(-1, 0, 0, 1, 3507.83, 0)" xlink:href="#linear-gradient-2"/><linearGradient id="linear-gradient-11" x1="3344.26" y1="74.4" x2="3414.9" y2="74.4" gradientTransform="matrix(-1, 0, 0, 1, 3507.83, 0)" xlink:href="#linear-gradient"/><linearGradient id="linear-gradient-12" x1="3344.21" y1="79.36" x2="3412.92" y2="79.36" gradientTransform="matrix(-1, 0, 0, 1, 3507.83, 0)" xlink:href="#linear-gradient-2"/><linearGradient id="linear-gradient-13" x1="3377" y1="2.48" x2="3412.17" y2="53.23" gradientTransform="matrix(-1, 0, 0, 1, 3507.83, 0)" xlink:href="#linear-gradient"/><linearGradient id="linear-gradient-14" x1="3377.52" y1="30.65" x2="3422.43" y2="62.09" gradientTransform="matrix(-1, 0, 0, 1, 3507.83, 0)" xlink:href="#linear-gradient-7"/><linearGradient id="linear-gradient-15" x1="3382.21" y1="38.77" x2="3419.98" y2="71.35" gradientTransform="matrix(-1, 0, 0, 1, 3507.83, 0)" xlink:href="#linear-gradient-8"/><linearGradient id="linear-gradient-16" x1="81.64" y1="9.31" x2="82.22" y2="52.27" gradientUnits="userSpaceOnUse"><stop offset="0" stop-color="#e64e79"/><stop offset="0.05" stop-color="#e95f84"/><stop offset="0.2" stop-color="#ef8ca0"/><stop offset="0.34" stop-color="#f4acb5"/><stop offset="0.45" stop-color="#f7c0c1"/><stop offset="0.53" stop-color="#f8c7c6"/><stop offset="0.66" stop-color="#f8c4c3"/><stop offset="0.75" stop-color="#f6bbbb"/><stop offset="0.82" stop-color="#f5acac"/><stop offset="0.89" stop-color="#f29797"/><stop offset="0.95" stop-color="#ee7c7c"/><stop offset="1" stop-color="#eb6363"/></linearGradient></defs><g id="Layer_2" data-name="Layer 2"><g id="OBJECTS"><path class="cls-1" d="M57.12,64.73a68.76,68.76,0,0,1-17.68-2.22,67,67,0,0,1-13.78-4.82A52.9,52.9,0,0,1,7.72,43.52a40.1,40.1,0,0,1-7-13.75C.48,29.13.28,28.5.1,27.86s-.16-.64.47-.71a23.48,23.48,0,0,1,6.21.26,109.59,109.59,0,0,1,11.33,2.66A86.33,86.33,0,0,1,37.81,38c6.15,3.32,12.24,6.75,18.47,9.9,3.54,1.79,7.11,3.52,10.67,5.27,2.66,1.3,5.26,2.73,7.85,4.17a6,6,0,0,1,1,.68,1.25,1.25,0,0,1,.06,2,4.44,4.44,0,0,1-1.16.8A31,31,0,0,1,68.93,63,38.62,38.62,0,0,1,57.12,64.73Z"/><path class="cls-2" d="M44.6,63.39c-4.19-.13-8.15-1.57-12.1-2.88A55.06,55.06,0,0,1,12.05,48.24,40.39,40.39,0,0,1,.77,30.08C.59,29.5.41,28.92.24,28.33c0-.15-.19-.36,0-.46s.33.12.46.24.54.48.8.73a103.61,103.61,0,0,0,9.23,7.64c6.55,4.81,13.23,9.43,20.61,12.94a102.26,102.26,0,0,0,25,8.17,44.58,44.58,0,0,0,6.52.75,9.88,9.88,0,0,1,1.08.11c.58.09.89.36,1,.78s-.15.75-.71,1-1.32.56-2,.79a40.84,40.84,0,0,1-9.84,2A31.11,31.11,0,0,1,44.6,63.39Z"/><path class="cls-3" d="M32.45,89A36.72,36.72,0,0,1,12.17,83.3a32.39,32.39,0,0,1-7.88-6.84A12.71,12.71,0,0,1,1.74,72a.93.93,0,0,1,.36-1.21c.76-.51,1.5-1.06,2.27-1.55a46.89,46.89,0,0,1,11.2-5.58,91.52,91.52,0,0,1,11.77-2.91,59.17,59.17,0,0,1,13.08-.94A126.84,126.84,0,0,1,60,62.22a79.88,79.88,0,0,1,8.64,2.08c.87.28,1.72.62,2.57,1,1.14.48,1.32,1.09.68,2.15A58.14,58.14,0,0,1,64.5,76.9C59.41,82.34,53,85.5,46,87.48a45.41,45.41,0,0,1-8.61,1.35C35.72,89,34.09,89,32.45,89Z"/><path class="cls-4" d="M32.12,89a33.44,33.44,0,0,1-14.07-2.68A34.75,34.75,0,0,1,4.32,76.5a12,12,0,0,1-2.55-4.44c-.08-.28-.32-.63,0-.84s.53.16.75.34a21.38,21.38,0,0,0,6.84,3.52,56.35,56.35,0,0,0,12.52,2.55,148.24,148.24,0,0,0,20.86.47,71.46,71.46,0,0,0,13.72-2,42.29,42.29,0,0,0,13-6c.25-.17.53-.58.83-.32s-.21.52-.39.75c-3.32,4.37-6.84,8.56-11.52,11.54a41.81,41.81,0,0,1-17.91,6.47A64.16,64.16,0,0,1,32.12,89Z"/><path class="cls-5" d="M23,10.45a24.72,24.72,0,0,1,.3-5.23c0-.2-.07-.52.21-.56s.33.27.44.45A14.47,14.47,0,0,1,25.31,8c.67,1.91,1.32,3.83,2,5.74a69.75,69.75,0,0,0,5.47,12.11A42.54,42.54,0,0,0,44.76,39,133.57,133.57,0,0,0,59.29,48,40,40,0,0,0,71.21,52.3a2.84,2.84,0,0,1,.72.2c.37.19.35.56,0,.78a1,1,0,0,1-.64.13c-.56,0-9-.07-20.3-4.56A49.05,49.05,0,0,1,27.56,28.33a34.16,34.16,0,0,1-4.42-13.16A24,24,0,0,1,23,10.45Z"/><path class="cls-6" d="M36.58,7.68c0-1.55,0-3.11.11-4.66.07-.89.27-1.75.42-2.62,0-.15,0-.36.23-.4s.22.15.3.26A88.34,88.34,0,0,0,50.8,14.09c.9.79,1.76,1.61,2.67,2.38a30.91,30.91,0,0,1,5.14,5.64,86.83,86.83,0,0,1,6.48,10.26c2,3.7,4,7.36,5.82,11.12.39.8.83,1.57,1.28,2.34a17.75,17.75,0,0,0,5.56,6c.21.15.6.27.46.6s-.55.22-.81.13c-2.49-.89-5.14-1.12-7.66-1.87a45.55,45.55,0,0,1-15.47-8.23A56.41,56.41,0,0,1,45,33a40.72,40.72,0,0,1-8-18.4A37.65,37.65,0,0,1,36.58,7.68Z"/><path class="cls-7" d="M67.16,60.05c-10.73-.42-19-4.69-24.55-13.3a16.49,16.49,0,0,1-2.4-7.52,19.87,19.87,0,0,1,.19-5.71,9.37,9.37,0,0,1,1.09-2.81c.41-.71.55-.79,1.44-.66a10.9,10.9,0,0,1,3.44,1.19,40.57,40.57,0,0,1,6.83,4.47C56.12,38.06,59,40.49,61.71,43a38.46,38.46,0,0,0,10,6.58,45.45,45.45,0,0,0,4.19,1.94,19.49,19.49,0,0,0,9,1c.15,0,.32-.09.43,0s0,.31-.1.44c1,1.42.67,4-.53,4.77-3.75,2.4-10.33,1.82-14.87,2.13C69,60,68.09,60.05,67.16,60.05Z"/><path class="cls-8" d="M60.8,74.91a26.22,26.22,0,0,1-18.68-8.19A18.66,18.66,0,0,1,37,55.44a9.77,9.77,0,0,1,3.69-8.74c.47-.42.51-.39.93,0a17.22,17.22,0,0,0,4.12,2.92A35.3,35.3,0,0,0,55.33,53,52.75,52.75,0,0,0,63.64,54,68.1,68.1,0,0,1,73,55a46.59,46.59,0,0,1,6.24,1.75,14.15,14.15,0,0,0,2.65.69,4.94,4.94,0,0,0,2.06-.09,2.41,2.41,0,0,0,1.75-3.08,6,6,0,0,0-.44-1.16c-.1-.18-.14-.4.08-.51a.41.41,0,0,1,.56.23,6.73,6.73,0,0,1,.49,1.58A8.85,8.85,0,0,1,85.17,61a37.76,37.76,0,0,1-5,6.5,19.64,19.64,0,0,1-4.89,3.7A32,32,0,0,1,60.8,74.91Z"/><path class="cls-9" d="M108.1,64.73a68.65,68.65,0,0,0,17.68-2.22,66.92,66.92,0,0,0,13.79-4.82A52.86,52.86,0,0,0,157.5,43.52a40.12,40.12,0,0,0,7.06-13.75l.57-1.91c.18-.62.16-.64-.48-.71a23.52,23.52,0,0,0-6.21.26,110,110,0,0,0-11.32,2.66A86.58,86.58,0,0,0,127.41,38c-6.14,3.32-12.23,6.75-18.47,9.9-3.53,1.79-7.1,3.52-10.66,5.27-2.66,1.3-5.26,2.73-7.85,4.17a6.5,6.5,0,0,0-1.05.68,1.25,1.25,0,0,0,0,2,4.44,4.44,0,0,0,1.16.8A30.71,30.71,0,0,0,96.3,63,38.56,38.56,0,0,0,108.1,64.73Z"/><path class="cls-10" d="M120.63,63.39c4.19-.13,8.15-1.57,12.09-2.88a55,55,0,0,0,20.46-12.27,40.39,40.39,0,0,0,11.28-18.16c.17-.58.35-1.16.53-1.75,0-.15.18-.36,0-.46s-.33.12-.46.24c-.28.23-.54.48-.8.73a105.06,105.06,0,0,1-9.23,7.64c-6.55,4.81-13.23,9.43-20.61,12.94a102.4,102.4,0,0,1-25,8.17,44.72,44.72,0,0,1-6.53.75,9.46,9.46,0,0,0-1.07.11c-.58.09-.9.36-1,.78s.16.75.71,1,1.33.56,2,.79a40.75,40.75,0,0,0,9.84,2A31,31,0,0,0,120.63,63.39Z"/><path class="cls-11" d="M132.78,89a36.77,36.77,0,0,0,20.28-5.73,32.39,32.39,0,0,0,7.88-6.84A12.87,12.87,0,0,0,163.49,72a.93.93,0,0,0-.37-1.21c-.75-.51-1.49-1.06-2.26-1.55a47,47,0,0,0-11.21-5.58,91.11,91.11,0,0,0-11.77-2.91,59,59,0,0,0-13.07-.94,126.84,126.84,0,0,0-19.62,2.39,80.62,80.62,0,0,0-8.65,2.08c-.86.28-1.72.62-2.56,1-1.14.48-1.33,1.09-.68,2.15a58.14,58.14,0,0,0,7.43,9.48c5.09,5.44,11.48,8.6,18.54,10.58a45.43,45.43,0,0,0,8.6,1.35C129.51,89,131.14,89,132.78,89Z"/><path class="cls-12" d="M133.11,89a33.39,33.39,0,0,0,14.06-2.68,34.71,34.71,0,0,0,13.74-9.83,12.1,12.1,0,0,0,2.55-4.44c.08-.28.32-.63,0-.84s-.53.16-.75.34a21.38,21.38,0,0,1-6.84,3.52,56.35,56.35,0,0,1-12.52,2.55,148.27,148.27,0,0,1-20.86.47,71.46,71.46,0,0,1-13.72-2,42.29,42.29,0,0,1-13-6c-.25-.17-.53-.58-.83-.32s.21.52.39.75c3.32,4.37,6.84,8.56,11.51,11.54a41.85,41.85,0,0,0,17.92,6.47A64.16,64.16,0,0,0,133.11,89Z"/><path class="cls-13" d="M128.65,7.68c0-1.55,0-3.11-.12-4.66A25.52,25.52,0,0,0,128.11.4c0-.15,0-.36-.23-.4s-.21.15-.29.26a88.34,88.34,0,0,1-13.16,13.83c-.9.79-1.76,1.61-2.67,2.38a30.56,30.56,0,0,0-5.14,5.64,86.9,86.9,0,0,0-6.49,10.26c-1.95,3.7-4,7.36-5.81,11.12-.39.8-.83,1.57-1.28,2.34a17.75,17.75,0,0,1-5.56,6c-.22.15-.6.27-.47.6s.55.22.82.13c2.49-.89,5.13-1.12,7.66-1.87A45.41,45.41,0,0,0,111,42.43,56,56,0,0,0,120.22,33a40.63,40.63,0,0,0,8.06-18.4A37.65,37.65,0,0,0,128.65,7.68Z"/><path class="cls-14" d="M98.07,60.05c10.73-.42,19-4.69,24.55-13.3A16.6,16.6,0,0,0,125,39.23a19.52,19.52,0,0,0-.19-5.71,9.09,9.09,0,0,0-1.08-2.81c-.41-.71-.55-.79-1.44-.66a10.9,10.9,0,0,0-3.44,1.19A40.57,40.57,0,0,0,112,35.71c-2.92,2.35-5.77,4.78-8.52,7.31a38.24,38.24,0,0,1-10,6.58,45.45,45.45,0,0,1-4.19,1.94,19.5,19.5,0,0,1-9,1c-.15,0-.32-.09-.43,0s0,.31.1.44c-1,1.42-.67,4,.53,4.77,3.74,2.4,10.32,1.82,14.86,2.13C96.24,60,97.14,60.05,98.07,60.05Z"/><path class="cls-15" d="M104.43,74.91a26.22,26.22,0,0,0,18.68-8.19,18.59,18.59,0,0,0,5.16-11.28,9.74,9.74,0,0,0-3.68-8.74c-.48-.42-.51-.39-.93,0a17.08,17.08,0,0,1-4.13,2.92A35.12,35.12,0,0,1,109.9,53,52.75,52.75,0,0,1,101.59,54a67.94,67.94,0,0,0-9.34.94A46.59,46.59,0,0,0,86,56.72a14.15,14.15,0,0,1-2.65.69,4.94,4.94,0,0,1-2.06-.09,2.41,2.41,0,0,1-1.75-3.08A6,6,0,0,1,80,53.08c.1-.18.14-.4-.09-.51a.4.4,0,0,0-.55.23,6.29,6.29,0,0,0-.49,1.58A8.81,8.81,0,0,0,80.06,61a37.27,37.27,0,0,0,5,6.5A19.46,19.46,0,0,0,90,71.2,32,32,0,0,0,104.43,74.91Z"/><path class="cls-16" d="M82.17,53.07A18.37,18.37,0,0,1,74,51.38a14.81,14.81,0,0,1-4.52-3.33A11.42,11.42,0,0,1,67,43.79,19,19,0,0,1,66,35a21.69,21.69,0,0,1,6-12c2.47-2.62,5.07-5.13,7.69-7.6a13.37,13.37,0,0,0,3.1-4c.16-.35.29-.35.5,0l.08.15a34.75,34.75,0,0,0,5.79,8.18c1.65,1.91,3.29,3.83,4.79,5.86a22.47,22.47,0,0,1,3.57,6.82A16.24,16.24,0,0,1,96,45a14.76,14.76,0,0,1-9.53,7.59A13.5,13.5,0,0,1,82.17,53.07Z"/></g></g></svg>